<?xml version="1.0" encoding="UTF-8"?>
<svg enable-background="new 0 0 32 32" version="1.1" viewBox="0 0 32 32" xml:space="preserve" xmlns="http://www.w3.org/2000/svg">
<g transform="translate(0 -2.4249)"><g transform="translate(-12.499 4.4866)"><rect x="12.999" y="15.013" width="9" height="9" fill="none" stroke="#f7941e"/><g transform="translate(-20.022 -1.5293)"><path transform="translate(20.1 1.5293)" d="m17.469 16.375-3.2188 3.2188 3.2188 3.2188v-2.125h3.0625l0.0625-1.0938-0.0625-1.0938h-3.0625v-2.125z"/></g></g><g transform="matrix(0 -1 1 0 -3.5134 41.499)"><rect x="12.999" y="15.013" width="9" height="9" fill="none" stroke="#f7941e"/><g transform="translate(-20.022 -1.5293)"><path transform="translate(20.1 1.5293)" d="m17.469 16.375-3.2188 3.2188 3.2188 3.2188v-2.125h3.0625l0.0625-1.0938-0.0625-1.0938h-3.0625v-2.125z"/></g></g><g transform="matrix(-1 0 0 -1 44.499 43.513)"><rect x="12.999" y="15.013" width="9" height="9" fill="none" stroke="#f7941e"/><g transform="translate(-20.022 -1.5293)"><path transform="translate(20.1 1.5293)" d="m17.469 16.375-3.2188 3.2188 3.2188 3.2188v-2.125h3.0625l0.0625-1.0938-0.0625-1.0938h-3.0625v-2.125z"/></g></g><g transform="matrix(0 1 -1 0 35.513 -4.6495)"><rect x="12.999" y="15.013" width="9" height="9" fill="none" stroke="#f7941e"/><g transform="translate(-20.022 -1.5293)"><path transform="translate(20.1 1.5293)" d="m17.469 16.375-3.2188 3.2188 3.2188 3.2188v-2.125h3.0625l0.0625-1.0938-0.0625-1.0938h-3.0625v-2.125z"/></g></g></g></svg>
