<?xml version="1.0" encoding="UTF-8"?>
<svg version="1.1" viewBox="0 0 32 32" xml:space="preserve" xmlns="http://www.w3.org/2000/svg"><path d="m10.041 23.61c-0.24903 0.58659-0.65577 0.87988-1.2202 0.87988-0.79688 0-1.2119-0.48421-1.2451-1.4526-0.69174 0.99056-1.6546 1.4858-2.8887 1.4858-0.74707 0-1.3696-0.19645-1.8677-0.58936-0.53125-0.43164-0.79688-1.0099-0.79688-1.7349-9e-7 -1.7874 1.5246-2.7752 4.5737-2.9634l0.86328-0.0498v-0.30713c-6.4e-6 -1.7044-0.6696-2.5566-2.0088-2.5566-0.89095 8e-6 -1.4969 0.29607-1.8179 0.88818 0.32096 0.04981 0.48144 0.25456 0.48145 0.61426-3e-6 0.48698-0.24903 0.73047-0.74707 0.73047-0.54785 6e-6 -0.82178-0.27669-0.82178-0.83008-1.5e-6 -0.46484 0.26009-0.89094 0.78027-1.2783 0.61979-0.46484 1.3586-0.69726 2.2163-0.69727 1.9922 9e-6 2.9883 0.99334 2.9883 2.98v3.4531c-7.4e-6 1.1344 0.19368 1.7017 0.58105 1.7017 0.23795 0 0.43993-0.17155 0.60596-0.51465l0.32373 0.24072m-2.5815-1.4941v-2.3325l-0.71387 0.0332c-2.3574 0.11622-3.5361 0.87712-3.5361 2.2827-2.2e-6 0.52018 0.16325 0.94629 0.48975 1.2783 0.32096 0.31543 0.72493 0.47314 1.2119 0.47314 0.66406 0 1.2589-0.20475 1.7847-0.61426 0.35416-0.28776 0.60872-0.66129 0.76367-1.1206"/><path d="m19.222 24.241h-3.6523v-0.47314c0.68066 1e-6 1.021-0.11344 1.021-0.34033-6e-6 -0.10514-0.13558-0.34586-0.40674-0.72217l-1.5854-2.1416-1.9009 2.3159c-0.19369 0.24349-0.29053 0.42611-0.29053 0.54785-2e-6 0.22689 0.3846 0.34033 1.1538 0.34033v0.47314h-3.2456v-0.47314c0.61426 1e-6 1.2202-0.37077 1.8179-1.1123l2.0752-2.5483-1.8677-2.4321c-0.30436-0.40396-0.56445-0.69449-0.78027-0.87158-0.23242-0.16047-0.57276-0.24902-1.021-0.26562v-0.49805h3.6025v0.49805c-0.6696 0.01661-1.0044 0.13559-1.0044 0.35693-3e-6 0.11622 0.13558 0.35417 0.40674 0.71387l1.3945 1.8511 1.6851-2.0752c0.19368-0.24348 0.29052-0.42056 0.29053-0.53125-7e-6 -0.19368-0.40398-0.29882-1.2119-0.31543v-0.49805h3.2622v0.49805c-0.32097 7e-6 -0.57553 0.04981-0.76367 0.14941-0.2435 0.11622-0.58383 0.43441-1.021 0.95459l-1.8677 2.2412 2.0586 2.7227c0.55338 0.7526 1.1704 1.14 1.8511 1.1621v0.47314"/><path d="m21.828 12.205c0.24349 1.2e-5 0.44824 0.08579 0.61426 0.25732 0.17155 0.17156 0.25732 0.37631 0.25732 0.61426-3e-6 0.56446-0.29053 0.84669-0.87158 0.84668-0.56446 1.1e-5 -0.84668-0.28222-0.84668-0.84668-1e-6 -0.58104 0.28222-0.87157 0.84668-0.87158m2.0088 12.036h-4.0425v-0.47314c0.37077 1e-6 0.67513-0.03597 0.91309-0.10791 0.3763-0.09961 0.56445-0.42334 0.56445-0.97119v-5.0801c-2e-6 -0.53678-0.13558-0.85497-0.40674-0.95459-0.17155-0.0664-0.52848-0.0996-1.0708-0.09961v-0.51465c0.92415-0.01659 1.7902-0.1079 2.5981-0.27393v6.9229c-3e-6 0.50912 0.13004 0.81624 0.39014 0.92139 0.25455 0.10514 0.60595 0.15772 1.0542 0.15772v0.47314"/><path d="m30.602 18.555c-0.08855-0.64192-0.31544-1.1483-0.68066-1.519-0.47592-0.4759-1.0487-0.71386-1.7183-0.71387-0.55339 8e-6 -1.0127 0.18262-1.3779 0.54785-0.26009 0.2767-0.39014 0.60596-0.39014 0.98779-2e-6 0.66407 0.57275 1.1759 1.7183 1.5356l0.43994 0.13281c0.94628 0.30437 1.6159 0.60596 2.0088 0.90478 0.56445 0.42611 0.84667 0.99333 0.84668 1.7017-8e-6 0.84115-0.3182 1.4748-0.95459 1.9009-0.49252 0.33756-1.0985 0.50635-1.8179 0.50635-0.6364 0-1.3143-0.19645-2.0337-0.58936-0.24349-0.14388-0.43164-0.21582-0.56445-0.21582-0.18262 1e-6 -0.27393 0.19645-0.27393 0.58936h-0.48975v-3.1128h0.52295c0.05534 0.80241 0.29883 1.4194 0.73047 1.8511 0.55338 0.56999 1.2451 0.85498 2.0752 0.85498 1.1787 1e-6 1.7681-0.52295 1.7681-1.5688-6e-6 -0.45931-0.17432-0.83284-0.52295-1.1206-0.23796-0.18815-0.78858-0.43164-1.6519-0.73047l-0.50635-0.17432c-0.78028-0.25455-1.3032-0.49251-1.5688-0.71387-0.49805-0.3929-0.74707-0.90755-0.74707-1.5439-2e-6 -0.61978 0.23242-1.1538 0.69726-1.6021 0.50911-0.4759 1.1732-0.71386 1.9922-0.71387 0.70833 9e-6 1.342 0.16879 1.9009 0.50635 0.16048 0.09408 0.29606 0.14112 0.40674 0.14111 0.12727 8e-6 0.20751-0.16324 0.24072-0.48975h0.42334v2.6479h-0.47314"/><path d="m1.9688 2.1562-1 0.03125 0.125 25.625v0.46875h29.125v-1h-28.125l-0.125-25.125z" color="#000000" style="block-progression:tb;text-indent:0;text-transform:none"/><path d="m24.972 25.376 6.5555 2.4106-6.5555 2.4106c1.0473-1.4232 1.0413-3.3705 0-4.8213z" fill-rule="evenodd" stroke-linejoin="round" stroke-width=".625"/><path d="m-0.9349 7.4134 2.3759-6.5682 2.4453 6.5427c-1.4288-1.0398-3.3759-1.0234-4.8212 0.025509z" fill-rule="evenodd" stroke-linejoin="round" stroke-width=".625"/></svg>
