<?xml version="1.0" encoding="UTF-8"?>
<svg id="svg4" version="1.1" viewBox="0 0 32 32" xmlns="http://www.w3.org/2000/svg" xmlns:cc="http://creativecommons.org/ns#" xmlns:dc="http://purl.org/dc/elements/1.1/" xmlns:rdf="http://www.w3.org/1999/02/22-rdf-syntax-ns#">
 <metadata id="metadata10">
  <rdf:RDF>
   <cc:Work rdf:about="">
    <dc:format>image/svg+xml</dc:format>
    <dc:type rdf:resource="http://purl.org/dc/dcmitype/StillImage"/>
   </cc:Work>
  </rdf:RDF>
 </metadata>
 <rect id="rect2-6-4" x="2.987" y="2.987" width="26.026" height="26.026" ry="0" fill="#d5fa58" stroke="#000" stroke-miterlimit="2" stroke-width="1.4"/>
 <path id="path4539" d="m15.796 15.165q1.1244 0 1.7051-0.49422 0.58071-0.49422 0.58071-1.458 0-0.95137-0.58071-1.4456-0.58071-0.50658-1.7051-0.50658h-2.6317v3.9043zm0.16062 8.0681q1.4332 0 2.1499-0.60542 0.72898-0.60542 0.72898-1.8286 0-1.1985-0.71662-1.7915-0.71662-0.60542-2.1622-0.60542h-2.7923v4.831zm4.4233-6.6349q1.5321 0.4448 2.3723 1.6433t0.84017 2.9406q0 2.6688-1.8039 3.9785t-5.4858 1.3097h-7.8952v-18.447h7.1415q3.8426 0 5.56 1.1614 1.7298 1.1614 1.7298 3.719 0 1.3468-0.63013 2.2981-0.63013 0.93902-1.8286 1.3962z"/>
 <path id="rect2-6-9" d="m29.013 15.874v-12.887h-26.025v12.887" fill="#f8ac4f" stroke="#000" stroke-miterlimit="2" stroke-width="1.4"/>
 <path id="path948" d="m13.165 5.1472-3.9746 10.727h4.6055l2.2109-6.4023 2.1992 6.4023h4.6035l-3.9746-10.727z"/>
 <path id="path3715" d="m29.898 16h-27.797" fill="#f7941e" fill-opacity=".81569" fill-rule="evenodd" stroke="#00f" stroke-miterlimit="2" stroke-width="1.4"/>
</svg>
