<?xml version="1.0" encoding="UTF-8"?>
<svg id="svg4" version="1.1" viewBox="0 0 32 32" xmlns="http://www.w3.org/2000/svg" xmlns:cc="http://creativecommons.org/ns#" xmlns:dc="http://purl.org/dc/elements/1.1/" xmlns:rdf="http://www.w3.org/1999/02/22-rdf-syntax-ns#">
 <metadata id="metadata10">
  <rdf:RDF>
   <cc:Work rdf:about="">
    <dc:format>image/svg+xml</dc:format>
    <dc:type rdf:resource="http://purl.org/dc/dcmitype/StillImage"/>
    <dc:title/>
   </cc:Work>
  </rdf:RDF>
 </metadata>
 <path id="path3034" transform="matrix(.94611 0 0 .94611 -3.5575 -5.4879)" d="m28.339 22.712c0 7.7507-5.069 14.034-11.322 14.034s-11.322-6.2832-11.322-14.034c0-7.7507 5.069-14.034 11.322-14.034s11.322 6.2832 11.322 14.034z" color="#000000" fill="#ff8000" stroke-width="1.057"/>
 <path id="path3034-3" transform="matrix(.94611 0 0 .94611 3.3578 -5.4879)" d="m28.339 22.712c0 7.7507-5.069 14.034-11.322 14.034s-11.322-6.2832-11.322-14.034c0-7.7507 5.069-14.034 11.322-14.034s11.322 6.2832 11.322 14.034z" color="#000000" fill="#0080ff"/>
 <path id="path3034-6" d="m16 3.4375c-4.216 1.7849-7.25 6.7321-7.25 12.562s3.034 10.778 7.25 12.562c4.216-1.7849 7.25-6.7321 7.25-12.562s-3.034-10.778-7.25-12.562z" color="#000000" fill="#808080"/>
 <text id="text4553-1-3" x="17.196516" y="20.749096" fill="#000000" font-family="Scriptina" font-size="13.029px" letter-spacing="0px" word-spacing="0px" style="line-height:125%" xml:space="preserve"><tspan id="tspan4551-7-6" x="17.196516" y="20.749096" fill="#000000" font-family="sans-serif" font-weight="bold">B</tspan></text>
 <text id="text4553-7" x="6.0431499" y="20.749096" fill="#000000" font-family="Scriptina" font-size="13.029px" letter-spacing="0px" word-spacing="0px" style="line-height:125%" xml:space="preserve"><tspan id="tspan4551-5" x="6.0431499" y="20.749096" fill="#000000" font-family="sans-serif" font-weight="bold">A</tspan></text>
</svg>
