<?xml version="1.0" encoding="UTF-8"?>
<!DOCTYPE svg  PUBLIC '-//W3C//DTD SVG 1.1//EN'  'http://www.w3.org/Graphics/SVG/1.1/DTD/svg11.dtd'>
<svg enable-background="new 0 0 32 32" version="1.1" viewBox="0 0 32 32" xml:space="preserve" xmlns="http://www.w3.org/2000/svg">
<path d="m27.023 7.818h-17.505c-0.455 0-0.844 0.276-1.011 0.67-0.056 0.131-0.087 0.276-0.087 0.427v17.506c0 0.607 0.491 1.098 1.097 1.098s1.097-0.49 1.097-1.098v-16.409h16.409c0.607 0 1.098-0.49 1.098-1.097 0-0.606-0.49-1.097-1.098-1.097z" fill="#00A651" stroke="#006838" stroke-miterlimit="10" stroke-width=".1"/>
<path d="m24.787 5.58c0-0.606-0.492-1.098-1.098-1.098s-1.098 0.491-1.098 1.098l2e-3 16.409-16.408 2e-3c-0.606 0-1.098 0.49-1.098 1.098 0 0.605 0.491 1.096 1.098 1.096l17.506-2e-3c0.605 0 1.098-0.49 1.098-1.096l-2e-3 -17.507z" fill="#00A651" stroke="#006838" stroke-miterlimit="10" stroke-width=".1"/>
</svg>
