<?xml version="1.0" standalone="no"?>
<!DOCTYPE svg PUBLIC "-//W3C//DTD SVG 20010904//EN"
 "http://www.w3.org/TR/2001/REC-SVG-20010904/DTD/svg10.dtd">
<svg version="1.0" xmlns="http://www.w3.org/2000/svg"
 width="800.000000pt" height="800.000000pt" viewBox="0 0 800.000000 800.000000"
 preserveAspectRatio="xMidYMid meet">

<g transform="translate(0.000000,800.000000) scale(0.100000,-0.100000)"
fill="#000000" stroke="none">
<path d="M260 4020 l0 -3750 3750 0 3750 0 0 3750 0 3750 -3750 0 -3750 0 0
-3750z m7440 2610 l0 -1081 -77 7 c-43 4 -80 10 -83 14 -3 4 -60 11 -127 15
-68 4 -123 11 -123 15 0 5 -58 11 -130 15 -71 4 -130 11 -130 15 0 4 -52 11
-115 15 -76 5 -115 11 -115 18 0 7 -5 5 -10 -3 -7 -11 -12 -12 -17 -4 -5 7
-58 15 -133 19 -69 4 -127 11 -130 15 -3 4 -55 11 -116 14 l-112 7 -34 -35
c-19 -20 -40 -36 -45 -36 -6 0 -14 -12 -18 -27 -4 -19 -9 -23 -14 -14 -6 9
-10 5 -15 -13 -3 -14 -10 -26 -15 -26 -11 0 -81 -69 -81 -80 0 -5 -15 -24 -32
-43 -39 -39 -68 -75 -68 -82 0 -3 -8 -13 -17 -23 -37 -38 -63 -72 -63 -82 0
-6 -4 -10 -10 -10 -5 0 -10 -7 -10 -15 0 -8 -4 -15 -10 -15 -5 0 -10 -7 -10
-15 0 -7 -6 -18 -13 -22 -7 -4 -18 -20 -24 -35 -7 -16 -17 -28 -23 -28 -5 0
-10 -6 -10 -13 0 -7 -13 -31 -30 -53 -16 -21 -30 -44 -30 -51 0 -6 -3 -13 -8
-15 -9 -4 -62 -110 -62 -126 0 -6 -4 -12 -9 -12 -5 0 -12 -8 -15 -17 -3 -10
-19 -40 -36 -68 -16 -27 -29 -58 -29 -67 -1 -10 -5 -18 -10 -18 -5 0 -12 -13
-16 -30 -4 -16 -10 -30 -15 -30 -5 0 -12 -15 -15 -32 -4 -18 -11 -35 -15 -38
-3 -3 -19 -41 -35 -85 -16 -44 -32 -84 -35 -90 -4 -5 -17 -41 -30 -79 -12 -37
-29 -80 -36 -95 -8 -14 -14 -36 -14 -48 0 -12 -4 -24 -9 -27 -5 -3 -19 -43
-31 -88 -12 -46 -26 -87 -30 -93 -5 -5 -11 -28 -15 -50 -4 -22 -11 -44 -15
-50 -4 -5 -15 -35 -25 -65 -10 -30 -21 -59 -26 -64 -5 -6 -9 -18 -9 -27 0 -9
-7 -30 -15 -45 -8 -16 -15 -37 -15 -46 0 -10 -4 -18 -10 -18 -5 0 -10 -6 -10
-12 -1 -7 -9 -31 -20 -53 -11 -22 -20 -51 -20 -65 0 -14 -3 -20 -8 -14 -4 7
-18 -20 -31 -62 -16 -48 -28 -70 -33 -62 -6 10 -8 9 -8 -2 0 -8 -9 -33 -20
-55 -11 -22 -19 -45 -20 -52 0 -6 -4 -13 -9 -15 -5 -1 -23 -34 -41 -73 -18
-38 -41 -77 -51 -86 -10 -8 -21 -27 -24 -42 -4 -15 -11 -27 -16 -27 -5 0 -9
-7 -9 -15 0 -8 -4 -15 -9 -15 -6 0 -18 -13 -28 -30 -9 -16 -25 -30 -34 -30
-10 0 -24 -6 -31 -14 -8 -7 -29 -17 -46 -21 -18 -3 -32 -10 -32 -15 0 -4 -22
-13 -50 -20 -28 -7 -50 -16 -50 -21 0 -4 -16 -11 -35 -15 -19 -3 -35 -10 -35
-14 0 -5 -13 -11 -30 -15 -16 -4 -30 -10 -30 -15 0 -4 -16 -11 -35 -14 -19 -4
-35 -10 -35 -14 0 -4 -23 -13 -52 -20 -28 -6 -54 -16 -57 -21 -4 -5 -23 -12
-44 -16 -20 -4 -37 -11 -37 -16 0 -5 -18 -12 -40 -15 -22 -4 -40 -10 -40 -14
0 -4 -27 -13 -60 -21 -33 -7 -60 -17 -60 -21 0 -4 -18 -11 -40 -14 -22 -4 -40
-10 -40 -14 0 -5 -18 -11 -40 -15 -22 -4 -40 -10 -40 -15 0 -4 -19 -10 -42
-14 -23 -4 -45 -11 -48 -17 -4 -5 -34 -14 -68 -20 -34 -6 -62 -15 -62 -19 0
-5 -20 -12 -45 -16 -25 -3 -45 -10 -45 -14 0 -5 -22 -11 -50 -15 -27 -4 -50
-11 -50 -16 0 -4 -23 -11 -50 -15 -27 -4 -50 -10 -50 -14 0 -3 -27 -12 -60
-18 -70 -13 -112 -3 -147 35 -12 12 -29 23 -38 23 -8 0 -23 9 -32 20 -10 11
-25 20 -35 20 -10 0 -18 5 -18 10 0 6 -12 16 -27 23 -16 6 -41 24 -56 39 -16
16 -33 28 -38 28 -6 0 -20 11 -33 25 -13 14 -28 25 -33 25 -5 0 -19 11 -31 25
-12 14 -28 25 -35 25 -8 0 -20 11 -27 25 -7 14 -19 25 -27 25 -7 0 -18 9 -25
20 -7 11 -17 20 -22 20 -4 0 -30 23 -56 50 -26 28 -53 50 -58 50 -6 0 -16 9
-22 20 -6 11 -17 20 -25 20 -8 0 -15 4 -15 9 0 5 -25 35 -55 67 -30 32 -55 62
-55 66 0 5 -7 8 -15 8 -8 0 -15 6 -15 13 0 7 -10 22 -22 34 -13 11 -36 37 -53
58 -16 21 -38 45 -47 54 -10 8 -18 21 -18 27 0 6 -9 14 -20 17 -11 3 -20 12
-20 21 0 9 -7 16 -15 16 -9 0 -15 9 -15 23 0 15 -9 29 -25 37 -14 7 -25 19
-25 27 0 7 -9 21 -20 30 -11 10 -20 21 -20 26 0 4 -5 13 -10 20 -41 48 -50 62
-50 72 0 7 -7 15 -15 19 -8 3 -15 12 -15 20 0 7 -7 16 -15 20 -8 3 -15 17 -15
31 0 14 -5 25 -10 25 -6 0 -14 8 -17 18 -7 16 -15 28 -40 56 -7 8 -15 25 -19
40 -3 14 -10 26 -14 26 -5 0 -11 13 -15 30 -4 16 -10 30 -15 30 -5 0 -11 14
-15 30 -4 17 -11 30 -15 30 -5 0 -12 16 -16 35 -3 19 -12 35 -19 35 -8 0 -16
13 -20 30 -4 16 -10 30 -14 30 -5 0 -14 20 -21 45 -7 26 -18 45 -27 45 -8 0
-19 14 -24 30 -6 17 -14 30 -18 30 -4 0 -15 20 -25 45 -11 25 -25 45 -33 45
-7 0 -13 7 -13 15 0 7 -6 18 -13 22 -7 4 -18 20 -24 36 -7 15 -17 27 -23 27
-5 0 -10 6 -10 14 0 7 -11 22 -25 32 -14 10 -25 24 -25 30 0 6 -10 22 -22 35
-13 14 -29 37 -35 52 -7 15 -17 27 -23 27 -12 0 -50 37 -50 48 0 5 -16 26 -35
48 -19 21 -35 42 -35 45 0 4 -8 9 -17 11 -10 3 -25 18 -33 34 -8 16 -19 34
-25 40 -5 7 -21 26 -35 43 -14 17 -32 31 -41 31 -9 0 -26 10 -37 23 -58 63
-82 92 -82 99 0 5 -6 8 -14 8 -7 0 -46 31 -85 70 -40 39 -80 70 -90 70 -9 0
-25 14 -34 30 -10 17 -24 30 -31 30 -7 0 -19 11 -26 25 -7 14 -19 25 -27 25
-7 0 -21 9 -30 20 -10 11 -24 20 -32 20 -7 0 -24 11 -37 25 -13 14 -28 25 -33
25 -6 0 -14 6 -18 13 -4 6 -21 19 -38 27 -16 8 -35 22 -42 30 -10 12 -12 283
-13 1198 l0 1182 3690 0 3690 0 0 -1080z"/>
</g>
</svg>
