<?xml version="1.0" encoding="UTF-8"?>
<svg version="1.1" viewBox="0 0 32 32" xmlns="http://www.w3.org/2000/svg">
 <g fill-rule="evenodd">
  <path d="m16.031 9.7188 6.8398 2.2812 6.793-2.2656-6.8398-2.2812z" fill="#00f"/>
  <path d="m22.871 12v8.1094l6.793-2.2656v-8.1094z" fill="#0063ff"/>
  <path d="m16.031 9.7188 6.8398 2.2812v8.1094l-6.8398-2.2812z" fill="#0034ff"/>
  <path d="m2.3359 9.7188 6.8398 2.2812 6.793-2.2656-6.8398-2.2812z" fill="#00f"/>
  <path d="m9.1758 12v8.1094l6.793-2.2656v-8.1094z" fill="#0063ff"/>
  <path d="m2.3359 9.7188 6.8398 2.2812v8.1094l-6.8398-2.2812z" fill="#0034ff"/>
  <path d="m9.1406 20.043 6.8398 2.2773 6.793-2.2617-6.8398-2.2812z" fill="#00f"/>
  <path d="m15.98 22.32v8.1133l6.7891-2.2656v-8.1094z" fill="#0063ff"/>
  <path d="m9.1406 20.043 6.8398 2.2773v8.1133l-6.8398-2.2812z" fill="#0034ff"/>
  <path d="m9.1406 11.938 6.8398 2.2773 6.793-2.2617-6.8398-2.2812z" fill="#00f"/>
  <path d="m15.98 14.215v8.1133l6.7891-2.2656v-8.1094z" fill="#0063ff"/>
  <path d="m9.1406 11.938 6.8398 2.2773v8.1133l-6.8398-2.2812z" fill="#0034ff"/>
  <path d="m9.1406 3.832 6.8398 2.2812 6.793-2.2656-6.8398-2.2812z" fill="#00f"/>
  <path d="m15.98 6.1133v8.1094l6.7891-2.2617v-8.1133z" fill="#0063ff"/>
  <path d="m9.1406 3.832 6.8398 2.2812v8.1094l-6.8398-2.2812z" fill="#0034ff"/>
  <path d="m16.031 14.242 6.8398 2.2812 6.793-2.2656-6.8398-2.2773z" fill="#00f"/>
  <path d="m22.871 16.523v8.1094l6.793-2.2617v-8.1094z" fill="#0063ff"/>
  <path d="m16.031 14.242 6.8398 2.2812v8.1094l-6.8398-2.2773z" fill="#0034ff"/>
  <path d="m2.3359 14.242 6.8398 2.2812 6.793-2.2656-6.8398-2.2773z" fill="#00f"/>
  <path d="m9.1758 16.523v8.1094l6.793-2.2617v-8.1094z" fill="#0063ff"/>
  <path d="m2.3359 14.242 6.8398 2.2812v8.1094l-6.8398-2.2773z" fill="#0034ff"/>
 </g>
</svg>
