<?xml version="1.0" encoding="UTF-8"?>
<svg version="1.1" viewBox="0 0 32 32" xmlns="http://www.w3.org/2000/svg">
 <g fill="#0034ff">
  <path d="m13.617 8.7812 0.67969-4.0391 4.0039 0.039062 0.47656 3.9609z"/>
  <path d="m9.2266 12.59-2.375-3.3359 2.8555-2.8008 3.1406 2.4609z"/>
  <path d="m8.7852 18.41-4.043-0.67969 0.042968-4 3.957-0.48047z"/>
  <path d="m12.594 22.801-3.3398 2.375-2.8008-2.8555 2.4609-3.1406z"/>
  <path d="m18.383 23.227-0.67969 4.0391-4-0.039063-0.48047-3.9609z"/>
  <path d="m22.773 19.418 2.375 3.3359-2.8555 2.8008-3.1406-2.4609z"/>
  <path d="m23.219 13.598 4.0391 0.67969-0.039062 4-3.9609 0.48047z"/>
  <path d="m19.41 9.207 3.3359-2.375 2.8008 2.8555-2.4609 3.1406z"/>
  <path d="m16 7.9609c-4.4375 0-8.0391 3.6016-8.0391 8.0391s3.6016 8.0391 8.0391 8.0391 8.0391-3.6016 8.0391-8.0391-3.6016-8.0391-8.0391-8.0391zm0 5.168c1.5859 0 2.8711 1.2852 2.8711 2.8711s-1.2852 2.8672-2.8711 2.8672-2.8711-1.2812-2.8711-2.8672 1.2852-2.8711 2.8711-2.8711z"/>
 </g>
</svg>
