<?xml version="1.0" encoding="UTF-8"?>
<svg version="1.1" viewBox="0 0 32 32" xml:space="preserve" xmlns="http://www.w3.org/2000/svg"><defs><filter id="a" color-interpolation-filters="sRGB"><feGaussianBlur stdDeviation="1.2128746"/></filter></defs><path d="m4.356 26.781c0.66-0.935 1.841-0.809 2.729-1.399 0.703-0.467 0.856-1.623 0.992-2.349 0.218-1.165-0.362-4.839 1.218-5.27 1.004-0.274 1.677-0.422 2.422-1.176 1.721-1.742 1.883-4.988 2.669-7.182 0.504-1.407 1.142-1.524 1.711-0.079 0.35 0.886 0.697 1.771 1.017 2.668 0.689 1.934 1.256 3.931 1.737 5.926 0.45 1.865 0.957 3.707 1.576 5.523 0.279 0.821 0.38 1.479 1.177 1.893 1.154 0.598 1.675-0.925 1.896-1.673 0.278-0.937 0.439-1.908 0.69-2.854 0.455-1.711 0.864 0.714 1.019 1.371 0.442 1.884 0.466 3.932 1.071 5.769 0.181 0.549 1.05 0.314 0.867-0.238-0.398-1.209-0.782-9.396-2.967-8.609-1.242 0.448-1.363 3.699-1.672 4.738-0.364 1.226-1.034-0.032-1.215-0.635-0.366-1.225-0.775-2.429-1.108-3.664-0.629-2.33-1.193-4.659-1.927-6.96-0.276-0.867-1.45-6-3.046-5.583-2.015 0.528-2.388 4.501-2.846 6.112-0.615 2.163-1.571 3.309-3.726 3.896-0.864 0.236-1.143 0.979-1.28 1.771-0.3 1.735 0.738 5.357-1.488 6.215-1.107 0.426-1.578 0.317-2.295 1.332-0.334 0.478 0.447 0.927 0.779 0.457z"/><g transform="translate(1.6271 .13559)" filter="url(#a)"><path d="m2.1425 16.187c-0.417 0.236-1.12 0.115-1.557-0.271-0.442-0.39-0.455-0.906-0.039-1.147l7.33-4.184c0.422-0.242 1.121-0.119 1.56 0.27 0.44 0.392 0.457 0.901 0.035 1.146l-7.329 4.186z" stroke="#00a651" stroke-miterlimit="10" stroke-width=".1"/><path d="m14.176 2.8136c-1.8408-0.22181-3.7106 0.0891-5.25 0.96875-1.5391 0.88172-2.4552 2.2584-2.5625 3.75-0.10727 1.4916 0.57148 3.0357 1.9375 4.25 2.7388 2.4255 7.203 2.9807 10.281 1.2188 1.5391-0.87925 2.4546-2.2587 2.5625-3.75 0.10787-1.4913-0.5729-3.0355-1.9375-4.25-1.3708-1.2142-3.1904-1.9657-5.0312-2.1875zm-0.15625 1.5625c1.5617 0.18769 3.0903 0.77817 4.1875 1.75 1.0904 0.97048 1.5071 2.0373 1.4375 3-0.06963 0.96271-0.62261 1.8827-1.8125 2.5625-2.3797 1.3621-6.3401 0.90923-8.5312-1.0312-1.092-0.9707-1.5067-2.0686-1.4375-3.0312 0.06923-0.96267 0.62157-1.849 1.8125-2.5312 1.1906-0.68035 2.7821-0.90644 4.3437-0.71875z" color="#000000" style="block-progression:tb;text-indent:0;text-transform:none"/><path d="m30.572 31.718c0.247 0.361 0.019 0.865-0.506 1.109-0.531 0.246-1.174 0.141-1.42-0.221l-4.346-6.416c-0.255-0.369-0.025-0.869 0.502-1.111 0.533-0.244 1.163-0.146 1.422 0.227l4.348 6.412z" stroke="#00a651" stroke-miterlimit="10" stroke-width=".1"/><path d="m21.551 15.595c-0.87491 0.08975-1.7393 0.30814-2.5625 0.6875-1.6444 0.76154-2.8268 2.0268-3.3438 3.4688-0.51696 1.4419-0.34202 3.0547 0.59375 4.4375v0.03125c1.8808 2.7617 5.9597 3.6148 9.25 2.0938 1.6461-0.76046 2.8267-2.0267 3.3438-3.4688 0.5171-1.442 0.34525-3.0565-0.59375-4.4375-1.4049-2.0747-4.0628-3.0818-6.6875-2.8125zm0.15625 1.5c2.128-0.19847 4.2576 0.6445 5.2812 2.1562 0.684 1.006 0.7729 2.0713 0.40625 3.0938s-1.2054 1.9812-2.5312 2.5938c-2.6497 1.2249-6.0018 0.45384-7.375-1.5625-0.68223-1.0082-0.80429-2.1019-0.4375-3.125s1.2379-1.9803 2.5625-2.5938c0.66327-0.30564 1.3844-0.49634 2.0938-0.5625z" color="#000000" style="block-progression:tb;text-indent:0;text-transform:none"/></g><g stroke="#00a651" stroke-miterlimit="10"><path d="m3.222 15.385c-0.417 0.236-1.12 0.115-1.557-0.271-0.442-0.39-0.455-0.906-0.039-1.147l7.33-4.184c0.422-0.242 1.121-0.119 1.56 0.27 0.44 0.392 0.457 0.901 0.035 1.146l-7.329 4.186z" fill="#00a651" stroke-width=".1"/><path d="m19.291 11.538c-2.729 1.562-6.936 1.054-9.401-1.129-2.458-2.185-2.241-5.219 0.489-6.783 2.73-1.56 6.936-1.054 9.404 1.132 2.455 2.185 2.237 5.221-0.492 6.78z" fill="none" stroke-width="1.5"/><path d="m31.651 30.916c0.247 0.361 0.019 0.865-0.506 1.109-0.531 0.246-1.174 0.141-1.42-0.221l-4.346-6.416c-0.255-0.369-0.025-0.869 0.502-1.111 0.533-0.244 1.163-0.146 1.422 0.227l4.348 6.412z" fill="#00a651" stroke-width=".1"/><path d="m28.693 18.014c1.623 2.387 0.53 5.436-2.442 6.809-2.97 1.373-6.686 0.547-8.313-1.842-1.618-2.391-0.526-5.438 2.443-6.813 2.973-1.37 6.693-0.545 8.312 1.846z" fill="none" stroke-width="1.5"/></g></svg>
