<?xml version="1.0" encoding="UTF-8"?>
<svg version="1.1" viewBox="0 0 32 32" xml:space="preserve" xmlns="http://www.w3.org/2000/svg"><text x="0.49070829" y="48.29847" fill="#f7941e" font-family="Accanthis ADF Std" font-size="40px" letter-spacing="0px" word-spacing="0px" style="line-height:125%" xml:space="preserve"><tspan x="0.49070829" y="48.29847" fill="#f7941e" font-family="Sans" font-size="24px"/></text>
<g transform="translate(-1.0132 -.23022)"><g transform="translate(-.91624 -.18292)"><g transform="matrix(.82803 0 0 .82803 1.0566 4.3647)"><path d="m16 9.584-3.2109 8.707h6.4336l-3.2227-8.707m-1.3359-2.332h2.6836l6.668 17.496h-2.4609l-1.5938-4.4883h-7.8867l-1.5938 4.4883h-2.4961l6.6797-17.496"/></g><path d="m22.052 24.967v-14.708" fill="none" stroke="#000" stroke-width=".82803px"/><path d="m6.5581 24.967v-14.708" fill="none" stroke="#000" stroke-width=".82803px"/><g transform="translate(2)"><path d="m25.148 12.277h2.5664v1.1055h-4.2383v-1.1055l2.1289-1.8789c0.1901-0.17187 0.33073-0.33984 0.42188-0.50391 0.09114-0.16406 0.13672-0.33463 0.13672-0.51172-4e-6 -0.27343-0.09245-0.49349-0.27734-0.66016-0.1823-0.16666-0.42578-0.25-0.73047-0.25-0.23438 4.9e-6 -0.49089 0.050786-0.76953 0.15234-0.27865 0.098963-0.57682 0.2474-0.89453 0.44531v-1.2812c0.33854-0.11197 0.67318-0.19661 1.0039-0.25391 0.33073-0.05989 0.65494-0.089838 0.97266-0.089844 0.69791 5.9e-6 1.2396 0.15365 1.625 0.46094 0.38802 0.3073 0.58203 0.73568 0.58203 1.2852-5e-6 0.31771-0.08204 0.61459-0.24609 0.89063-0.16407 0.27344-0.50912 0.64063-1.0352 1.1016l-1.2461 1.0938"/></g></g></g></svg>
