<?xml version="1.0" encoding="UTF-8"?>
<svg version="1.1" viewBox="0 0 32 32" xml:space="preserve" xmlns="http://www.w3.org/2000/svg" xmlns:xlink="http://www.w3.org/1999/xlink"><defs><radialGradient id="c" cx="-16.701" cy="15.943" r="7.9219" gradientTransform="matrix(1,0,0,1.1509,0,-2.4056)" gradientUnits="userSpaceOnUse"><stop offset="0"/><stop stop-color="#c0c0c0" offset="1"/></radialGradient></defs><g transform="matrix(.062683 0 0 -.062683 15.338 21.436)"><path d="m17.834 8.7344c-0.50782 1.14e-5 -0.76173 0.56642-0.76172 1.6992v8.0391c0.74218 2e-6 1.4844-0.40625 2.2266-1.2188 0.66405-0.72656 0.99608-1.9609 0.99609-3.7031-1.2e-5 -1.625-0.33595-2.875-1.0078-3.75-0.54688-0.71093-1.0313-1.0664-1.4531-1.0664m0-1.8398c1.0937 1.33e-5 2.1367 0.51564 3.1289 1.5469 1.0703 1.1016 1.6055 2.8047 1.6055 5.1094-1.4e-5 2.1172-0.53517 3.8047-1.6055 5.0625-1.0078 1.1875-2.3047 1.7812-3.8906 1.7812v4.7109h-2.1445v-4.6992c-1.5547 0-2.8555-0.59766-3.9023-1.793-1.0625-1.2187-1.5938-2.9023-1.5938-5.0508-1.3e-6 -2.2344 0.53125-3.9219 1.5938-5.0625 0.79687-0.85155 1.8437-1.3867 3.1406-1.6055v1.9102c-0.51563 0.1797-1 0.57423-1.4531 1.1836-0.67188 0.89845-1.0078 2.0899-1.0078 3.5742-3e-6 1.5781 0.33593 2.8164 1.0078 3.7148 0.60156 0.80469 1.3398 1.207 2.2148 1.207v-8.0508c-6e-6 -2.3594 0.96874-3.539 2.9062-3.5391"/><g fill="url(#c)"><path d="m-14.111 6.8256c1.1797 1.32e-5 2.3164 0.50001 3.4102 1.5 1.2812 1.1641 1.9219 2.8945 1.9219 5.1914-1.74e-5 3.8672-1.9453 6.0508-5.8359 6.5508v4.9922h-4.1719v-4.9922c-3.8906-0.5-5.8359-2.6836-5.8359-6.5508-1e-6 -2.1562 0.64062-3.8437 1.9219-5.0625 1.0547-1.0078 2.2383-1.5117 3.5508-1.5117v2.6836c-0.17969 0.015635-0.43751 0.35548-0.77344 1.0195-0.32813 0.65626-0.49219 1.4727-0.49219 2.4492-5e-6 1.8672 0.54296 3.1914 1.6289 3.9727v-4.5938c-8e-6 -3.7656 1.5586-5.6484 4.6758-5.6484m0.12891 3.1172c-0.42189 0.046885-0.63282 0.89063-0.63281 2.5313v4.5938c1.0469-0.75781 1.5898-2.082 1.6289-3.9727 0.02342-1.0469-0.06251-1.8398-0.25781-2.3789-0.19532-0.54686-0.44142-0.80468-0.73828-0.77344" fill="url(#c)"/></g><path id="a" d="m210.56 70.719-200 16 200 16z" opacity=".99"/><use width="32" height="32" fill="#ff0000" stroke="#ff0000" xlink:href="#a"/><use transform="matrix(.98769 .15643 -.15643 .98769 13.696 -.58469)" width="32" height="32" fill="#ff2600" stroke="#ff2600" xlink:href="#a"/><use transform="matrix(.95106 .30902 -.30902 .95106 27.315 .98033)" width="32" height="32" fill="#ff4d00" stroke="#ff4d00" xlink:href="#a"/><use transform="matrix(.89101 .45399 -.45399 .89101 40.521 4.6565)" width="32" height="32" fill="#ff7300" stroke="#ff7300" xlink:href="#a"/><use transform="matrix(.80902 .58779 -.58779 .80902 52.989 10.353)" width="32" height="32" fill="#ff9900" stroke="#ff9900" xlink:href="#a"/><use transform="matrix(.70711 .70711 -.70711 .70711 64.413 17.931)" width="32" height="32" fill="#ffbf00" stroke="#ffbf00" xlink:href="#a"/><use transform="matrix(.58779 .80902 -.80902 .58779 74.511 27.202)" width="32" height="32" fill="#ffe600" stroke="#ffe600" xlink:href="#a"/><use transform="matrix(.45399 .89101 -.89101 .45399 83.034 37.938)" width="32" height="32" fill="#f2ff00" stroke="#f2ff00" xlink:href="#a"/><use transform="matrix(.30902 .95106 -.95106 .30902 89.773 49.876)" width="32" height="32" fill="#ccff00" stroke="#ccff00" xlink:href="#a"/><use transform="matrix(.15643 .98769 -.98769 .15643 94.561 62.72)" width="32" height="32" fill="#a6ff00" stroke="#a6ff00" xlink:href="#a"/><use transform="matrix(0,1,-1,0,97.281,76.156)" width="32" height="32" fill="#80ff00" stroke="#80ff00" xlink:href="#a"/><use transform="matrix(-.15643 .98769 -.98769 -.15643 97.866 89.852)" width="32" height="32" fill="#59ff00" stroke="#59ff00" xlink:href="#a"/><use transform="matrix(-.30902 .95106 -.95106 -.30902 96.301 103.47)" width="32" height="32" fill="#33ff00" stroke="#33ff00" xlink:href="#a"/><use transform="matrix(-.45399 .89101 -.89101 -.45399 92.625 116.68)" width="32" height="32" fill="#0dff00" stroke="#0dff00" xlink:href="#a"/><use transform="matrix(-.58779 .80902 -.80902 -.58779 86.928 129.15)" width="32" height="32" fill="#00ff19" stroke="#00ff19" xlink:href="#a"/><use transform="matrix(-.70711 .70711 -.70711 -.70711 79.351 140.57)" width="32" height="32" fill="#00ff40" stroke="#00ff40" xlink:href="#a"/><use transform="matrix(-.80902 .58779 -.58779 -.80902 70.08 150.67)" width="32" height="32" fill="#00ff66" stroke="#00ff66" xlink:href="#a"/><use transform="matrix(-.89101 .45399 -.45399 -.89101 59.343 159.19)" width="32" height="32" fill="#00ff8c" stroke="#00ff8c" xlink:href="#a"/><use transform="matrix(-.95106 .30902 -.30902 -.95106 47.406 165.93)" width="32" height="32" fill="#00ffb2" stroke="#00ffb2" xlink:href="#a"/><use transform="matrix(-.98769 .15643 -.15643 -.98769 34.561 170.72)" width="32" height="32" fill="#00ffd9" stroke="#00ffd9" xlink:href="#a"/><use transform="matrix(-1,0,0,-1,21.125,173.44)" width="32" height="32" fill="#00ffff" stroke="#00ffff" xlink:href="#a"/><use transform="matrix(-.98769 -.15643 .15643 -.98769 7.4292 174.02)" width="32" height="32" fill="#00d9ff" stroke="#00d9ff" xlink:href="#a"/><use transform="matrix(-.95106 -.30902 .30902 -.95106 -6.1895 172.46)" width="32" height="32" fill="#00b2ff" stroke="#00b2ff" xlink:href="#a"/><use transform="matrix(-.89101 -.45399 .45399 -.89101 -19.396 168.78)" width="32" height="32" fill="#008cff" stroke="#008cff" xlink:href="#a"/><use transform="matrix(-.80902 -.58779 .58779 -.80902 -31.864 163.08)" width="32" height="32" fill="#0066ff" stroke="#0066ff" xlink:href="#a"/><use transform="matrix(-.70711 -.70711 .70711 -.70711 -43.288 155.51)" width="32" height="32" fill="#0040ff" stroke="#0040ff" xlink:href="#a"/><use transform="matrix(-.58779 -.80902 .80902 -.58779 -53.386 146.24)" width="32" height="32" fill="#001aff" stroke="#001aff" xlink:href="#a"/><use transform="matrix(-.45399 -.89101 .89101 -.45399 -61.909 135.5)" width="32" height="32" fill="#0d00ff" stroke="#0d00ff" xlink:href="#a"/><use transform="matrix(-.30902 -.95106 .95106 -.30902 -68.648 123.56)" width="32" height="32" fill="#3300ff" stroke="#3300ff" xlink:href="#a"/><use transform="matrix(-.15643 -.98769 .98769 -.15643 -73.436 110.72)" width="32" height="32" fill="#5900ff" stroke="#5900ff" xlink:href="#a"/><use transform="matrix(0,-1,1,0,-76.156,97.281)" width="32" height="32" fill="#8000ff" stroke="#8000ff" xlink:href="#a"/><use transform="matrix(.15643 -.98769 .98769 .15643 -76.741 83.585)" width="32" height="32" fill="#a600ff" stroke="#a600ff" xlink:href="#a"/><use transform="matrix(.30902 -.95106 .95106 .30902 -75.176 69.967)" width="32" height="32" fill="#cc00ff" stroke="#cc00ff" xlink:href="#a"/><use transform="matrix(.45399 -.89101 .89101 .45399 -71.5 56.761)" width="32" height="32" fill="#f200ff" stroke="#f200ff" xlink:href="#a"/><use transform="matrix(.58779 -.80902 .80902 .58779 -65.803 44.292)" width="32" height="32" fill="#ff00e5" stroke="#ff00e5" xlink:href="#a"/><use transform="matrix(.70711 -.70711 .70711 .70711 -58.226 32.868)" width="32" height="32" fill="#ff00bf" stroke="#ff00bf" xlink:href="#a"/><use transform="matrix(.80902 -.58779 .58779 .80902 -48.955 22.77)" width="32" height="32" fill="#ff0099" stroke="#ff0099" xlink:href="#a"/><use transform="matrix(.89101 -.45399 .45399 .89101 -38.218 14.247)" width="32" height="32" fill="#ff0073" stroke="#ff0073" xlink:href="#a"/><use transform="matrix(.95106 -.30902 .30902 .95106 -26.281 7.5083)" width="32" height="32" fill="#ff004d" stroke="#ff004d" xlink:href="#a"/><use transform="matrix(.98769 -.15643 .15643 .98769 -13.436 2.72)" width="32" height="32" fill="#ff0026" stroke="#ff0026" xlink:href="#a"/></g><text x="0.49070829" y="48.29847" fill="#f7941e" font-family="Accanthis ADF Std" font-size="40px" letter-spacing="0px" word-spacing="0px" style="line-height:125%" xml:space="preserve"><tspan x="0.49070829" y="48.29847" fill="#f7941e" font-family="Sans" font-size="24px"/></text>
<g transform="translate(8.7329 -5.8799)"><g transform="translate(-17.638 -.085622)" fill="#fff" stroke="#fff" stroke-width="1.5"><path d="m26.739 14.7c-0.50782 1.1e-5 -0.76173 0.56642-0.76172 1.6992v8.0391c0.74218 2e-6 1.4844-0.40625 2.2266-1.2188 0.66405-0.72656 0.99608-1.9609 0.99609-3.7031-1.2e-5 -1.625-0.33595-2.875-1.0078-3.75-0.54689-0.71093-1.0313-1.0664-1.4531-1.0664m0-1.8398c1.0937 1.3e-5 2.1367 0.51564 3.1289 1.5469 1.0703 1.1016 1.6055 2.8047 1.6055 5.1094-1.4e-5 2.1172-0.53517 3.8047-1.6055 5.0625-1.0078 1.1875-2.3047 1.7812-3.8906 1.7812v4.7109h-2.1445v-4.6992c-1.5547-1e-6 -2.8555-0.59766-3.9023-1.793-1.0625-1.2187-1.5938-2.9023-1.5938-5.0508-1e-6 -2.2344 0.53125-3.9219 1.5938-5.0625 0.79687-0.85155 1.8437-1.3867 3.1406-1.6055v1.9102c-0.51563 0.1797-1 0.57423-1.4531 1.1836-0.67188 0.89845-1.0078 2.0899-1.0078 3.5742-4e-6 1.5781 0.33593 2.8164 1.0078 3.7148 0.60156 0.80469 1.3398 1.207 2.2148 1.207v-8.0508c-7e-6 -2.3594 0.96874-3.539 2.9062-3.5391" fill="#fff" stroke="#fff" stroke-width="1.5"/></g><g transform="translate(-17.638 -.085622)"><path d="m26.739 14.7c-0.50782 1.1e-5 -0.76173 0.56642-0.76172 1.6992v8.0391c0.74218 2e-6 1.4844-0.40625 2.2266-1.2188 0.66405-0.72656 0.99608-1.9609 0.99609-3.7031-1.2e-5 -1.625-0.33595-2.875-1.0078-3.75-0.54689-0.71093-1.0313-1.0664-1.4531-1.0664m0-1.8398c1.0937 1.3e-5 2.1367 0.51564 3.1289 1.5469 1.0703 1.1016 1.6055 2.8047 1.6055 5.1094-1.4e-5 2.1172-0.53517 3.8047-1.6055 5.0625-1.0078 1.1875-2.3047 1.7812-3.8906 1.7812v4.7109h-2.1445v-4.6992c-1.5547-1e-6 -2.8555-0.59766-3.9023-1.793-1.0625-1.2187-1.5938-2.9023-1.5938-5.0508-1e-6 -2.2344 0.53125-3.9219 1.5938-5.0625 0.79687-0.85155 1.8437-1.3867 3.1406-1.6055v1.9102c-0.51563 0.1797-1 0.57423-1.4531 1.1836-0.67188 0.89845-1.0078 2.0899-1.0078 3.5742-4e-6 1.5781 0.33593 2.8164 1.0078 3.7148 0.60156 0.80469 1.3398 1.207 2.2148 1.207v-8.0508c-7e-6 -2.3594 0.96874-3.539 2.9062-3.5391"/></g></g></svg>
