<?xml version="1.0" encoding="UTF-8"?>
<svg id="svg2" enable-background="new 0 0 32 32" version="1.1" viewBox="0 0 32 32" xml:space="preserve" xmlns="http://www.w3.org/2000/svg" xmlns:cc="http://creativecommons.org/ns#" xmlns:dc="http://purl.org/dc/elements/1.1/" xmlns:rdf="http://www.w3.org/1999/02/22-rdf-syntax-ns#"><metadata id="metadata24"><rdf:RDF><cc:Work rdf:about=""><dc:format>image/svg+xml</dc:format><dc:type rdf:resource="http://purl.org/dc/dcmitype/StillImage"/><dc:title/></cc:Work></rdf:RDF></metadata><defs id="defs22"><filter id="a" x="-.1418" y="-.14627" width="1.2836" height="1.2925" color-interpolation-filters="sRGB"><feGaussianBlur id="feGaussianBlur3026" stdDeviation="0.9522046"/></filter></defs><g id="g4151" transform="translate(7.7649 -.43318)" fill="none" stroke="#00a14b" stroke-miterlimit="10" stroke-width="1.5"><path id="path4010" d="m5.7782 4.6341v23.598" color="#000000" enable-background="accumulate"/><path id="path4010-2" d="m10.692 5.4011h-4.746" color="#000000" enable-background="accumulate"/><path id="path4010-2-7" d="m10.692 27.481h-4.746" color="#000000" enable-background="accumulate"/><path id="path4010-2-7-0" d="m8.9293 24.327h-2.9833" color="#000000" enable-background="accumulate"/><path id="path4010-2-7-0-9" d="m8.9293 21.173h-2.9833" color="#000000" enable-background="accumulate"/><path id="path4010-2-7-0-3" d="m8.9293 18.018h-2.9833" color="#000000" enable-background="accumulate"/><path id="path4010-2-7-0-6" d="m8.9293 14.864h-2.9833" color="#000000" enable-background="accumulate"/><path id="path4010-2-7-0-0" d="m8.9293 8.5554h-2.9833" color="#000000" enable-background="accumulate"/><path id="path4010-2-7-0-62" d="m8.9293 11.71h-2.9833" color="#000000" enable-background="accumulate"/></g><g id="g3030" transform="translate(-.72195 -.83118)"><path id="path3032" transform="matrix(.68044 0 0 .68044 2.0969 3.5975)" d="m26.957 11.637c-0.39375 2e-3 -0.79775 0.17675-1.0938 0.46875l-5.375 5.25-5.4375-5.2188c-0.602-0.58-1.5592-0.583-2.1562 0-0.598 0.584-0.602 1.547 0 2.125l5.4375 5.2187-5.375 5.25c-0.599 0.583-0.605 1.5168 0 2.0938 0.601 0.577 1.5905 0.586 2.1875 0l5.375-5.25 5.4375 5.1875c0.605 0.578 1.5582 0.584 2.1562 0 0.596-0.58 0.598-1.5148 0-2.0938l-5.4375-5.2188 5.375-5.25c0.594-0.584 0.602-1.548 0-2.125-0.301-0.29-0.7-0.4395-1.0938-0.4375z" filter="url(#a)"/><path id="path3034" d="m20.137 10.881c-0.26792 0.0014-0.54282 0.099-0.74423 0.29769l-3.6574 3.5723-3.6999-3.5298c-0.40962-0.39466-1.061-0.3967-1.4672 0-0.4069 0.39738-0.40962 1.0314 0 1.4247l3.6999 3.551-3.6574 3.5723c-0.40758 0.3967-0.41167 1.0533 0 1.4459 0.40894 0.39261 1.0822 0.37747 1.4885-0.02126l3.6574-3.5723 3.6999 3.551c0.41166 0.39329 1.0603 0.39738 1.4672 0 0.40554-0.39465 0.4069-1.052 0-1.4459l-3.6999-3.551 3.6574-3.5723c0.40418-0.39738 0.40962-1.0321 0-1.4247-0.20481-0.19733-0.47631-0.29905-0.74423-0.29769z" fill="#f00" stroke="#ff4042" stroke-miterlimit="10" stroke-width=".20413"/></g></svg>
