<?xml version="1.0" encoding="UTF-8"?>
<!DOCTYPE svg  PUBLIC '-//W3C//DTD SVG 1.1//EN'  'http://www.w3.org/Graphics/SVG/1.1/DTD/svg11.dtd'>
<svg enable-background="new 0 0 32 32" version="1.1" viewBox="0 0 32 32" xml:space="preserve" xmlns="http://www.w3.org/2000/svg">
	<path d="m19.316 30.985-0.536-0.755c-0.222-0.291-0.361-0.509-0.528-0.749h-0.019c-0.123 0.24-0.272 0.458-0.457 0.749l-0.492 0.755h-1.532l1.716-2.11-1.655-2.062h1.541l0.519 0.761c0.176 0.255 0.309 0.458 0.449 0.694h0.018c0.142-0.267 0.255-0.452 0.404-0.694l0.502-0.761h1.531l-1.671 2.037 1.76 2.135h-1.55z"/>
<rect x="7.443" y="3.907" width="22.104" height="21.774" fill="#E6E7E8" stroke="#00A14B" stroke-miterlimit="10" stroke-width=".5"/>
<line x1="12.121" x2="12.121" y1="24.228" y2="25.445" fill="none" stroke="#000" stroke-miterlimit="10" stroke-width=".5"/>
<line x1="16.481" x2="16.481" y1="24.228" y2="25.445" fill="none" stroke="#000" stroke-miterlimit="10" stroke-width=".5"/>
<line x1="20.675" x2="20.675" y1="24.226" y2="25.443" fill="none" stroke="#000" stroke-miterlimit="10" stroke-width=".5"/>
<line x1="25.106" x2="25.106" y1="24.229" y2="25.446" fill="none" stroke="#000" stroke-miterlimit="10" stroke-width=".5"/>
<g fill="none" stroke="#000" stroke-miterlimit="10" stroke-width=".5">
	<line x1="8.689" x2="7.513" y1="8.26" y2="8.264"/>
	<line x1="8.705" x2="7.529" y1="12.62" y2="12.624"/>
	<line x1="8.722" x2="7.545" y1="16.814" y2="16.818"/>
	<line x1="8.734" x2="7.558" y1="21.246" y2="21.249"/>
</g>
	<path d="m3.114 16.572v-1.71l-1.879-2.466h1.533l0.609 1.002c0.186 0.304 0.308 0.526 0.458 0.799h0.017c0.133-0.26 0.274-0.503 0.448-0.799l0.6-1.003 1.507-2e-3 -1.954 2.437 1e-3 1.741-1.34 1e-3z"/>
		<path d="m8.894 22.083c1.279-0.466 1.521-1.852 1.816-3.051 0.472-1.914 2.476-1.43 2.608-3.744 0.026-0.451-0.108-2.314 0.439-2.495 0.349-0.115 0.718-0.137 1.046-0.329 0.636-0.373 1.043-1.117 1.274-1.787 0.216-0.625 0.394-1.25 0.563-1.89-6e-3 0.024 0.46-1.912 0.784-1.102 0.575 1.446 1.029 2.918 1.45 4.416 0.276 0.985 0.626 5.058 2.067 5.165 1.46 0.107 1.508-1.37 1.775-2.526 0.11-0.474-0.442-1.211-0.105-0.205 0.149 0.446 0.224 0.926 0.314 1.386 0.162 0.831 0.262 1.673 0.434 2.503 0.158 0.763 0.541 2.86 1.448 3.114 0.34 0.095 0.62-0.116 0.738-0.419 0.411-1.056 0.119-0.812 0.579 0.213 0.165 0.368 0.341 0.793 0.723 0.978 0.693 0.335 1.302-0.7 0.605-1.037-0.676-0.326-0.62-1.838-1.458-2.27-1.072-0.552-1.386 1.231-1.606 1.797 0.246-0.14 0.492-0.279 0.738-0.419-0.401-0.112-0.95-4.248-1.045-4.779-0.127-0.715-0.328-2.714-1.429-2.714-1.126 0-1.239 2.197-1.42 2.9 0.032-0.126-0.555-1.494-0.614-1.694-0.227-0.762-0.401-1.541-0.589-2.313-0.363-1.501-0.869-2.986-1.45-4.416-0.433-1.066-1.004-2.122-2.16-1.197-0.551 0.44-0.767 1.692-0.938 2.299-0.458 1.627-0.732 2.734-2.437 3.297-0.57 0.188-0.711 0.708-0.844 1.218-0.421 1.625 0.561 2.907-1.508 3.708-1.621 0.627-0.637 3.695-2.12 4.235-0.719 0.263-0.407 1.424 0.322 1.158z"/>
</svg>
