<?xml version="1.0" encoding="UTF-8"?>
<svg version="1.1" viewBox="0 0 32 32" xml:space="preserve" xmlns="http://www.w3.org/2000/svg"><g transform="matrix(-1 0 0 1 30 0)"><path d="m20.005 21.334h-13.441m13.939-1.732 7e-3 3.464 2.997-1.737z" fill="none" stroke="#00a14b" stroke-miterlimit="10" stroke-width="2"/><path d="m8.7069 15.905c0 1.882-0.738 3.061-2.134 3.061-1.351 0-2.071-1.224-2.08-3.006 0-1.819 0.774-3.043 2.143-3.043 1.414-1e-3 2.071 1.26 2.071 2.988zm-3.097 0.054c-9e-3 1.422 0.387 2.161 1 2.161 0.648 0 0.99-0.792 0.99-2.197 0-1.359-0.324-2.161-0.99-2.161-0.595 1e-3 -1.009 0.73-1 2.197z"/><path d="m21.758 17.31-1.3-1.83c-0.532-0.705-0.873-1.23-1.277-1.815h-0.043c-0.298 0.585-0.66 1.11-1.107 1.815l-1.193 1.83h-3.707l4.153-5.115-4.004-4.995h3.728l1.257 1.845c0.426 0.615 0.745 1.11 1.086 1.68h0.043c0.341-0.645 0.618-1.095 0.979-1.68l1.215-1.845h3.706l-4.047 4.935 4.26 5.175z"/></g></svg>
