<?xml version="1.0" encoding="UTF-8"?>
<svg version="1.1" viewBox="0 0 32 32" xml:space="preserve" xmlns="http://www.w3.org/2000/svg"><defs><filter id="a" x="-.14283" y="-.14519" width="1.2857" height="1.2904" color-interpolation-filters="sRGB"><feGaussianBlur stdDeviation="1.2609376"/></filter></defs><path d="m22.807 17.744c-0.787 0.225-1.726-8e-3 -1.95-0.738-0.563-1.577-0.957-3.208-1.35-4.839-0.451-1.631-0.957-3.375-1.576-4.95-0.226-0.45-1.068-2.513-1.406-2.851-0.674-0.563-0.563 1.444-0.845 2.119-0.619 1.575-1.117 3.731-2.186 5.082-0.957 1.237-2.314 0.375-2.426 2.119-0.057 1.237-0.758 2.17-1.039 3.35v8.571h12.777v-7.863z" fill="#a7a9ac"/><path d="m5.389 25.229c1.708-0.537 1.918-2.888 2.278-4.363 0.386-1.586 1.375-1.263 2.348-2.098 0.678-0.582 0.898-1.396 0.969-2.284 0.063-0.779 0.081-1.548 0.085-2.33 0.013-2.141 0.784-1.382 1.778-1.905 0.839-0.441 1.34-1.112 1.686-2.007 0.574-1.485 0.863-3.048 1.376-4.552 0.617-1.808 1.159-0.028 1.492 0.791 0.468 1.155 0.808 2.366 1.158 3.56 0.599 2.042 1.023 4.128 1.629 6.169 0.226 0.76 0.399 1.967 1.168 2.417 1.522 0.893 1.89-2.108 2.041-2.796 0.111-0.509 0.223-1.024 0.429-1.505-0.134 0.312 0.268 1.145 0.358 1.515 0.271 1.118 0.422 2.269 0.601 3.404 0.247 1.579 0.629 3.881 1.618 5.138 0.134 0.171 0.374 0.144 0.545 0.07 0.898-0.382 0.599-2.526 1.461-0.604 0.269 0.6 0.481 1.527 1.171 1.773 0.547 0.196 0.781-0.674 0.238-0.867-0.831-0.298-0.735-3.522-2.242-3.107-0.778 0.214-0.935 1.33-1.087 1.967 0.32-1.342-0.453-2.465-0.71-3.835-0.275-1.478-0.17-5.41-1.672-6.29-1.451-0.85-1.849 3.332-2.032 3.947-0.624-0.295-0.964-0.784-1.019-1.466-0.179-0.575-0.343-1.154-0.494-1.736-0.318-1.171-0.565-2.359-0.883-3.53-0.537-1.983-1.024-4.517-2.137-6.281-1.597-2.535-2.773 1.821-3.061 2.927-0.283 1.084-0.56 2.115-1.059 3.128-0.581 1.179-1.765 0.985-2.661 1.55-0.985 0.621-0.595 2.794-0.617 3.685-0.061 2.502-2.243 2.114-3.047 3.946-0.503 1.146-0.497 4.244-1.949 4.701-0.55 0.174-0.314 1.043 0.241 0.868z"/><line x1="9.34" x2="9.34" y1="5.713" y2="25.607" fill="none" stroke="#00a14b" stroke-miterlimit="10" stroke-width="1.5"/><line x1="23.322" x2="23.322" y1="5.713" y2="25.607" fill="none" stroke="#00a651" stroke-miterlimit="10" stroke-width="1.5"/><path d="m7.2675 8.4974-1.3438 1.3438 9.0625 9.0625-9.25 8.9062 1.3438 1.3438 9.25-8.9062 9.0938 9.0938 1.3438-1.3438-9.0625-9.0625 9.2188-8.9063-1.3125-1.375-9.25 8.9375-9.0938-9.0938z" color="#000000" filter="url(#a)" style="block-progression:tb;text-indent:0;text-transform:none"/><g fill="none" stroke="#ed1c24" stroke-miterlimit="10" stroke-width="1.9"><line x1="6.776" x2="26.272" y1="7.994" y2="27.495"/><line x1="26.455" x2="6.593" y1="8.173" y2="27.314"/></g></svg>
