<?xml version="1.0" encoding="UTF-8"?>
<svg id="svg3092" version="1.1" viewBox="0 0 32 32" xml:space="preserve" xmlns="http://www.w3.org/2000/svg" xmlns:cc="http://creativecommons.org/ns#" xmlns:dc="http://purl.org/dc/elements/1.1/" xmlns:rdf="http://www.w3.org/1999/02/22-rdf-syntax-ns#"><metadata id="metadata3123"><rdf:RDF><cc:Work rdf:about=""><dc:format>image/svg+xml</dc:format><dc:type rdf:resource="http://purl.org/dc/dcmitype/StillImage"/><dc:title/></cc:Work></rdf:RDF></metadata><g id="g3946" transform="translate(-31.092 .90251)"><path id="path3922" d="m43.172 16.218v-12.218" fill="none" stroke="#000" stroke-width="1px"/><path id="path3924" d="m46.736 15.2v-10.997" fill="none" stroke="#000" stroke-width="1px"/><path id="path3926" d="m50.299 15.2v-3.8692" fill="none" stroke="#000" stroke-width="1px"/><path id="path3930" d="m43.172 3.9994c0.10182-2.7491 3.4619-2.7491 3.5637 0.20364" fill="none" stroke="#000" stroke-linecap="round" stroke-width="1px"/><path id="path3932" d="m46.738 11.229c0.10182-2.7491 3.4619-2.7491 3.5637 0.20364" fill="none" stroke="#000" stroke-width="1px"/><path id="path3934" d="m50.305 12.254c0.10182-2.7491 3.4619-2.7491 3.5637 0.20364" fill="none" stroke="#000" stroke-linecap="round" stroke-width="1px"/><path id="path3936" d="m53.892 14.792v-2.7491" fill="none" stroke="#000" stroke-width="1px"/><path id="path3938" d="m53.888 13.061c0.10182-1.8328 2.7242-2.0364 2.826 0.20364v6.7201c-0.4936 3.3365-2.6441 1.5754-2.24 8.2474" fill="none" stroke="#000" stroke-width="1px"/><path id="path3940" d="m43.019 15.565c-3.3601-4.1746-6.7558-1.7904-5.1267 0.34784l3.3601 3.7674c1.945 2.7929 1.9311 1.7043 1.9346 8.5529" fill="none" stroke="#000" stroke-width="1px"/><rect id="rect3944" x="42.677" y="25.484" width="12.285" height="3.0344" ry="0"/></g></svg>
