<?xml version="1.0" encoding="UTF-8"?>
<svg version="1.1" viewBox="0 0 32 32" xml:space="preserve" xmlns="http://www.w3.org/2000/svg"><linearGradient id="d" x1="22.414" x2="22.473" y1="21.502" y2="21.502" gradientUnits="userSpaceOnUse"><stop stop-color="#fff" offset="0"/><stop offset="1"/></linearGradient><path d="m22.443 24.002c0.038 0 0.038-5 0-5s-0.038 5 0 5z" fill="url(#d)"/><path d="m8.293 10.899c5.462 5.68 10.925 11.36 16.387 17.04-0.814-0.847 0.851-4.115 0-5-5.462-5.68-10.924-11.36-16.387-17.04 0.814 0.847-0.851 4.116 0 5z" fill="#ed1c24"/><path d="m24.452 5.675c-5.434 5.658-10.869 11.317-16.304 16.975-0.851 0.886 0.814 4.152 0 5 5.435-5.658 10.869-11.317 16.304-16.976 0.851-0.884-0.814-4.152 0-4.999z" fill="#ed1c24"/></svg>
