<?xml version="1.0" encoding="UTF-8" standalone="no"?>
<svg
   width="32"
   height="32"
   viewBox="0 0 8.4666657 8.4666657"
   version="1.1"
   id="svg5"
   inkscape:version="1.2.2 (b0a8486541, 2022-12-01)"
   sodipodi:docname="ruler.svg"
   inkscape:export-filename="ruler.png"
   inkscape:export-xdpi="100"
   inkscape:export-ydpi="100"
   xmlns:inkscape="http://www.inkscape.org/namespaces/inkscape"
   xmlns:sodipodi="http://sodipodi.sourceforge.net/DTD/sodipodi-0.dtd"
   xmlns="http://www.w3.org/2000/svg"
   xmlns:svg="http://www.w3.org/2000/svg"
   xmlns:rdf="http://www.w3.org/1999/02/22-rdf-syntax-ns#"
   xmlns:cc="http://creativecommons.org/ns#"
   xmlns:dc="http://purl.org/dc/elements/1.1/">
  <metadata
     id="metadata35">
    <rdf:RDF>
      <cc:Work
         rdf:about="">
        <dc:format>image/svg+xml</dc:format>
        <dc:type
           rdf:resource="http://purl.org/dc/dcmitype/StillImage" />
      </cc:Work>
    </rdf:RDF>
  </metadata>
  <sodipodi:namedview
     id="namedview7"
     pagecolor="#ffffff"
     bordercolor="#000000"
     borderopacity="0.25"
     inkscape:showpageshadow="2"
     inkscape:pageopacity="0.0"
     inkscape:pagecheckerboard="0"
     inkscape:deskcolor="#d1d1d1"
     inkscape:document-units="mm"
     showgrid="false"
     inkscape:zoom="13.455443"
     inkscape:cx="-18.988598"
     inkscape:cy="0.2229581"
     inkscape:window-width="1920"
     inkscape:window-height="1163"
     inkscape:window-x="1920"
     inkscape:window-y="0"
     inkscape:window-maximized="1"
     inkscape:current-layer="g1102"
     inkscape:document-rotation="0"
     showguides="true">
    <inkscape:grid
       type="xygrid"
       id="grid3452"
       originx="0"
       originy="0" />
  </sodipodi:namedview>
  <defs
     id="defs2" />
  <g
     inkscape:label="Layer 1"
     inkscape:groupmode="layer"
     id="layer1">
    <g
       id="g1102"
       transform="translate(-0.36925443,-7.7531893)">
      <g
         id="path1743">
        <path
           style="color:#000000;fill:#ffffff;stroke-width:0.517192;stroke-miterlimit:3.5;-inkscape-stroke:none"
           d="M 6.5495575,11.909879 5.7344716,11.369562"
           id="path418" />
        <path
           style="color:#000000;fill:#000000;stroke-miterlimit:3.5;-inkscape-stroke:none"
           d="M 5.8769531,11.154297 5.5917969,11.585938 6.40625,12.125 6.6933594,11.695313 Z"
           id="path420" />
        <g
           id="g408">
          <g
             id="path410">
            <path
               style="color:#000000;fill:#ffffff;fill-rule:evenodd;stroke-width:0.0456346pt;-inkscape-stroke:none"
               d="m 5.5442899,11.243491 c 0.069591,-0.10498 0.211272,-0.133702 0.3162524,-0.06411 0.1049803,0.06959 0.133702,0.211272 0.064111,0.316253 -0.069591,0.10498 -0.2135542,0.132189 -0.3162524,0.06411 -0.1049803,-0.06959 -0.133702,-0.211272 -0.064111,-0.316253 z"
               id="path414" />
            <path
               style="color:#000000;fill:#000000;fill-rule:evenodd;-inkscape-stroke:none"
               d="m 5.8769531,11.154297 c -0.1187003,-0.07869 -0.278736,-0.04643 -0.3574219,0.07227 -0.078686,0.1187 -0.046435,0.28069 0.072266,0.359375 0.116723,0.07738 0.2784923,0.04485 0.3574218,-0.07422 0.078686,-0.118701 0.046435,-0.278737 -0.072266,-0.357422 z m -0.033203,0.05078 c 0.09126,0.06049 0.1151836,0.182177 0.054687,0.273438 -0.060252,0.09089 -0.1847643,0.115422 -0.2734375,0.05664 -0.09126,-0.0605 -0.1151836,-0.184129 -0.054687,-0.27539 0.060496,-0.09126 0.1821772,-0.115185 0.2734375,-0.05469 z"
               id="path416" />
          </g>
        </g>
      </g>
      <g
         id="rect234"
         transform="matrix(0.77265229,0.63482945,-0.6944385,0.71955206,0,0)">
        <path
           style="color:#000000;fill:#ffffff;stroke-width:0.399005;stroke-linecap:round;stroke-linejoin:round;stroke-miterlimit:3.5;-inkscape-stroke:none"
           d="m 10.480519,2.0891316 h 2.354846 c 0.12095,0 0.218321,0.097371 0.218321,0.2183209 v 8.0683205 c 0,0.120949 -0.09737,0.218321 -0.218321,0.218321 h -2.354846 c -0.120949,0 -0.218321,-0.09737 -0.218321,-0.218321 V 2.3074525 c 0,-0.1209498 0.09737,-0.2183209 0.218321,-0.2183209 z"
           id="path330" />
        <path
           style="color:#000000;fill:#000000;stroke-linecap:round;stroke-linejoin:round;stroke-miterlimit:3.5;-inkscape-stroke:none"
           d="m 10.480469,1.8886719 c -0.228023,0 -0.417969,0.1899469 -0.417969,0.4179687 V 10.375 c 0,0.228024 0.189947,0.417969 0.417969,0.417969 h 2.355469 c 0.228024,0 0.417968,-0.189947 0.417968,-0.417969 V 2.3066406 c 0,-0.2280229 -0.189946,-0.4179687 -0.417968,-0.4179687 z m 0,0.4003906 h 2.355469 c 0.01388,0 0.01758,0.0037 0.01758,0.017578 V 10.375 c 0,0.01388 -0.0037,0.01953 -0.01758,0.01953 h -2.355469 c -0.01388,0 -0.01953,-0.0057 -0.01953,-0.01953 V 2.3066406 c 0,-0.013877 0.0057,-0.017578 0.01953,-0.017578 z"
           id="path332" />
      </g>
      <g
         id="path1743-9-3">
        <path
           style="color:#000000;fill:#000000;stroke-miterlimit:3.5;-inkscape-stroke:none;paint-order:stroke markers fill"
           d="m 5.9492187,10.972656 -0.3945312,0.439453 0.796875,0.716797 0.3945312,-0.4375 z"
           id="path404" />
        <g
           id="g394">
          <g
             id="path396">
            <path
               style="color:#000000;fill:#ffffff;fill-rule:evenodd;stroke-width:0.0520108pt;-inkscape-stroke:none"
               d="m 5.5585792,11.01876 c 0.095985,-0.10674 0.260515,-0.11547 0.3672555,-0.01949 0.1067406,0.09599 0.1154702,0.260515 0.019486,0.367256 -0.095985,0.10674 -0.2628354,0.113383 -0.3672555,0.01949 C 5.4713246,11.290036 5.462595,11.125501 5.5585792,11.01876 Z"
               id="path400" />
            <path
               style="color:#000000;fill:#000000;fill-rule:evenodd;-inkscape-stroke:none"
               d="m 5.9492187,10.972656 c -0.1206907,-0.108524 -0.3074864,-0.09725 -0.4160156,0.02344 -0.1085286,0.120691 -0.099207,0.307491 0.021484,0.416015 0.1186803,0.106716 0.3071504,0.09958 0.4160156,-0.02148 0.108528,-0.120691 0.099205,-0.309435 -0.021484,-0.417969 z m -0.046875,0.05274 c 0.092792,0.08345 0.1010184,0.225568 0.017578,0.318359 -0.083105,0.09242 -0.2281997,0.0967 -0.3183594,0.01563 -0.092789,-0.08343 -0.1010177,-0.225569 -0.017578,-0.318359 0.083441,-0.09279 0.2255693,-0.09906 0.3183593,-0.01563 z"
               id="path402" />
          </g>
        </g>
      </g>
      <g
         id="path1741-9">
        <path
           style="color:#000000;fill:#000000;stroke-miterlimit:3.5;-inkscape-stroke:none"
           d="M 6.4042969,9.6074219 6.0117187,10.052734 7.3417969,11.224609 7.734375,10.779297 Z"
           id="path390" />
        <g
           id="g380">
          <g
             id="path382">
            <path
               style="color:#000000;fill:#000000;fill-rule:evenodd;stroke-width:0.0524193pt;-inkscape-stroke:none"
               d="m 6.0116332,9.6575594 c 0.095671,-0.1085287 0.261399,-0.1189636 0.3699276,-0.023292 0.1085287,0.095671 0.1189636,0.261399 0.023292,0.3699276 -0.095671,0.108528 -0.2637583,0.116884 -0.3699276,0.02329 C 5.9263967,9.9318156 5.9159618,9.766088 6.0116332,9.6575594 Z"
               id="path386" />
            <path
               style="color:#000000;fill:#000000;fill-rule:evenodd;-inkscape-stroke:none"
               d="m 6.4042969,9.6074219 c -0.1227123,-0.108175 -0.3097944,-0.095369 -0.4179688,0.027344 -0.1081747,0.1227123 -0.097322,0.3097959 0.025391,0.4179684 0.1206682,0.106376 0.3114126,0.0977 0.4199219,-0.02539 0.108175,-0.1227125 0.095369,-0.3117477 -0.027344,-0.4199221 z m -0.044922,0.052734 c 0.094345,0.083167 0.1026993,0.2259678 0.019531,0.3203125 C 6.2960737,10.074433 6.150264,10.082765 6.0585937,10.001953 5.9642495,9.9187874 5.9539415,9.7759853 6.0371094,9.6816406 6.1202768,9.5872959 6.2650303,9.5769882 6.359375,9.6601563 Z"
               id="path388" />
          </g>
        </g>
      </g>
      <g
         id="path1741-9-7">
        <path
           style="color:#000000;fill:#000000;stroke-miterlimit:3.5;-inkscape-stroke:none"
           d="m 4.2851562,11.6875 -0.3925781,0.445313 1.3300781,1.171875 0.3925782,-0.445313 z"
           id="path376" />
        <g
           id="g366">
          <g
             id="path368">
            <path
               style="color:#000000;fill:#000000;fill-rule:evenodd;stroke-width:0.0524193pt;-inkscape-stroke:none"
               d="m 3.8930299,11.736561 c 0.095671,-0.108528 0.261399,-0.118963 0.3699276,-0.02329 0.1085286,0.09567 0.1189634,0.261399 0.023292,0.369928 -0.095671,0.108528 -0.2637583,0.116883 -0.3699276,0.02329 -0.1085286,-0.09567 -0.1189634,-0.261399 -0.023292,-0.369928 z"
               id="path372" />
            <path
               style="color:#000000;fill:#000000;fill-rule:evenodd;-inkscape-stroke:none"
               d="m 4.2851562,11.6875 c -0.1227122,-0.108177 -0.3097943,-0.09732 -0.4179687,0.02539 -0.1081748,0.122712 -0.097322,0.311748 0.025391,0.419922 0.1206681,0.106374 0.3114125,0.09575 0.4199219,-0.02734 0.1081748,-0.122713 0.095369,-0.309795 -0.027344,-0.417969 z m -0.044922,0.05273 c 0.094344,0.08317 0.1026991,0.225968 0.019531,0.320313 -0.082832,0.09396 -0.2286422,0.100343 -0.3203125,0.01953 -0.094344,-0.08317 -0.1026991,-0.225967 -0.019531,-0.320312 0.083167,-0.09434 0.2259677,-0.102701 0.3203125,-0.01953 z"
               id="path374" />
          </g>
        </g>
      </g>
      <g
         id="path1741-9-3">
        <path
           style="color:#000000;fill:#000000;stroke-miterlimit:3.5;-inkscape-stroke:none"
           d="m 2.4824219,13.669922 -0.3945313,0.445312 1.3300782,1.171875 0.3925781,-0.445312 z"
           id="path362" />
        <g
           id="g352">
          <g
             id="path354">
            <path
               style="color:#000000;fill:#000000;fill-rule:evenodd;stroke-width:0.0524193pt;-inkscape-stroke:none"
               d="m 2.0886536,13.720045 c 0.095671,-0.108528 0.2613989,-0.118963 0.3699275,-0.02329 0.1085287,0.09567 0.1189637,0.261399 0.023292,0.369928 -0.095671,0.108528 -0.2637582,0.116883 -0.3699275,0.02329 -0.1085287,-0.09567 -0.1189637,-0.261399 -0.023292,-0.369928 z"
               id="path358" />
            <path
               style="color:#000000;fill:#000000;fill-rule:evenodd;-inkscape-stroke:none"
               d="M 2.4824219,13.669922 C 2.3597097,13.561745 2.1706744,13.574554 2.0625,13.697266 c -0.1081751,0.122712 -0.097322,0.309795 0.025391,0.417968 0.1206681,0.106375 0.3114126,0.0977 0.4199219,-0.02539 0.1081751,-0.122713 0.097322,-0.311749 -0.025391,-0.419922 z m -0.046875,0.05273 c 0.094344,0.08317 0.1026993,0.225968 0.019531,0.320313 -0.082832,0.09396 -0.2286422,0.102296 -0.3203125,0.02148 -0.094344,-0.08317 -0.1026993,-0.22792 -0.019531,-0.322265 0.083167,-0.09435 0.2259677,-0.102701 0.3203125,-0.01953 z"
               id="path360" />
          </g>
        </g>
      </g>
      <g
         id="path1743-9-3-6">
        <path
           style="color:#000000;fill:#ffffff;stroke-width:0.589456;stroke-miterlimit:3.5;-inkscape-stroke:none"
           d="M 4.4307455,14.144747 3.6331377,13.427511"
           id="path346" />
        <path
           style="color:#000000;fill:#000000;stroke-miterlimit:3.5;-inkscape-stroke:none"
           d="m 3.8300781,13.208984 -0.3945312,0.4375 0.7988281,0.716797 0.3925781,-0.4375 z"
           id="path348" />
        <g
           id="g336">
          <g
             id="path338">
            <path
               style="color:#000000;fill:#ffffff;fill-rule:evenodd;stroke-width:0.0520108pt;-inkscape-stroke:none"
               d="m 3.4397673,13.253626 c 0.095985,-0.106741 0.2605151,-0.11547 0.3672556,-0.01949 0.1067404,0.09598 0.1154698,0.260515 0.019485,0.367255 -0.095985,0.106741 -0.2628356,0.113383 -0.3672556,0.01949 -0.1067404,-0.09598 -0.1154698,-0.260515 -0.019485,-0.367255 z"
               id="path342" />
            <path
               style="color:#000000;fill:#000000;fill-rule:evenodd;-inkscape-stroke:none"
               d="m 3.8300781,13.208984 c -0.1206906,-0.108523 -0.3074864,-0.09921 -0.4160156,0.02149 -0.1085295,0.12069 -0.099207,0.307491 0.021484,0.416015 0.1186801,0.106716 0.3071504,0.09958 0.4160156,-0.02148 0.1085295,-0.12069 0.099207,-0.307491 -0.021484,-0.416016 z m -0.046875,0.05078 c 0.092789,0.08343 0.1010181,0.22557 0.017578,0.318359 -0.083105,0.09242 -0.2281998,0.09865 -0.3183594,0.01758 -0.092789,-0.08343 -0.1010181,-0.22557 -0.017578,-0.318359 0.083441,-0.09279 0.2255692,-0.101014 0.3183593,-0.01758 z"
               id="path344" />
          </g>
        </g>
      </g>
    </g>
  </g>
</svg>
