<?xml version="1.0" encoding="UTF-8"?>
<svg id="svg8" version="1.1" viewBox="0 0 32 32" xml:space="preserve" xmlns="http://www.w3.org/2000/svg" xmlns:cc="http://creativecommons.org/ns#" xmlns:dc="http://purl.org/dc/elements/1.1/" xmlns:rdf="http://www.w3.org/1999/02/22-rdf-syntax-ns#"><metadata id="metadata14"><rdf:RDF><cc:Work rdf:about=""><dc:format>image/svg+xml</dc:format><dc:type rdf:resource="http://purl.org/dc/dcmitype/StillImage"/><dc:title/></cc:Work></rdf:RDF></metadata><g id="text841-0" transform="matrix(.60674 0 0 1.2718 .00017519 3.6533)" fill="#4d4d4d" stroke-width=".42868" aria-label="AUTO"><path id="path1407" d="m10.2 13.672h-5.0403l-0.7954 2.2774h-3.2402l4.6301-12.5h3.843l4.6301 12.5h-3.2402zm-4.2366-2.3192h3.4244l-1.708-4.9734z"/><path id="path1409" d="m14.846 3.4493h3.2235v7.4935q0 1.5489 0.50236 2.2188 0.51073 0.66144 1.6578 0.66144 1.1554 0 1.6578-0.66144 0.51073-0.66981 0.51073-2.2188v-7.4935h3.2235v7.4935q0 2.6541-1.3313 3.9519t-4.0607 1.2978q-2.7211 0-4.0524-1.2978t-1.3313-3.9519z"/><path id="path1411" d="m26.793 3.4493h11.521v2.4364h-4.1445v10.064h-3.2235v-10.064h-4.1528z"/><path id="path1413" d="m45.186 5.5592q-1.4736 0-2.2857 1.0884-0.81215 1.0884-0.81215 3.0644 0 1.9676 0.81215 3.056t2.2857 1.0884q1.482 0 2.2941-1.0884 0.81215-1.0884 0.81215-3.056 0-1.9759-0.81215-3.0644-0.81215-1.0884-2.2941-1.0884zm0-2.336q3.0142 0 4.7222 1.7248t1.708 4.764q0 3.0309-1.708 4.7557t-4.7222 1.7248q-3.0058 0-4.7222-1.7248-1.708-1.7248-1.708-4.7557 0-3.0393 1.708-4.764 1.7164-1.7248 4.7222-1.7248z"/></g><path id="rect846" transform="rotate(15.647)" d="m3.5335 9.776h32.378v2.6316h-32.378z" fill="#4d4d4d"/></svg>
