<?xml version="1.0" encoding="UTF-8"?>
<svg version="1.1" viewBox="0 0 32 32" xml:space="preserve" xmlns="http://www.w3.org/2000/svg"><defs><filter id="a" x="-.11943" y="-.1813" width="1.2389" height="1.3626" color-interpolation-filters="sRGB"><feGaussianBlur stdDeviation="1.05051"/></filter></defs><rect x="2.688" y="5.828" width="27.627" height="20.344" fill="#fff" stroke="#000" stroke-miterlimit="10" stroke-width=".7"/><rect x="3.009" y="5.828" width="26.986" height="2.681" fill="#fff" stroke="#000" stroke-miterlimit="10" stroke-width=".2"/><g transform="translate(.047939 -3.4996)" filter="url(#a)"><polygon transform="translate(-.065513 4.6032)" points="10.365 24.588 9.183 23.109 13.122 19.823 12.04 18.469 8.102 21.758 6.92 20.279 6.145 24.518"/><polygon transform="translate(-.065513 4.6032)" points="22.924 10.866 24.206 12.38 20.324 15.808 21.498 17.193 25.38 13.763 26.657 15.271 27.256 10.894"/><polygon transform="translate(-.065513 4.6032)" points="6.718 15.227 8.002 13.709 11.862 17.123 13.036 15.735 9.178 12.323 10.463 10.808 6.145 10.85"/><polygon transform="translate(-.065513 4.6032)" points="26.391 20.21 25.248 21.758 21.257 18.677 20.215 20.09 24.206 23.168 23.063 24.714 27.256 24.415"/></g><polygon points="9.183 23.109 13.122 19.823 12.04 18.469 8.102 21.758 6.92 20.279 6.145 24.518 10.365 24.588" fill="#ed1c24"/><polygon points="24.206 12.38 20.324 15.808 21.498 17.193 25.38 13.763 26.657 15.271 27.256 10.894 22.924 10.866" fill="#ed1c24"/><polygon points="8.002 13.709 11.862 17.123 13.036 15.735 9.178 12.323 10.463 10.808 6.145 10.85 6.718 15.227" fill="#ed1c24"/><polygon points="25.248 21.758 21.257 18.677 20.215 20.09 24.206 23.168 23.063 24.714 27.256 24.415 26.391 20.21" fill="#ed1c24"/></svg>
