<?xml version="1.0" encoding="UTF-8"?>
<svg version="1.1" viewBox="0 0 32 32" xml:space="preserve" xmlns="http://www.w3.org/2000/svg"><path d="m24.653 7.496c-10.964-0.107-10.073 10.653-10.266 10.974 0 0 0.193-7.139 10.267-6.713v-4.261z" fill="#f7941e" stroke="#f7941e" stroke-miterlimit="10" stroke-width=".1"/><path d="m24.653 5.819c0-0.17 0.122-0.243 0.271-0.16l6.169 3.403c0.149 0.083 0.157 0.23 0.018 0.328l-6.204 4.348c-0.14 0.098-0.254 0.038-0.254-0.132v-7.787z" fill="#f7941e" stroke="#f7941e" stroke-miterlimit="10"/><path d="m6.2188 8.75c-0.96309 0-1.7812 0.78845-1.7812 1.75v14.125c0 0.96309 0.8197 1.75 1.7812 1.75h19.562c0.45682 0 0.87277-0.20852 1.1875-0.5 0.39449-0.39136 0.54581-0.73311 0.59375-1.25v-9.625l-2.5 2.0312c-0.0096 2.2812 0.03017 4.5643-0.03125 6.8438h-18.094v-12.625h6.5625l1.6875-2.5z" color="#000000" fill="#f7941e" style="block-progression:tb;text-indent:0;text-transform:none"/></svg>
