<?xml version="1.0" encoding="UTF-8"?>
<svg version="1.1" viewBox="0 0 32 32" xml:space="preserve" xmlns="http://www.w3.org/2000/svg"><linearGradient id="d" x1="20.887" x2="23.374" y1="21.759" y2="18.443" gradientUnits="userSpaceOnUse"><stop stop-color="#280e19" offset="0"/><stop stop-color="#382229" offset=".1053"/><stop stop-color="#f9edf5" offset=".9839"/></linearGradient><radialGradient id="c" cx="13.206" cy="8.4126" r="9.1344" gradientUnits="userSpaceOnUse"><stop stop-color="#00aeef" stop-opacity=".6" offset="0"/><stop stop-color="#9bd1ea" stop-opacity=".5317" offset=".6832"/><stop stop-color="#e6e7e8" stop-opacity=".5" offset="1"/></radialGradient><linearGradient id="b" x1="4.605" x2="18.267" y1="12.302" y2="12.302" gradientUnits="userSpaceOnUse"><stop stop-color="#FFF" offset="0"/><stop offset="1"/></linearGradient><polygon points="28.606 22.356 26.103 25.571 15.723 17.758 18.174 14.502" fill="url(#d)" stroke="#808285" stroke-miterlimit="10" stroke-width=".2"/><circle cx="11.483" cy="12.302" r="7" fill="none" stroke="#776569" stroke-miterlimit="10"/><path d="m17.967 12.302c0 3.594-3.039 6.507-6.518 6.507s-6.544-2.913-6.544-6.507 3.065-6.507 6.544-6.507 6.518 2.913 6.518 6.507z" fill="url(#c)" stroke="url(#b)" stroke-miterlimit="10" stroke-width=".6"/><path d="m10.992 6.764s4.839-0.584 5.992 4.366" fill="none" stroke="#FFF" stroke-miterlimit="10" stroke-width="1.2"/><g transform="matrix(-1 0 0 1 23.132 -18.833)" fill="#F00" stroke="#F00" stroke-miterlimit="10"><path d="m4.7543 24.006c-10.964-0.107-10.073 10.653-10.266 10.974 0 0 0.193-7.139 10.267-6.713v-4.261z" stroke-width=".1"/><path d="m4.7543 22.329c0-0.17 0.122-0.243 0.271-0.16l6.169 3.403c0.149 0.083 0.157 0.23 0.018 0.328l-6.204 4.348c-0.14 0.098-0.254 0.038-0.254-0.132v-7.787z"/></g></svg>
