<?xml version="1.0" encoding="UTF-8"?>
<svg version="1.1" viewBox="0 0 32 32" xmlns="http://www.w3.org/2000/svg">
 <rect transform="matrix(1 0 -.69517 .71885 0 0)" x="31.513" y="27.211" width="18" height="15.133" fill="none" stroke="#808080" stroke-linecap="square" stroke-miterlimit="0" stroke-width="1.1795"/>
 <rect x="12.5" y="1.5" width="18" height="18" ry="0" fill="none" stroke="#808080" stroke-miterlimit="2"/>
 <g transform="translate(.085189 -2e-7)">
  <rect transform="rotate(90)" x="9.6949" y="-16.915" width="16.61" height="1.8305" ry=".020888" color="#000000"/>
  <path d="m19.47 24.598c-1.2305 2.0808-2.3818 3.924-3.5398 5.7873l-3.3995-5.7593z"/>
  <path d="m19.47 7.4021c-1.2305-2.0808-2.3818-3.924-3.5398-5.7873l-3.3995 5.7593z"/>
  <rect transform="matrix(1 0 -.70625 .70796 0 0)" x="23.765" y="16.176" width="18" height="15.365" fill="#f7941e" fill-opacity=".81569" stroke="#000" stroke-linecap="square" stroke-miterlimit="0" stroke-width="1.1885"/>
  <rect transform="rotate(90)" x="5.6949" y="-16.915" width="10.225" height="1.8305" ry=".020888" color="#000000"/>
 </g>
 <rect x="1.5" y="12.5" width="18" height="18" ry="0" fill="none" stroke="#808080" stroke-miterlimit="2"/>
 <rect transform="matrix(1 0 -.70625 .70796 0 0)" x="13.765" y="2.0757" width="18" height="15.365" fill="none" stroke="#808080" stroke-linecap="square" stroke-miterlimit="0" stroke-width="1.1885"/>
</svg>
