<?xml version="1.0" encoding="UTF-8"?>
<svg enable-background="new 0 0 32 32" version="1.1" viewBox="0 0 32 32" xml:space="preserve" xmlns="http://www.w3.org/2000/svg"><path d="m16.906 27.336c-4.4642 1.8691-10.351-3.4318-11.174-8.0539-0.53214-2.9861-1.2362-5.3707 0.53104-8.3707 6.3921-10.851 16.781-2.9719 15.078-2.8833l7.7449 7.2444c-6.9 2.3939-4.3409-1.7385-9.6358 2.5196-1.0194 4.3014 2.6532 4.67 2.0469 7.8029z" color="#000000" enable-background="accumulate" fill="none" stroke="#f7941e" stroke-linecap="round" stroke-linejoin="round" stroke-miterlimit="10" stroke-width="2.6134"/><g transform="translate(.25293 13.263)" fill="#00a651" stroke="#00a651" stroke-miterlimit="10"><rect x="24.483" y="7.225" width="1.239" height="8.379"/><rect x="20.913" y="10.796" width="8.38" height="1.237"/></g><g color="#000000" enable-background="accumulate" fill="#00a651" stroke="#00a651" stroke-miterlimit="10"><path d="m14.192 19.525h1.4092v1.7632h-1.4092v-1.7632"/><path d="m15.559 17.149h-1.3259v-1.069c-3e-6 -0.4674 0.06479-0.85151 0.19437-1.1523 0.12958-0.3008 0.40261-0.6502 0.81912-1.0482l0.62475-0.61781c0.26378-0.24526 0.45352-0.47665 0.56922-0.69417 0.12032-0.2175 0.18048-0.43963 0.18048-0.6664-5e-6 -0.41186-0.15272-0.74506-0.45815-0.9996-0.30081-0.25452-0.70111-0.38178-1.2009-0.38179-0.3656 9e-6 -0.75664 0.08099-1.1731 0.24296-0.41187 0.16198-0.84226 0.398-1.2912 0.70805v-1.305c0.43501-0.26377 0.87465-0.46045 1.3189-0.59004 0.44889-0.12957 0.91167-0.19436 1.3883-0.19437 0.85151 1.06e-5 1.5341 0.22446 2.0478 0.67334 0.5183 0.4489 0.77746 1.0413 0.77747 1.7771-6e-6 0.35172-0.08331 0.68723-0.2499 1.0065-0.16661 0.3147-0.45816 0.67103-0.87465 1.069l-0.61087 0.59698c-0.21751 0.21751-0.37254 0.38874-0.46509 0.51368-0.08793 0.12033-0.15041 0.23834-0.18742 0.35402-0.02777 0.09719-0.0486 0.2152-0.06248 0.35402-0.01389 0.13884-0.02083 0.32858-0.02082 0.56922v0.85382"/></g></svg>
