<?xml version="1.0" encoding="UTF-8" standalone="no"?>
<!-- Generator: Adobe Illustrator 16.0.0, SVG Export Plug-In . SVG Version: 6.00 Build 0)  -->
<svg id="Layer_1" xmlns:rdf="http://www.w3.org/1999/02/22-rdf-syntax-ns#" xmlns="http://www.w3.org/2000/svg" version="1.1" xml:space="preserve" height="32px" viewBox="0 0 32 32" width="32px" enable-background="new 0 0 32 32" y="0px" x="0px" xmlns:cc="http://creativecommons.org/ns#" xmlns:dc="http://purl.org/dc/elements/1.1/"><defs id="defs9"/><metadata id="metadata9"><rdf:RDF><cc:Work rdf:about=""><dc:format>image/svg+xml</dc:format><dc:type rdf:resource="http://purl.org/dc/dcmitype/StillImage"/><dc:title/></cc:Work></rdf:RDF></metadata>
<g id="g5423" transform="translate(0,-2.4249339)"><g id="g5394" transform="translate(-12.499378,4.4865837)"><rect id="rect3048" height="9" width="9" stroke="#f7941e" y="15.013" x="12.999" fill="none"/><g id="g5388" transform="translate(-20.022378,-1.5293387)"><path id="path5384" fill="#000" d="m17.469,16.375-3.2188,3.2188,3.2188,3.2188,0-2.125,3.0625,0,0.0625-1.0938-0.0625-1.0938-3.0625,0,0-2.125z" transform="translate(20.099881,1.5293387)"/></g></g><g id="g5399" transform="matrix(0,-1,1,0,-3.5134163,41.499378)"><rect id="rect5401" height="9" width="9" stroke="#f7941e" y="15.013" x="12.999" fill="none"/><g id="g5403" transform="translate(-20.022378,-1.5293387)"><path id="path5405" d="m17.469,16.375-3.2188,3.2188,3.2188,3.2188,0-2.125,3.0625,0,0.0625-1.0938-0.0625-1.0938-3.0625,0,0-2.125z" transform="translate(20.099881,1.5293387)" fill="#000"/></g></g><g id="g5407" transform="matrix(-1,0,0,-1,44.499378,43.513416)"><rect id="rect5409" height="9" width="9" stroke="#f7941e" y="15.013" x="12.999" fill="none"/><g id="g5411" transform="translate(-20.022378,-1.5293387)"><path id="path5413" fill="#000" d="m17.469,16.375-3.2188,3.2188,3.2188,3.2188,0-2.125,3.0625,0,0.0625-1.0938-0.0625-1.0938-3.0625,0,0-2.125z" transform="translate(20.099881,1.5293387)"/></g></g><g id="g5415" transform="matrix(0,1,-1,0,35.513416,-4.6495103)"><rect id="rect5417" height="9" width="9" stroke="#f7941e" y="15.013" x="12.999" fill="none"/><g id="g5419" transform="translate(-20.022378,-1.5293387)"><path id="path5421" d="m17.469,16.375-3.2188,3.2188,3.2188,3.2188,0-2.125,3.0625,0,0.0625-1.0938-0.0625-1.0938-3.0625,0,0-2.125z" transform="translate(20.099881,1.5293387)" fill="#000"/></g></g></g></svg>
