<?xml version="1.0" encoding="utf-8"?>
<!-- Generator: Adobe Illustrator 16.0.0, SVG Export Plug-In . SVG Version: 6.00 Build 0)  -->
<!DOCTYPE svg PUBLIC "-//W3C//DTD SVG 1.1//EN" "http://www.w3.org/Graphics/SVG/1.1/DTD/svg11.dtd">
<svg version="1.1" id="Layer_1" xmlns="http://www.w3.org/2000/svg" xmlns:xlink="http://www.w3.org/1999/xlink" x="0px" y="0px"
	 width="32px" height="32px" viewBox="0 0 32 32" enable-background="new 0 0 32 32" xml:space="preserve">
<path stroke="#FFFFFF" stroke-width="0.51" stroke-miterlimit="10" d="M18.462,32"/>
<g>
	<path fill="none" stroke="#F7941E" stroke-width="2" stroke-miterlimit="10" d="M24.652,29.335c0,0.279-0.229,0.51-0.51,0.51H7.933
		c-0.28,0-0.51-0.23-0.51-0.51V9.894c0-0.28,0.229-0.51,0.51-0.51h16.21c0.28,0,0.51,0.229,0.51,0.51V29.335z"/>
</g>
<path fill="#58595B" d="M21.096,14.341c-3.148,0.465-6.283,0.526-9.449,0.201c-0.412-0.042-1.197,1.319-0.892,1.35
	c3.167,0.326,6.3,0.265,9.451-0.201C20.661,15.624,21.291,14.312,21.096,14.341z"/>
<path fill="#414042" d="M20.494,17.759c-2.973-0.041-5.935,0.023-8.898,0.252c-0.449,0.035-1.12,1.367-0.892,1.35
	c2.964-0.23,5.926-0.293,8.897-0.25C20.036,19.116,20.765,17.763,20.494,17.759z"/>
<path fill="#6D6E71" d="M14.21,20.825c-0.835,0.094-1.675,0.059-2.513,0.102c-0.304,0.014-0.622,0.486-0.766,0.707
	c-0.041,0.061-0.407,0.656-0.126,0.643c0.838-0.041,1.678-0.01,2.513-0.102c0.313-0.035,0.613-0.473,0.766-0.705
	C14.118,21.417,14.491,20.796,14.21,20.825z"/>
<path fill="#414042" d="M20.997,23.892c-3.111-0.518-6.223,0.045-9.351-0.051c-0.43-0.014-1.168,1.344-0.892,1.35
	c3.127,0.096,6.24-0.467,9.35,0.051C20.497,25.31,21.324,23.946,20.997,23.892z"/>
<g>
	<path fill="#FFFFFF" d="M22.104,11.433c0.28,0.473,0.06,0.862-0.49,0.864l-11.152,0.041c-0.55,0.002-0.773-0.385-0.496-0.86
		L15.5,1.988c0.277-0.475,0.733-0.477,1.013-0.003L22.104,11.433z"/>
</g>
<g>
	<path fill="#F7941E" d="M20.53,10.277c0.287,0.469,0.072,0.852-0.478,0.851l-7.951-0.019c-0.55-0.001-0.772-0.391-0.495-0.865
		l3.847-6.572c0.278-0.475,0.74-0.479,1.027-0.01L20.53,10.277z"/>
</g>
<path fill="#FFFFFF" d="M17.557,7.12c0,0.816-0.66,1.48-1.478,1.48c-0.819,0-1.481-0.664-1.481-1.48c0-0.82,0.662-1.482,1.481-1.482
	C16.897,5.638,17.557,6.3,17.557,7.12z"/>
<circle fill="#F7941E" cx="16.037" cy="3.481" r="1.142"/>
</svg>
