<?xml version="1.0" encoding="UTF-8"?>
<!DOCTYPE svg  PUBLIC '-//W3C//DTD SVG 1.1//EN'  'http://www.w3.org/Graphics/SVG/1.1/DTD/svg11.dtd'>
<svg enable-background="new 0 0 32 32" version="1.1" viewBox="0 0 32 32" xml:space="preserve" xmlns="http://www.w3.org/2000/svg">
<path d="m18.462 32" stroke="#fff" stroke-miterlimit="10" stroke-width=".51"/>
	<path d="M24.652,29.335c0,0.279-0.229,0.51-0.51,0.51H7.933   c-0.28,0-0.51-0.23-0.51-0.51V9.894c0-0.28,0.229-0.51,0.51-0.51h16.21c0.28,0,0.51,0.229,0.51,0.51V29.335z" fill="none" stroke="#F7941E" stroke-miterlimit="10" stroke-width="2"/>
<path d="m21.096 14.341c-3.148 0.465-6.283 0.526-9.449 0.201-0.412-0.042-1.197 1.319-0.892 1.35 3.167 0.326 6.3 0.265 9.451-0.201 0.455-0.067 1.085-1.379 0.89-1.35z" fill="#58595B"/>
<path d="m20.494 17.759c-2.973-0.041-5.935 0.023-8.898 0.252-0.449 0.035-1.12 1.367-0.892 1.35 2.964-0.23 5.926-0.293 8.897-0.25 0.435 5e-3 1.164-1.348 0.893-1.352z" fill="#414042"/>
<path d="m14.21 20.825c-0.835 0.094-1.675 0.059-2.513 0.102-0.304 0.014-0.622 0.486-0.766 0.707-0.041 0.061-0.407 0.656-0.126 0.643 0.838-0.041 1.678-0.01 2.513-0.102 0.313-0.035 0.613-0.473 0.766-0.705 0.034-0.053 0.407-0.674 0.126-0.645z" fill="#6D6E71"/>
<path d="m20.997 23.892c-3.111-0.518-6.223 0.045-9.351-0.051-0.43-0.014-1.168 1.344-0.892 1.35 3.127 0.096 6.24-0.467 9.35 0.051 0.393 0.068 1.22-1.296 0.893-1.35z" fill="#414042"/>
	<path d="m22.104 11.433c0.28 0.473 0.06 0.862-0.49 0.864l-11.152 0.041c-0.55 2e-3 -0.773-0.385-0.496-0.86l5.534-9.49c0.277-0.475 0.733-0.477 1.013-3e-3l5.591 9.448z" fill="#fff"/>
	<path d="m20.53 10.277c0.287 0.469 0.072 0.852-0.478 0.851l-7.951-0.019c-0.55-1e-3 -0.772-0.391-0.495-0.865l3.847-6.572c0.278-0.475 0.74-0.479 1.027-0.01l4.05 6.615z" fill="#F7941E"/>
<path d="m17.557 7.12c0 0.816-0.66 1.48-1.478 1.48-0.819 0-1.481-0.664-1.481-1.48 0-0.82 0.662-1.482 1.481-1.482 0.818 0 1.478 0.662 1.478 1.482z" fill="#fff"/>
<circle cx="16.037" cy="3.481" r="1.142" fill="#F7941E"/>
</svg>
