<?xml version="1.0" encoding="UTF-8" standalone="no"?>
<!-- Created with Inkscape (http://www.inkscape.org/) -->

<svg
   xmlns:dc="http://purl.org/dc/elements/1.1/"
   xmlns:cc="http://creativecommons.org/ns#"
   xmlns:rdf="http://www.w3.org/1999/02/22-rdf-syntax-ns#"
   xmlns:svg="http://www.w3.org/2000/svg"
   xmlns="http://www.w3.org/2000/svg"
   version="1.1"
   width="100%"
   height="100%"
   viewBox="0 0 32 32"
   id="svg3086"
   xml:space="preserve"><metadata
     id="metadata3115"><rdf:RDF><cc:Work
         rdf:about=""><dc:format>image/svg+xml</dc:format><dc:type
           rdf:resource="http://purl.org/dc/dcmitype/StillImage" /><dc:title></dc:title></cc:Work></rdf:RDF></metadata><defs
     id="defs3113"><filter
       x="-0.14179821"
       y="-0.14627124"
       width="1.2835964"
       height="1.2925425"
       color-interpolation-filters="sRGB"
       id="filter7174"><feGaussianBlur
         id="feGaussianBlur7176"
         stdDeviation="0.9522046" /></filter></defs><radialGradient
     cx="13.553"
     cy="18.115999"
     r="9.3607998"
     fx="17.403"
     fy="10.383"
     id="a"
     gradientUnits="userSpaceOnUse"
     gradientTransform="matrix(1.3706,0,0,1.3276,-2.5752,-8.0518)"><stop
       id="stop3089"
       style="stop-color:#ffffff;stop-opacity:1"
       offset="0.0279" /><stop
       id="stop3091"
       style="stop-color:#ffeddb;stop-opacity:1"
       offset="0.3066" /><stop
       id="stop3093"
       style="stop-color:#fed09e;stop-opacity:1"
       offset="0.5122" /><stop
       id="stop3095"
       style="stop-color:#fdc587;stop-opacity:1"
       offset="0.58660001" /><stop
       id="stop3097"
       style="stop-color:#f9a13c;stop-opacity:1"
       offset="0.83029997" /><stop
       id="stop3099"
       style="stop-color:#f7941e;stop-opacity:1"
       offset="0.94080001" /></radialGradient><ellipse
     cx="16"
     cy="16"
     rx="12.83"
     ry="12.427"
     id="ellipse3101"
     style="fill:url(#a)" /><path
     d="m 22.89734,9.1277334 c -0.39375,0.002 -0.79775,0.17675 -1.09375,0.46875 l -5.375,5.2500006 -5.4375,-5.2187506 c -0.602,-0.58 -1.5592499,-0.583 -2.1562499,0 -0.598,0.5840006 -0.602,1.5470006 0,2.1250006 l 5.4374999,5.21875 -5.3749999,5.25 c -0.599,0.583 -0.605,1.51675 0,2.09375 0.601,0.577 1.5904999,0.586 2.1874999,0 l 5.375,-5.25 5.4375,5.1875 c 0.605,0.578 1.55825,0.584 2.15625,0 0.596,-0.58 0.598,-1.51475 0,-2.09375 l -5.4375,-5.21875 5.375,-5.25 c 0.594,-0.584 0.602,-1.547999 0,-2.1250006 -0.301,-0.29 -0.7,-0.4395 -1.09375,-0.4375 z"
     id="path3107-3"
     style="filter:url(#filter7174)" /><g
     id="g3105"
     style="fill:#414042;stroke:#414042;stroke-width:0.30000001;stroke-miterlimit:10"><path
       d="M 10.627,23.362 C 10.03,23.948 9.058,23.95 8.457,23.373 7.852,22.796 7.847,21.852 8.446,21.269 L 21.373,8.637 c 0.592,-0.584 1.57,-0.59 2.172,-0.01 0.602,0.577 0.604,1.519 0.01,2.103 L 10.627,23.362 z"
       id="path3107" /><path
       d="m 21.439,23.315 c 0.605,0.578 1.578,0.575 2.176,-0.009 0.596,-0.58 0.588,-1.526 -0.01,-2.105 L 10.558,8.685 C 9.956,8.105 8.984,8.109 8.387,8.692 7.789,9.276 7.794,10.219 8.396,10.797 l 13.043,12.518 z"
       id="path3109" /></g></svg>