<?xml version="1.0" encoding="UTF-8"?>
<svg version="1.1" viewBox="0 0 32 32" xml:space="preserve" xmlns="http://www.w3.org/2000/svg"><defs><filter id="b" x="-.1418" y="-.14627" width="1.2836" height="1.2925" color-interpolation-filters="sRGB"><feGaussianBlur stdDeviation="0.9522046"/></filter></defs><radialGradient id="c" cx="13.553" cy="18.116" r="9.3608" fx="17.403" fy="10.383" gradientTransform="matrix(1.3706,0,0,1.3276,-2.5752,-8.0518)" gradientUnits="userSpaceOnUse"><stop stop-color="#fff" offset=".0279"/><stop stop-color="#ffeddb" offset=".3066"/><stop stop-color="#fed09e" offset=".5122"/><stop stop-color="#fdc587" offset=".5866"/><stop stop-color="#f9a13c" offset=".8303"/><stop stop-color="#f7941e" offset=".9408"/></radialGradient><ellipse cx="16" cy="16" rx="12.83" ry="12.427" fill="url(#c)"/><path d="m22.897 9.1277c-0.39375 2e-3 -0.79775 0.17675-1.0938 0.46875l-5.375 5.25-5.4375-5.2188c-0.602-0.58-1.5592-0.583-2.1562 0-0.598 0.584-0.602 1.547 0 2.125l5.4375 5.2188-5.375 5.25c-0.599 0.583-0.605 1.5168 0 2.0938 0.601 0.577 1.5905 0.586 2.1875 0l5.375-5.25 5.4375 5.1875c0.605 0.578 1.5582 0.584 2.1562 0 0.596-0.58 0.598-1.5148 0-2.0938l-5.4375-5.2188 5.375-5.25c0.594-0.584 0.602-1.548 0-2.125-0.301-0.29-0.7-0.4395-1.0938-0.4375z" filter="url(#b)"/><g fill="#414042" stroke="#414042" stroke-miterlimit="10" stroke-width=".3"><path d="m10.627 23.362c-0.597 0.586-1.569 0.588-2.17 0.011-0.605-0.577-0.61-1.521-0.011-2.104l12.927-12.632c0.592-0.584 1.57-0.59 2.172-0.01 0.602 0.577 0.604 1.519 0.01 2.103l-12.928 12.632z"/><path d="m21.439 23.315c0.605 0.578 1.578 0.575 2.176-9e-3 0.596-0.58 0.588-1.526-0.01-2.105l-13.047-12.516c-0.602-0.58-1.574-0.576-2.171 7e-3 -0.598 0.584-0.593 1.527 9e-3 2.105l13.043 12.518z"/></g></svg>
