<?xml version="1.0" encoding="utf-8"?>
<!-- Generator: Adobe Illustrator 16.0.0, SVG Export Plug-In . SVG Version: 6.00 Build 0)  -->
<!DOCTYPE svg PUBLIC "-//W3C//DTD SVG 1.1//EN" "http://www.w3.org/Graphics/SVG/1.1/DTD/svg11.dtd">
<svg version="1.1" id="Layer_1" xmlns="http://www.w3.org/2000/svg" xmlns:xlink="http://www.w3.org/1999/xlink" x="0px" y="0px"
	 width="32px" height="32px" viewBox="0 0 32 32" enable-background="new 0 0 32 32" xml:space="preserve">
<g>
	<path fill="#FFFFFF" stroke="#F7941E" stroke-miterlimit="10" d="M16.831,7c-0.206-1.621-2.504-1.482-3.643-1.048
		c-2.667,1.016-4.664,2.552-6.696,4.454c-3.776,3.541-8.54,12.757-2.391,16.604c6.31,3.944,26.231-2.853,26.321-15.534
		c0.082-12.117-14.64,5.746-14.425-0.618C15.998,10.856,17.019,8.44,16.831,7z"/>
</g>
<g>
	<g>
		<path fill="#D7DF23" d="M19.262,28.469c0.038,0,0.038-5,0-5S19.224,28.469,19.262,28.469L19.262,28.469z"/>
	</g>
</g>
<path fill="#662D91" d="M14.216,10.831c0.152-0.559-0.308-0.789-0.849-0.863c-0.023-0.055-0.07-0.108-0.182-0.152
	c-0.608-0.242-1.633-0.077-2.37,0.173c-0.926,0.314-1.871,0.75-2.547,1.467C7.95,11.79,7.625,12.381,7.72,12.734
	c0.127,0.47,0.724,0.541,1.262,0.569c0.931,0.052,1.991-0.207,2.955-0.574C12.849,12.379,13.98,11.697,14.216,10.831z"/>
<path fill="#00A651" d="M9.098,17.668c-0.35-0.522-1.401-0.48-2.124-0.383c-0.062,0.011-0.123,0.029-0.186,0.039
	c-0.174,0.011-0.329,0.032-0.435,0.052c-1.153,0.212-3.174,0.919-3.162,2.206c0.004,0.481,0.471,0.744,0.973,0.819
	c1.062,0.171,2.336-0.032,3.482-0.549C8.603,19.424,9.6,18.414,9.098,17.668z"/>
<path fill="#EE2A7B" d="M13.634,21.941c-0.003,0-0.003-0.002-0.004-0.007c-0.569-0.318-1.617-0.156-2.364,0.121
	c-1.063,0.396-3.026,1.591-2.856,2.666c0.227,1.424,2.97,0.937,4.311,0.316c0.952-0.442,1.777-1.213,2.123-2.054
	C15.164,22.202,14.47,21.966,13.634,21.941z"/>
<path fill="#414042" d="M22.801,17.544c-0.244,0.002-0.565,0.041-0.89,0.124c-0.365,0.043-0.732,0.129-1.039,0.266
	c-0.981,0.437-2.025,1.201-2.153,2.134c-0.18,1.311,2.097,1.17,3.199,0.897c1.008-0.25,2.228-1.003,2.668-1.893
	C25.181,17.874,23.883,17.537,22.801,17.544z"/>
<path fill="#00AEEF" d="M27.213,12.542c-0.141-0.507-1.073-0.548-1.627-0.527c-0.952,0.038-1.935,0.333-2.865,0.785
	c-0.366,0.176-0.526,0.388-0.516,0.568c-0.074,0.049-0.155,0.09-0.223,0.144c-0.458,0.36-0.852,0.904-0.652,1.321
	c0.268,0.548,1.23,0.547,1.911,0.541c0.906-0.011,1.964-0.319,2.818-0.846C26.87,14.031,27.396,13.217,27.213,12.542z"/>
<path fill="#D7DF23" d="M17.314,14.29c-0.246,0.002-0.567,0.042-0.892,0.124c-0.363,0.043-0.732,0.128-1.039,0.266
	c-0.981,0.436-2.025,1.201-2.154,2.133c-0.181,1.311,2.095,1.17,3.2,0.898c1.009-0.249,2.227-1.004,2.667-1.893
	C19.694,14.621,18.395,14.283,17.314,14.29z"/>
<ellipse fill="#EE2A7B" cx="13.257" cy="15.517" rx="0.152" ry="0.001"/>
</svg>
