<?xml version="1.0" encoding="UTF-8"?>
<!DOCTYPE svg  PUBLIC '-//W3C//DTD SVG 1.1//EN'  'http://www.w3.org/Graphics/SVG/1.1/DTD/svg11.dtd'>
<svg enable-background="new 0 0 32 32" version="1.1" viewBox="0 0 32 32" xml:space="preserve" xmlns="http://www.w3.org/2000/svg">
	<path d="m16.831 7c-0.206-1.621-2.504-1.482-3.643-1.048-2.667 1.016-4.664 2.552-6.696 4.454-3.776 3.541-8.54 12.757-2.391 16.604 6.31 3.944 26.231-2.853 26.321-15.534 0.082-12.117-14.64 5.746-14.425-0.618 1e-3 -2e-3 1.022-2.418 0.834-3.858z" fill="#fff" stroke="#F7941E" stroke-miterlimit="10"/>
		<path d="m19.262 28.469c0.038 0 0.038-5 0-5s-0.038 5 0 5z" fill="#D7DF23"/>
<path d="m14.216 10.831c0.152-0.559-0.308-0.789-0.849-0.863-0.023-0.055-0.07-0.108-0.182-0.152-0.608-0.242-1.633-0.077-2.37 0.173-0.926 0.314-1.871 0.75-2.547 1.467-0.318 0.334-0.643 0.925-0.548 1.278 0.127 0.47 0.724 0.541 1.262 0.569 0.931 0.052 1.991-0.207 2.955-0.574 0.912-0.35 2.043-1.032 2.279-1.898z" fill="#662D91"/>
<path d="m9.098 17.668c-0.35-0.522-1.401-0.48-2.124-0.383-0.062 0.011-0.123 0.029-0.186 0.039-0.174 0.011-0.329 0.032-0.435 0.052-1.153 0.212-3.174 0.919-3.162 2.206 4e-3 0.481 0.471 0.744 0.973 0.819 1.062 0.171 2.336-0.032 3.482-0.549 0.957-0.428 1.954-1.438 1.452-2.184z" fill="#00A651"/>
<path d="m13.634 21.941c-3e-3 0-3e-3 -2e-3 -4e-3 -7e-3 -0.569-0.318-1.617-0.156-2.364 0.121-1.063 0.396-3.026 1.591-2.856 2.666 0.227 1.424 2.97 0.937 4.311 0.316 0.952-0.442 1.777-1.213 2.123-2.054 0.32-0.781-0.374-1.017-1.21-1.042z" fill="#EE2A7B"/>
<path d="m22.801 17.544c-0.244 2e-3 -0.565 0.041-0.89 0.124-0.365 0.043-0.732 0.129-1.039 0.266-0.981 0.437-2.025 1.201-2.153 2.134-0.18 1.311 2.097 1.17 3.199 0.897 1.008-0.25 2.228-1.003 2.668-1.893 0.595-1.198-0.703-1.535-1.785-1.528z" fill="#414042"/>
<path d="m27.213 12.542c-0.141-0.507-1.073-0.548-1.627-0.527-0.952 0.038-1.935 0.333-2.865 0.785-0.366 0.176-0.526 0.388-0.516 0.568-0.074 0.049-0.155 0.09-0.223 0.144-0.458 0.36-0.852 0.904-0.652 1.321 0.268 0.548 1.23 0.547 1.911 0.541 0.906-0.011 1.964-0.319 2.818-0.846 0.811-0.497 1.337-1.311 1.154-1.986z" fill="#00AEEF"/>
<path d="m17.314 14.29c-0.246 2e-3 -0.567 0.042-0.892 0.124-0.363 0.043-0.732 0.128-1.039 0.266-0.981 0.436-2.025 1.201-2.154 2.133-0.181 1.311 2.095 1.17 3.2 0.898 1.009-0.249 2.227-1.004 2.667-1.893 0.598-1.197-0.701-1.535-1.782-1.528z" fill="#D7DF23"/>
<ellipse cx="13.257" cy="15.517" rx=".152" ry=".001" fill="#EE2A7B"/>
</svg>
