<?xml version="1.0" encoding="UTF-8"?>
<!-- Created with Inkscape (http://www.inkscape.org/) -->
<svg id="svg2985" width="48px" height="48px" version="1.1" xmlns="http://www.w3.org/2000/svg" xmlns:cc="http://creativecommons.org/ns#" xmlns:dc="http://purl.org/dc/elements/1.1/" xmlns:rdf="http://www.w3.org/1999/02/22-rdf-syntax-ns#">
 <metadata id="metadata2990">
  <rdf:RDF>
   <cc:Work rdf:about="">
    <dc:format>image/svg+xml</dc:format>
    <dc:type rdf:resource="http://purl.org/dc/dcmitype/StillImage"/>
    <dc:title/>
   </cc:Work>
  </rdf:RDF>
 </metadata>
 <g id="layer1">
  <path id="path2992-3" d="m33.031 9.9688c-0.99857 0.014569-2.0178 0.11579-3.0312 0.34375h-0.0625c-2.1183 0.48558-4.0182 1.4422-5.6562 2.6875 2.8649 2.1382 4.9928 5.2987 5.8125 9.125 1.3092 6.1116-1.1148 12.153-5.7188 15.656 3.3562 2.5072 7.6866 3.6093 12.062 2.625 8.1077-1.8236 13.248-10.036 11.469-18.344-1.5572-7.2694-7.885-12.196-14.875-12.094zm-8.6562 27.812c-2.8622-2.1382-5.0246-5.3011-5.8438-9.125-1.3093-6.1119 1.1417-12.153 5.75-15.656-3.3555-2.5044-7.689-3.6087-12.062-2.625l-0.0625 0.03125c-8.0776 1.8516-13.181 10.028-11.406 18.312 1.7797 8.3079 9.7986 13.574 17.906 11.75 2.1433-0.4821 4.0643-1.4286 5.7188-2.6875z"/>
  <g id="text3834" fill="#fff">
   <path id="path3870" d="m5.8982 29.014c1.8906-4.8626 3.2728-8.4075 4.1465-10.635 0.05728-0.10741 0.18261-0.23631 0.37598-0.38672 0.20052-0.15754 0.34732-0.23631 0.44043-0.23633 0.02148 1.5e-5 0.04296 0.01076 0.06445 0.03223 0.02864 0.01434 0.05012 0.02508 0.06445 0.03223l4.3721 11.473c0.35806 0.92383 0.54068 1.3965 0.54785 1.418 0.09309 0.22201 0.31509 0.40104 0.66602 0.53711 0.35806 0.12891 0.62303 0.19336 0.79492 0.19336 0.04295 0.06445 0.06444 0.17188 0.06445 0.32227-1.4e-5 0.14323-0.0072 0.24349-0.02148 0.30078-1.4323-0.07161-2.2201-0.10742-2.3633-0.10742-0.29363 0-0.56935 0.0072-0.82715 0.02148-0.25066 0.0072-0.53354 0.02148-0.84863 0.04297-0.31511 0.02148-0.58725 0.03581-0.81641 0.04297-0.05014-0.05729-0.0752-0.16113-0.0752-0.31152 0.0072-0.15039 0.03938-0.25423 0.09668-0.31152 0.1647 1e-6 0.38313-0.02506 0.65527-0.0752 0.27929-0.05729 0.4619-0.12532 0.54785-0.2041 0.05728-0.05729 0.08593-0.15755 0.08594-0.30078-1e-5 -0.19336-0.12176-0.63737-0.36524-1.332-0.2435-0.70182-0.48699-1.3535-0.73047-1.9551l-0.36524-0.90234c-0.04298-0.05729-0.08595-0.08593-0.12891-0.08594-0.18621-0.01432-0.89519-0.02148-2.127-0.02148-0.90235 6e-6 -1.6758 0.02149-2.3203 0.06445l-0.10742 0.06445c-0.40105 1.0599-0.72331 1.9336-0.9668 2.6211-0.20052 0.58724-0.30078 1.0957-0.30078 1.5254-2.6e-6 0.12175 0.064451 0.22559 0.19336 0.31152 0.13606 0.08594 0.2972 0.15039 0.4834 0.19336 0.19336 0.03581 0.35807 0.06087 0.49414 0.0752 0.13606 0.01432 0.2399 0.02149 0.31152 0.02148 0.028642 0.02865 0.046545 0.12533 0.053711 0.29004 0.014326 0.15756 0.010745 0.26856-0.010735 0.33301-0.20769-0.007161-0.43327-0.021484-0.67676-0.042969-0.24349-0.021484-0.46908-0.035807-0.67676-0.042968-0.20768-0.01432-0.45117-0.02148-0.73047-0.02148-0.29362 0-0.55501 0.0072-0.78418 0.02148-0.22201 0.0072-0.46908 0.02148-0.74121 0.04297-0.27214 0.02148-0.52995 0.03581-0.77344 0.04297-0.028646-0.02865-0.042968-0.12174-0.042969-0.2793 3e-7 -0.15755 0.014323-0.27214 0.042969-0.34375 0.17904 1e-6 0.41536-0.03581 0.70898-0.10742 0.29362-0.07878 0.48698-0.17904 0.58008-0.30078 0.30078-0.39388 0.63737-1.0671 1.0098-2.0195m4.2109-8.6582-1.9766 5.2422c-4.3e-6 0.0573 0.014319 0.08594 0.042969 0.08594 0.74479 0.02865 1.3965 0.04298 1.9551 0.04297 0.5371 7e-6 1.1387-0.02148 1.8047-0.06445 0.01431 7e-6 0.02864-0.0072 0.04297-0.02148 0.01431-0.02864 0.02148-0.05012 0.02148-0.06445v-0.02148l-1.8906-5.1992"/>
  </g>
  <g id="text3834-3" fill="#fff">
   <path id="path3867" d="m35.655 25.1v4.6621c-0.0072 0.20768 0.0072 0.48698 0.04297 0.83789 0.0358 0.35091 0.08593 0.55859 0.15039 0.62305 0.15039 0.15755 0.35449 0.26139 0.6123 0.31152 0.26497 0.05013 0.62662 0.0752 1.085 0.07519 2.2773 1e-6 3.416-1.0527 3.416-3.1582-1e-5 -2.2344-1.332-3.3516-3.9961-3.3516h-1.3105m0-0.81641h1.7939c0.89518 8e-6 1.5684-0.24706 2.0195-0.74121 0.45116-0.49413 0.67675-1.085 0.67676-1.7725-9e-6 -0.9453-0.30079-1.6829-0.90234-2.2129-0.59441-0.52994-1.3965-0.79491-2.4062-0.79492-0.6517 1.4e-5 -1.0098 0.07163-1.0742 0.21484-0.08594 0.2077-0.12175 0.7448-0.10742 1.6113v3.6953m2.127-6.209c0.41536 1.4e-5 0.8164 0.03224 1.2031 0.09668 0.38671 0.06447 0.77343 0.17547 1.1602 0.33301 0.38671 0.1504 0.71972 0.34376 0.99902 0.58008 0.28645 0.23634 0.51561 0.54428 0.6875 0.92383 0.17902 0.37241 0.26854 0.79493 0.26855 1.2676-1e-5 0.73764-0.2435 1.3965-0.73047 1.9766-0.47983 0.58009-0.95964 0.95964-1.4395 1.1387-0.06446 0.02865-0.06446 0.06446 0 0.10742 0.27929 0.01433 0.59439 0.10385 0.94531 0.26856 0.3509 0.16472 0.69107 0.39031 1.0205 0.67676 0.33658 0.2793 0.61946 0.64454 0.84863 1.0957 0.22916 0.44402 0.34374 0.91667 0.34375 1.418-1.2e-5 1.3105-0.48341 2.3704-1.4502 3.1797-0.89519 0.74479-2.3955 1.1315-4.501 1.1602h-4.9414c-0.05013-0.05729-0.0752-0.16113-0.0752-0.31152 0.0072-0.15039 0.03223-0.25423 0.0752-0.31152 0.21484 1e-6 0.50846-0.03223 0.88086-0.09668 0.37239-0.06445 0.57291-0.14681 0.60156-0.24707 0.07161-0.22916 0.10742-0.75911 0.10742-1.5898v-9.1738c-2e-6 -0.83072-0.03581-1.3607-0.10742-1.5898-0.02865-0.10025-0.22917-0.1826-0.60156-0.24707-0.3724-0.06444-0.66602-0.09667-0.88086-0.09668-0.04297-0.05728-0.06804-0.16112-0.0752-0.31152-1e-6 -0.15038 0.02506-0.25422 0.0752-0.31152 1.4681 0.07163 2.3131 0.10744 2.5352 0.10742 0.24349 1.4e-5 0.69824-0.0071 1.3643-0.02149 0.66601-0.01431 1.2282-0.02147 1.6865-0.02148"/>
  </g>
  <g id="text3859">
   <path id="path3864" d="m22.387 24.902c2.7083-0.14322 4.2773-0.22135 4.707-0.23438 0.09114 5e-6 0.13671 0.0586 0.13672 0.17578-6e-6 0.34506-0.08464 0.69662-0.25391 1.0547-0.26693 0.01954-1.8359 0.09115-4.707 0.21484-0.09115 4e-6 -0.13672-0.07161-0.13672-0.21484-1e-6 -0.29947 0.08463-0.6315 0.25391-0.99609"/>
  </g>
 </g>
</svg>
