<?xml version="1.0" encoding="UTF-8"?>
<svg id="svg4" version="1.1" viewBox="0 0 32 32" xmlns="http://www.w3.org/2000/svg" xmlns:cc="http://creativecommons.org/ns#" xmlns:dc="http://purl.org/dc/elements/1.1/" xmlns:rdf="http://www.w3.org/1999/02/22-rdf-syntax-ns#">
 <metadata id="metadata10">
  <rdf:RDF>
   <cc:Work rdf:about="">
    <dc:format>image/svg+xml</dc:format>
    <dc:type rdf:resource="http://purl.org/dc/dcmitype/StillImage"/>
   </cc:Work>
  </rdf:RDF>
 </metadata>
 <path id="rect2-6-4" d="m2.987 2.987h26.026v26.026h-26.026z" fill="#d5fa58" stroke="#000" stroke-miterlimit="2" stroke-width="1.4"/>
 <path id="path825" d="m17.932 13.918q1.1244 0 1.7051-0.49422t0.58071-1.458q0-0.95137-0.58071-1.4456-0.58071-0.50658-1.7051-0.50658h-2.6317v3.9043zm0.16062 8.0681q1.4332 0 2.1499-0.60542 0.72898-0.60542 0.72898-1.8286 0-1.1985-0.71662-1.7915-0.71662-0.60542-2.1622-0.60542h-2.7923v4.831zm4.4233-6.6349q1.5321 0.4448 2.3723 1.6433t0.84017 2.9406q0 2.6688-1.8039 3.9785t-5.4858 1.3097h-7.8952v-18.447h7.1415q3.8426 0 5.56 1.1614 1.7298 1.1614 1.7298 3.719 0 1.3468-0.63013 2.2981-0.63013 0.93902-1.8286 1.3962z"/>
 <path id="rect2-6-5" d="m16.665 2.987h-13.678v26.025h13.678" fill="#f8ac4f" stroke="#000" stroke-miterlimit="2" stroke-width="1.4"/>
 <path id="path11006" d="m11.231 6.7761-6.832 18.447h4.7813l1.1738-3.3613h6.3105v-15.086z"/>
 <path id="path11011" d="m11.54 18.44h4.6005v-1.3189l-2.0676-6.0203z" fill="#f9a847"/>
 <path id="path3715" d="m16 2.1017v27.797" fill="#f7941e" fill-opacity=".81569" fill-rule="evenodd" stroke="#00f" stroke-miterlimit="2" stroke-width="1.4"/>
</svg>
