<?xml version="1.0" encoding="utf-8"?>
<!-- Generator: Adobe Illustrator 16.0.0, SVG Export Plug-In . SVG Version: 6.00 Build 0)  -->
<!DOCTYPE svg PUBLIC "-//W3C//DTD SVG 1.1//EN" "http://www.w3.org/Graphics/SVG/1.1/DTD/svg11.dtd">
<svg version="1.1" id="Layer_1" xmlns="http://www.w3.org/2000/svg" xmlns:xlink="http://www.w3.org/1999/xlink" x="0px" y="0px"
	 width="32px" height="32px" viewBox="0 0 32 32" enable-background="new 0 0 32 32" xml:space="preserve">
<path fill="#00A651" stroke="#006838" stroke-width="0.1" stroke-miterlimit="10" d="M27.023,7.818H9.518h0l0,0
	c-0.455,0-0.844,0.276-1.011,0.67C8.451,8.619,8.42,8.764,8.42,8.915v17.506c0,0.607,0.491,1.098,1.097,1.098
	s1.097-0.49,1.097-1.098V10.012h16.409c0.607,0,1.098-0.49,1.098-1.097C28.121,8.309,27.631,7.818,27.023,7.818z"/>
<path fill="#00A651" stroke="#006838" stroke-width="0.1" stroke-miterlimit="10" d="M24.787,5.58c0-0.606-0.492-1.098-1.098-1.098
	s-1.098,0.491-1.098,1.098l0.002,16.409L6.185,21.991c-0.606,0-1.098,0.49-1.098,1.098c0,0.605,0.491,1.096,1.098,1.096
	l17.506-0.002c0.605,0,1.098-0.49,1.098-1.096L24.787,5.58z"/>
</svg>
