<?xml version="1.0" encoding="UTF-8" standalone="no"?>
<!-- Created with Inkscape (http://www.inkscape.org/) -->

<svg
   xmlns:dc="http://purl.org/dc/elements/1.1/"
   xmlns:cc="http://creativecommons.org/ns#"
   xmlns:rdf="http://www.w3.org/1999/02/22-rdf-syntax-ns#"
   xmlns:svg="http://www.w3.org/2000/svg"
   xmlns="http://www.w3.org/2000/svg"
   version="1.1"
   width="100%"
   height="100%"
   viewBox="0 0 32 32"
   id="svg3208"
   xml:space="preserve"><defs
     id="defs3220"><filter
       x="-0.18998802"
       y="-0.11593667"
       width="1.379976"
       height="1.2318733"
       color-interpolation-filters="sRGB"
       id="filter4582"><feGaussianBlur
         id="feGaussianBlur4584"
         stdDeviation="1.239375" /></filter></defs><metadata
     id="metadata3210"><rdf:RDF><cc:Work
         rdf:about=""><dc:format>image/svg+xml</dc:format><dc:type
           rdf:resource="http://purl.org/dc/dcmitype/StillImage" /><dc:title></dc:title></cc:Work></rdf:RDF></metadata><path
     d="m 0.13559,5.2881 h 31.864"
     id="path3212"
     style="fill:none;stroke:#f7941e;stroke-width:3" /><path
     d="m 6.8475,0.067797 v 31.864"
     id="path3214"
     style="fill:none;stroke:#f7941e;stroke-width:3" /><path
     d="m 6.9515363,5.88374 c 0,7.668296 0,14.727377 0,21.468749 1.562499,-1.562499 3.1249987,-3.124999 4.6874987,-4.687499 1.286105,2.960737 2.595999,5.911189 3.875001,8.874999 1.679854,-0.586234 3.057686,-1.123669 4.5625,-1.687499 -1.355248,-2.924576 -2.785698,-5.815806 -4.1875,-8.71875 2.239583,0 4.479167,0 6.71875,0 C 17.237387,15.822506 11.545303,10.466868 6.9515363,5.88374 z"
     transform="matrix(0.83268173,0,0,0.83268173,1.0722105,0.21558257)"
     id="path3222-6"
     style="font-size:medium;font-style:normal;font-variant:normal;font-weight:normal;font-stretch:normal;text-indent:0;text-align:start;text-decoration:none;line-height:normal;letter-spacing:normal;word-spacing:normal;text-transform:none;direction:ltr;block-progression:tb;writing-mode:lr-tb;text-anchor:start;baseline-shift:baseline;color:#000000;fill:#000000;fill-opacity:1;fill-rule:nonzero;stroke:none;stroke-width:1;marker:none;visibility:visible;display:inline;overflow:visible;filter:url(#filter4582);enable-background:accumulate;font-family:Sans;-inkscape-font-specification:Sans" /><path
     d="m 7.5738363,5.8489159 0,15.8905341 3.6382357,-3.638237 3.317217,7.597496 2.996195,-1.123574 -3.584734,-7.436982 5.243342,0 z"
     id="path3222"
     style="fill:#000000;stroke:#ffffff;stroke-width:0.83268172;stroke-linecap:butt;stroke-linejoin:miter;stroke-miterlimit:4;stroke-opacity:1;stroke-dasharray:none" /></svg>