<?xml version="1.0" encoding="UTF-8" standalone="no"?>
<!-- Created with Inkscape (http://www.inkscape.org/) -->

<svg
   xmlns:dc="http://purl.org/dc/elements/1.1/"
   xmlns:cc="http://creativecommons.org/ns#"
   xmlns:rdf="http://www.w3.org/1999/02/22-rdf-syntax-ns#"
   xmlns:svg="http://www.w3.org/2000/svg"
   xmlns="http://www.w3.org/2000/svg"
   xmlns:inkscape="http://www.inkscape.org/namespaces/inkscape"
   version="1.1"
   width="100%"
   height="100%"
   viewBox="0 0 32 32"
   id="svg2"
   xml:space="preserve"><metadata
     id="metadata16"><rdf:RDF><cc:Work
         rdf:about=""><dc:format>image/svg+xml</dc:format><dc:type
           rdf:resource="http://purl.org/dc/dcmitype/StillImage" /></cc:Work></rdf:RDF></metadata><defs
     id="defs14" /><path
     d="m 27.458,27.45 c 0,0.275 -0.225,0.5 -0.5,0.5 H 5.942 c -0.275,0 -0.5,-0.225 -0.5,-0.5 V 6.437 c 0,-0.275 0.225,-0.5 0.5,-0.5 h 16.271 c 0.275,0 0.656,0.162 0.847,0.36 l 4.051,4.201 c 0.19,0.198 0.347,0.585 0.347,0.86 V 27.45 z"
     inkscape:connector-curvature="0"
     id="path4" /><path
     d="m 25.169,24.58 c 0,0.165 -0.135,0.3 -0.3,0.3 H 8.365 c -0.165,0 -0.3,-0.135 -0.3,-0.3 v -7.015 c 0,-0.165 0.135,-0.3 0.3,-0.3 h 16.504 c 0.165,0 0.3,0.135 0.3,0.3 v 7.015 z"
     inkscape:connector-curvature="0"
     id="path6"
     style="fill:#ffffff" /><path
     d="m 20.925,11.322 c 0,0.165 -0.135,0.3 -0.3,0.3 H 8.365 c -0.165,0 -0.3,-0.135 -0.3,-0.3 v -5.41 c 0,-0.165 0.135,-0.3 0.3,-0.3 h 12.26 c 0.165,0 0.3,0.135 0.3,0.3 v 5.41 z"
     inkscape:connector-curvature="0"
     id="path8"
     style="fill:#ffffff" /><rect
     width="2.1359999"
     height="4.277"
     x="15.422"
     y="5.9369998"
     id="rect10" /></svg>