<?xml version="1.0" encoding="UTF-8"?>
<svg version="1.1" viewBox="0 0 32 32" xml:space="preserve" xmlns="http://www.w3.org/2000/svg"><defs><filter id="c" x="-.32558" y="-.40255" width="1.6512" height="1.8051" color-interpolation-filters="sRGB"><feGaussianBlur stdDeviation="3.0979788"/></filter></defs><path d="m26.494 25.327c0.161 0.526-0.149 1.033-0.691 1.128l-16.584 2.9c-0.542 0.095-1.117-0.258-1.279-0.784l-4.197-13.629c-0.162-0.525 0.149-1.033 0.69-1.128l16.583-2.898c0.542-0.095 1.118 0.258 1.279 0.783l4.199 13.628z" filter="url(#c)" opacity=".5"/><path d="m18.462 31.115" stroke="#fff" stroke-miterlimit="10" stroke-width=".51"/><linearGradient id="d" x1="7.8379" x2="18.125" y1="15.27" y2="23.115" gradientUnits="userSpaceOnUse"><stop stop-color="#dedfe3" offset="0"/><stop stop-color="#97989c" offset=".3104"/><stop stop-color="#626365" offset=".558"/><stop stop-color="#343435" offset=".7327"/><stop offset=".8188"/></linearGradient><path d="m24.989 24.866c0.161 0.526-0.149 1.033-0.691 1.128l-16.584 2.9c-0.542 0.095-1.117-0.258-1.279-0.784l-4.197-13.629c-0.162-0.525 0.149-1.033 0.69-1.128l16.583-2.898c0.542-0.095 1.118 0.258 1.279 0.783l4.199 13.628z" fill="url(#d)"/><path d="m24.989 24.866c0.161 0.526-0.149 1.033-0.691 1.128l-16.584 2.9c-0.542 0.095-1.117-0.258-1.279-0.784l-4.197-13.629c-0.162-0.525 0.149-1.033 0.69-1.128l16.583-2.898c0.542-0.095 1.118 0.258 1.279 0.783l4.199 13.628z" fill="none" stroke="#414042" stroke-miterlimit="10" stroke-width=".1"/><linearGradient id="e" x1="7.0898" x2="29.94" y1="20.499" y2="20.499" gradientUnits="userSpaceOnUse"><stop stop-color="#f1f2f2" offset="0"/><stop stop-color="#f2e7db" offset=".0395"/><stop stop-color="#f4d3ae" offset=".1471"/><stop stop-color="#f5c188" offset=".2586"/><stop stop-color="#f5b36a" offset=".3718"/><stop stop-color="#f6a74f" offset=".4871"/><stop stop-color="#f79e39" offset=".6051"/><stop stop-color="#f79829" offset=".727"/><stop stop-color="#f79520" offset=".8552"/><stop stop-color="#f7941e" offset="1"/></linearGradient><path d="m25.415 24.895c-0.191 0.516-0.791 1.016-1.332 1.112l-16.297 2.885c-0.542 0.097-0.828-0.247-0.637-0.763l4.463-12.022c0.191-0.516 0.791-1.016 1.333-1.112l16.299-2.888c0.541-0.096 0.828 0.248 0.637 0.763l-4.466 12.025z" fill="url(#e)"/><path d="m25.415 24.895c-0.191 0.516-0.791 1.016-1.332 1.112l-16.297 2.885c-0.542 0.097-0.828-0.247-0.637-0.763l4.463-12.022c0.191-0.516 0.791-1.016 1.333-1.112l16.299-2.888c0.541-0.096 0.828 0.248 0.637 0.763l-4.466 12.025z" fill="none" stroke="#f7941e" stroke-miterlimit="10" stroke-width=".1"/><path d="m26.084 6.26c-3.193-5.207-8.424-2.94-8.424-2.94l-7.82 3.515s10.569-4.773 14.794 0.259c-1.424 0.883-2.508 1.723-2.508 1.723l4.616 1.042 0.19-0.024c-0.027-0.222 2.092-4.694 2.092-4.694-0.89 0.143-1.935 0.588-2.94 1.119z" fill="#00a651" stroke="#000" stroke-miterlimit="10" stroke-width=".1"/></svg>
