<?xml version="1.0" encoding="utf-8"?>
<!-- Generator: Adobe Illustrator 16.0.0, SVG Export Plug-In . SVG Version: 6.00 Build 0)  -->
<!DOCTYPE svg PUBLIC "-//W3C//DTD SVG 1.1//EN" "http://www.w3.org/Graphics/SVG/1.1/DTD/svg11.dtd" [
	<!ENTITY ns_flows "http://ns.adobe.com/Flows/1.0/">
	<!ENTITY ns_extend "http://ns.adobe.com/Extensibility/1.0/">
	<!ENTITY ns_ai "http://ns.adobe.com/AdobeIllustrator/10.0/">
	<!ENTITY ns_graphs "http://ns.adobe.com/Graphs/1.0/">
]>
<svg version="1.1" id="Layer_1" xmlns:x="&ns_extend;" xmlns:i="&ns_ai;" xmlns:graph="&ns_graphs;"
	 xmlns="http://www.w3.org/2000/svg" xmlns:xlink="http://www.w3.org/1999/xlink" xmlns:a="http://ns.adobe.com/AdobeSVGViewerExtensions/3.0/"
	 x="0px" y="0px" width="32px" height="32px" viewBox="0 0 32 32" enable-background="new 0 0 32 32" xml:space="preserve">
<g>
	<path d="M27.458,27.45c0,0.275-0.225,0.5-0.5,0.5H5.942c-0.275,0-0.5-0.225-0.5-0.5V6.437c0-0.275,0.225-0.5,0.5-0.5h16.271
		c0.275,0,0.656,0.162,0.847,0.36l4.051,4.201c0.19,0.198,0.347,0.585,0.347,0.86V27.45z"/>
</g>
<g>
	<path fill="#FFFFFF" d="M25.169,24.58c0,0.165-0.135,0.3-0.3,0.3H8.365c-0.165,0-0.3-0.135-0.3-0.3v-7.015
		c0-0.165,0.135-0.3,0.3-0.3h16.504c0.165,0,0.3,0.135,0.3,0.3V24.58z"/>
</g>
<g>
	<path fill="#FFFFFF" d="M20.925,11.322c0,0.165-0.135,0.3-0.3,0.3H8.365c-0.165,0-0.3-0.135-0.3-0.3v-5.41
		c0-0.165,0.135-0.3,0.3-0.3h12.26c0.165,0,0.3,0.135,0.3,0.3V11.322z"/>
</g>
<rect x="15.422" y="5.937" width="2.136" height="4.277"/>
<g>
</g>
<g>
</g>
<g>
</g>
<g>
</g>
<g>
</g>
<g>
</g>
</svg>
