<?xml version="1.0" encoding="UTF-8" standalone="no"?>
<!-- Created with Inkscape (http://www.inkscape.org/) -->

<svg
   xmlns:dc="http://purl.org/dc/elements/1.1/"
   xmlns:cc="http://creativecommons.org/ns#"
   xmlns:rdf="http://www.w3.org/1999/02/22-rdf-syntax-ns#"
   xmlns:svg="http://www.w3.org/2000/svg"
   xmlns="http://www.w3.org/2000/svg"
   version="1.1"
   width="100%"
   height="100%"
   viewBox="0 0 32 32"
   id="svg2"
   xml:space="preserve"><metadata
     id="metadata54"><rdf:RDF><cc:Work
         rdf:about=""><dc:format>image/svg+xml</dc:format><dc:type
           rdf:resource="http://purl.org/dc/dcmitype/StillImage" /><dc:title></dc:title></cc:Work></rdf:RDF></metadata><defs
     id="defs52"><linearGradient
       x1="7.8379002"
       y1="15.27"
       x2="18.125"
       y2="23.115"
       id="b-2"
       gradientUnits="userSpaceOnUse"><stop
         id="stop9-9"
         style="stop-color:#dedfe3;stop-opacity:1"
         offset="0" /><stop
         id="stop11-1"
         style="stop-color:#97989c;stop-opacity:1"
         offset="0.31040001" /><stop
         id="stop13-2"
         style="stop-color:#626365;stop-opacity:1"
         offset="0.55800003" /><stop
         id="stop15-7"
         style="stop-color:#343435;stop-opacity:1"
         offset="0.73269999" /><stop
         id="stop17-0"
         style="stop-color:#000000;stop-opacity:1"
         offset="0.81879997" /></linearGradient><filter
       x="-0.32558218"
       y="-0.40255472"
       width="1.6511643"
       height="1.8051095"
       color-interpolation-filters="sRGB"
       id="filter4474"><feGaussianBlur
         id="feGaussianBlur4476"
         stdDeviation="3.0979788" /></filter></defs><path
     d="m 26.494328,25.327094 c 0.161,0.526 -0.149,1.033 -0.691,1.128 l -16.5839999,2.9 c -0.542,0.095 -1.117,-0.258 -1.279,-0.784 l -4.1969996,-13.629 c -0.162,-0.525 0.149,-1.033 0.69,-1.128 l 16.5829995,-2.898 c 0.542,-0.095 1.118,0.258 1.279,0.783 l 4.199,13.628 z"
     id="path19-9"
     style="opacity:0.5;fill:#000000;filter:url(#filter4474)" /><path
     d="M 18.462,31.115"
     id="path4"
     style="stroke:#ffffff;stroke-width:0.50999999;stroke-miterlimit:10" /><linearGradient
     x1="7.8379002"
     y1="15.27"
     x2="18.125"
     y2="23.115"
     id="b"
     gradientUnits="userSpaceOnUse"><stop
       id="stop9"
       style="stop-color:#dedfe3;stop-opacity:1"
       offset="0" /><stop
       id="stop11"
       style="stop-color:#97989c;stop-opacity:1"
       offset="0.31040001" /><stop
       id="stop13"
       style="stop-color:#626365;stop-opacity:1"
       offset="0.55800003" /><stop
       id="stop15"
       style="stop-color:#343435;stop-opacity:1"
       offset="0.73269999" /><stop
       id="stop17"
       style="stop-color:#000000;stop-opacity:1"
       offset="0.81879997" /></linearGradient><path
     d="m 24.989,24.866 c 0.161,0.526 -0.149,1.033 -0.691,1.128 l -16.584,2.9 C 7.172,28.989 6.597,28.636 6.435,28.11 L 2.238,14.481 c -0.162,-0.525 0.149,-1.033 0.69,-1.128 l 16.583,-2.898 c 0.542,-0.095 1.118,0.258 1.279,0.783 l 4.199,13.628 z"
     id="path19"
     style="fill:url(#b)" /><path
     d="m 24.989,24.866 c 0.161,0.526 -0.149,1.033 -0.691,1.128 l -16.584,2.9 C 7.172,28.989 6.597,28.636 6.435,28.11 L 2.238,14.481 c -0.162,-0.525 0.149,-1.033 0.69,-1.128 l 16.583,-2.898 c 0.542,-0.095 1.118,0.258 1.279,0.783 l 4.199,13.628 z"
     id="path21"
     style="fill:none;stroke:#414042;stroke-width:0.1;stroke-miterlimit:10" /><linearGradient
     x1="7.0897999"
     y1="20.499001"
     x2="29.940001"
     y2="20.499001"
     id="a"
     gradientUnits="userSpaceOnUse"><stop
       id="stop24"
       style="stop-color:#f1f2f2;stop-opacity:1"
       offset="0" /><stop
       id="stop26"
       style="stop-color:#f2e7db;stop-opacity:1"
       offset="0.0395" /><stop
       id="stop28"
       style="stop-color:#f4d3ae;stop-opacity:1"
       offset="0.1471" /><stop
       id="stop30"
       style="stop-color:#f5c188;stop-opacity:1"
       offset="0.2586" /><stop
       id="stop32"
       style="stop-color:#f5b36a;stop-opacity:1"
       offset="0.37180001" /><stop
       id="stop34"
       style="stop-color:#f6a74f;stop-opacity:1"
       offset="0.48710001" /><stop
       id="stop36"
       style="stop-color:#f79e39;stop-opacity:1"
       offset="0.60509998" /><stop
       id="stop38"
       style="stop-color:#f79829;stop-opacity:1"
       offset="0.727" /><stop
       id="stop40"
       style="stop-color:#f79520;stop-opacity:1"
       offset="0.85519999" /><stop
       id="stop42"
       style="stop-color:#f7941e;stop-opacity:1"
       offset="1" /></linearGradient><path
     d="m 25.415,24.895 c -0.191,0.516 -0.791,1.016 -1.332,1.112 L 7.786,28.892 C 7.244,28.989 6.958,28.645 7.149,28.129 l 4.463,-12.022 c 0.191,-0.516 0.791,-1.016 1.333,-1.112 l 16.299,-2.888 c 0.541,-0.096 0.828,0.248 0.637,0.763 l -4.466,12.025 z"
     id="path44"
     style="fill:url(#a)" /><path
     d="m 25.415,24.895 c -0.191,0.516 -0.791,1.016 -1.332,1.112 L 7.786,28.892 C 7.244,28.989 6.958,28.645 7.149,28.129 l 4.463,-12.022 c 0.191,-0.516 0.791,-1.016 1.333,-1.112 l 16.299,-2.888 c 0.541,-0.096 0.828,0.248 0.637,0.763 l -4.466,12.025 z"
     id="path46"
     style="fill:none;stroke:#f7941e;stroke-width:0.1;stroke-miterlimit:10" /><path
     d="M 26.084,6.26 C 22.891,1.053 17.66,3.32 17.66,3.32 L 9.84,6.835 c 0,0 10.569,-4.773 14.794,0.259 -1.424,0.883 -2.508,1.723 -2.508,1.723 l 4.616,1.042 0.19,-0.024 c -0.027,-0.222 2.092,-4.694 2.092,-4.694 -0.89,0.143 -1.935,0.588 -2.94,1.119 z"
     id="path48"
     style="fill:#00a651;stroke:#000000;stroke-width:0.1;stroke-miterlimit:10" /></svg>