<?xml version="1.0" encoding="utf-8"?>
<!-- Generator: Adobe Illustrator 16.0.0, SVG Export Plug-In . SVG Version: 6.00 Build 0)  -->
<!DOCTYPE svg PUBLIC "-//W3C//DTD SVG 1.1//EN" "http://www.w3.org/Graphics/SVG/1.1/DTD/svg11.dtd">
<svg version="1.1" id="Layer_1" xmlns="http://www.w3.org/2000/svg" xmlns:xlink="http://www.w3.org/1999/xlink" x="0px" y="0px"
	 width="32px" height="32px" viewBox="0 0 32 32" enable-background="new 0 0 32 32" xml:space="preserve">
<g>
	<linearGradient id="SVGID_1_" gradientUnits="userSpaceOnUse" x1="3.1421" y1="14.73" x2="28.8613" y2="14.73">
		<stop  offset="0" style="stop-color:#414042"/>
		<stop  offset="0.0326" style="stop-color:#464547"/>
		<stop  offset="0.0976" style="stop-color:#49494B"/>
		<stop  offset="0.1472" style="stop-color:#5B5B5E"/>
		<stop  offset="0.2417" style="stop-color:#747678"/>
		<stop  offset="0.3215" style="stop-color:#828487"/>
		<stop  offset="0.3763" style="stop-color:#88898C"/>
		<stop  offset="0.4912" style="stop-color:#97999C"/>
		<stop  offset="0.7271" style="stop-color:#C2C4C6"/>
		<stop  offset="0.8467" style="stop-color:#DBDCDD"/>
		<stop  offset="1" style="stop-color:#FFFFFF"/>
	</linearGradient>
	<path fill="url(#SVGID_1_)" d="M28.861,20.263c0,0.275-0.225,0.5-0.5,0.499L3.642,20.725c-0.275-0.001-0.5-0.226-0.5-0.501V9.197
		c0-0.275,0.225-0.5,0.5-0.499l24.719,0.037c0.275,0,0.5,0.226,0.5,0.501V20.263z"/>
	<path fill="none" stroke="#000000" stroke-width="0.1" stroke-miterlimit="10" d="M28.861,20.263c0,0.275-0.225,0.5-0.5,0.499
		L3.642,20.725c-0.275-0.001-0.5-0.226-0.5-0.501V9.197c0-0.275,0.225-0.5,0.5-0.499l24.719,0.037c0.275,0,0.5,0.226,0.5,0.501
		V20.263z"/>
</g>
<ellipse stroke="#FFFFFF" stroke-width="0.45" stroke-miterlimit="10" cx="26.886" cy="11.038" rx="0.62" ry="0.652"/>
<path fill="none" stroke="#FFFFFF" stroke-miterlimit="10" d="M2.83,9.676 M2.83,15.577 M8.428,10.384 M2.83,10.396"/>
<path fill="none" stroke="#000000" stroke-width="0.7" stroke-miterlimit="10" d="M26.886,15.388c0,0.537-0.728,0.972-1.625,0.972
	H7.255c-0.897,0-1.626-0.435-1.626-0.972l0,0c0-0.538,0.729-0.973,1.626-0.973h18.006C26.158,14.416,26.886,14.851,26.886,15.388
	L26.886,15.388z"/>
<linearGradient id="SVGID_2_" gradientUnits="userSpaceOnUse" x1="23.5576" y1="24.5" x2="25.8516" y2="24.5">
	<stop  offset="0" style="stop-color:#000000"/>
	<stop  offset="0.0088" style="stop-color:#141515"/>
	<stop  offset="0.0453" style="stop-color:#656668"/>
	<stop  offset="0.071" style="stop-color:#97999C"/>
	<stop  offset="0.0836" style="stop-color:#ABADB0"/>
	<stop  offset="0.2532" style="stop-color:#BABCBE"/>
	<stop  offset="0.4286" style="stop-color:#C6C8CA"/>
	<stop  offset="0.4925" style="stop-color:#D0D2D3"/>
	<stop  offset="0.6865" style="stop-color:#EAEBEB"/>
	<stop  offset="0.8616" style="stop-color:#FAFAFA"/>
	<stop  offset="1" style="stop-color:#FFFFFF"/>
</linearGradient>
<line fill="url(#SVGID_2_)" stroke="#414042" stroke-width="0.1" stroke-miterlimit="10" x1="23.558" y1="25.428" x2="25.852" y2="23.571"/>
<g>
	<g>
		<linearGradient id="SVGID_3_" gradientUnits="userSpaceOnUse" x1="6.8477" y1="20.1514" x2="25.8516" y2="20.1514">
			<stop  offset="0" style="stop-color:#000000"/>
			<stop  offset="0.0088" style="stop-color:#141515"/>
			<stop  offset="0.0453" style="stop-color:#656668"/>
			<stop  offset="0.071" style="stop-color:#97999C"/>
			<stop  offset="0.0836" style="stop-color:#ABADB0"/>
			<stop  offset="0.1984" style="stop-color:#BABCBE"/>
			<stop  offset="0.3171" style="stop-color:#C6C8CA"/>
			<stop  offset="0.4107" style="stop-color:#D3D4D6"/>
			<stop  offset="0.6305" style="stop-color:#EBECEC"/>
			<stop  offset="0.8329" style="stop-color:#FAFAFA"/>
			<stop  offset="1" style="stop-color:#FFFFFF"/>
		</linearGradient>
		<path fill="url(#SVGID_3_)" d="M25.852,14.875v8.699c0,0.005-0.005,0.01-0.01,0.01h-2.233c-0.005,0-0.01,0.005-0.01,0.01
			l-0.041,1.824c0,0.005-0.005,0.01-0.01,0.01H6.857c-0.005,0-0.01-0.005-0.01-0.01V14.875"/>
		<path fill="none" stroke="#414042" stroke-width="0.1" stroke-miterlimit="10" d="M25.852,14.875v8.699
			c0,0.005-0.005,0.01-0.01,0.01h-2.233c-0.005,0-0.01,0.005-0.01,0.01l-0.041,1.824c0,0.005-0.005,0.01-0.01,0.01H6.857
			c-0.005,0-0.01-0.005-0.01-0.01V14.875"/>
	</g>
	<g>
		<g>
			<path fill="#ED1C24" d="M12.146,17.77c0.568,1.652,1.558,3.131,2.264,4.729c0.375,0.851,0.797,1.645,1.315,2.416
				c-0.207-0.309,1.19-2.995,1.358-3.425c0.462-1.182,0.426-1.742,1.26-0.426c0.222-0.223,0.382-0.483,0.48-0.781
				c0,0,0.638,1.393,0.679,1.515c0.389,1.16,1.012-0.942,1.249-1.424c0.576-1.167,1.432-2.186,2.137-3.274
				c0.309-0.477-0.3-1.538,0-2c-1.111,1.717-2.107,3.454-3.17,5.194c0.146-0.241-0.742-1.771-0.895-2.01
				c-0.099,0.298-0.259,0.559-0.48,0.781c-0.253,0.322-0.336-2.152-1.003-0.26c-0.325,0.922-0.707,1.826-1.072,2.733
				c-0.185,0.457-0.366,0.916-0.543,1.377c0.035-0.089-0.945-1.617-1.032-1.794c-0.861-1.736-1.918-3.522-2.547-5.352
				C12.349,16.361,11.939,17.169,12.146,17.77L12.146,17.77z"/>
		</g>
	</g>
</g>
<path fill="#FFFFFF" stroke="#FFFFFF" stroke-width="0.3" stroke-miterlimit="10" d="M8.077,9.676l-3.91,0.005
	c-0.009,0-0.017-0.005-0.025-0.005c-0.194,0-0.35,0.161-0.35,0.359v4.023c0,0.197,0.156,0.357,0.35,0.357
	c0.194,0,0.351-0.16,0.351-0.357v-3.66l3.586-0.006c0.193,0,0.35-0.16,0.349-0.358C8.428,9.836,8.27,9.675,8.077,9.676z"/>
<path stroke="#FFFFFF" stroke-width="0.51" stroke-miterlimit="10" d="M18.462,31.115"/>
</svg>
