<?xml version="1.0" encoding="UTF-8"?>
<svg version="1.1" viewBox="0 0 32 32" xml:space="preserve" xmlns="http://www.w3.org/2000/svg"><path d="m25 4.2188c-0.67775 0.05775-1.1562 0.375-1.1562 0.375l-16.625 14.5 3.75 4.4688 16.625-14.5s1.4995-1.6845-0.1875-3.6875c-0.842-1.002-1.7285-1.214-2.4062-1.1562z" color="#000000" fill="#00a651"/><path d="m10.643 23.626 0.03636-0.01996 0.09119-0.07157-0.04187-0.10321-3.4431-4.0906-0.1149-0.06232-0.12756 0.09737-1.8939 4.3603-0.021422 0.11587c0 0.07303 0.022396 0.15093 0.069134 0.2074l0.55794 0.66213c0.058423 0.06816 0.15482 0.10711 0.24538 0.10711z" fill="#fff" stroke="#000" stroke-width=".14606"/><path d="m26.004 10.458-4.6679 4.0631-3.7514-4.4674 4.631-4.0365z" fill="#f7941e"/><path d="m5.325 23.114c0.079-0.153 0.238-0.172 0.352-0.04l1.146 1.298c0.115 0.126 0.079 0.284-0.079 0.344l-2.497 0.945c-0.157 0.061-0.222-0.019-0.143-0.17l1.221-2.377z"/><path d="m8.697 18.552c1.172-1.087 2.338-2.179 3.532-3.238 1.182-1.073 2.384-2.124 3.587-3.174 1.199-1.057 2.408-2.098 3.627-3.129 1.211-1.04 2.431-2.07 3.665-3.083l-0.018 0.017c0.269-0.296 0.573-0.527 0.916-0.711 0.172-0.089 0.353-0.163 0.542-0.209 0.188-0.044 0.383-0.075 0.575-0.065 0.098-4e-3 0.193 7e-3 0.289 0.028 0.094 0.02 0.191 0.026 0.279 0.066 0.185 0.056 0.355 0.135 0.517 0.239 0.326 0.193 0.592 0.462 0.841 0.738-0.269-0.258-0.551-0.506-0.879-0.67-0.162-0.088-0.332-0.153-0.511-0.193-0.085-0.032-0.177-0.031-0.266-0.043-0.088-0.014-0.179-0.018-0.269-7e-3 -0.179 3e-3 -0.354 0.044-0.523 0.097-0.17 0.057-0.332 0.13-0.487 0.218-0.307 0.179-0.594 0.418-0.813 0.684l-8e-3 9e-3 -0.011 8e-3c-1.182 1.073-2.378 2.13-3.584 3.177-1.196 1.056-2.403 2.102-3.625 3.132-1.213 1.038-2.427 2.074-3.661 3.087-1.221 1.026-2.471 2.02-3.715 3.022z" fill="#fff"/><path d="m22.216 6.0087 3.8026 4.4386" fill="none" stroke="#fff" stroke-width=".15"/><path d="m17.568 10.062 3.783 4.4581" fill="none" stroke="#fff" stroke-width=".15"/></svg>
