<?xml version="1.0" encoding="utf-8"?>
<!-- Generator: Adobe Illustrator 16.0.0, SVG Export Plug-In . SVG Version: 6.00 Build 0)  -->
<!DOCTYPE svg PUBLIC "-//W3C//DTD SVG 1.1//EN" "http://www.w3.org/Graphics/SVG/1.1/DTD/svg11.dtd" [
	<!ENTITY ns_flows "http://ns.adobe.com/Flows/1.0/">
	<!ENTITY ns_extend "http://ns.adobe.com/Extensibility/1.0/">
	<!ENTITY ns_ai "http://ns.adobe.com/AdobeIllustrator/10.0/">
	<!ENTITY ns_graphs "http://ns.adobe.com/Graphs/1.0/">
]>
<svg version="1.1" id="Layer_1" xmlns:x="&ns_extend;" xmlns:i="&ns_ai;" xmlns:graph="&ns_graphs;"
	 xmlns="http://www.w3.org/2000/svg" xmlns:xlink="http://www.w3.org/1999/xlink" xmlns:a="http://ns.adobe.com/AdobeSVGViewerExtensions/3.0/"
	 x="0px" y="0px" width="32px" height="32px" viewBox="0 0 32 32" enable-background="new 0 0 32 32" xml:space="preserve">
<linearGradient id="SVGID_1_" gradientUnits="userSpaceOnUse" x1="15.3545" y1="11.4312" x2="21.1636" y2="16.0034">
	<stop  offset="0" style="stop-color:#FFFFFF"/>
	<stop  offset="1" style="stop-color:#000000"/>
	<a:midPointStop  offset="0" style="stop-color:#FFFFFF"/>
	<a:midPointStop  offset="0.5" style="stop-color:#FFFFFF"/>
	<a:midPointStop  offset="1" style="stop-color:#000000"/>
</linearGradient>
<polygon fill="url(#SVGID_1_)" stroke="#000000" stroke-width="0.8" stroke-miterlimit="10" points="20.579,5.13 26.72,10.594 
	16.148,22.471 10.009,17.007 "/>
<g>
	<path fill="#FFFFFF" d="M15.574,22.779c0.073-0.082,0.065-0.209-0.017-0.282l-5.609-4.992c-0.082-0.073-0.209-0.065-0.282,0.017
		l-2.879,3.233c-0.073,0.082-0.065,0.209,0.017,0.282l3.292,2.93c0.082,0.073,0.239,0.133,0.35,0.133h3.752
		c0.11,0,0.26-0.067,0.333-0.149L15.574,22.779z"/>
	<path fill="none" stroke="#000000" stroke-width="0.5" stroke-miterlimit="10" d="M15.574,22.779
		c0.073-0.082,0.065-0.209-0.017-0.282l-5.609-4.992c-0.082-0.073-0.209-0.065-0.282,0.017l-2.879,3.233
		c-0.073,0.082-0.065,0.209,0.017,0.282l3.292,2.93c0.082,0.073,0.239,0.133,0.35,0.133h3.752c0.11,0,0.26-0.067,0.333-0.149
		L15.574,22.779z"/>
</g>
</svg>
