<?xml version="1.0" encoding="UTF-8"?>
<!DOCTYPE svg  PUBLIC '-//W3C//DTD SVG 1.1//EN'  'http://www.w3.org/Graphics/SVG/1.1/DTD/svg11.dtd'>
<svg enable-background="new 0 0 32 32" version="1.1" viewBox="0 0 32 32" xml:space="preserve" xmlns="http://www.w3.org/2000/svg">
			<linearGradient id="c" x1="9.7979" x2="22.185" y1="7.9565" y2="7.9565" gradientTransform="matrix(-.9657 .2596 -.2596 -.9657 34.576 28.902)" gradientUnits="userSpaceOnUse">
			<stop stop-color="#FFF33B" offset="0"/>
			<stop stop-color="#FFE029" offset=".0595"/>
			<stop stop-color="#FFD218" offset=".1303"/>
			<stop stop-color="#FEC90F" offset=".2032"/>
			<stop stop-color="#FDC70C" offset=".2809"/>
			<stop stop-color="#F3903F" offset=".6685"/>
			<stop stop-color="#ED683C" offset=".8876"/>
			<stop stop-color="#E93E3A" offset="1"/>
		</linearGradient>
		<path d="m21.632 20.113c1.117 1.159 2.026 6.063 1.582 7.539-0.228-0.428-0.642-0.679-0.759-1.139l-0.111 0.031c-0.101 0.521-0.45 0.988-0.583 1.394-0.059-0.23-0.255-0.542-0.313-0.771-0.05 0.258-0.291 0.694-0.344 0.954-0.166-0.198-0.583-0.449-0.751-0.648-0.022 0.373-0.182 0.666-0.093 1.011-0.168-0.199-0.478-0.482-0.564-0.826-0.021 0.375-0.289 0.696-0.311 1.073-0.118-0.463-0.455-0.857-0.465-1.346-0.021 0.375-0.262 0.811-0.391 1.217-0.088-0.345-0.426-0.743-0.565-0.825-0.048 0.261-0.29 0.695-0.421 1.103-0.119-0.458-0.481-0.971-0.601-1.429-0.291 0.695-0.304 1.56-0.564 2.369-0.256-0.54-0.543-1.197-0.579-1.801 0.036 0.604-0.176 1.152-0.387 1.703-0.227-0.427-0.703-0.907-0.82-1.363-0.098 0.518-0.391 1.214-0.352 1.818-0.335-0.399-0.625-1.057-0.659-1.658 6e-3 0.489-0.313 1.071-0.307 1.562-0.225-0.429-0.622-1.054-0.74-1.514-0.022 0.375-0.233 0.926-0.222 1.416-1.139-2.139-1.923-4.742-1.605-7.166" fill="url(#c)"/>
			<path d="m21.5 20.179c0.81 1.016 1.094 2.381 1.363 3.624 0.193 0.892 0.286 1.804 0.318 2.715 0.039 1.111-0.137 0.718-0.595-0.069-0.028-0.05-0.111-0.053-0.16-0.039-0.574 0.161-0.45 1.663-0.835 0.72-0.045-0.11-0.245-0.088-0.284 0.02-0.231 0.646-0.32 0.691-0.844 0.239-0.08-0.069-0.241-4e-3 -0.259 0.096-0.115 0.677-0.033 0.748-0.378 0.109-0.049-0.091-0.245-0.043-0.271 0.046-0.263 0.912-0.304 0.376-0.491-0.292-0.04-0.143-0.264-0.06-0.292 0.049-0.154 0.722-0.38 0.827-0.677 0.316-0.068-0.071-0.233-0.058-0.271 0.046-0.32 0.89-0.46 0.313-0.737-0.346-0.044-0.105-0.25-0.093-0.284 0.02-0.319 1.092-0.488 2.647-0.859 0.549-0.024-0.136-0.279-0.067-0.292 0.049-0.163 1.479-0.468 1.576-0.915 0.291-0.06-0.127-0.261-0.073-0.292 0.049-0.277 1.096-0.458 1.536-0.719 0.111-0.026-0.142-0.271-0.061-0.292 0.049-0.205 1.037-0.176 1.495-0.755-1e-3 -0.05-0.129-0.27-0.073-0.292 0.049-0.319 1.716-1.017-1.203-1.172-1.703-0.411-1.315-0.471-2.702-0.361-4.066 0.013-0.155-0.283-0.118-0.294 0.02-0.209 2.581 0.469 4.924 1.62 7.222 0.055 0.108 0.266 0.026 0.279-0.075 0.186-1.423 0.218-0.668 0.682 0.173 0.061 0.11 0.26 0.024 0.279-0.075 0.289-1.469 0.199-0.569 0.687 0.172 0.063 0.096 0.27 0.037 0.279-0.075 0.12-1.443 0.129-1.553 0.893-0.38 0.057 0.087 0.24 0.046 0.271-0.046 0.485-1.41 0.177-1.013 0.682 0.117 0.058 0.128 0.263 0.073 0.292-0.049 0.168-0.698 0.236-2.408 0.874-0.892 0.047 0.112 0.241 0.086 0.284-0.02 0.283-0.713 0.313-1.012 0.715-0.231 0.05 0.097 0.239 0.036 0.271-0.046 0.347-0.911 0.211-0.727 0.571 0.148 0.043 0.106 0.251 0.093 0.284-0.02 0.195-0.675 0.152-0.719 0.604-0.201 0.067 0.078 0.277 0.05 0.279-0.075 6e-3 -0.675 0.073-0.709 0.585-0.267 0.068 0.059 0.221 0.017 0.251-0.066 0.204-0.566 0.142-0.734 0.373-0.164 0.047 0.117 0.237 0.081 0.284-0.02 0.399-0.861 0.569-1.051 1.182-0.24 0.073 0.098 0.256 0.034 0.279-0.075 0.484-2.255-0.154-5.783-1.598-7.595-0.084-0.11-0.359 8e-3 -0.262 0.129z" fill="#808285"/>
			<path d="m20.565 20.018c0.842 0.827 1.445 2.232 1.27 3.42 0.097-0.021 0.192-0.041 0.288-0.063-0.257-1.372-1.012-2.411-2.133-3.22-0.047-0.034-0.303 0.011-0.28 0.09 0.179 0.64 0.448 1.235 0.73 1.835 0.036 0.078 0.316-0.021 0.289-0.078-0.282-0.6-0.552-1.195-0.73-1.835-0.094 0.03-0.187 0.061-0.28 0.09 1.11 0.802 1.86 1.839 2.115 3.196 0.013 0.069 0.278 1e-3 0.288-0.063 0.18-1.217-0.418-2.624-1.285-3.475-0.058-0.056-0.324 0.051-0.272 0.103z" fill="#808285"/>
			<path d="m14.377 28.327c6e-3 0.021 0.012 0.04 0.026 0.057 0.061 0.077 0.242 0.055 0.271-0.046 0.197-0.668-0.347-1.911-0.505-2.535-0.036-0.141-0.267-0.061-0.292 0.049-0.246 1.07-0.334 2.126-0.219 3.219 0.097-0.026 0.193-0.052 0.29-0.078-0.402-1.116-0.693-2.25-0.878-3.423-0.021-0.129-0.249-0.067-0.284 0.021-0.469 1.151-0.442 2.305-0.16 3.501 0.093-0.035 0.185-0.069 0.277-0.104-0.994-1.354-1.377-3.172-1.5-4.821-0.012-0.157-0.304-0.115-0.294 0.02 0.126 1.693 0.507 3.54 1.529 4.933 0.072 0.098 0.309 0.028 0.277-0.104-0.274-1.16-0.308-2.267 0.148-3.386-0.095 7e-3 -0.189 0.014-0.284 0.021 0.186 1.172 0.477 2.306 0.878 3.423 0.05 0.14 0.305 0.063 0.29-0.078-0.114-1.076-0.019-2.109 0.223-3.16-0.097 0.017-0.194 0.032-0.292 0.049 0.139 0.547 0.271 1.095 0.386 1.647 0.038 0.182 0.185 0.585 0.13 0.771 0.09-0.016 0.181-0.03 0.271-0.046v-5e-3c-0.041-0.142-0.331-0.063-0.288 0.075z" fill="#808285"/>
			<linearGradient id="d" x1="7.7773" x2="19.356" y1="25.019" y2="17.299" gradientTransform="matrix(-.9657 .2596 -.2596 -.9657 34.911 28.453)" gradientUnits="userSpaceOnUse">
			<stop stop-color="#fff" offset="0"/>
			<stop offset="1"/>
		</linearGradient>
		<path d="m22.109 20.613c-3.689-0.191-8.254 1.217-11.383 3.2-0.383-1.49-0.873-2.946-1.119-4.353 7.214-2.025 5.45-2.454 11.464-3.347 0.137 1.436 0.628 2.896 1.011 4.384m-1.011-4.383c-0.745-0.16-2.115-0.265-2.889-0.537-2.82-0.928-1.906-3.763-2.474-6.429-0.363-1.863-1.203-6.045-3.088-6.989-3.026-1.732-2.68 3.723-2.239 5.442 0.353 1.373 0.645 2.616 1.297 3.781 0.405 0.723 1.864 3.042 1.93 3.76 0.145 1.926-3.541 2.469-4.002 4.319m3.045-15.103c-0.108-3.162-1.982 1.418 0.08-0.146" fill="url(#d)"/>
		<g fill="#414042">
			<path d="m22.161 20.515c-2.445-0.057-4.9 0.336-7.201 1.183-1.263 0.464-2.527 0.97-3.684 1.668-0.642 0.387-1.081-2.038-1.134-2.232-0.333-1.205 0-1.722 1.179-2.073 1.801-0.538 3.515-1.273 5.284-1.896 0.811-0.285 1.656-0.461 2.498-0.628 1.464-0.29 1.824-0.089 2.129 1.352 0.188 0.891 0.47 1.771 0.706 2.649 0.033 0.125 0.323 0.047 0.289-0.078-0.391-1.457-0.801-2.887-1.011-4.384-7e-3 -0.052-0.09-0.066-0.13-0.06-4.03 0.619-7.601 2.235-11.503 3.354-0.056 0.015-0.135 0.06-0.121 0.13 0.302 1.471 0.729 2.903 1.119 4.353 0.027 0.1 0.182 0.056 0.239 0.021 3.381-2.04 7.27-3.252 11.237-3.161 0.131 2e-3 0.3-0.194 0.104-0.198z"/>
			<path d="m21.123 16.016c-1.26-0.217-2.426-0.331-3.637-0.896-1.429-0.667-1.342-2.966-1.416-4.231-0.128-2.19-0.717-4.402-1.508-6.438-0.55-1.415-2.238-3.579-3.88-2.332-1.795 1.364-0.366 5.897 0.091 7.489 0.622 2.165 4.057 5.336 1.528 7.294-1.077 0.833-2.26 1.245-2.832 2.546-0.064 0.146 0.228 0.134 0.275 0.025 0.812-1.845 4.568-2.431 3.872-4.848-0.516-1.793-1.916-3.325-2.553-5.095-0.62-1.72-0.878-3.53-0.792-5.351 0.066-1.388 0.819-3.761 3.227-1.048 0.703 0.792 1.044 2.066 1.365 3.063 0.587 1.823 0.857 3.735 0.968 5.639 0.205 3.487 2.176 3.862 5.188 4.38 0.134 0.023 0.298-0.164 0.104-0.197z"/>
			<path d="m12.797 4.345c-0.013-0.299 0.021-1.151-0.418-1.223-0.308-0.05-0.513 0.269-0.622 0.507-0.115 0.253-0.233 0.662-0.038 0.906 0.272 0.34 0.88-0.097 1.106-0.264 0.159-0.117-0.081-0.199-0.188-0.119-0.127 0.093-0.563 0.466-0.689 0.203-0.086-0.18-0.013-0.437 0.049-0.612 0.024-0.068 0.203-0.455 0.267-0.42 0.255 0.137 0.231 0.828 0.24 1.048 7e-3 0.145 0.298 0.093 0.293-0.026z"/>
		</g>
			<path d="m20.86 19.058c0.084 0 0.316-0.127 0.123-0.127-0.084 0-0.316 0.127-0.123 0.127z" fill="#808285"/>
			<path d="m16.907 17.413c0.741-0.269 2.147-1.106 2.839-0.538 0.634 0.521 0.562 1.77 0.765 2.492 0.054 0.193 0.922-0.044 0.869-0.232-0.249-0.889-0.168-2.654-1.389-2.804-1.129-0.138-2.355 0.518-3.383 0.891-0.584 0.212-0.029 0.31 0.299 0.191z" fill="#fff"/>
</svg>
