<?xml version="1.0" encoding="UTF-8" standalone="no"?>
<!-- Created with Inkscape (http://www.inkscape.org/) -->

<svg
   xmlns:dc="http://purl.org/dc/elements/1.1/"
   xmlns:cc="http://creativecommons.org/ns#"
   xmlns:rdf="http://www.w3.org/1999/02/22-rdf-syntax-ns#"
   xmlns:svg="http://www.w3.org/2000/svg"
   xmlns="http://www.w3.org/2000/svg"
   xmlns:xlink="http://www.w3.org/1999/xlink"
   version="1.1"
   width="100%"
   height="100%"
   viewBox="0 0 32 32"
   id="svg3269"
   xml:space="preserve"><metadata
     id="metadata3307"><rdf:RDF><cc:Work
         rdf:about=""><dc:format>image/svg+xml</dc:format><dc:type
           rdf:resource="http://purl.org/dc/dcmitype/StillImage" /><dc:title></dc:title></cc:Work></rdf:RDF></metadata><path
     d="m 25,4.21875 c -0.67775,0.05775 -1.15625,0.375 -1.15625,0.375 l -16.625,14.5 3.75,4.46875 16.625,-14.5 c 0,0 1.4995,-1.6845 -0.1875,-3.6875 C 26.56425,4.373 25.67775,4.161 25,4.21875 z"
     id="polyline3271"
     style="color:#000000;fill:#00a651;fill-opacity:1;fill-rule:nonzero;stroke-width:1;stroke-linecap:butt;stroke-linejoin:miter;stroke-miterlimit:4;stroke-opacity:1;stroke-dasharray:none;stroke-dashoffset:0;marker:none;visibility:visible;display:inline;overflow:visible;enable-background:accumulate" /><path
     d="m 10.638,23.745 0.01,0.042 0.121,-0.136 L 10.726,23.545 7.19,19.344 7.072,19.28 6.941,19.38 4.996,23.858 4.974,23.977 c 0,0.075 0.023,0.155 0.071,0.213 l 0.573,0.68 c 0.06,0.07 0.159,0.11 0.252,0.11 L 5.936,24.973 10.648,23.787 10.638,23.745 10.627,23.704 5.915,24.89 5.87,24.895 5.683,24.814 5.11,24.135 5.059,23.977 5.075,23.892 7.02,19.414 l 0.053,-0.047 0.053,0.03 3.535,4.201 0.023,0.053 -0.057,0.053 0.011,0.041"
     id="path3275" /><polygon
     points="26.02,10.493 21.356,14.56 17.601,10.097 22.264,6.029 "
     id="polygon3277"
     style="fill:#f7941e" /><polygon
     points="22.231,6.057 25.96,10.488 21.361,14.499 17.66,10.101 22.293,6.061 22.264,6.029 22.231,6.057 22.264,6.029 22.237,5.997 17.541,10.092 21.353,14.621 26.079,10.498 22.27,5.968 22.237,5.997 22.264,6.029 "
     id="polygon3279"
     style="fill:#ffffff" /><defs
     id="defs3281"><polyline
       id="d"
       points="17.969 17.456 9.095 17.456 7.215 19.095 10.97 23.556 17.969 17.456" /></defs><clipPath
     id="c"><use
       id="use3285"
       style="overflow:visible"
       x="0"
       y="0"
       width="32"
       height="32"
       xlink:href="#d" /></clipPath><defs
     id="defs3291"><path
       d="m 10.627,23.704 m -3.607,-4.29 0.053,-0.047 0.053,0.03 3.535,4.201 0.023,0.053 -0.057,0.053 L 5.915,24.89 5.87,24.895 5.683,24.814 5.11,24.135 5.059,23.977 5.075,23.892 7.02,19.414 m 0.052,-0.134 -0.131,0.1 -1.945,4.478 -0.022,0.119 c 0,0.075 0.023,0.155 0.071,0.213 l 0.573,0.68 c 0.06,0.07 0.159,0.11 0.252,0.11 L 5.936,24.973 10.648,23.787 10.769,23.651 10.726,23.545 7.19,19.344 7.072,19.28"
       id="b" /></defs><clipPath
     id="a"><use
       id="use3295"
       style="overflow:visible"
       x="0"
       y="0"
       width="32"
       height="32"
       xlink:href="#b" /></clipPath><path
     d="m 5.325,23.114 c 0.079,-0.153 0.238,-0.172 0.352,-0.04 l 1.146,1.298 c 0.115,0.126 0.079,0.284 -0.079,0.344 L 4.247,25.661 C 4.09,25.722 4.025,25.642 4.104,25.491 l 1.221,-2.377 z"
     id="path3301" /><path
     d="m 8.697,18.552 c 1.172,-1.087 2.338,-2.179 3.532,-3.238 1.182,-1.073 2.384,-2.124 3.587,-3.174 1.199,-1.057 2.408,-2.098 3.627,-3.129 1.211,-1.04 2.431,-2.07 3.665,-3.083 L 23.09,5.945 c 0.269,-0.296 0.573,-0.527 0.916,-0.711 0.172,-0.089 0.353,-0.163 0.542,-0.209 0.188,-0.044 0.383,-0.075 0.575,-0.065 0.098,-0.004 0.193,0.007 0.289,0.028 0.094,0.02 0.191,0.026 0.279,0.066 0.185,0.056 0.355,0.135 0.517,0.239 0.326,0.193 0.592,0.462 0.841,0.738 C 26.78,5.773 26.498,5.525 26.17,5.361 26.008,5.273 25.838,5.208 25.659,5.168 25.574,5.136 25.482,5.137 25.393,5.125 25.305,5.111 25.214,5.107 25.124,5.118 24.945,5.121 24.77,5.162 24.601,5.215 24.431,5.272 24.269,5.345 24.114,5.433 23.807,5.612 23.52,5.851 23.301,6.117 l -0.008,0.009 -0.011,0.008 c -1.182,1.073 -2.378,2.13 -3.584,3.177 -1.196,1.056 -2.403,2.102 -3.625,3.132 -1.213,1.038 -2.427,2.074 -3.661,3.087 -1.221,1.026 -2.471,2.02 -3.715,3.022 z"
     id="path3303"
     style="fill:#ffffff" /></svg>