<?xml version="1.0" encoding="UTF-8" standalone="no"?>
<!-- Created with Inkscape (http://www.inkscape.org/) -->

<svg
   xmlns:dc="http://purl.org/dc/elements/1.1/"
   xmlns:cc="http://creativecommons.org/ns#"
   xmlns:rdf="http://www.w3.org/1999/02/22-rdf-syntax-ns#"
   xmlns:svg="http://www.w3.org/2000/svg"
   xmlns="http://www.w3.org/2000/svg"
   xmlns:inkscape="http://www.inkscape.org/namespaces/inkscape"
   version="1.1"
   width="100%"
   height="100%"
   viewBox="0 0 32 32"
   id="svg2"
   xml:space="preserve"><metadata
     id="metadata19"><rdf:RDF><cc:Work
         rdf:about=""><dc:format>image/svg+xml</dc:format><dc:type
           rdf:resource="http://purl.org/dc/dcmitype/StillImage" /></cc:Work></rdf:RDF></metadata><defs
     id="defs17" /><linearGradient
     x1="15.354"
     y1="11.431"
     x2="21.164"
     y2="16.003"
     id="a"
     gradientUnits="userSpaceOnUse"><stop
       id="stop5"
       style="stop-color:#ffffff;stop-opacity:1"
       offset="0" /><stop
       id="stop7"
       style="stop-color:#000000;stop-opacity:1"
       offset="1" /></linearGradient><polygon
     points="20.579,5.13 26.72,10.594 16.148,22.471 10.009,17.007 "
     id="polygon9"
     style="fill:url(#a);stroke:#000000;stroke-width:0.80000001;stroke-miterlimit:10" /><path
     d="m 15.574,22.779 c 0.073,-0.082 0.065,-0.209 -0.017,-0.282 L 9.948,17.505 C 9.866,17.432 9.739,17.44 9.666,17.522 l -2.879,3.233 c -0.073,0.082 -0.065,0.209 0.017,0.282 l 3.292,2.93 c 0.082,0.073 0.239,0.133 0.35,0.133 h 3.752 c 0.11,0 0.26,-0.067 0.333,-0.149 l 1.043,-1.172 z"
     inkscape:connector-curvature="0"
     id="path11"
     style="fill:#ffffff" /><path
     d="m 15.574,22.779 c 0.073,-0.082 0.065,-0.209 -0.017,-0.282 L 9.948,17.505 C 9.866,17.432 9.739,17.44 9.666,17.522 l -2.879,3.233 c -0.073,0.082 -0.065,0.209 0.017,0.282 l 3.292,2.93 c 0.082,0.073 0.239,0.133 0.35,0.133 h 3.752 c 0.11,0 0.26,-0.067 0.333,-0.149 l 1.043,-1.172 z"
     inkscape:connector-curvature="0"
     id="path13"
     style="fill:none;stroke:#000000;stroke-width:0.5;stroke-miterlimit:10" /></svg>