<?xml version="1.0" encoding="UTF-8"?>
<svg version="1.1" viewBox="0 0 32 32" xml:space="preserve" xmlns="http://www.w3.org/2000/svg"><linearGradient id="a" x1="15.354" x2="21.164" y1="11.431" y2="16.003" gradientUnits="userSpaceOnUse"><stop stop-color="#fff" offset="0"/><stop offset="1"/></linearGradient><polygon points="20.579 5.13 26.72 10.594 16.148 22.471 10.009 17.007" fill="url(#a)" stroke="#000" stroke-miterlimit="10" stroke-width=".8"/><path d="m15.574 22.779c0.073-0.082 0.065-0.209-0.017-0.282l-5.609-4.992c-0.082-0.073-0.209-0.065-0.282 0.017l-2.879 3.233c-0.073 0.082-0.065 0.209 0.017 0.282l3.292 2.93c0.082 0.073 0.239 0.133 0.35 0.133h3.752c0.11 0 0.26-0.067 0.333-0.149l1.043-1.172z" fill="#fff"/><path d="m15.574 22.779c0.073-0.082 0.065-0.209-0.017-0.282l-5.609-4.992c-0.082-0.073-0.209-0.065-0.282 0.017l-2.879 3.233c-0.073 0.082-0.065 0.209 0.017 0.282l3.292 2.93c0.082 0.073 0.239 0.133 0.35 0.133h3.752c0.11 0 0.26-0.067 0.333-0.149l1.043-1.172z" fill="none" stroke="#000" stroke-miterlimit="10" stroke-width=".5"/></svg>
