<?xml version="1.0" encoding="UTF-8"?>
<svg version="1.1" viewBox="0 0 32 32" xml:space="preserve" xmlns="http://www.w3.org/2000/svg"><defs><filter id="a" x="-.15908" y="-.13153" width="1.3182" height="1.2631" color-interpolation-filters="sRGB"><feGaussianBlur stdDeviation="1.1601338"/></filter></defs><path d="m18.462 31.115" stroke="#fff" stroke-miterlimit="10" stroke-width=".51"/><path d="m19.959 22.647c0 0.28-0.229 0.51-0.51 0.51h-15.554c-0.28 0-0.51-0.229-0.51-0.51v-19.097c0-0.28 0.229-0.51 0.51-0.51h15.555c0.28 0 0.51 0.229 0.51 0.51v19.097z" fill="#f1f2f2"/><path d="m19.959 22.647c0 0.28-0.229 0.51-0.51 0.51h-15.554c-0.28 0-0.51-0.229-0.51-0.51v-19.097c0-0.28 0.229-0.51 0.51-0.51h15.555c0.28 0 0.51 0.229 0.51 0.51v19.097z" fill="none" stroke="#f7941e" stroke-miterlimit="10" stroke-width="2"/><path d="m16.858 5.889c-3.148 0.465-6.282 0.527-9.449 0.201-0.412-0.042-1.197 1.319-0.892 1.35 3.167 0.326 6.3 0.265 9.451-0.201 0.456-0.067 1.086-1.379 0.89-1.35z" fill="#58595b"/><path d="m16.257 9.307c-2.973-0.041-5.935 0.023-8.898 0.252-0.449 0.035-1.12 1.367-0.892 1.35 2.964-0.23 5.926-0.293 8.897-0.25 0.435 6e-3 1.163-1.348 0.893-1.352z" fill="#414042"/><path d="m9.973 12.374c-0.835 0.094-1.675 0.059-2.513 0.102-0.304 0.014-0.622 0.486-0.766 0.707-0.041 0.061-0.407 0.656-0.126 0.643 0.838-0.041 1.678-0.01 2.513-0.102 0.313-0.035 0.613-0.473 0.766-0.705 0.034-0.054 0.406-0.675 0.126-0.645z" fill="#6d6e71"/><path d="m16.76 15.44c-3.111-0.518-6.223 0.045-9.351-0.051-0.43-0.014-1.168 1.344-0.892 1.35 3.127 0.096 6.24-0.467 9.35 0.051 0.393 0.068 1.22-1.295 0.893-1.35z" fill="#414042"/><path d="m28.65 27.848c0 0.28-0.229 0.51-0.51 0.51h-15.554c-0.28 0-0.51-0.229-0.51-0.51v-19.098c0-0.28 0.229-0.51 0.51-0.51h15.555c0.28 0 0.51 0.229 0.51 0.51v19.098z" fill="#d1d3d4"/><path d="m28.65 27.848c0 0.28-0.229 0.51-0.51 0.51h-15.554c-0.28 0-0.51-0.229-0.51-0.51v-19.098c0-0.28 0.229-0.51 0.51-0.51h15.555c0.28 0 0.51 0.229 0.51 0.51v19.098z" fill="none" stroke="#f7941e" stroke-miterlimit="10" stroke-width="1.6"/><path d="m25.146 11.089c-3.148 0.465-6.282 0.526-9.449 0.201-0.412-0.042-1.196 1.319-0.892 1.35 3.166 0.326 6.3 0.265 9.45-0.201 0.456-0.067 1.086-1.379 0.891-1.35z" fill="#58595b"/><path d="m24.544 14.986c-2.973-0.041-5.935 0.023-8.898 0.252-0.449 0.035-1.12 1.367-0.892 1.35 2.964-0.23 5.926-0.293 8.897-0.25 0.435 5e-3 1.163-1.348 0.893-1.352z" fill="#414042"/><path d="m18.26 18.053c-0.835 0.094-1.676 0.059-2.514 0.102-0.304 0.014-0.621 0.486-0.766 0.707-0.041 0.061-0.406 0.656-0.126 0.643 0.838-0.041 1.679-0.01 2.513-0.102 0.313-0.035 0.613-0.473 0.767-0.705 0.034-0.053 0.407-0.675 0.126-0.645z" fill="#6d6e71"/><path d="m25.047 21.117c-3.111-0.518-6.223 0.045-9.351-0.051-0.431-0.014-1.168 1.344-0.892 1.35 3.127 0.096 6.239-0.467 9.35 0.051 0.393 0.068 1.22-1.295 0.893-1.35z" fill="#414042"/><path d="m4.0143 8.8697-0.71875 0.0625-0.71875 0.03125c2.84e-4 0.020548-3.11e-4 0.041942 0 0.0625 0.00108 0.010632-0.00109 0.020622 0 0.03125 0.02814 1.7824 0.13474 3.5889 0.4375 5.375 0.146 0.911 0.34875 1.8238 0.59375 2.7188l0.4375 1.3438 0.5 1.3125c0.177 0.432 0.417 0.831 0.625 1.25 0.197 0.424 0.503 0.7895 0.75 1.1875 0.238 0.405 0.57 0.73375 0.875 1.0938 0.291 0.374 0.66325 0.698 1.0312 1l0.5625 0.4375 0.59375 0.375c0.407 0.243 0.82325 0.496 1.2813 0.625 0.451 0.134 0.87275 0.36825 1.3438 0.40625l1.125 0.1875 0.125 3.0625c0.014 0.132-0.0305 0.26475 0.0625 0.46875 0.051 0.154 0.313 0.16875 0.375 0.09375 0.098-0.06 0.09425-0.10725 0.15625-0.15625l0.625-0.53125 1.25-1.0938c0.83-0.724 1.656-1.4492 2.5-2.1562l0.9375-0.8125 0.3125-0.25 0.625-0.53125 0.28125-0.21875c0.132-0.111 0.123-0.3055 0-0.4375-1.556-1.678-3.1312-3.3555-4.6562-5.0625l-1.125-1.2812-0.59375-0.625-0.28125-0.34375-0.03125-0.03125c-0.035-0.023-0.079-0.0525-0.125-0.0625-0.094-0.034-0.211 0.02375-0.25 0.09375-0.077 0.126-0.08775 0.2375-0.09375 0.3125l-0.09375 3.0938-0.6875-0.09375c-0.332-0.025-0.65375-0.0905-0.96875-0.1875-0.312-0.103-0.6475-0.1545-0.9375-0.3125-0.296-0.139-0.586-0.25925-0.875-0.40625l-0.8125-0.53125c-0.263-0.188-0.502-0.42-0.75-0.625-0.255-0.198-0.43225-0.48875-0.65625-0.71875-0.228-0.228-0.40375-0.489-0.59375-0.75-0.198-0.257-0.37425-0.55875-0.53125-0.84375-0.169-0.276-0.3045-0.577-0.4375-0.875-0.147-0.291-0.265-0.565-0.375-0.875-0.124-0.303-0.2215-0.6215-0.3125-0.9375-0.205-0.623-0.33975-1.2612-0.46875-1.9062-0.10458-0.53112-0.2227-1.0887-0.28125-1.625-0.00389-0.094527 0.00365-0.18654 0-0.28125h-0.03125c-0.00182-0.020634 0.00171-0.041876 0-0.0625z" filter="url(#a)"/><path d="m19.92 22.149-6.764-7.176c-0.124-0.132-0.225-0.063-0.225 0.148l0.023 3.469c-8.177-0.234-9.519-9.04-9.728-11.294 0.097 3.02 0.339 16.219 9.705 17.19v3.541c0 0.213 0.109 0.296 0.243 0.185l6.728-5.62c0.132-0.111 0.141-0.311 0.018-0.443z" fill="#fff"/><path d="m19.92 22.149c-1.584-1.652-3.153-3.318-4.767-4.942l-1.203-1.226-0.608-0.606-0.294-0.291-0.04-0.032c2e-3 9e-3 5e-3 7e-3 0.017 0.012 0.021 9e-3 0.082-0.012 0.08-0.027 0 0-9e-3 0.053-3e-3 0.118l0.14 3.433 0.012 0.308-0.308-0.019-1.055-0.066c-0.355-4e-3 -0.703-0.076-1.05-0.155-0.344-0.087-0.708-0.115-1.036-0.263-0.334-0.128-0.676-0.244-1.007-0.386l-0.948-0.524c-0.307-0.189-0.583-0.426-0.876-0.639-0.301-0.207-0.529-0.491-0.797-0.735-0.273-0.243-0.482-0.537-0.714-0.814-0.239-0.274-0.434-0.576-0.629-0.878-0.207-0.297-0.387-0.608-0.548-0.929-0.174-0.315-0.328-0.639-0.461-0.97-0.149-0.327-0.279-0.659-0.392-0.997-0.484-1.344-0.793-2.733-0.937-4.157l1.462-0.091c0.069 1.793 0.18 3.552 0.439 5.299 0.129 0.872 0.308 1.731 0.494 2.588l0.338 1.268 0.427 1.233c0.153 0.406 0.34 0.795 0.508 1.195 0.155 0.409 0.411 0.755 0.611 1.139 0.193 0.393 0.478 0.711 0.731 1.059 0.24 0.362 0.548 0.656 0.861 0.949l0.461 0.449 0.531 0.36c0.352 0.245 0.702 0.501 1.112 0.643l0.594 0.261c0.194 0.099 0.399 0.17 0.615 0.205l1.277 0.296 0.251 0.058-7e-3 0.213-0.113 3.305c-5e-3 0.137-0.016 0.295 0.01 0.337-4e-3 -5e-3 -0.063-0.015-0.024-0.02 0.024-3e-3 0.1-0.073 0.148-0.107l0.648-0.513 1.29-1.032c0.86-0.688 1.722-1.375 2.568-2.08l1.275-1.05 0.638-0.525c0.101-0.093 0.225-0.164 0.306-0.273 0.081-0.115 0.064-0.275-0.027-0.381zc0.093 0.104 0.112 0.267 0.033 0.381-0.082 0.113-0.204 0.185-0.304 0.279l-0.63 0.534-1.261 1.068c-0.844 0.707-1.673 1.433-2.503 2.157l-1.246 1.085-0.62 0.547c-0.062 0.049-0.08 0.085-0.178 0.145-0.062 0.075-0.317 0.071-0.368-0.083-0.093-0.204-0.058-0.34-0.072-0.472l-0.113-3.305 0.244 0.271-1.378-0.219c-0.471-0.038-0.89-0.279-1.341-0.413-0.458-0.129-0.86-0.377-1.267-0.62l-0.614-0.361-0.543-0.456c-0.368-0.302-0.732-0.608-1.023-0.982-0.305-0.36-0.645-0.701-0.883-1.106-0.247-0.398-0.554-0.771-0.751-1.195-0.208-0.419-0.452-0.827-0.629-1.259l-0.513-1.305-0.415-1.332c-0.245-0.895-0.442-1.8-0.588-2.711-0.308-1.817-0.439-3.666-0.464-5.478l1.462-0.091c0.054 0.65 0.159 1.305 0.286 1.95 0.129 0.645 0.272 1.291 0.477 1.914 0.091 0.316 0.198 0.626 0.322 0.929 0.11 0.31 0.237 0.61 0.384 0.901 0.133 0.298 0.271 0.594 0.44 0.87 0.157 0.285 0.313 0.571 0.511 0.828 0.19 0.261 0.359 0.543 0.587 0.771 0.224 0.23 0.41 0.506 0.665 0.704 0.248 0.205 0.479 0.436 0.742 0.624l0.816 0.527c0.289 0.147 0.591 0.271 0.887 0.41 0.29 0.158 0.621 0.202 0.933 0.305 0.315 0.097 0.634 0.187 0.966 0.212l0.99 0.131-0.295 0.289 0.095-3.434c6e-3 -0.075-5e-3 -0.173 0.072-0.299 0.039-0.07 0.169-0.138 0.263-0.104 0.046 0.01 0.079 0.034 0.114 0.057l0.042 0.038 0.295 0.333 0.569 0.643 1.152 1.273c1.525 1.707 3.096 3.371 4.652 5.049z" fill="#f7941e"/></svg>
