<?xml version="1.0" encoding="UTF-8" standalone="no"?>
<!-- Created with Inkscape (http://www.inkscape.org/) -->

<svg
   xmlns:dc="http://purl.org/dc/elements/1.1/"
   xmlns:cc="http://creativecommons.org/ns#"
   xmlns:rdf="http://www.w3.org/1999/02/22-rdf-syntax-ns#"
   xmlns:svg="http://www.w3.org/2000/svg"
   xmlns="http://www.w3.org/2000/svg"
   version="1.1"
   width="100%"
   height="100%"
   viewBox="0 0 32 32"
   id="svg3453"
   xml:space="preserve"><metadata
     id="metadata3491"><rdf:RDF><cc:Work
         rdf:about=""><dc:format>image/svg+xml</dc:format><dc:type
           rdf:resource="http://purl.org/dc/dcmitype/StillImage" /><dc:title></dc:title></cc:Work></rdf:RDF></metadata><defs
     id="defs3489"><filter
       x="-0.15908387"
       y="-0.13152882"
       width="1.3181677"
       height="1.2630576"
       color-interpolation-filters="sRGB"
       id="filter6624"><feGaussianBlur
         id="feGaussianBlur6626"
         stdDeviation="1.1601338" /></filter></defs><path
     d="M 18.462,31.115"
     id="path3455"
     style="stroke:#ffffff;stroke-width:0.50999999;stroke-miterlimit:10" /><path
     d="m 19.959,22.647 c 0,0.28 -0.229,0.51 -0.51,0.51 H 3.895 c -0.28,0 -0.51,-0.229 -0.51,-0.51 V 3.55 c 0,-0.28 0.229,-0.51 0.51,-0.51 H 19.45 c 0.28,0 0.51,0.229 0.51,0.51 v 19.097 z"
     id="path3457"
     style="fill:#f1f2f2" /><path
     d="m 19.959,22.647 c 0,0.28 -0.229,0.51 -0.51,0.51 H 3.895 c -0.28,0 -0.51,-0.229 -0.51,-0.51 V 3.55 c 0,-0.28 0.229,-0.51 0.51,-0.51 H 19.45 c 0.28,0 0.51,0.229 0.51,0.51 v 19.097 z"
     id="path3459"
     style="fill:none;stroke:#f7941e;stroke-width:2;stroke-miterlimit:10" /><path
     d="M 16.858,5.889 C 13.71,6.354 10.576,6.416 7.409,6.09 6.997,6.048 6.212,7.409 6.517,7.44 c 3.167,0.326 6.3,0.265 9.451,-0.201 0.456,-0.067 1.086,-1.379 0.89,-1.35 z"
     id="path3461"
     style="fill:#58595b" /><path
     d="M 16.257,9.307 C 13.284,9.266 10.322,9.33 7.359,9.559 c -0.449,0.035 -1.12,1.367 -0.892,1.35 2.964,-0.23 5.926,-0.293 8.897,-0.25 0.435,0.006 1.163,-1.348 0.893,-1.352 z"
     id="path3463"
     style="fill:#414042" /><path
     d="M 9.973,12.374 C 9.138,12.468 8.298,12.433 7.46,12.476 7.156,12.49 6.838,12.962 6.694,13.183 6.653,13.244 6.287,13.839 6.568,13.826 7.406,13.785 8.246,13.816 9.081,13.724 9.394,13.689 9.694,13.251 9.847,13.019 9.881,12.965 10.253,12.344 9.973,12.374 z"
     id="path3465"
     style="fill:#6d6e71" /><path
     d="m 16.76,15.44 c -3.111,-0.518 -6.223,0.045 -9.351,-0.051 -0.43,-0.014 -1.168,1.344 -0.892,1.35 3.127,0.096 6.24,-0.467 9.35,0.051 0.393,0.068 1.22,-1.295 0.893,-1.35 z"
     id="path3467"
     style="fill:#414042" /><path
     d="m 28.65,27.848 c 0,0.28 -0.229,0.51 -0.51,0.51 H 12.586 c -0.28,0 -0.51,-0.229 -0.51,-0.51 V 8.75 c 0,-0.28 0.229,-0.51 0.51,-0.51 h 15.555 c 0.28,0 0.51,0.229 0.51,0.51 v 19.098 z"
     id="path3469"
     style="fill:#d1d3d4" /><path
     d="m 28.65,27.848 c 0,0.28 -0.229,0.51 -0.51,0.51 H 12.586 c -0.28,0 -0.51,-0.229 -0.51,-0.51 V 8.75 c 0,-0.28 0.229,-0.51 0.51,-0.51 h 15.555 c 0.28,0 0.51,0.229 0.51,0.51 v 19.098 z"
     id="path3471"
     style="fill:none;stroke:#f7941e;stroke-width:1.60000002;stroke-miterlimit:10" /><path
     d="m 25.146,11.089 c -3.148,0.465 -6.282,0.526 -9.449,0.201 -0.412,-0.042 -1.196,1.319 -0.892,1.35 3.166,0.326 6.3,0.265 9.45,-0.201 0.456,-0.067 1.086,-1.379 0.891,-1.35 z"
     id="path3473"
     style="fill:#58595b" /><path
     d="m 24.544,14.986 c -2.973,-0.041 -5.935,0.023 -8.898,0.252 -0.449,0.035 -1.12,1.367 -0.892,1.35 2.964,-0.23 5.926,-0.293 8.897,-0.25 0.435,0.005 1.163,-1.348 0.893,-1.352 z"
     id="path3475"
     style="fill:#414042" /><path
     d="m 18.26,18.053 c -0.835,0.094 -1.676,0.059 -2.514,0.102 -0.304,0.014 -0.621,0.486 -0.766,0.707 -0.041,0.061 -0.406,0.656 -0.126,0.643 0.838,-0.041 1.679,-0.01 2.513,-0.102 0.313,-0.035 0.613,-0.473 0.767,-0.705 0.034,-0.053 0.407,-0.675 0.126,-0.645 z"
     id="path3477"
     style="fill:#6d6e71" /><path
     d="m 25.047,21.117 c -3.111,-0.518 -6.223,0.045 -9.351,-0.051 -0.431,-0.014 -1.168,1.344 -0.892,1.35 3.127,0.096 6.239,-0.467 9.35,0.051 0.393,0.068 1.22,-1.295 0.893,-1.35 z"
     id="path3479"
     style="fill:#414042" /><path
     d="m 4.0143008,8.8697034 -0.71875,0.0625 -0.71875,0.03125 c 2.84e-4,0.020548 -3.11e-4,0.041942 0,0.0625 0.00108,0.010632 -0.00109,0.020622 0,0.03125 0.02814,1.7823956 0.134739,3.5889086 0.4375,5.3750006 0.146,0.911 0.34875,1.82375 0.59375,2.71875 l 0.4375,1.34375 0.5,1.3125 c 0.177,0.432 0.417,0.831 0.625,1.25 0.197,0.424 0.503,0.7895 0.75,1.1875 0.238,0.405 0.57,0.73375 0.875,1.09375 0.291,0.374 0.66325,0.698 1.03125,1 l 0.5625,0.4375 0.59375,0.375 c 0.407,0.243 0.82325,0.496 1.2812502,0.625 0.451,0.134 0.872751,0.36825 1.343751,0.40625 l 1.125,0.1875 0.125,3.0625 c 0.014,0.132 -0.0305,0.26475 0.0625,0.46875 0.051,0.154 0.313,0.16875 0.375,0.09375 0.098,-0.06 0.09425,-0.10725 0.15625,-0.15625 l 0.625,-0.53125 1.25,-1.09375 c 0.83,-0.724 1.656,-1.44925 2.5,-2.15625 l 0.9375,-0.8125 0.3125,-0.25 0.625,-0.53125 0.28125,-0.21875 c 0.132,-0.111 0.123,-0.3055 0,-0.4375 -1.556,-1.678 -3.13125,-3.3555 -4.65625,-5.0625 l -1.125,-1.28125 -0.59375,-0.625 -0.28125,-0.34375 -0.03125,-0.03125 c -0.035,-0.023 -0.079,-0.0525 -0.125,-0.0625 -0.094,-0.034 -0.211,0.02375 -0.25,0.09375 -0.077,0.126 -0.08775,0.2375 -0.09375,0.3125 l -0.09375,3.09375 -0.6875,-0.09375 c -0.332,-0.025 -0.65375,-0.0905 -0.96875,-0.1875 -0.312001,-0.103 -0.647501,-0.1545 -0.937501,-0.3125 -0.2960002,-0.139 -0.5860002,-0.25925 -0.8750002,-0.40625 l -0.8125,-0.53125 c -0.263,-0.188 -0.502,-0.42 -0.75,-0.625 -0.255,-0.198 -0.43225,-0.48875 -0.65625,-0.71875 -0.228,-0.228 -0.40375,-0.489 -0.59375,-0.75 -0.198,-0.257 -0.37425,-0.55875 -0.53125,-0.84375 -0.169,-0.276 -0.3045,-0.577 -0.4375,-0.875 -0.147,-0.291 -0.265,-0.565 -0.375,-0.875 -0.124,-0.303 -0.2215,-0.6215 -0.3125,-0.9375 -0.205,-0.623 -0.33975,-1.26125 -0.46875,-1.90625 -0.104577,-0.531118 -0.222699,-1.0886966 -0.28125,-1.6250006 -0.00389,-0.094527 0.00365,-0.186536 0,-0.28125 l -0.03125,0 c -0.00182,-0.020634 0.00171,-0.041876 0,-0.0625 z"
     id="path3483-3"
     style="fill:#000000;filter:url(#filter6624)" /><path
     d="m 19.92,22.149 -6.764,-7.176 c -0.124,-0.132 -0.225,-0.063 -0.225,0.148 l 0.023,3.469 C 4.777,18.356 3.435,9.55 3.226,7.296 c 0.097,3.02 0.339,16.219 9.705,17.19 v 3.541 c 0,0.213 0.109,0.296 0.243,0.185 l 6.728,-5.62 c 0.132,-0.111 0.141,-0.311 0.018,-0.443 z"
     id="path3483"
     style="fill:#ffffff" /><path
     d="m 19.92,22.149 c -1.584,-1.652 -3.153,-3.318 -4.767,-4.942 l -1.203,-1.226 -0.608,-0.606 -0.294,-0.291 -0.04,-0.032 c 0.002,0.009 0.005,0.007 0.017,0.012 0.021,0.009 0.082,-0.012 0.08,-0.027 0,0 -0.009,0.053 -0.003,0.118 l 0.14,3.433 0.012,0.308 -0.308,-0.019 -1.055,-0.066 C 11.536,18.807 11.188,18.735 10.841,18.656 10.497,18.569 10.133,18.541 9.805,18.393 9.471,18.265 9.129,18.149 8.798,18.007 L 7.85,17.483 C 7.543,17.294 7.267,17.057 6.974,16.844 6.673,16.637 6.445,16.353 6.177,16.109 5.904,15.866 5.695,15.572 5.463,15.295 5.224,15.021 5.029,14.719 4.834,14.417 4.627,14.12 4.447,13.809 4.286,13.488 4.112,13.173 3.958,12.849 3.825,12.518 3.676,12.191 3.546,11.859 3.433,11.521 2.949,10.177 2.64,8.788 2.496,7.364 L 3.958,7.273 c 0.069,1.793 0.18,3.552 0.439,5.299 0.129,0.872 0.308,1.731 0.494,2.588 l 0.338,1.268 0.427,1.233 c 0.153,0.406 0.34,0.795 0.508,1.195 0.155,0.409 0.411,0.755 0.611,1.139 0.193,0.393 0.478,0.711 0.731,1.059 0.24,0.362 0.548,0.656 0.861,0.949 l 0.461,0.449 0.531,0.36 c 0.352,0.245 0.702,0.501 1.112,0.643 l 0.594,0.261 c 0.194,0.099 0.399,0.17 0.615,0.205 l 1.277,0.296 0.251,0.058 -0.007,0.213 -0.113,3.305 c -0.005,0.137 -0.016,0.295 0.01,0.337 -0.004,-0.005 -0.063,-0.015 -0.024,-0.02 0.024,-0.003 0.1,-0.073 0.148,-0.107 l 0.648,-0.513 1.29,-1.032 c 0.86,-0.688 1.722,-1.375 2.568,-2.08 l 1.275,-1.05 0.638,-0.525 c 0.101,-0.093 0.225,-0.164 0.306,-0.273 0.081,-0.115 0.064,-0.275 -0.027,-0.381 z m 0,0 c 0.093,0.104 0.112,0.267 0.033,0.381 -0.082,0.113 -0.204,0.185 -0.304,0.279 l -0.63,0.534 -1.261,1.068 c -0.844,0.707 -1.673,1.433 -2.503,2.157 l -1.246,1.085 -0.62,0.547 c -0.062,0.049 -0.08,0.085 -0.178,0.145 -0.062,0.075 -0.317,0.071 -0.368,-0.083 -0.093,-0.204 -0.058,-0.34 -0.072,-0.472 l -0.113,-3.305 0.244,0.271 -1.378,-0.219 C 11.053,24.499 10.634,24.258 10.183,24.124 9.725,23.995 9.323,23.747 8.916,23.504 L 8.302,23.143 7.759,22.687 C 7.391,22.385 7.027,22.079 6.736,21.705 6.431,21.345 6.091,21.004 5.853,20.599 5.606,20.201 5.299,19.828 5.102,19.404 4.894,18.985 4.65,18.577 4.473,18.145 L 3.96,16.84 3.545,15.508 C 3.3,14.613 3.103,13.708 2.957,12.797 2.649,10.98 2.518,9.131 2.493,7.319 L 3.955,7.228 c 0.054,0.65 0.159,1.305 0.286,1.95 0.129,0.645 0.272,1.291 0.477,1.914 0.091,0.316 0.198,0.626 0.322,0.929 0.11,0.31 0.237,0.61 0.384,0.901 0.133,0.298 0.271,0.594 0.44,0.87 0.157,0.285 0.313,0.571 0.511,0.828 0.19,0.261 0.359,0.543 0.587,0.771 0.224,0.23 0.41,0.506 0.665,0.704 0.248,0.205 0.479,0.436 0.742,0.624 l 0.816,0.527 c 0.289,0.147 0.591,0.271 0.887,0.41 0.29,0.158 0.621,0.202 0.933,0.305 0.315,0.097 0.634,0.187 0.966,0.212 l 0.99,0.131 -0.295,0.289 0.095,-3.434 c 0.006,-0.075 -0.005,-0.173 0.072,-0.299 0.039,-0.07 0.169,-0.138 0.263,-0.104 0.046,0.01 0.079,0.034 0.114,0.057 l 0.042,0.038 0.295,0.333 0.569,0.643 1.152,1.273 c 1.525,1.707 3.096,3.371 4.652,5.049 z"
     id="path3485"
     style="fill:#f7941e" /></svg>