<?xml version="1.0" encoding="UTF-8"?>
<svg version="1.1" viewBox="0 0 32 32" xml:space="preserve" xmlns="http://www.w3.org/2000/svg"><defs><filter id="c" x="-.32505" y="-.40337" width="1.6501" height="1.8067" color-interpolation-filters="sRGB"><feGaussianBlur stdDeviation="3.2938311"/></filter></defs><path d="m26.654 23.839c0.048 0.158-0.045 0.311-0.208 0.339l-18.862 3.298c-0.163 0.028-0.335-0.077-0.384-0.235l-4.84-15.719c-0.049-0.158 0.044-0.31 0.207-0.338l18.861-3.297c0.163-0.028 0.336 0.077 0.384 0.235l4.842 15.717z" filter="url(#c)" opacity=".5"/><linearGradient id="d" x1="7.2104" x2="18.261" y1="11.63" y2="20.057" gradientUnits="userSpaceOnUse"><stop stop-color="#dedfe3" offset="0"/><stop stop-color="#97989c" offset=".3104"/><stop stop-color="#626365" offset=".558"/><stop stop-color="#343435" offset=".7327"/><stop offset=".8188"/></linearGradient><path d="m25.561 22.518c0.048 0.158-0.045 0.311-0.208 0.339l-18.862 3.298c-0.163 0.028-0.335-0.077-0.384-0.235l-4.84-15.719c-0.049-0.158 0.044-0.31 0.207-0.338l18.861-3.297c0.163-0.028 0.336 0.077 0.384 0.235l4.842 15.717z" fill="url(#d)"/><path d="m25.561 22.518c0.048 0.158-0.045 0.311-0.208 0.339l-18.862 3.298c-0.163 0.028-0.335-0.077-0.384-0.235l-4.84-15.719c-0.049-0.158 0.044-0.31 0.207-0.338l18.861-3.297c0.163-0.028 0.336 0.077 0.384 0.235l4.842 15.717z" fill="none" stroke="#414042" stroke-miterlimit="10" stroke-width=".1"/><linearGradient id="e" x1="6.2393" x2="30.867" y1="17.226" y2="17.226" gradientUnits="userSpaceOnUse"><stop stop-color="#f1f2f2" offset="0"/><stop stop-color="#f2e7db" offset=".0395"/><stop stop-color="#f4d3ae" offset=".1471"/><stop stop-color="#f5c188" offset=".2586"/><stop stop-color="#f5b36a" offset=".3718"/><stop stop-color="#f6a74f" offset=".4871"/><stop stop-color="#f79e39" offset=".6051"/><stop stop-color="#f79829" offset=".727"/><stop stop-color="#f79520" offset=".8552"/><stop stop-color="#f7941e" offset="1"/></linearGradient><path d="m25.951 22.025c-0.191 0.516-0.791 1.016-1.332 1.112l-17.684 3.13c-0.542 0.097-0.828-0.247-0.637-0.763l4.854-13.077c0.191-0.516 0.791-1.016 1.333-1.112l17.685-3.134c0.541-0.096 0.828 0.248 0.637 0.763l-4.856 13.081z" fill="url(#e)"/><path d="m25.951 22.025c-0.191 0.516-0.791 1.016-1.332 1.112l-17.684 3.13c-0.542 0.097-0.828-0.247-0.637-0.763l4.854-13.077c0.191-0.516 0.791-1.016 1.333-1.112l17.685-3.134c0.541-0.096 0.828 0.248 0.637 0.763l-4.856 13.081z" fill="none" stroke="#f7941e" stroke-miterlimit="10" stroke-width=".1"/></svg>
