<?xml version="1.0" encoding="UTF-8"?>
<svg version="1.1" viewBox="0 0 32 32" xmlns="http://www.w3.org/2000/svg">
 <g transform="translate(-.4361 -.1802)">
  <path d="m7.9557 1.6942c-2.4733 3.0522-4.0586 7.3933-4.0586 12.242 0 9.2281 5.6201 16.73 12.539 16.73s12.539-7.5015 12.539-16.73c0-4.5475-1.354-8.6683-3.5637-11.681-6.001 1.9433-11.808 1.5682-17.455-0.5608z"/>
  <path transform="matrix(1.0559 0 0 1.0559 -2.567 -1.5541)" d="m16.644 11.458a3.8814 2.9492 0 1 1-7.7627 0 3.8814 2.9492 0 1 1 7.7627 0z" fill="#FFF"/>
  <path transform="matrix(1.0559 0 0 1.0559 8.869 -1.5541)" d="m16.644 11.458a3.8814 2.9492 0 1 1-7.7627 0 3.8814 2.9492 0 1 1 7.7627 0z" fill="#FFF"/>
  <path d="m16.563 13.059-2.0993 5.8501c1.2282 0.78863 2.6176 1.0247 4.3666 0.02799z" color="#000000" fill="#FFF"/>
  <path d="m13.111 21.648h7.0723c1.1245 0 2.0297 0.90526 2.0297 2.0297h-11.132c0-1.1245 0.90526-2.0297 2.0297-2.0297z" fill="#FFF" stroke-linecap="round" stroke-linejoin="round"/>
  <path d="m13.111 27.422h7.0723c1.1245 0 2.0297-0.90526 2.0297-2.0297h-11.132c0 1.1245 0.90526 2.0297 2.0297 2.0297z" fill="#FFF" stroke-linecap="round" stroke-linejoin="round"/>
 </g>
</svg>
