<?xml version="1.0" encoding="UTF-8" standalone="no"?>
<!-- Created with Inkscape (http://www.inkscape.org/) -->
<svg id="svg3114" xmlns:rdf="http://www.w3.org/1999/02/22-rdf-syntax-ns#" xmlns="http://www.w3.org/2000/svg" height="32" width="32" version="1.1" xmlns:cc="http://creativecommons.org/ns#" xmlns:dc="http://purl.org/dc/elements/1.1/">
 <metadata id="metadata3116">
  <rdf:RDF>
   <cc:Work rdf:about="">
    <dc:format>image/svg+xml</dc:format>
    <dc:type rdf:resource="http://purl.org/dc/dcmitype/StillImage"/>
    <dc:title/>
   </cc:Work>
  </rdf:RDF>
 </metadata>
 <g id="g4156" transform="translate(-0.4361,-0.1802)">
  <path id="path3234-3-7" fill="#000" d="m7.9557,1.6942c-2.4733,3.0522-4.0586,7.3933-4.0586,12.242,0,9.2281,5.6201,16.73,12.539,16.73s12.539-7.5015,12.539-16.73c0-4.5475-1.354-8.6683-3.5637-11.681-6.001,1.9433-11.808,1.5682-17.455-0.5608z"/>
  <path id="path3239-5-0" d="m16.644,11.458a3.8814,2.9492,0,1,1,-7.7627,0,3.8814,2.9492,0,1,1,7.7627,0z" transform="matrix(1.0559112,0,0,1.0559112,-2.5670232,-1.5540668)" fill="#FFF"/>
  <path id="path3239-3-6-9" d="m16.644,11.458a3.8814,2.9492,0,1,1,-7.7627,0,3.8814,2.9492,0,1,1,7.7627,0z" transform="matrix(1.0559112,0,0,1.0559112,8.869032,-1.5540668)" fill="#FFF"/>
  <path id="path3261-2-3" style="color:#000000;enable-background:accumulate;" fill-rule="nonzero" fill="#FFF" d="m16.563,13.059-2.0993,5.8501c1.2282,0.78863,2.6176,1.0247,4.3666,0.02799z"/>
  <path id="rect4031-9-6" stroke-linejoin="round" d="m13.111,21.648,7.0723,0c1.1245,0,2.0297,0.90526,2.0297,2.0297h-11.132c0-1.1245,0.90526-2.0297,2.0297-2.0297z" stroke-linecap="round" fill="#FFF"/>
  <path id="rect4031-9-2-0" stroke-linejoin="round" d="m13.111,27.422,7.0723,0c1.1245,0,2.0297-0.90526,2.0297-2.0297h-11.132c0,1.1245,0.90526,2.0297,2.0297,2.0297z" stroke-linecap="round" fill="#FFF"/>
 </g>
</svg>
