<?xml version="1.0" encoding="UTF-8"?>
<svg version="1.1" viewBox="0 0 32 32" xml:space="preserve" xmlns="http://www.w3.org/2000/svg" xmlns:cc="http://creativecommons.org/ns#" xmlns:dc="http://purl.org/dc/elements/1.1/" xmlns:rdf="http://www.w3.org/1999/02/22-rdf-syntax-ns#"><metadata><rdf:RDF><cc:Work rdf:about=""><dc:format>image/svg+xml</dc:format><dc:type rdf:resource="http://purl.org/dc/dcmitype/StillImage"/><dc:title/></cc:Work></rdf:RDF></metadata><g><path d="m10.926 16.375c0.5078 0.17188 0.99999 0.53907 1.4766 1.1016 0.48436 0.56251 0.96874 1.3359 1.4531 2.3203l2.4023 4.7812h-2.543l-2.2383-4.4883c-0.57814-1.1719-1.1406-1.9492-1.6875-2.332-0.53907-0.3828-1.2774-0.57421-2.2148-0.57422h-2.5781v7.3945h-2.3672v-17.496h5.3437c2 1.75e-5 3.4922 0.41799 4.4766 1.2539 0.98436 0.83595 1.4765 2.0977 1.4766 3.7852-1.3e-5 1.1016-0.25783 2.0156-0.77344 2.7422-0.50782 0.72657-1.25 1.2305-2.2266 1.5117m-5.9297-7.3477v6.2109h2.9766c1.1406 1e-5 2-0.26171 2.5781-0.78516 0.58593-0.53124 0.8789-1.3086 0.87891-2.332-1.2e-5 -1.0234-0.29298-1.793-0.87891-2.3086-0.57813-0.52342-1.4375-0.78514-2.5781-0.78516h-2.9766"/><path d="m29.371 17.477v1.0547h-9.9141c0.09375 1.4844 0.53906 2.6172 1.3359 3.3984 0.80468 0.77344 1.9219 1.1602 3.3516 1.1602 0.82812 1e-6 1.6289-0.10156 2.4023-0.30469 0.78124-0.20312 1.5547-0.50781 2.3203-0.91406v2.0391c-0.77345 0.32813-1.5664 0.57812-2.3789 0.75-0.81251 0.17188-1.6367 0.25781-2.4727 0.25781-2.0938-1e-6 -3.7539-0.60938-4.9805-1.8281-1.2188-1.2187-1.8281-2.8672-1.8281-4.9453-1e-6 -2.1484 0.57812-3.8516 1.7344-5.1094 1.1641-1.2656 2.7305-1.8984 4.6992-1.8984 1.7656 1.3e-5 3.1601 0.57032 4.1836 1.7109 1.0312 1.1328 1.5469 2.6758 1.5469 4.6289m-2.1562-0.63281c-0.01564-1.1797-0.34767-2.1211-0.99609-2.8242-0.64064-0.70311-1.4922-1.0547-2.5547-1.0547-1.2031 1.1e-5 -2.168 0.33986-2.8945 1.0195-0.71875 0.6797-1.1328 1.6367-1.2422 2.8711l7.6875-0.01172"/></g><text x="0.49070829" y="48.29847" fill="#f7941e" font-family="Accanthis ADF Std" font-size="40px" letter-spacing="0px" word-spacing="0px" style="line-height:125%" xml:space="preserve"><tspan x="0.49070829" y="48.29847" fill="#f7941e" font-family="Sans" font-size="24px"/></text>
</svg>
