<?xml version="1.0" encoding="UTF-8"?>
<svg version="1.1" viewBox="0 0 32 32" xml:space="preserve" xmlns="http://www.w3.org/2000/svg" xmlns:cc="http://creativecommons.org/ns#" xmlns:dc="http://purl.org/dc/elements/1.1/" xmlns:rdf="http://www.w3.org/1999/02/22-rdf-syntax-ns#"><metadata><rdf:RDF><cc:Work rdf:about=""><dc:format>image/svg+xml</dc:format><dc:type rdf:resource="http://purl.org/dc/dcmitype/StillImage"/><dc:title/></cc:Work></rdf:RDF></metadata><g><path d="m2.9688 7.252h2.3672v17.496h-2.3672v-17.496"/><path d="m20.172 14.143c0.53905-0.96874 1.1836-1.6836 1.9336-2.1445 0.74998-0.46092 1.6328-0.69139 2.6484-0.69141 1.3672 1.3e-5 2.4219 0.48048 3.1641 1.4414 0.74217 0.95314 1.1133 2.3125 1.1133 4.0781v7.9219h-2.168v-7.8516c-1.9e-5 -1.2578-0.22268-2.1914-0.66797-2.8008-0.44533-0.60936-1.125-0.91405-2.0391-0.91406-1.1172 1.1e-5 -2 0.3711-2.6484 1.1133-0.64845 0.7422-0.97267 1.7539-0.97266 3.0352v7.418h-2.168v-7.8516c-1e-5 -1.2656-0.22267-2.1992-0.66797-2.8008-0.44532-0.60936-1.1328-0.91405-2.0625-0.91406-1.1016 1.1e-5 -1.9766 0.37501-2.625 1.125-0.64844 0.7422-0.97266 1.75-0.97266 3.0234v7.418h-2.168v-13.125h2.168v2.0391c0.49218-0.80468 1.082-1.3984 1.7695-1.7812 0.68749-0.3828 1.5039-0.5742 2.4492-0.57422 0.95312 1.3e-5 1.7617 0.2422 2.4258 0.72656 0.67186 0.48439 1.168 1.1875 1.4883 2.1094"/></g><text x="0.49070829" y="48.29847" fill="#f7941e" font-family="Accanthis ADF Std" font-size="40px" letter-spacing="0px" word-spacing="0px" style="line-height:125%" xml:space="preserve"><tspan x="0.49070829" y="48.29847" fill="#f7941e" font-family="Sans" font-size="24px"/></text>
</svg>
