<?xml version="1.0" encoding="UTF-8" standalone="no"?>
<!-- Created with Inkscape (http://www.inkscape.org/) -->

<svg
   xmlns:dc="http://purl.org/dc/elements/1.1/"
   xmlns:cc="http://creativecommons.org/ns#"
   xmlns:rdf="http://www.w3.org/1999/02/22-rdf-syntax-ns#"
   xmlns:svg="http://www.w3.org/2000/svg"
   xmlns="http://www.w3.org/2000/svg"
   xmlns:inkscape="http://www.inkscape.org/namespaces/inkscape"
   version="1.1"
   width="100%"
   height="100%"
   viewBox="0 0 32 32"
   id="svg2"
   xml:space="preserve"><metadata
     id="metadata12"><rdf:RDF><cc:Work
         rdf:about=""><dc:format>image/svg+xml</dc:format><dc:type
           rdf:resource="http://purl.org/dc/dcmitype/StillImage" /></cc:Work></rdf:RDF></metadata><defs
     id="defs10" /><path
     d="m 4.418,32.184 c 0.2,-1.021 0.117,-1.992 0.491,-2.975 0.402,-1.06 0.737,-2.134 1.026,-3.229 -0.278,0.073 -0.557,0.147 -0.835,0.22 0.596,0.553 1.127,1.153 1.709,1.721 0.282,0.274 0.714,0.132 0.835,-0.221 0.512,-1.481 0.99,-2.95 1.544,-4.419 -0.304,0.04 -0.609,0.08 -0.914,0.119 0.563,0.816 0.943,1.702 1.556,2.484 0.304,0.388 0.811,0.018 0.854,-0.354 0.467,-4.027 2.292,-7.606 2.975,-11.567 h -0.964 c 0.947,2.809 2.17,5.516 3.31,8.252 0.162,0.391 0.884,0.555 0.964,0 0.525,-3.624 1.333,-7.173 1.74,-10.826 0.334,-2.994 0.411,-6.013 0.8,-9.002 -0.311,0.084 -0.621,0.168 -0.932,0.252 0.628,1.238 0.684,2.911 0.908,4.259 0.312,1.862 0.695,3.725 1.131,5.56 0.126,0.528 0.795,0.422 0.965,0 1.127,-2.805 1.088,-5.958 1.494,-8.904 h -0.964 c 1.152,6.973 0.797,14.117 1.969,21.087 0.083,0.489 0.866,0.469 0.965,0 0.64,-3.043 1.899,-6.224 1.979,-9.339 -0.327,0.044 -0.654,0.088 -0.982,0.133 0.449,3.083 0.943,6.189 1.532,9.249 0.304,1.582 0.607,3.018 0.567,4.64 -0.024,0.99 0.01,1.907 0.276,2.858 0.174,0.62 1.139,0.356 0.965,-0.266 -0.379,-1.349 -0.22,-2.722 -0.225,-4.102 -0.004,-1.153 -0.379,-2.28 -0.62,-3.396 -0.655,-3.034 -1.084,-6.178 -1.531,-9.249 -0.084,-0.577 -0.969,-0.409 -0.982,0.133 -0.077,3.006 -1.326,6.135 -1.944,9.074 h 0.965 c -1.173,-6.969 -0.816,-14.114 -1.97,-21.087 -0.078,-0.474 -0.897,-0.485 -0.964,0 -0.405,2.938 -0.374,6.116 -1.495,8.904 h 0.965 C 21.098,10.16 20.695,8.099 20.351,6.038 20.138,4.76 20.036,3.307 19.441,2.135 19.19,1.64 18.567,1.947 18.509,2.387 c -0.361,2.781 -0.481,5.589 -0.737,8.38 -0.346,3.774 -1.225,7.443 -1.766,11.182 h 0.964 c -1.131,-2.719 -2.371,-5.469 -3.31,-8.252 -0.144,-0.428 -0.874,-0.524 -0.964,0 -0.698,4.047 -2.533,7.719 -3.011,11.833 0.285,-0.118 0.569,-0.235 0.854,-0.354 C 9.986,24.47 9.647,23.63 9.139,22.895 8.883,22.523 8.381,22.6 8.225,23.014 7.669,24.486 7.194,25.948 6.681,27.433 6.959,27.36 7.238,27.286 7.516,27.212 6.934,26.645 6.403,26.044 5.807,25.491 5.536,25.24 5.071,25.337 4.972,25.712 c -0.29,1.098 -0.639,2.162 -1.027,3.229 -0.403,1.107 -0.268,1.837 -0.49,2.976 -0.124,0.631 0.839,0.899 0.963,0.267 z"
     inkscape:connector-curvature="0"
     id="path4" /><path
     d="m 4.684,31.103 c 2.359,-0.676 3.119,-2.497 3.404,-4.851 0.184,-1.516 -0.359,-5.724 1.418,-6.241 1.085,-0.316 2.144,-0.343 3.2,-0.805 2.411,-1.056 3.432,-4.736 4.18,-6.97 0.803,-2.399 1.699,-4.674 2.307,-7.13 C 19.31,4.633 19.447,4.167 19.591,3.701 19.683,3.396 19.806,3.104 19.96,2.825 19.446,2.46 19.317,2.491 19.574,2.918 c 0.383,1.057 0.544,2.221 0.758,3.32 0.531,2.725 1.413,5.188 2.235,7.844 1.28,4.137 2.059,8.395 3.272,12.548 0.6,2.052 0.949,5.032 3.668,4.78 1.146,-0.106 1.156,-1.907 0,-1.801 C 27.376,29.807 25.951,19.581 25.518,17.927 24.663,14.668 23.287,11.498 22.552,8.226 22.369,7.411 21.064,-1.957 18.573,1.67 c -1.098,1.599 -1.262,3.777 -1.785,5.604 -0.834,2.914 -1.991,6.316 -3.551,8.903 -1.502,2.491 -4.539,1.265 -6.162,3.438 -1.916,2.564 1.174,8.592 -2.873,9.75 -1.111,0.321 -0.637,2.057 0.482,1.738 z"
     inkscape:connector-curvature="0"
     id="path6"
     style="fill:#ed1c24" /></svg>