<?xml version="1.0" encoding="UTF-8"?>
<!DOCTYPE svg  PUBLIC '-//W3C//DTD SVG 1.1//EN'  'http://www.w3.org/Graphics/SVG/1.1/DTD/svg11.dtd'>
<svg enable-background="new 0 0 32 32" version="1.1" viewBox="0 0 32 32" xml:space="preserve" xmlns="http://www.w3.org/2000/svg">
	<path d="m9.085 25.873" fill="none" stroke="#00A14B" stroke-miterlimit="10" stroke-width="1.5"/>
	<path d="m6.655 25.043v-10.306h-1.189v-2.4h1.188v-0.548c0-1.644 0.306-3.288 1.063-4.332 0.648-0.887 1.53-1.226 2.287-1.226 0.594 0 1.062 0.13 1.422 0.313l-0.162 2.479c-0.234-0.13-0.54-0.235-0.937-0.235-1.098 0-1.476 1.331-1.476 2.896v0.652h1.926v2.4h-1.907v10.306h-2.215z"/>
	<path d="m15.385 7.17c-0.486 2.375-1.261 5.062-1.945 6.68l-1.35 0.183c0.468-1.905 0.937-4.514 1.153-6.627l2.142-0.236z"/>
	<path d="m18.32 12.025c-0.627 1.467-1.111 3.604-1.111 6.457 0 2.807 0.496 4.928 1.111 6.41h-1.166c-0.594-1.227-1.254-3.348-1.254-6.426 0.011-3.093 0.66-5.198 1.254-6.441h1.166z"/>
	<path d="m20.686 15.246 0.527 1.292c0.154 0.399 0.297 0.797 0.439 1.164h0.023c0.143-0.414 0.275-0.813 0.418-1.195l0.473-1.26h1.814l-1.77 3.715 1.793 4.082h-1.893l-0.539-1.402c-0.154-0.383-0.287-0.781-0.418-1.18h-0.033c-0.133 0.414-0.275 0.797-0.408 1.18l-0.506 1.402h-1.836l1.826-3.97-1.783-3.827h1.873z"/>
	<path d="m24.875 24.893c0.605-1.467 1.111-3.619 1.111-6.441s-0.494-4.943-1.111-6.426h1.166c0.584 1.228 1.256 3.316 1.256 6.426-0.012 3.109-0.672 5.198-1.256 6.441h-1.166z"/>
</svg>
