<?xml version="1.0" encoding="UTF-8"?>
<svg version="1.1" viewBox="0 0 32 32" xml:space="preserve" xmlns="http://www.w3.org/2000/svg"><text x="0.49070829" y="48.29847" fill="#f7941e" font-family="Accanthis ADF Std" font-size="40px" letter-spacing="0px" word-spacing="0px" line-height="125%" xml:space="preserve"><tspan x="0.49070829" y="48.29847" fill="#f7941e" font-family="Sans" font-size="24px"/></text>
<g font-family="Sans" font-size="40px" line-height="125%"><path d="m4.7007 21.436c1.272 0.024 1.272 0.024 1.416 0.024 1.248 0 3.408-0.048 4.128-0.096l1.776-0.912c-0.888-0.024-1.104-0.024-3.168-0.072 2.712-2.712 2.856-2.928 3.624-5.976 0.024-0.024 0.048-0.024 0.048-0.024 0.264-0.024 0.408 0.192 0.552 0.792 0.912 4.008 1.704 6.288 2.688 7.752 1.032 1.536 2.448 2.28 4.344 2.28 1.344 0 2.16-0.288 3.504-1.272l-1.176-1.464c-0.768 1.416-1.44 1.968-2.376 1.968-1.128 0-2.208-1.2-3.192-3.576-0.624-1.488-1.368-3.72-2.352-6.84 1.368-0.432 1.92-0.696 2.664-1.176 1.128-0.768 1.776-1.872 1.776-3.024 0-1.488-1.2-2.304-3.384-2.304-0.288 0-0.888 0.024-1.392 0.048l0.192-0.768-2.184 1.032c-3.9363 0.672-6.0243 2.496-6.0243 5.304 0 0.624 0.072 1.032 0.336 1.92l2.016-1.032c-0.192-0.816-0.264-1.224-0.264-1.776 0-1.152 0.36-2.064 1.104-2.76 0.672-0.6 1.344-0.864 2.88-1.056l-0.216 0.864c-0.096 0.384-0.24 0.936-0.408 1.68l-1.2 4.752c-1.008 4.056-1.656 4.68-4.776 4.656l-0.936 1.056m9.312-13.2h0.744c1.488 0 2.112 0.552 2.112 1.872 0 1.2-0.648 2.352-1.656 2.976-0.72 0.432-1.296 0.6-2.592 0.768l1.392-5.616"/><path d="m27.299 18.172c-1.8 1.56-2.952 2.232-3.864 2.232-0.6 0-1.104-0.408-1.272-1.032-0.096-0.384-0.12-0.648-0.12-1.344 1.08-0.672 1.8-1.176 3.216-2.232 1.296-0.984 1.8-1.776 1.8-2.856 0-0.84-0.528-1.344-1.368-1.344-0.528 0-0.912 0.12-1.464 0.432-0.912 0.528-1.728 1.176-2.232 1.752-0.912 1.104-1.728 3.744-1.728 5.688 0 1.416 0.744 2.304 1.968 2.304 1.416 0 3.168-1.008 5.064-2.904v-0.696m-5.184-1.008c0.408-2.568 1.512-4.56 2.544-4.56 0.408 0 0.672 0.408 0.672 0.984 0 1.2-0.648 1.92-3.216 3.576"/></g></svg>
