<?xml version="1.0" encoding="UTF-8" standalone="no"?>
<!-- Created with Inkscape (http://www.inkscape.org/) -->

<svg
   xmlns:dc="http://purl.org/dc/elements/1.1/"
   xmlns:cc="http://creativecommons.org/ns#"
   xmlns:rdf="http://www.w3.org/1999/02/22-rdf-syntax-ns#"
   xmlns:svg="http://www.w3.org/2000/svg"
   xmlns="http://www.w3.org/2000/svg"
   xmlns:inkscape="http://www.inkscape.org/namespaces/inkscape"
   version="1.1"
   width="100%"
   height="100%"
   viewBox="0 0 32 32"
   id="svg2"
   xml:space="preserve"><metadata
     id="metadata16"><rdf:RDF><cc:Work
         rdf:about=""><dc:format>image/svg+xml</dc:format><dc:type
           rdf:resource="http://purl.org/dc/dcmitype/StillImage" /></cc:Work></rdf:RDF></metadata><defs
     id="defs14" /><line
     x1="4.9790001"
     x2="31.028"
     y1="17.829"
     y2="17.829"
     fill="none"
     stroke="#000"
     stroke-miterlimit="10"
     id="line4"
     style="fill:none;stroke:#000000;stroke-miterlimit:10" /><path
     d="M 2.491,11.448"
     inkscape:connector-curvature="0"
     id="path6"
     style="fill:none;stroke:#00a651;stroke-miterlimit:10" /><path
     d="m 4.703,18.357 c 0,0 -0.047,-1.082 1.587,-4.552 1.634,-3.469 3.268,-3.283 3.268,-3.283 0,0 1.541,-0.374 2.661,3.035 1.12,3.409 2.334,2.007 3.642,0 1.308,-2.007 2.334,-1.96 2.334,-1.96 0,0 1.027,-0.654 3.035,2.567 2.008,3.22 5.369,-2.591 6.068,-3.653"
     inkscape:connector-curvature="0"
     id="path8"
     style="fill:none;stroke:#00a651;stroke-width:1.5;stroke-miterlimit:10" /><path
     d="m 8.361,23.684 c 0,2.371 -0.934,3.42 -2.088,3.42 -1.56,0 -2.087,-1.659 -2.087,-3.359 0,-1.902 0.659,-3.419 2.142,-3.419 1.649,-0.001 2.033,1.779 2.033,3.358 z m -2.724,0.031 c -0.022,1.547 0.187,2.248 0.67,2.248 0.45,0 0.604,-0.732 0.604,-2.248 0,-1.416 -0.143,-2.25 -0.604,-2.25 -0.451,0 -0.682,0.713 -0.67,2.25 z"
     inkscape:connector-curvature="0"
     id="path10" /></svg>