<?xml version="1.0" encoding="UTF-8" standalone="no"?>
<!-- Created with Inkscape (http://www.inkscape.org/) -->

<svg
   xmlns:dc="http://purl.org/dc/elements/1.1/"
   xmlns:cc="http://creativecommons.org/ns#"
   xmlns:rdf="http://www.w3.org/1999/02/22-rdf-syntax-ns#"
   xmlns:svg="http://www.w3.org/2000/svg"
   xmlns="http://www.w3.org/2000/svg"
   xmlns:inkscape="http://www.inkscape.org/namespaces/inkscape"
   version="1.1"
   width="100%"
   height="100%"
   viewBox="0 0 32 32"
   id="svg2"
   xml:space="preserve"><metadata
     id="metadata26"><rdf:RDF><cc:Work
         rdf:about=""><dc:format>image/svg+xml</dc:format><dc:type
           rdf:resource="http://purl.org/dc/dcmitype/StillImage" /></cc:Work></rdf:RDF></metadata><defs
     id="defs24" /><path
     d="m 10.411,24.871 0.289,0.776 c 0.097,0.26 0.174,0.519 0.231,0.732 h 0.02 c 0.067,-0.224 0.145,-0.491 0.222,-0.732 l 0.28,-0.776 h 1.273 l -1.07,2.143 1.089,2.223 H 11.366 L 11.048,28.416 C 10.962,28.193 10.884,27.97 10.817,27.747 h -0.019 c -0.058,0.223 -0.145,0.446 -0.212,0.669 l -0.289,0.821 H 9.032 l 1.051,-2.169 -1.042,-2.196 h 1.37 z"
     inkscape:connector-curvature="0"
     id="path4" /><path
     d="m 18.296,20.802 c -0.559,0.812 -1.021,1.973 -1.021,3.642 0,1.616 0.463,2.768 1.021,3.606 H 17.39 C 16.85,27.38 16.281,26.157 16.281,24.435 16.32,22.694 16.85,21.48 17.39,20.802 h 0.906 z"
     inkscape:connector-curvature="0"
     id="path6" /><path
     d="m 21.649,25.116 v 1.199 h -2.738 v -1.199 h 2.738 z"
     inkscape:connector-curvature="0"
     id="path8" /><path
     d="M 24.091,22.728 H 24.07 l -1.212,0.582 -0.242,-1.052 1.642,-0.786 h 1.267 v 6.636 h -1.433 v -5.38 z"
     inkscape:connector-curvature="0"
     id="path10" /><path
     d="m 27.021,28.05 c 0.56,-0.821 1.022,-2.018 1.022,-3.642 0,-1.625 -0.463,-2.785 -1.022,-3.606 h 0.906 c 0.54,0.651 1.109,1.839 1.109,3.606 -0.039,1.767 -0.569,2.945 -1.109,3.642 h -0.906 z"
     inkscape:connector-curvature="0"
     id="path12" /><line
     x1="1.224"
     x2="27.546"
     y1="12.123"
     y2="12.123"
     fill="none"
     stroke="#000"
     stroke-miterlimit="10"
     stroke-width=".8"
     id="line14"
     style="fill:none;stroke:#000000;stroke-width:0.80000001;stroke-miterlimit:10" /><path
     d="M 2.491,11.448"
     inkscape:connector-curvature="0"
     id="path16"
     style="fill:none;stroke:#00a651;stroke-miterlimit:10" /><path
     d="m 26.441,10.765 c 0,0 -2.07,0.308 -3.128,0 -1.057,-0.309 -2.687,-2.774 -2.995,-3.436 -0.308,-0.662 -1.938,-3.083 -3.876,0 -1.938,3.083 -4.405,-2.828 -4.405,-2.828 0,0 -2.51,-6.07 -4.314,0.229 -1.806,6.299 -4.935,6.21 -4.935,6.21"
     inkscape:connector-curvature="0"
     id="path18"
     style="fill:none;stroke:#00a651;stroke-width:1.10000002;stroke-miterlimit:10" /><path
     d="m 26.441,13.33 c 0,0 -2.07,-0.309 -3.127,0 -1.057,0.308 -2.688,2.774 -2.995,3.435 -0.308,0.662 -1.938,3.083 -3.876,0 -1.938,-3.083 -4.406,2.828 -4.406,2.828 0,0 -2.51,6.07 -4.314,-0.229 -1.807,-6.299 -4.936,-6.21 -4.936,-6.21"
     inkscape:connector-curvature="0"
     id="path20"
     style="fill:none;stroke:#ed1c24;stroke-width:1.10000002;stroke-miterlimit:10" /></svg>