<?xml version="1.0" encoding="utf-8"?>
<!-- Generator: Adobe Illustrator 16.0.0, SVG Export Plug-In . SVG Version: 6.00 Build 0)  -->
<!DOCTYPE svg PUBLIC "-//W3C//DTD SVG 1.1//EN" "http://www.w3.org/Graphics/SVG/1.1/DTD/svg11.dtd" [
	<!ENTITY ns_flows "http://ns.adobe.com/Flows/1.0/">
	<!ENTITY ns_extend "http://ns.adobe.com/Extensibility/1.0/">
	<!ENTITY ns_ai "http://ns.adobe.com/AdobeIllustrator/10.0/">
	<!ENTITY ns_graphs "http://ns.adobe.com/Graphs/1.0/">
]>
<svg version="1.1" id="Layer_1" xmlns:x="&ns_extend;" xmlns:i="&ns_ai;" xmlns:graph="&ns_graphs;"
	 xmlns="http://www.w3.org/2000/svg" xmlns:xlink="http://www.w3.org/1999/xlink" xmlns:a="http://ns.adobe.com/AdobeSVGViewerExtensions/3.0/"
	 x="0px" y="0px" width="32px" height="32px" viewBox="0 0 32 32" enable-background="new 0 0 32 32" xml:space="preserve">
<g>
	<path d="M10.411,24.871l0.289,0.776c0.097,0.26,0.174,0.519,0.231,0.732h0.02c0.067-0.224,0.145-0.491,0.222-0.732l0.28-0.776
		h1.273l-1.07,2.143l1.089,2.223h-1.379l-0.318-0.821c-0.086-0.223-0.164-0.446-0.231-0.669h-0.019
		c-0.058,0.223-0.145,0.446-0.212,0.669l-0.289,0.821H9.032l1.051-2.169l-1.042-2.196H10.411z"/>
	<path d="M18.296,20.802c-0.559,0.812-1.021,1.973-1.021,3.642c0,1.616,0.463,2.768,1.021,3.606H17.39
		c-0.54-0.67-1.109-1.893-1.109-3.615c0.039-1.741,0.569-2.955,1.109-3.633H18.296z"/>
	<path d="M21.649,25.116v1.199h-2.738v-1.199H21.649z"/>
	<path d="M24.091,22.728h-0.021l-1.212,0.582l-0.242-1.052l1.642-0.786h1.267v6.636h-1.433V22.728z"/>
	<path d="M27.021,28.05c0.56-0.821,1.022-2.018,1.022-3.642c0-1.625-0.463-2.785-1.022-3.606h0.906
		c0.54,0.651,1.109,1.839,1.109,3.606c-0.039,1.767-0.569,2.945-1.109,3.642H27.021z"/>
</g>
<line fill="none" stroke="#000000" stroke-width="0.8" stroke-miterlimit="10" x1="1.224" y1="12.123" x2="27.546" y2="12.123"/>
<path fill="none" stroke="#00A651" stroke-miterlimit="10" d="M2.491,11.448"/>
<path fill="none" stroke="#00A651" stroke-width="1.1" stroke-miterlimit="10" d="M26.441,10.765c0,0-2.07,0.308-3.128,0
	c-1.057-0.309-2.687-2.774-2.995-3.436s-1.938-3.083-3.876,0c-1.938,3.083-4.405-2.828-4.405-2.828s-2.51-6.07-4.314,0.229
	c-1.806,6.299-4.935,6.21-4.935,6.21"/>
<path fill="none" stroke="#ED1C24" stroke-width="1.1" stroke-miterlimit="10" d="M26.441,13.33c0,0-2.07-0.309-3.127,0
	c-1.057,0.308-2.688,2.774-2.995,3.435c-0.308,0.662-1.938,3.083-3.876,0c-1.938-3.083-4.406,2.828-4.406,2.828
	s-2.51,6.07-4.314-0.229c-1.807-6.299-4.936-6.21-4.936-6.21"/>
</svg>
