<?xml version="1.0" encoding="UTF-8"?>
<svg version="1.1" viewBox="0 0 32 32" xml:space="preserve" xmlns="http://www.w3.org/2000/svg"><line x1="4.979" x2="31.028" y1="17.829" y2="17.829" fill="none" stroke="#000" stroke-miterlimit="10"/><path d="m2.491 11.448" fill="none" stroke="#00a651" stroke-miterlimit="10"/><path d="m4.703 18.357s-0.047-1.082 1.587-4.552c1.634-3.469 3.268-3.283 3.268-3.283s1.541-0.374 2.661 3.035 2.334 2.007 3.642 0 2.334-1.96 2.334-1.96 1.027-0.654 3.035 2.567c2.008 3.22 5.369-2.591 6.068-3.653" fill="none" stroke="#00a651" stroke-miterlimit="10" stroke-width="1.5"/><path d="m8.361 23.684c0 2.371-0.934 3.42-2.088 3.42-1.56 0-2.087-1.659-2.087-3.359 0-1.902 0.659-3.419 2.142-3.419 1.649-1e-3 2.033 1.779 2.033 3.358zm-2.724 0.031c-0.022 1.547 0.187 2.248 0.67 2.248 0.45 0 0.604-0.732 0.604-2.248 0-1.416-0.143-2.25-0.604-2.25-0.451 0-0.682 0.713-0.67 2.25z"/></svg>
