<?xml version="1.0" encoding="utf-8"?>
<!-- Generator: Adobe Illustrator 16.0.0, SVG Export Plug-In . SVG Version: 6.00 Build 0)  -->
<!DOCTYPE svg PUBLIC "-//W3C//DTD SVG 1.1//EN" "http://www.w3.org/Graphics/SVG/1.1/DTD/svg11.dtd" [
	<!ENTITY ns_flows "http://ns.adobe.com/Flows/1.0/">
	<!ENTITY ns_extend "http://ns.adobe.com/Extensibility/1.0/">
	<!ENTITY ns_ai "http://ns.adobe.com/AdobeIllustrator/10.0/">
	<!ENTITY ns_graphs "http://ns.adobe.com/Graphs/1.0/">
]>
<svg version="1.1" id="Layer_1" xmlns:x="&ns_extend;" xmlns:i="&ns_ai;" xmlns:graph="&ns_graphs;"
	 xmlns="http://www.w3.org/2000/svg" xmlns:xlink="http://www.w3.org/1999/xlink" xmlns:a="http://ns.adobe.com/AdobeSVGViewerExtensions/3.0/"
	 x="0px" y="0px" width="32px" height="32px" viewBox="0 0 32 32" enable-background="new 0 0 32 32" xml:space="preserve">
<line fill="none" stroke="#000000" stroke-miterlimit="10" x1="4.979" y1="17.829" x2="31.028" y2="17.829"/>
<path fill="none" stroke="#00A651" stroke-miterlimit="10" d="M2.491,11.448"/>
<path fill="none" stroke="#00A651" stroke-width="1.5" stroke-miterlimit="10" d="M4.703,18.357c0,0-0.047-1.082,1.587-4.552
	c1.634-3.469,3.268-3.283,3.268-3.283s1.541-0.374,2.661,3.035s2.334,2.007,3.642,0s2.334-1.96,2.334-1.96s1.027-0.654,3.035,2.567
	c2.008,3.22,5.369-2.591,6.068-3.653"/>
<g>
	<path d="M8.361,23.684c0,2.371-0.934,3.42-2.088,3.42c-1.56,0-2.087-1.659-2.087-3.359c0-1.902,0.659-3.419,2.142-3.419
		C7.977,20.325,8.361,22.105,8.361,23.684z M5.637,23.715c-0.022,1.547,0.187,2.248,0.67,2.248c0.45,0,0.604-0.732,0.604-2.248
		c0-1.416-0.143-2.25-0.604-2.25C5.856,21.465,5.625,22.178,5.637,23.715z"/>
</g>
</svg>
