<?xml version="1.0" encoding="UTF-8"?>
<svg version="1.1" viewBox="0 0 32 32" xml:space="preserve" xmlns="http://www.w3.org/2000/svg"><line x1="8.137" x2="25.668" y1="16.749" y2="16.749" fill="#f7941e" stroke="#f7941e" stroke-miterlimit="10" stroke-width="2"/><path d="m12.09 29.497v-9.657h2.565l3.188 4.141c0.825 1.075 1.54 2.192 2.107 3.238h0.037c-0.146-1.289-0.202-2.536-0.202-4.012v-3.367h2.09v9.657h-2.328l-3.225-4.241c-0.788-1.061-1.612-2.249-2.217-3.338l-0.055 0.014c0.091 1.247 0.11 2.522 0.11 4.112v3.453h-2.07z"/><path d="m16.552 7.344c-0.432 0.783-0.762 1.87-0.762 3.354 0 1.458 0.337 2.538 0.762 3.329h-0.607c-0.385-0.659-0.816-1.73-0.816-3.329 7e-3 -1.607 0.432-2.687 0.816-3.354h0.607z"/><path d="m19.319 7.916 0.587 1.137c0.162 0.321 0.304 0.618 0.445 0.927h0.03c0.142-0.333 0.283-0.643 0.425-0.952l0.546-1.112h1.356l-1.649 2.892 1.68 3.127h-1.406l-0.607-1.199c-0.162-0.321-0.304-0.643-0.445-0.977h-0.02c-0.142 0.346-0.283 0.643-0.445 0.977l-0.566 1.199h-1.376l1.71-3.065-1.649-2.954h1.384z"/><path d="m24.166 14.026c0.425-0.783 0.756-1.878 0.756-3.345s-0.331-2.546-0.756-3.337h0.601c0.392 0.659 0.823 1.73 0.823 3.345-7e-3 1.607-0.432 2.669-0.823 3.337h-0.601z"/><polygon points="9.052 4.063 9.052 12.68 8.367 12.68 8.367 14.091 11.862 14.091 11.862 12.68 11.18 12.68 11.18 4.063 11.862 4.063 11.862 2.651 8.367 2.651 8.367 4.063"/></svg>
