<?xml version="1.0" encoding="UTF-8"?>
<svg version="1.1" viewBox="0 0 32 32" xml:space="preserve" xmlns="http://www.w3.org/2000/svg"><text x="0.49070829" y="48.29847" fill="#f7941e" font-family="Accanthis ADF Std" font-size="40px" letter-spacing="0px" word-spacing="0px" line-height="125%" xml:space="preserve"><tspan x="0.49070829" y="48.29847" fill="#f7941e" font-family="Sans" font-size="24px"/></text>
<g font-family="Sans" font-size="40px" line-height="125%"><path d="m4.0857 22.756c1.56-0.024 1.56-0.024 1.896-0.024l3.744 0.024 0.864-0.6-2.232-0.168c0.4557-2.112 1.968-8.112 3.096-12.24l1.392-0.144 0.84-0.6h-0.816c-2.448 0.024-2.448 0.024-2.856 0.024-0.384 0-0.48 0-1.848-0.024l-0.84 0.6 2.16 0.144c-0.192 0.888-0.336 1.488-0.36 1.608l-0.504 1.968c-1.512 5.928-1.776 6.984-1.896 7.392-0.048 0.144-0.192 0.696-0.36 1.272l-1.416 0.168-0.864 0.6"/><path d="m15.194 22.348 1.536-5.832c1.608-1.08 2.592-1.656 2.904-1.656 0.192 0 0.312 0.216 0.312 0.528 0 0.72-0.912 4.368-1.92 7.608l1.824-0.648 1.488-6c1.392-0.888 2.688-1.608 2.976-1.608 0.192 0 0.312 0.168 0.312 0.456 0 0.528-0.216 1.512-0.864 4.08-0.384 1.488-0.504 2.088-0.504 2.64 0 0.504 0.144 0.768 0.576 1.08 1.416-0.696 2.616-1.464 4.08-2.616v-0.552c-0.24 0.12-0.504 0.288-0.816 0.504-0.864 0.552-1.272 0.744-1.56 0.744-0.264 0-0.432-0.24-0.432-0.648 0-0.528 0.312-1.896 0.792-3.576 0.72-2.472 0.912-3.24 0.912-3.6 0-0.24-0.144-0.36-0.384-0.36-0.432 0-1.92 0.768-4.848 2.496 0.072-0.264 0.096-0.456 0.12-0.552 0.288-1.2 0.36-1.536 0.36-1.68 0-0.168-0.12-0.264-0.312-0.264-0.36 0-1.608 0.672-4.008 2.208l-0.768 0.48c0.432-1.752 0.528-2.184 0.528-2.352 0-0.192-0.144-0.336-0.36-0.336-0.288 0-2.184 1.032-3.744 2.016l-0.168 0.672c1.32-0.648 1.512-0.72 1.776-0.72 0.216 0 0.36 0.192 0.36 0.456 0 0.384-0.864 3.936-1.872 7.68l1.704-0.648"/></g></svg>
