<?xml version="1.0" encoding="UTF-8"?>
<svg version="1.1" viewBox="0 0 32 32" xml:space="preserve" xmlns="http://www.w3.org/2000/svg"><path d="m10.411 24.871 0.289 0.776c0.097 0.26 0.174 0.519 0.231 0.732h0.02c0.067-0.224 0.145-0.491 0.222-0.732l0.28-0.776h1.273l-1.07 2.143 1.089 2.223h-1.379l-0.318-0.821c-0.086-0.223-0.164-0.446-0.231-0.669h-0.019c-0.058 0.223-0.145 0.446-0.212 0.669l-0.289 0.821h-1.265l1.051-2.169-1.042-2.196h1.37z"/><path d="m18.296 20.802c-0.559 0.812-1.021 1.973-1.021 3.642 0 1.616 0.463 2.768 1.021 3.606h-0.906c-0.54-0.67-1.109-1.893-1.109-3.615 0.039-1.741 0.569-2.955 1.109-3.633h0.906z"/><path d="m21.649 25.116v1.199h-2.738v-1.199h2.738z"/><path d="m24.091 22.728h-0.021l-1.212 0.582-0.242-1.052 1.642-0.786h1.267v6.636h-1.433v-5.38z"/><path d="m27.021 28.05c0.56-0.821 1.022-2.018 1.022-3.642 0-1.625-0.463-2.785-1.022-3.606h0.906c0.54 0.651 1.109 1.839 1.109 3.606-0.039 1.767-0.569 2.945-1.109 3.642h-0.906z"/><line x1="1.224" x2="27.546" y1="12.123" y2="12.123" fill="none" stroke="#000" stroke-miterlimit="10" stroke-width=".8"/><path d="m2.491 11.448" fill="none" stroke="#00a651" stroke-miterlimit="10"/><path d="m26.441 10.765s-2.07 0.308-3.128 0c-1.057-0.309-2.687-2.774-2.995-3.436s-1.938-3.083-3.876 0-4.405-2.828-4.405-2.828-2.51-6.07-4.314 0.229c-1.806 6.299-4.935 6.21-4.935 6.21" fill="none" stroke="#00a651" stroke-miterlimit="10" stroke-width="1.1"/><path d="m26.441 13.33s-2.07-0.309-3.127 0c-1.057 0.308-2.688 2.774-2.995 3.435-0.308 0.662-1.938 3.083-3.876 0s-4.406 2.828-4.406 2.828-2.51 6.07-4.314-0.229c-1.807-6.299-4.936-6.21-4.936-6.21" fill="none" stroke="#ed1c24" stroke-miterlimit="10" stroke-width="1.1"/></svg>
