<?xml version="1.0" encoding="UTF-8"?>
<svg version="1.1" viewBox="0 0 32 32" xml:space="preserve" xmlns="http://www.w3.org/2000/svg" xmlns:cc="http://creativecommons.org/ns#" xmlns:dc="http://purl.org/dc/elements/1.1/" xmlns:rdf="http://www.w3.org/1999/02/22-rdf-syntax-ns#"><metadata><rdf:RDF><cc:Work rdf:about=""><dc:format>image/svg+xml</dc:format><dc:type rdf:resource="http://purl.org/dc/dcmitype/StillImage"/><dc:title/></cc:Work></rdf:RDF></metadata><g><path d="m17.834 8.7344c-0.50782 1.14e-5 -0.76173 0.56642-0.76172 1.6992v8.0391c0.74218 2e-6 1.4844-0.40625 2.2266-1.2188 0.66405-0.72656 0.99608-1.9609 0.99609-3.7031-1.2e-5 -1.625-0.33595-2.875-1.0078-3.75-0.54688-0.71093-1.0313-1.0664-1.4531-1.0664m0-1.8398c1.0937 1.33e-5 2.1367 0.51564 3.1289 1.5469 1.0703 1.1016 1.6055 2.8047 1.6055 5.1094-1.4e-5 2.1172-0.53517 3.8047-1.6055 5.0625-1.0078 1.1875-2.3047 1.7812-3.8906 1.7812v4.7109h-2.1445v-4.6992c-1.5547 0-2.8555-0.59766-3.9023-1.793-1.0625-1.2187-1.5938-2.9023-1.5938-5.0508-1.3e-6 -2.2344 0.53125-3.9219 1.5938-5.0625 0.79687-0.85155 1.8437-1.3867 3.1406-1.6055v1.9102c-0.51563 0.1797-1 0.57423-1.4531 1.1836-0.67188 0.89845-1.0078 2.0899-1.0078 3.5742-3e-6 1.5781 0.33593 2.8164 1.0078 3.7148 0.60156 0.80469 1.3398 1.207 2.2148 1.207v-8.0508c-6e-6 -2.3594 0.96874-3.539 2.9062-3.5391"/></g><text x="0.49070829" y="48.29847" fill="#f7941e" font-family="Accanthis ADF Std" font-size="40px" letter-spacing="0px" word-spacing="0px" style="line-height:125%" xml:space="preserve"><tspan x="0.49070829" y="48.29847" fill="#f7941e" font-family="Sans" font-size="24px"/></text>
</svg>
