<?xml version="1.0" encoding="UTF-8" standalone="no"?>
<!-- Created with Inkscape (http://www.inkscape.org/) -->

<svg
   xmlns:dc="http://purl.org/dc/elements/1.1/"
   xmlns:cc="http://creativecommons.org/ns#"
   xmlns:rdf="http://www.w3.org/1999/02/22-rdf-syntax-ns#"
   xmlns:svg="http://www.w3.org/2000/svg"
   xmlns="http://www.w3.org/2000/svg"
   version="1.1"
   width="100%"
   height="100%"
   viewBox="0 0 32 32"
   id="svg3093"
   xml:space="preserve"><metadata
     id="metadata3117"><rdf:RDF><cc:Work
         rdf:about=""><dc:format>image/svg+xml</dc:format><dc:type
           rdf:resource="http://purl.org/dc/dcmitype/StillImage" /><dc:title></dc:title></cc:Work></rdf:RDF></metadata><defs
     id="defs3115"><filter
       color-interpolation-filters="sRGB"
       id="filter5562"><feGaussianBlur
         id="feGaussianBlur5564"
         stdDeviation="1.2128746" /></filter></defs><path
     d="m 4.356,26.781 c 0.66,-0.935 1.841,-0.809 2.729,-1.399 0.703,-0.467 0.856,-1.623 0.992,-2.349 0.218,-1.165 -0.362,-4.839 1.218,-5.27 1.004,-0.274 1.677,-0.422 2.422,-1.176 1.721,-1.742 1.883,-4.988 2.669,-7.182 0.504,-1.407 1.142,-1.524 1.711,-0.079 0.35,0.886 0.697,1.771 1.017,2.668 0.689,1.934 1.256,3.931 1.737,5.926 0.45,1.865 0.957,3.707 1.576,5.523 0.279,0.821 0.38,1.479 1.177,1.893 1.154,0.598 1.675,-0.925 1.896,-1.673 0.278,-0.937 0.439,-1.908 0.69,-2.854 0.455,-1.711 0.864,0.714 1.019,1.371 0.442,1.884 0.466,3.932 1.071,5.769 0.181,0.549 1.05,0.314 0.867,-0.238 -0.398,-1.209 -0.782,-9.396 -2.967,-8.609 -1.242,0.448 -1.363,3.699 -1.672,4.738 -0.364,1.226 -1.034,-0.032 -1.215,-0.635 -0.366,-1.225 -0.775,-2.429 -1.108,-3.664 -0.629,-2.33 -1.193,-4.659 -1.927,-6.96 -0.276,-0.867 -1.45,-6 -3.046,-5.583 -2.015,0.528 -2.388,4.501 -2.846,6.112 -0.615,2.163 -1.571,3.309 -3.726,3.896 -0.864,0.236 -1.143,0.979 -1.28,1.771 -0.3,1.735 0.738,5.357 -1.488,6.215 -1.107,0.426 -1.578,0.317 -2.295,1.332 -0.334,0.478 0.447,0.927 0.779,0.457 z"
     id="path3095" /><g
     transform="translate(1.6271186,0.13559322)"
     id="g6629"
     style="filter:url(#filter5562)"><path
       d="m 2.1425431,16.187422 c -0.417,0.236 -1.12,0.115 -1.55699999,-0.271 -0.442,-0.39 -0.455,-0.906 -0.039,-1.147 l 7.32999999,-4.184 c 0.422,-0.242 1.121,-0.119 1.56,0.27 0.44,0.392 0.457,0.901 0.035,1.146 l -7.329,4.186 z"
       id="path3101-3"
       style="fill:#000000;stroke:#00a651;stroke-width:0.1;stroke-miterlimit:10" /><path
       d="m 14.176377,2.8135593 c -1.840801,-0.221807 -3.710615,0.0891 -5.2499999,0.96875 -1.53907,0.881724 -2.455231,2.258419 -2.5625,3.75 -0.107269,1.4915809 0.571478,3.0356967 1.9375,4.2499997 2.7388449,2.425517 7.2029939,2.980654 10.2812499,1.21875 1.539106,-0.879247 2.454634,-2.258711 2.5625,-3.7499997 0.107866,-1.4912883 -0.5729,-3.035478 -1.9375,-4.25 -1.3708,-1.214169 -3.190449,-1.965693 -5.03125,-2.1875 z m -0.15625,1.5625 c 1.561699,0.187693 3.0903,0.778169 4.1875,1.75 1.0904,0.9704781 1.507134,2.0372883 1.4375,3 -0.06963,0.9627117 -0.622606,1.8827477 -1.8125,2.5624997 -2.379744,1.362096 -6.340095,0.909234 -8.5312499,-1.03125 -1.091978,-0.9706963 -1.506731,-2.0685806 -1.4375,-3.0312497 0.06923,-0.962669 0.62157,-1.848974 1.8125,-2.53125 1.1906149,-0.680351 2.7820509,-0.906443 4.3437499,-0.71875 z"
       id="path3103-6"
       style="font-size:medium;font-style:normal;font-variant:normal;font-weight:normal;font-stretch:normal;text-indent:0;text-align:start;text-decoration:none;line-height:normal;letter-spacing:normal;word-spacing:normal;text-transform:none;direction:ltr;block-progression:tb;writing-mode:lr-tb;text-anchor:start;baseline-shift:baseline;color:#000000;fill:#000000;fill-opacity:1;stroke:none;stroke-width:1.5;marker:none;visibility:visible;display:inline;overflow:visible;enable-background:accumulate;font-family:Sans;-inkscape-font-specification:Sans" /><path
       d="m 30.571543,31.718422 c 0.247,0.361 0.019,0.865 -0.506,1.109 -0.531,0.246 -1.174,0.141 -1.42,-0.221 l -4.346,-6.416 c -0.255,-0.369 -0.025,-0.869 0.502,-1.111 0.533,-0.244 1.163,-0.146 1.422,0.227 l 4.348,6.412 z"
       id="path3109-6"
       style="fill:#000000;stroke:#00a651;stroke-width:0.1;stroke-miterlimit:10" /><path
       d="m 21.551377,15.594809 c -0.874914,0.08975 -1.739271,0.308145 -2.5625,0.6875 -1.644381,0.761544 -2.826791,2.026822 -3.34375,3.46875 -0.516959,1.441929 -0.342017,3.054671 0.59375,4.4375 l 0,0.03125 c 1.880796,2.76166 5.959716,3.614814 9.25,2.09375 1.646103,-0.760464 2.826654,-2.026732 3.34375,-3.46875 0.517096,-1.442017 0.345253,-3.056476 -0.59375,-4.4375 -1.404856,-2.074744 -4.062758,-3.08175 -6.6875,-2.8125 z m 0.15625,1.5 c 2.128008,-0.198468 4.257606,0.644495 5.28125,2.15625 0.683997,1.005977 0.772904,2.071268 0.40625,3.09375 -0.366654,1.022483 -1.205353,1.981214 -2.53125,2.59375 -2.649716,1.224937 -6.001796,0.45384 -7.375,-1.5625 -0.682233,-1.00817 -0.804291,-2.101928 -0.4375,-3.125 0.366791,-1.023071 1.237881,-1.980293 2.5625,-2.59375 0.663271,-0.305644 1.384414,-0.496344 2.09375,-0.5625 z"
       id="path3111-2"
       style="font-size:medium;font-style:normal;font-variant:normal;font-weight:normal;font-stretch:normal;text-indent:0;text-align:start;text-decoration:none;line-height:normal;letter-spacing:normal;word-spacing:normal;text-transform:none;direction:ltr;block-progression:tb;writing-mode:lr-tb;text-anchor:start;baseline-shift:baseline;color:#000000;fill:#000000;fill-opacity:1;stroke:none;stroke-width:1.5;marker:none;visibility:visible;display:inline;overflow:visible;enable-background:accumulate;font-family:Sans;-inkscape-font-specification:Sans" /></g><g
     id="g3099"
     style="stroke:#00a651;stroke-miterlimit:10"><path
       d="M 3.222,15.385 C 2.805,15.621 2.102,15.5 1.665,15.114 1.223,14.724 1.21,14.208 1.626,13.967 l 7.33,-4.184 c 0.422,-0.242 1.121,-0.119 1.56,0.27 0.44,0.392 0.457,0.901 0.035,1.146 l -7.329,4.186 z"
       id="path3101"
       style="fill:#00a651;stroke-width:0.1" /><path
       d="M 19.291,11.538 C 16.562,13.1 12.355,12.592 9.89,10.409 7.432,8.224 7.649,5.19 10.379,3.626 c 2.73,-1.56 6.936,-1.054 9.404,1.132 2.455,2.185 2.237,5.221 -0.492,6.78 z"
       id="path3103"
       style="fill:none;stroke-width:1.5" /></g><g
     id="g3107"
     style="stroke:#00a651;stroke-miterlimit:10"><path
       d="m 31.651,30.916 c 0.247,0.361 0.019,0.865 -0.506,1.109 -0.531,0.246 -1.174,0.141 -1.42,-0.221 l -4.346,-6.416 c -0.255,-0.369 -0.025,-0.869 0.502,-1.111 0.533,-0.244 1.163,-0.146 1.422,0.227 l 4.348,6.412 z"
       id="path3109"
       style="fill:#00a651;stroke-width:0.1" /><path
       d="m 28.693,18.014 c 1.623,2.387 0.53,5.436 -2.442,6.809 -2.97,1.373 -6.686,0.547 -8.313,-1.842 -1.618,-2.391 -0.526,-5.438 2.443,-6.813 2.973,-1.37 6.693,-0.545 8.312,1.846 z"
       id="path3111"
       style="fill:none;stroke-width:1.5" /></g></svg>