<?xml version="1.0" encoding="UTF-8" standalone="no"?>
<!-- Created with Inkscape (http://www.inkscape.org/) -->

<svg
   xmlns:dc="http://purl.org/dc/elements/1.1/"
   xmlns:cc="http://creativecommons.org/ns#"
   xmlns:rdf="http://www.w3.org/1999/02/22-rdf-syntax-ns#"
   xmlns:svg="http://www.w3.org/2000/svg"
   xmlns="http://www.w3.org/2000/svg"
   version="1.1"
   width="100%"
   height="100%"
   viewBox="0 0 32 32"
   id="svg3119"
   xml:space="preserve"><metadata
     id="metadata3143"><rdf:RDF><cc:Work
         rdf:about=""><dc:format>image/svg+xml</dc:format><dc:type
           rdf:resource="http://purl.org/dc/dcmitype/StillImage" /><dc:title></dc:title></cc:Work></rdf:RDF></metadata><defs
     id="defs3141"><filter
       x="-0.13669565"
       y="-0.15212902"
       width="1.2733912"
       height="1.3042581"
       color-interpolation-filters="sRGB"
       id="filter6093"><feGaussianBlur
         id="feGaussianBlur6095"
         stdDeviation="0.85968749" /></filter></defs><path
     d="m 5.389,25.291 c 1.58,-0.508 1.812,-2.553 2.157,-3.945 0.386,-1.556 1.273,-1.214 2.263,-2.038 0.688,-0.573 0.899,-1.425 0.95,-2.313 0.042,-0.741 -0.152,-3.181 0.782,-3.454 0.318,-0.092 0.664,-0.102 0.965,-0.255 0.843,-0.43 1.344,-1.121 1.679,-2.019 0.255,-0.686 0.463,-1.369 0.655,-2.074 0.03,-0.11 1.031,-3.262 1.374,-2.735 1.012,1.557 1.44,3.84 1.949,5.601 0.467,1.616 0.819,3.259 1.312,4.869 0.223,0.728 0.394,1.828 1.124,2.255 1.383,0.811 1.77,-1.7 1.924,-2.377 0.246,-1.075 0.345,-1.811 0.732,-0.343 0.3,1.136 0.448,2.319 0.637,3.477 0.226,1.388 0.626,3.463 1.515,4.559 0.089,0.11 0.305,0.171 0.438,0.116 0.787,-0.324 0.642,-2.325 1.354,-0.873 0.313,0.641 0.516,1.625 1.247,1.912 0.54,0.213 0.772,-0.658 0.238,-0.867 -0.869,-0.342 -0.671,-3.279 -2.23,-2.851 -0.671,0.185 -0.841,1.305 -0.97,1.82 0.32,-1.277 -0.408,-2.326 -0.656,-3.659 -0.226,-1.215 -0.218,-5.231 -1.676,-5.757 -0.453,-0.164 -0.721,0.077 -0.967,0.44 -0.239,0.353 -0.314,0.894 -0.416,1.295 -0.056,0.224 -0.622,3.16 -1.157,1.405 -1.157,-3.8 -1.675,-8.486 -3.87,-11.864 -1.414,-2.176 -2.873,3.723 -2.96,4.045 -0.374,1.378 -0.894,2.683 -2.477,3.011 -0.307,0.063 -0.67,0.193 -0.897,0.421 -1.402,1.402 0.693,4.751 -1.486,5.647 -0.974,0.4 -1.453,0.299 -1.934,1.379 -0.503,1.128 -0.444,3.855 -1.834,4.303 -0.554,0.179 -0.319,1.048 0.235,0.869 z"
     id="path3121" /><g
     id="g3123"
     style="fill:#00a651;stroke:#00a651;stroke-width:1.10000002;stroke-miterlimit:10"><line
       x1="16.027"
       x2="16.016001"
       y1="23.438"
       y2="10.753"
       id="line3125" /><polygon
       points="13.807,23.451 18.248,23.438 16.045,27.269 "
       id="polygon3127" /><polygon
       points="18.236,10.247 13.795,10.228 16.022,6.413 "
       id="polygon3129" /></g><path
     d="m 9.7696852,14.337521 -1.28125,1.40625 5.9999998,5.34375 -6.1249998,5.28125 1.25,1.4375 6.2812498,-5.4375 6.1875,5.53125 1.25,-1.40625 -5.96875,-5.375 6.09375,-5.25 -1.25,-1.4375 -6.28125,5.40625 -6.1562498,-5.5 z"
     id="line3135-6"
     style="font-size:medium;font-style:normal;font-variant:normal;font-weight:normal;font-stretch:normal;text-indent:0;text-align:start;text-decoration:none;line-height:normal;letter-spacing:normal;word-spacing:normal;text-transform:none;direction:ltr;block-progression:tb;writing-mode:lr-tb;text-anchor:start;baseline-shift:baseline;color:#000000;fill:#000000;fill-opacity:1;stroke:none;stroke-width:1.89999998;marker:none;visibility:visible;display:inline;overflow:visible;filter:url(#filter6093);enable-background:accumulate;font-family:Sans;-inkscape-font-specification:Sans" /><g
     id="g3133"
     style="fill:none;stroke:#ed1c24;stroke-width:1.89999998;stroke-miterlimit:10"><line
       x1="9.2329998"
       x2="22.822001"
       y1="14.099"
       y2="26.26"
       id="line3135" /><line
       x1="22.948999"
       x2="9.1049995"
       y1="14.211"
       y2="26.146999"
       id="line3137" /></g></svg>