<?xml version="1.0" encoding="UTF-8"?>
<svg version="1.1" viewBox="0 0 32 32" xml:space="preserve" xmlns="http://www.w3.org/2000/svg"><path d="m4.418 32.184c0.2-1.021 0.117-1.992 0.491-2.975 0.402-1.06 0.737-2.134 1.026-3.229-0.278 0.073-0.557 0.147-0.835 0.22 0.596 0.553 1.127 1.153 1.709 1.721 0.282 0.274 0.714 0.132 0.835-0.221 0.512-1.481 0.99-2.95 1.544-4.419-0.304 0.04-0.609 0.08-0.914 0.119 0.563 0.816 0.943 1.702 1.556 2.484 0.304 0.388 0.811 0.018 0.854-0.354 0.467-4.027 2.292-7.606 2.975-11.567h-0.964c0.947 2.809 2.17 5.516 3.31 8.252 0.162 0.391 0.884 0.555 0.964 0 0.525-3.624 1.333-7.173 1.74-10.826 0.334-2.994 0.411-6.013 0.8-9.002-0.311 0.084-0.621 0.168-0.932 0.252 0.628 1.238 0.684 2.911 0.908 4.259 0.312 1.862 0.695 3.725 1.131 5.56 0.126 0.528 0.795 0.422 0.965 0 1.127-2.805 1.088-5.958 1.494-8.904h-0.964c1.152 6.973 0.797 14.117 1.969 21.087 0.083 0.489 0.866 0.469 0.965 0 0.64-3.043 1.899-6.224 1.979-9.339-0.327 0.044-0.654 0.088-0.982 0.133 0.449 3.083 0.943 6.189 1.532 9.249 0.304 1.582 0.607 3.018 0.567 4.64-0.024 0.99 0.01 1.907 0.276 2.858 0.174 0.62 1.139 0.356 0.965-0.266-0.379-1.349-0.22-2.722-0.225-4.102-4e-3 -1.153-0.379-2.28-0.62-3.396-0.655-3.034-1.084-6.178-1.531-9.249-0.084-0.577-0.969-0.409-0.982 0.133-0.077 3.006-1.326 6.135-1.944 9.074h0.965c-1.173-6.969-0.816-14.114-1.97-21.087-0.078-0.474-0.897-0.485-0.964 0-0.405 2.938-0.374 6.116-1.495 8.904h0.965c-0.483-2.033-0.886-4.094-1.23-6.155-0.213-1.278-0.315-2.731-0.91-3.903-0.251-0.495-0.874-0.188-0.932 0.252-0.361 2.781-0.481 5.589-0.737 8.38-0.346 3.774-1.225 7.443-1.766 11.182h0.964c-1.131-2.719-2.371-5.469-3.31-8.252-0.144-0.428-0.874-0.524-0.964 0-0.698 4.047-2.533 7.719-3.011 11.833 0.285-0.118 0.569-0.235 0.854-0.354-0.553-0.706-0.892-1.546-1.4-2.281-0.256-0.372-0.758-0.295-0.914 0.119-0.556 1.472-1.031 2.934-1.544 4.419 0.278-0.073 0.557-0.147 0.835-0.221-0.582-0.567-1.113-1.168-1.709-1.721-0.271-0.251-0.736-0.154-0.835 0.221-0.29 1.098-0.639 2.162-1.027 3.229-0.403 1.107-0.268 1.837-0.49 2.976-0.124 0.631 0.839 0.899 0.963 0.267z"/><path d="m4.684 31.103c2.359-0.676 3.119-2.497 3.404-4.851 0.184-1.516-0.359-5.724 1.418-6.241 1.085-0.316 2.144-0.343 3.2-0.805 2.411-1.056 3.432-4.736 4.18-6.97 0.803-2.399 1.699-4.674 2.307-7.13 0.117-0.473 0.254-0.939 0.398-1.405 0.092-0.305 0.215-0.597 0.369-0.876-0.514-0.365-0.643-0.334-0.386 0.093 0.383 1.057 0.544 2.221 0.758 3.32 0.531 2.725 1.413 5.188 2.235 7.844 1.28 4.137 2.059 8.395 3.272 12.548 0.6 2.052 0.949 5.032 3.668 4.78 1.146-0.106 1.156-1.907 0-1.801-2.131 0.198-3.556-10.028-3.989-11.682-0.855-3.259-2.231-6.429-2.966-9.701-0.183-0.815-1.488-10.183-3.979-6.556-1.098 1.599-1.262 3.777-1.785 5.604-0.834 2.914-1.991 6.316-3.551 8.903-1.502 2.491-4.539 1.265-6.162 3.438-1.916 2.564 1.174 8.592-2.873 9.75-1.111 0.321-0.637 2.057 0.482 1.738z" fill="#ed1c24"/></svg>
