<?xml version="1.0" encoding="UTF-8"?>
<svg version="1.1" viewBox="0 0 32 32" xml:space="preserve" xmlns="http://www.w3.org/2000/svg"><path d="m5.389 25.291c1.58-0.508 1.812-2.553 2.157-3.945 0.386-1.556 1.273-1.214 2.263-2.038 0.688-0.573 0.899-1.425 0.95-2.313 0.042-0.741-0.152-3.181 0.782-3.454 0.318-0.092 0.664-0.102 0.965-0.255 0.843-0.43 1.344-1.121 1.679-2.019 0.255-0.686 0.463-1.369 0.655-2.074 0.03-0.11 1.031-3.262 1.374-2.735 1.012 1.557 1.44 3.84 1.949 5.601 0.467 1.616 0.819 3.259 1.312 4.869 0.223 0.728 0.394 1.828 1.124 2.255 1.383 0.811 1.77-1.7 1.924-2.377 0.246-1.075 0.345-1.811 0.732-0.343 0.3 1.136 0.448 2.319 0.637 3.477 0.226 1.388 0.626 3.463 1.515 4.559 0.089 0.11 0.305 0.171 0.438 0.116 0.787-0.324 0.642-2.325 1.354-0.873 0.313 0.641 0.516 1.625 1.247 1.912 0.54 0.213 0.772-0.658 0.238-0.867-0.869-0.342-0.671-3.279-2.23-2.851-0.671 0.185-0.841 1.305-0.97 1.82 0.32-1.277-0.408-2.326-0.656-3.659-0.226-1.215-0.218-5.231-1.676-5.757-0.453-0.164-0.721 0.077-0.967 0.44-0.239 0.353-0.314 0.894-0.416 1.295-0.056 0.224-0.622 3.16-1.157 1.405-1.157-3.8-1.675-8.486-3.87-11.864-1.414-2.176-2.873 3.723-2.96 4.045-0.374 1.378-0.894 2.683-2.477 3.011-0.307 0.063-0.67 0.193-0.897 0.421-1.402 1.402 0.693 4.751-1.486 5.647-0.974 0.4-1.453 0.299-1.934 1.379-0.503 1.128-0.444 3.855-1.834 4.303-0.554 0.179-0.319 1.048 0.235 0.869z" fill="#ed1c24"/><path d="m8.904 16.8h4.941v1.5h-3.106v1.847h2.903v1.487h-2.903v3.25h-1.835v-8.084z"/><path d="m17.063 16.8v8.083h-1.835v-8.083h1.835z"/><path d="m20.207 18.336h-2.171v-1.536h6.213v1.536h-2.207v6.548h-1.835v-6.548z"/></svg>
