<?xml version="1.0" encoding="UTF-8" standalone="no"?>
<!-- Created with Inkscape (http://www.inkscape.org/) -->

<svg
   xmlns:dc="http://purl.org/dc/elements/1.1/"
   xmlns:cc="http://creativecommons.org/ns#"
   xmlns:rdf="http://www.w3.org/1999/02/22-rdf-syntax-ns#"
   xmlns:svg="http://www.w3.org/2000/svg"
   xmlns="http://www.w3.org/2000/svg"
   xmlns:inkscape="http://www.inkscape.org/namespaces/inkscape"
   version="1.1"
   width="100%"
   height="100%"
   viewBox="0 0 32 32"
   id="svg2"
   xml:space="preserve"><metadata
     id="metadata20"><rdf:RDF><cc:Work
         rdf:about=""><dc:format>image/svg+xml</dc:format><dc:type
           rdf:resource="http://purl.org/dc/dcmitype/StillImage" /></cc:Work></rdf:RDF></metadata><defs
     id="defs18" /><line
     x1="8.1370001"
     x2="25.667999"
     y1="16.749001"
     y2="16.749001"
     fill="#F7941E"
     stroke="#F7941E"
     stroke-miterlimit="10"
     stroke-width="2"
     id="line4"
     style="fill:#f7941e;stroke:#f7941e;stroke-width:2;stroke-miterlimit:10" /><path
     d="M 12.09,29.497 V 19.84 h 2.565 l 3.188,4.141 c 0.825,1.075 1.54,2.192 2.107,3.238 h 0.037 C 19.841,25.93 19.785,24.683 19.785,23.207 V 19.84 h 2.09 v 9.657 H 19.547 L 16.322,25.256 C 15.534,24.195 14.71,23.007 14.105,21.918 l -0.055,0.014 c 0.091,1.247 0.11,2.522 0.11,4.112 v 3.453 h -2.07 z"
     inkscape:connector-curvature="0"
     id="path6" /><path
     d="m 16.552,7.344 c -0.432,0.783 -0.762,1.87 -0.762,3.354 0,1.458 0.337,2.538 0.762,3.329 h -0.607 c -0.385,-0.659 -0.816,-1.73 -0.816,-3.329 0.007,-1.607 0.432,-2.687 0.816,-3.354 h 0.607 z"
     inkscape:connector-curvature="0"
     id="path8" /><path
     d="m 19.319,7.916 0.587,1.137 c 0.162,0.321 0.304,0.618 0.445,0.927 h 0.03 c 0.142,-0.333 0.283,-0.643 0.425,-0.952 l 0.546,-1.112 h 1.356 l -1.649,2.892 1.68,3.127 h -1.406 l -0.607,-1.199 c -0.162,-0.321 -0.304,-0.643 -0.445,-0.977 h -0.02 c -0.142,0.346 -0.283,0.643 -0.445,0.977 l -0.566,1.199 h -1.376 l 1.71,-3.065 -1.649,-2.954 h 1.384 z"
     inkscape:connector-curvature="0"
     id="path10" /><path
     d="m 24.166,14.026 c 0.425,-0.783 0.756,-1.878 0.756,-3.345 0,-1.467 -0.331,-2.546 -0.756,-3.337 h 0.601 c 0.392,0.659 0.823,1.73 0.823,3.345 -0.007,1.607 -0.432,2.669 -0.823,3.337 h -0.601 z"
     inkscape:connector-curvature="0"
     id="path12" /><polygon
     points="9.052,4.063 9.052,12.68 8.367,12.68 8.367,14.091 11.862,14.091 11.862,12.68 11.18,12.68 11.18,4.063 11.862,4.063 11.862,2.651 8.367,2.651 8.367,4.063 "
     id="polygon14" /></svg>