<?xml version="1.0" encoding="UTF-8" standalone="no"?>
<!-- Created with Inkscape (http://www.inkscape.org/) -->

<svg
   xmlns:dc="http://purl.org/dc/elements/1.1/"
   xmlns:cc="http://creativecommons.org/ns#"
   xmlns:rdf="http://www.w3.org/1999/02/22-rdf-syntax-ns#"
   xmlns:svg="http://www.w3.org/2000/svg"
   xmlns="http://www.w3.org/2000/svg"
   xmlns:sodipodi="http://sodipodi.sourceforge.net/DTD/sodipodi-0.dtd"
   xmlns:inkscape="http://www.inkscape.org/namespaces/inkscape"
   width="32"
   height="32"
   id="svg2"
   version="1.1"
   inkscape:version="0.48.5 r10040"
   sodipodi:docname="median-filter.svg">
  <defs
     id="defs4" />
  <sodipodi:namedview
     id="base"
     pagecolor="#ffffff"
     bordercolor="#666666"
     borderopacity="1.0"
     inkscape:pageopacity="0.0"
     inkscape:pageshadow="2"
     inkscape:zoom="7.9195959"
     inkscape:cx="5.3998064"
     inkscape:cy="0.5973639"
     inkscape:document-units="px"
     inkscape:current-layer="layer1"
     showgrid="false"
     showborder="true"
     inkscape:showpageshadow="false"
     inkscape:window-width="1920"
     inkscape:window-height="1098"
     inkscape:window-x="0"
     inkscape:window-y="31"
     inkscape:window-maximized="1" />
  <metadata
     id="metadata7">
    <rdf:RDF>
      <cc:Work
         rdf:about="">
        <dc:format>image/svg+xml</dc:format>
        <dc:type
           rdf:resource="http://purl.org/dc/dcmitype/StillImage" />
        <dc:title />
      </cc:Work>
    </rdf:RDF>
  </metadata>
  <g
     inkscape:label="Layer 1"
     inkscape:groupmode="layer"
     id="layer1"
     transform="translate(0,-1020.3622)">
    <g
       transform="scale(0.99689828,1.0031114)"
       style="font-size:13.08228397px;font-style:normal;font-weight:normal;line-height:125%;letter-spacing:0px;word-spacing:0px;fill:#000000;fill-opacity:1;stroke:none;font-family:Sans"
       id="text2985">
      <path
         sodipodi:type="inkscape:offset"
         inkscape:radius="0"
         inkscape:original="M 16.28125 1025.7188 L 16.28125 1027.9062 C 16.100583 1027.667 15.907224 1027.4874 15.6875 1027.375 C 15.470213 1027.2599 15.220701 1027.2188 14.9375 1027.2188 C 14.432127 1027.2188 14.012206 1027.4096 13.6875 1027.8125 C 13.362792 1028.2129 13.1875 1028.7427 13.1875 1029.375 C 13.1875 1030.0074 13.362792 1030.5033 13.6875 1030.9062 C 14.012206 1031.3067 14.432127 1031.5312 14.9375 1031.5312 C 15.223142 1031.5312 15.470213 1031.4561 15.6875 1031.3438 C 15.904783 1031.2315 16.100583 1031.0542 16.28125 1030.8125 L 16.28125 1031.4062 L 17.59375 1031.4062 L 17.59375 1025.7188 L 16.28125 1025.7188 z M 18.875 1025.7188 L 18.875 1026.7812 L 20.1875 1026.7812 L 20.1875 1025.7188 L 18.875 1025.7188 z M 1 1025.9375 L 1 1031.4062 L 2.34375 1031.4062 L 2.34375 1027.4062 L 3.59375 1030.375 L 4.5 1030.375 L 5.75 1027.4062 L 5.75 1031.4062 L 7.09375 1031.4062 L 7.09375 1025.9375 L 5.28125 1025.9375 L 4.03125 1028.875 L 2.78125 1025.9375 L 1 1025.9375 z M 10.375 1027.2188 C 9.6669902 1027.2187 9.1240221 1027.398 8.71875 1027.7812 C 8.3159174 1028.1646 8.0937497 1028.7061 8.09375 1029.375 C 8.0937497 1030.0562 8.3085932 1030.5903 8.71875 1030.9688 C 9.1313463 1031.3448 9.6953106 1031.5312 10.4375 1031.5312 C 10.747556 1031.5312 11.064938 1031.4985 11.375 1031.4375 C 11.685055 1031.3789 12.002437 1031.2734 12.3125 1031.1562 L 12.3125 1030.1562 C 12.00732 1030.3223 11.696773 1030.4482 11.40625 1030.5312 C 11.118161 1030.6121 10.838376 1030.6562 10.5625 1030.6562 C 10.2207 1030.6562 9.9716775 1030.5601 9.78125 1030.4062 C 9.5908185 1030.2524 9.469237 1030.0265 9.4375 1029.7188 L 12.5 1029.7188 L 12.5 1029.3438 C 12.499996 1028.6943 12.325679 1028.1695 11.9375 1027.7812 C 11.551754 1027.3931 11.019528 1027.2188 10.375 1027.2188 z M 23.1875 1027.2188 C 22.904294 1027.2188 22.626952 1027.2442 22.34375 1027.2812 C 22.060546 1027.3153 21.780761 1027.3383 21.5 1027.4062 L 21.5 1028.4062 C 21.707519 1028.2939 21.9458 1028.2123 22.1875 1028.1562 C 22.429198 1028.1002 22.687986 1028.0938 22.96875 1028.0938 C 23.315427 1028.0938 23.555173 1028.1208 23.71875 1028.2188 C 23.882322 1028.3139 23.968747 1028.48 23.96875 1028.6875 L 23.96875 1028.7812 L 23.1875 1028.7812 C 22.47949 1028.7812 21.95703 1028.9004 21.625 1029.125 C 21.29541 1029.3497 21.15625 1029.7065 21.15625 1030.1875 C 21.15625 1030.583 21.267578 1030.9072 21.53125 1031.1562 C 21.797362 1031.4028 22.137694 1031.5312 22.5625 1031.5312 C 22.877439 1031.5313 23.155271 1031.4561 23.375 1031.3438 C 23.594724 1031.2291 23.792966 1031.0615 23.96875 1030.8125 L 23.96875 1031.4062 L 25.28125 1031.4062 L 25.28125 1029.0625 C 25.281246 1028.4057 25.110836 1027.9468 24.78125 1027.6562 C 24.454098 1027.3633 23.927243 1027.2188 23.1875 1027.2188 z M 29.1875 1027.2188 C 28.918942 1027.2187 28.690915 1027.2603 28.46875 1027.375 C 28.24658 1027.4874 28.041502 1027.667 27.84375 1027.9062 L 27.84375 1027.3125 L 26.53125 1027.3125 L 26.53125 1031.4062 L 27.84375 1031.4062 L 27.84375 1029.4062 C 27.843748 1029.0328 27.906248 1028.7413 28.0625 1028.5312 C 28.218748 1028.3188 28.44531 1028.1875 28.71875 1028.1875 C 28.831052 1028.1875 28.91211 1028.2323 29 1028.2812 C 29.087888 1028.3276 29.16748 1028.3837 29.21875 1028.4688 C 29.25781 1028.5322 29.29785 1028.647 29.3125 1028.7812 C 29.32963 1028.9155 29.312496 1029.146 29.3125 1029.5 L 29.3125 1031 L 29.3125 1031.4062 L 30.65625 1031.4062 L 30.65625 1028.9062 C 30.656245 1028.352 30.527827 1027.9468 30.28125 1027.6562 C 30.037105 1027.3657 29.661129 1027.2188 29.1875 1027.2188 z M 18.875 1027.3125 L 18.875 1031.4062 L 20.1875 1031.4062 L 20.1875 1027.3125 L 18.875 1027.3125 z M 10.375 1028.0938 C 10.609372 1028.0938 10.793454 1028.1587 10.9375 1028.3125 C 11.083976 1028.4639 11.156247 1028.6572 11.15625 1028.9062 L 9.46875 1028.9062 C 9.5078108 1028.6377 9.5913067 1028.4541 9.75 1028.3125 C 9.9086892 1028.1684 10.121091 1028.0938 10.375 1028.0938 z M 15.40625 1028.1562 C 15.687009 1028.1562 15.916012 1028.2637 16.0625 1028.4688 C 16.211418 1028.6739 16.281247 1028.9844 16.28125 1029.375 C 16.281247 1029.7657 16.211422 1030.0449 16.0625 1030.25 C 15.916012 1030.4551 15.687009 1030.5625 15.40625 1030.5625 C 15.127928 1030.5625 14.930174 1030.4551 14.78125 1030.25 C 14.634764 1030.0449 14.562498 1029.7657 14.5625 1029.375 C 14.562498 1028.9844 14.634764 1028.6738 14.78125 1028.4688 C 14.930174 1028.2636 15.127928 1028.1562 15.40625 1028.1562 z M 23.28125 1029.5625 L 23.96875 1029.5625 L 23.96875 1029.7188 C 23.968747 1029.9848 23.887204 1030.1968 23.71875 1030.375 C 23.55029 1030.5507 23.340329 1030.6562 23.09375 1030.6562 C 22.895994 1030.6562 22.737302 1030.593 22.625 1030.5 C 22.515135 1030.4048 22.468748 1030.291 22.46875 1030.125 C 22.468748 1029.9443 22.519529 1029.8118 22.65625 1029.7188 C 22.795408 1029.6256 23.007811 1029.5625 23.28125 1029.5625 z M 6.0625 1035.0938 L 6.0625 1036.1562 L 7.375 1036.1562 L 7.375 1035.0938 L 6.0625 1035.0938 z M 8.65625 1035.0938 L 8.65625 1040.7812 L 9.96875 1040.7812 L 9.96875 1035.0938 L 8.65625 1035.0938 z M 1 1035.3125 L 1 1040.7812 L 2.40625 1040.7812 L 2.40625 1038.4688 L 4.65625 1038.4688 L 4.65625 1037.4062 L 2.40625 1037.4062 L 2.40625 1036.375 L 4.8125 1036.375 L 4.8125 1035.3125 L 1 1035.3125 z M 11.34375 1035.5312 L 11.34375 1036.6875 L 10.6875 1036.6875 L 10.6875 1037.625 L 11.34375 1037.625 L 11.34375 1039.375 C 11.343749 1039.8926 11.441406 1040.2514 11.65625 1040.4688 C 11.873534 1040.6836 12.263671 1040.7812 12.78125 1040.7812 L 13.90625 1040.7812 L 13.90625 1039.8438 L 13.21875 1039.8438 C 12.994138 1039.8438 12.85693 1039.816 12.78125 1039.75 C 12.705565 1039.6816 12.656248 1039.5654 12.65625 1039.375 L 12.65625 1037.625 L 14 1037.625 L 14 1036.6875 L 12.65625 1036.6875 L 12.65625 1035.5312 L 11.34375 1035.5312 z M 16.78125 1036.5938 C 16.07324 1036.5938 15.530272 1036.773 15.125 1037.1562 C 14.722168 1037.5395 14.5 1038.0811 14.5 1038.75 C 14.5 1039.4312 14.714843 1039.9653 15.125 1040.3438 C 15.537596 1040.7198 16.101561 1040.9062 16.84375 1040.9062 C 17.153806 1040.9062 17.471188 1040.8735 17.78125 1040.8125 C 18.091305 1040.7539 18.408687 1040.6484 18.71875 1040.5312 L 18.71875 1039.5312 C 18.41357 1039.6973 18.103024 1039.8232 17.8125 1039.9062 C 17.524411 1039.9871 17.244626 1040.0312 16.96875 1040.0312 C 16.626951 1040.0312 16.377928 1039.9351 16.1875 1039.7812 C 15.997069 1039.6274 15.87549 1039.4015 15.84375 1039.0938 L 18.90625 1039.0938 L 18.90625 1038.7188 C 18.906245 1038.0694 18.700679 1037.5445 18.3125 1037.1562 C 17.926754 1036.768 17.425778 1036.5938 16.78125 1036.5938 z M 22.5625 1036.5938 C 22.257321 1036.5938 22.000973 1036.6568 21.78125 1036.7812 C 21.563962 1036.9034 21.387205 1037.1065 21.21875 1037.375 L 21.21875 1036.6875 L 19.90625 1036.6875 L 19.90625 1040.7812 L 21.21875 1040.7812 L 21.21875 1038.9062 C 21.218748 1038.5035 21.288084 1038.1835 21.46875 1037.9688 C 21.651853 1037.7514 21.913083 1037.6562 22.25 1037.6562 C 22.364743 1037.6562 22.481442 1037.6605 22.59375 1037.6875 C 22.708493 1037.7116 22.82275 1037.7585 22.9375 1037.8125 L 22.9375 1036.625 C 22.83984 1036.613 22.77002 1036.5938 22.71875 1036.5938 C 22.667478 1036.5837 22.60644 1036.5938 22.5625 1036.5938 z M 6.0625 1036.6875 L 6.0625 1040.7812 L 7.375 1040.7812 L 7.375 1036.6875 L 6.0625 1036.6875 z M 16.78125 1037.4688 C 17.015622 1037.4688 17.199704 1037.5337 17.34375 1037.6875 C 17.490226 1037.8389 17.562497 1038.0322 17.5625 1038.2812 L 15.84375 1038.2812 C 15.882811 1038.0127 15.997557 1037.8291 16.15625 1037.6875 C 16.31494 1037.5434 16.527341 1037.4688 16.78125 1037.4688 z "
         style="font-size:7.5px;font-weight:bold"
         id="path3029"
         d="m 16.28125,1025.7188 0,2.1874 c -0.180667,-0.2392 -0.374026,-0.4188 -0.59375,-0.5312 -0.217287,-0.1151 -0.466799,-0.1562 -0.75,-0.1562 -0.505373,0 -0.925294,0.1908 -1.25,0.5937 -0.324708,0.4004 -0.5,0.9302 -0.5,1.5625 0,0.6324 0.175292,1.1283 0.5,1.5312 0.324706,0.4005 0.744627,0.625 1.25,0.625 0.285642,0 0.532713,-0.075 0.75,-0.1874 0.217283,-0.1123 0.413083,-0.2896 0.59375,-0.5313 l 0,0.5937 1.3125,0 0,-5.6874 -1.3125,0 z m 2.59375,0 0,1.0624 1.3125,0 0,-1.0624 -1.3125,0 z M 1,1025.9375 l 0,5.4687 1.34375,0 0,-4 1.25,2.9688 0.90625,0 1.25,-2.9688 0,4 1.34375,0 0,-5.4687 -1.8125,0 -1.25,2.9375 -1.25,-2.9375 -1.78125,0 z m 9.375,1.2813 c -0.7080098,-1e-4 -1.2509779,0.1792 -1.65625,0.5624 -0.4028326,0.3834 -0.6250003,0.9249 -0.625,1.5938 -3e-7,0.6812 0.2148432,1.2153 0.625,1.5938 0.4125963,0.376 0.9765606,0.5624 1.71875,0.5624 0.310056,0 0.627438,-0.033 0.9375,-0.094 0.310055,-0.059 0.627437,-0.1641 0.9375,-0.2813 l 0,-1 c -0.30518,0.1661 -0.615727,0.292 -0.90625,0.375 -0.288089,0.081 -0.567874,0.125 -0.84375,0.125 -0.3418,0 -0.5908225,-0.096 -0.78125,-0.25 -0.1904315,-0.1538 -0.312013,-0.3797 -0.34375,-0.6874 l 3.0625,0 0,-0.375 c -4e-6,-0.6495 -0.174321,-1.1743 -0.5625,-1.5626 -0.385746,-0.3881 -0.917972,-0.5624 -1.5625,-0.5624 z m 12.8125,0 c -0.283206,0 -0.560548,0.025 -0.84375,0.062 -0.283204,0.034 -0.562989,0.057 -0.84375,0.125 l 0,1 c 0.207519,-0.1123 0.4458,-0.1939 0.6875,-0.25 0.241698,-0.056 0.500486,-0.062 0.78125,-0.062 0.346677,0 0.586423,0.027 0.75,0.125 0.163572,0.095 0.249997,0.2612 0.25,0.4687 l 0,0.094 -0.78125,0 c -0.70801,0 -1.23047,0.1192 -1.5625,0.3438 -0.32959,0.2247 -0.46875,0.5815 -0.46875,1.0625 0,0.3955 0.111328,0.7197 0.375,0.9687 0.266112,0.2466 0.606444,0.375 1.03125,0.375 0.314939,1e-4 0.592771,-0.075 0.8125,-0.1874 0.219724,-0.1147 0.417966,-0.2823 0.59375,-0.5313 l 0,0.5937 1.3125,0 0,-2.3437 c -4e-6,-0.6568 -0.170414,-1.1157 -0.5,-1.4063 -0.327152,-0.2929 -0.854007,-0.4374 -1.59375,-0.4374 z m 6,0 c -0.268558,-1e-4 -0.496585,0.041 -0.71875,0.1562 -0.22217,0.1124 -0.427248,0.292 -0.625,0.5312 l 0,-0.5937 -1.3125,0 0,4.0937 1.3125,0 0,-2 c -2e-6,-0.3734 0.0625,-0.6649 0.21875,-0.875 0.156248,-0.2124 0.38281,-0.3437 0.65625,-0.3437 0.112302,0 0.19336,0.045 0.28125,0.094 0.08789,0.046 0.16748,0.1025 0.21875,0.1876 0.03906,0.063 0.0791,0.1782 0.09375,0.3124 0.01713,0.1343 -4e-6,0.3648 0,0.7188 l 0,1.5 0,0.4062 1.34375,0 0,-2.5 c -5e-6,-0.5542 -0.128423,-0.9594 -0.375,-1.25 -0.244145,-0.2905 -0.620121,-0.4374 -1.09375,-0.4374 z m -10.3125,0.094 0,4.0937 1.3125,0 0,-4.0937 -1.3125,0 z m -8.5,0.7813 c 0.234372,0 0.418454,0.065 0.5625,0.2187 0.146476,0.1514 0.218747,0.3447 0.21875,0.5937 l -1.6875,0 c 0.039061,-0.2685 0.1225567,-0.4521 0.28125,-0.5937 0.1586892,-0.1441 0.371091,-0.2187 0.625,-0.2187 z m 5.03125,0.062 c 0.280759,0 0.509762,0.1075 0.65625,0.3126 0.148918,0.2051 0.218747,0.5156 0.21875,0.9062 -3e-6,0.3907 -0.06983,0.6699 -0.21875,0.875 -0.146488,0.2051 -0.375491,0.3125 -0.65625,0.3125 -0.278322,0 -0.476076,-0.1074 -0.625,-0.3125 -0.146486,-0.2051 -0.218752,-0.4843 -0.21875,-0.875 -2e-6,-0.3906 0.07226,-0.7012 0.21875,-0.9062 0.148924,-0.2052 0.346678,-0.3126 0.625,-0.3126 z m 7.875,1.4063 0.6875,0 0,0.1563 c -3e-6,0.266 -0.08155,0.478 -0.25,0.6562 -0.16846,0.1757 -0.378421,0.2812 -0.625,0.2812 -0.197756,0 -0.356448,-0.063 -0.46875,-0.1562 -0.109865,-0.095 -0.156252,-0.209 -0.15625,-0.375 -2e-6,-0.1807 0.05078,-0.3132 0.1875,-0.4062 0.139158,-0.093 0.351561,-0.1563 0.625,-0.1563 z m -17.21875,5.5313 0,1.0624 1.3125,0 0,-1.0624 -1.3125,0 z m 2.59375,0 0,5.6874 1.3125,0 0,-5.6874 -1.3125,0 z M 1,1035.3125 l 0,5.4687 1.40625,0 0,-2.3124 2.25,0 0,-1.0626 -2.25,0 0,-1.0312 2.40625,0 0,-1.0625 -3.8125,0 z m 10.34375,0.2187 0,1.1563 -0.65625,0 0,0.9375 0.65625,0 0,1.75 c -10e-7,0.5176 0.09766,0.8764 0.3125,1.0938 0.217284,0.2148 0.607421,0.3124 1.125,0.3124 l 1.125,0 0,-0.9374 -0.6875,0 c -0.224612,0 -0.36182,-0.028 -0.4375,-0.094 -0.07569,-0.068 -0.125002,-0.1846 -0.125,-0.375 l 0,-1.75 1.34375,0 0,-0.9375 -1.34375,0 0,-1.1563 -1.3125,0 z m 5.4375,1.0626 c -0.70801,0 -1.250978,0.1792 -1.65625,0.5624 -0.402832,0.3833 -0.625,0.9249 -0.625,1.5938 0,0.6812 0.214843,1.2153 0.625,1.5938 0.412596,0.376 0.976561,0.5624 1.71875,0.5624 0.310056,0 0.627438,-0.033 0.9375,-0.094 0.310055,-0.059 0.627437,-0.1641 0.9375,-0.2813 l 0,-1 c -0.30518,0.1661 -0.615726,0.292 -0.90625,0.375 -0.288089,0.081 -0.567874,0.125 -0.84375,0.125 -0.341799,0 -0.590822,-0.096 -0.78125,-0.25 -0.190431,-0.1538 -0.31201,-0.3797 -0.34375,-0.6874 l 3.0625,0 0,-0.375 c -5e-6,-0.6494 -0.205571,-1.1743 -0.59375,-1.5626 -0.385746,-0.3882 -0.886722,-0.5624 -1.53125,-0.5624 z m 5.78125,0 c -0.305179,0 -0.561527,0.063 -0.78125,0.1874 -0.217288,0.1222 -0.394045,0.3253 -0.5625,0.5938 l 0,-0.6875 -1.3125,0 0,4.0937 1.3125,0 0,-1.875 c -2e-6,-0.4027 0.06933,-0.7227 0.25,-0.9374 0.183103,-0.2174 0.444333,-0.3126 0.78125,-0.3126 0.114743,0 0.231442,0 0.34375,0.031 0.114743,0.024 0.229,0.071 0.34375,0.125 l 0,-1.1875 c -0.09766,-0.012 -0.16748,-0.031 -0.21875,-0.031 -0.05127,-0.01 -0.11231,0 -0.15625,0 z m -16.5,0.094 0,4.0937 1.3125,0 0,-4.0937 -1.3125,0 z m 10.71875,0.7813 c 0.234372,0 0.418454,0.065 0.5625,0.2187 0.146476,0.1514 0.218747,0.3447 0.21875,0.5937 l -1.71875,0 c 0.03906,-0.2685 0.153807,-0.4521 0.3125,-0.5937 0.15869,-0.1441 0.371091,-0.2187 0.625,-0.2187 z" />
    </g>
  </g>
</svg>
