<?xml version="1.0" encoding="UTF-8"?>
<svg version="1.1" viewBox="0 0 32 32" xmlns="http://www.w3.org/2000/svg">
 <g transform="translate(0 -1020.4)">
  <g transform="scale(.9969 1.0031)">
   <path d="m16.281 1025.7v2.1874c-0.18067-0.2392-0.37403-0.4188-0.59375-0.5312-0.21729-0.1151-0.4668-0.1562-0.75-0.1562-0.50537 0-0.92529 0.1908-1.25 0.5937-0.32471 0.4004-0.5 0.9302-0.5 1.5625 0 0.6324 0.17529 1.1283 0.5 1.5312 0.32471 0.4005 0.74463 0.625 1.25 0.625 0.28564 0 0.53271-0.075 0.75-0.1874 0.21728-0.1123 0.41308-0.2896 0.59375-0.5313v0.5937h1.3125v-5.6874h-1.3125zm2.5938 0v1.0624h1.3125v-1.0624h-1.3125zm-17.875 0.2187v5.4687h1.3438v-4l1.25 2.9688h0.90625l1.25-2.9688v4h1.3438v-5.4687h-1.8125l-1.25 2.9375-1.25-2.9375h-1.7812zm9.375 1.2813c-0.70801-1e-4 -1.251 0.1792-1.6562 0.5624-0.40283 0.3834-0.625 0.9249-0.625 1.5938-3e-7 0.6812 0.21484 1.2153 0.625 1.5938 0.4126 0.376 0.97656 0.5624 1.7188 0.5624 0.31006 0 0.62744-0.033 0.9375-0.094 0.31006-0.059 0.62744-0.1641 0.9375-0.2813v-1c-0.30518 0.1661-0.61573 0.292-0.90625 0.375-0.28809 0.081-0.56787 0.125-0.84375 0.125-0.3418 0-0.59082-0.096-0.78125-0.25-0.19043-0.1538-0.31201-0.3797-0.34375-0.6874h3.0625v-0.375c-4e-6 -0.6495-0.17432-1.1743-0.5625-1.5626-0.38575-0.3881-0.91797-0.5624-1.5625-0.5624zm12.812 0c-0.28321 0-0.56055 0.025-0.84375 0.062-0.2832 0.034-0.56299 0.057-0.84375 0.125v1c0.20752-0.1123 0.4458-0.1939 0.6875-0.25 0.2417-0.056 0.50049-0.062 0.78125-0.062 0.34668 0 0.58642 0.027 0.75 0.125 0.16357 0.095 0.25 0.2612 0.25 0.4687v0.094h-0.78125c-0.70801 0-1.2305 0.1192-1.5625 0.3438-0.32959 0.2247-0.46875 0.5815-0.46875 1.0625 0 0.3955 0.11133 0.7197 0.375 0.9687 0.26611 0.2466 0.60644 0.375 1.0312 0.375 0.31494 1e-4 0.59277-0.075 0.8125-0.1874 0.21972-0.1147 0.41797-0.2823 0.59375-0.5313v0.5937h1.3125v-2.3437c-4e-6 -0.6568-0.17041-1.1157-0.5-1.4063-0.32715-0.2929-0.85401-0.4374-1.5938-0.4374zm6 0c-0.26856-1e-4 -0.49658 0.041-0.71875 0.1562-0.22217 0.1124-0.42725 0.292-0.625 0.5312v-0.5937h-1.3125v4.0937h1.3125v-2c-2e-6 -0.3734 0.0625-0.6649 0.21875-0.875 0.15625-0.2124 0.38281-0.3437 0.65625-0.3437 0.1123 0 0.19336 0.045 0.28125 0.094 0.08789 0.046 0.16748 0.1025 0.21875 0.1876 0.03906 0.063 0.0791 0.1782 0.09375 0.3124 0.01713 0.1343-4e-6 0.3648 0 0.7188v1.9062h1.3438v-2.5c-5e-6 -0.5542-0.12842-0.9594-0.375-1.25-0.24414-0.2905-0.62012-0.4374-1.0938-0.4374zm-10.312 0.094v4.0937h1.3125v-4.0937h-1.3125zm-8.5 0.7813c0.23437 0 0.41845 0.065 0.5625 0.2187 0.14648 0.1514 0.21875 0.3447 0.21875 0.5937h-1.6875c0.039061-0.2685 0.12256-0.4521 0.28125-0.5937 0.15869-0.1441 0.37109-0.2187 0.625-0.2187zm5.0312 0.062c0.28076 0 0.50976 0.1075 0.65625 0.3126 0.14892 0.2051 0.21875 0.5156 0.21875 0.9062-3e-6 0.3907-0.06983 0.6699-0.21875 0.875-0.14649 0.2051-0.37549 0.3125-0.65625 0.3125-0.27832 0-0.47608-0.1074-0.625-0.3125-0.14649-0.2051-0.21875-0.4843-0.21875-0.875-2e-6 -0.3906 0.07226-0.7012 0.21875-0.9062 0.14892-0.2052 0.34668-0.3126 0.625-0.3126zm7.875 1.4063h0.6875v0.1563c-3e-6 0.266-0.08155 0.478-0.25 0.6562-0.16846 0.1757-0.37842 0.2812-0.625 0.2812-0.19776 0-0.35645-0.063-0.46875-0.1562-0.10986-0.095-0.15625-0.209-0.15625-0.375-2e-6 -0.1807 0.05078-0.3132 0.1875-0.4062 0.13916-0.093 0.35156-0.1563 0.625-0.1563zm-17.219 5.5313v1.0624h1.3125v-1.0624h-1.3125zm2.5938 0v5.6874h1.3125v-5.6874h-1.3125zm-7.6562 0.2188v5.4687h1.4062v-2.3124h2.25v-1.0626h-2.25v-1.0312h2.4062v-1.0625h-3.8125zm10.344 0.2187v1.1563h-0.65625v0.9375h0.65625v1.75c-1e-6 0.5176 0.09766 0.8764 0.3125 1.0938 0.21728 0.2148 0.60742 0.3124 1.125 0.3124h1.125v-0.9374h-0.6875c-0.22461 0-0.36182-0.028-0.4375-0.094-0.07569-0.068-0.125-0.1846-0.125-0.375v-1.75h1.3438v-0.9375h-1.3438v-1.1563h-1.3125zm5.4375 1.0626c-0.70801 0-1.251 0.1792-1.6562 0.5624-0.40283 0.3833-0.625 0.9249-0.625 1.5938 0 0.6812 0.21484 1.2153 0.625 1.5938 0.4126 0.376 0.97656 0.5624 1.7188 0.5624 0.31006 0 0.62744-0.033 0.9375-0.094 0.31006-0.059 0.62744-0.1641 0.9375-0.2813v-1c-0.30518 0.1661-0.61573 0.292-0.90625 0.375-0.28809 0.081-0.56787 0.125-0.84375 0.125-0.3418 0-0.59082-0.096-0.78125-0.25-0.19043-0.1538-0.31201-0.3797-0.34375-0.6874h3.0625v-0.375c-5e-6 -0.6494-0.20557-1.1743-0.59375-1.5626-0.38575-0.3882-0.88672-0.5624-1.5312-0.5624zm5.7812 0c-0.30518 0-0.56153 0.063-0.78125 0.1874-0.21729 0.1222-0.39404 0.3253-0.5625 0.5938v-0.6875h-1.3125v4.0937h1.3125v-1.875c-2e-6 -0.4027 0.06933-0.7227 0.25-0.9374 0.1831-0.2174 0.44433-0.3126 0.78125-0.3126 0.11474 0 0.23144 0 0.34375 0.031 0.11474 0.024 0.229 0.071 0.34375 0.125v-1.1875c-0.09766-0.012-0.16748-0.031-0.21875-0.031-0.05127-0.01-0.11231 0-0.15625 0zm-16.5 0.094v4.0937h1.3125v-4.0937h-1.3125zm10.719 0.7813c0.23437 0 0.41845 0.065 0.5625 0.2187 0.14648 0.1514 0.21875 0.3447 0.21875 0.5937h-1.7188c0.03906-0.2685 0.15381-0.4521 0.3125-0.5937 0.15869-0.1441 0.37109-0.2187 0.625-0.2187z"/>
  </g>
 </g>
</svg>
