<?xml version="1.0" encoding="UTF-8"?>
<svg id="svg2" enable-background="new 0 0 32 32" version="1.1" viewBox="0 0 32 32" xml:space="preserve" xmlns="http://www.w3.org/2000/svg" xmlns:cc="http://creativecommons.org/ns#" xmlns:dc="http://purl.org/dc/elements/1.1/" xmlns:rdf="http://www.w3.org/1999/02/22-rdf-syntax-ns#"><metadata id="metadata24"><rdf:RDF><cc:Work rdf:about=""><dc:format>image/svg+xml</dc:format><dc:type rdf:resource="http://purl.org/dc/dcmitype/StillImage"/><dc:title/></cc:Work></rdf:RDF></metadata><defs id="defs22"><filter id="filter4372" x="-.14399" y="-.14401" width="1.288" height="1.288" color-interpolation-filters="sRGB"><feGaussianBlur id="feGaussianBlur4374" stdDeviation="0.58395096"/></filter></defs><g id="g4151" transform="translate(7.7649 -.43318)" fill="none" stroke="#00a14b" stroke-miterlimit="10" stroke-width="1.5"><path id="path4010" d="m5.7782 4.6341v23.598" color="#000000" enable-background="accumulate"/><path id="path4010-2" d="m10.692 5.4011h-4.746" color="#000000" enable-background="accumulate"/><path id="path4010-2-7" d="m10.692 27.481h-4.746" color="#000000" enable-background="accumulate"/><path id="path4010-2-7-0" d="m8.9293 24.327h-2.9833" color="#000000" enable-background="accumulate"/><path id="path4010-2-7-0-9" d="m8.9293 21.173h-2.9833" color="#000000" enable-background="accumulate"/><path id="path4010-2-7-0-3" d="m8.9293 18.018h-2.9833" color="#000000" enable-background="accumulate"/><path id="path4010-2-7-0-6" d="m8.9293 14.864h-2.9833" color="#000000" enable-background="accumulate"/><path id="path4010-2-7-0-0" d="m8.9293 8.5554h-2.9833" color="#000000" enable-background="accumulate"/><path id="path4010-2-7-0-62" d="m8.9293 11.71h-2.9833" color="#000000" enable-background="accumulate"/></g><path id="path4" d="m17.428 27.52" fill="none" stroke="#00a14b" stroke-miterlimit="10" stroke-width=".6851"/><g id="g4376" transform="translate(1.1034 2.2112)"><path id="path10-6" d="m25.889 15.658h-3.1848v-3.1848c0-0.4645-0.37635-0.84084-0.84084-0.84084-0.4645 0-0.84084 0.37635-0.84084 0.84084v3.1848h-3.1848c-0.46404 0-0.84084 0.37635-0.84084 0.84039 0 0.4645 0.3768 0.84084 0.84084 0.84084h3.1848v3.1843c0 0.46404 0.37635 0.84084 0.84084 0.84084 0.4645 0 0.84084-0.3768 0.84084-0.84084v-3.1843h3.1848c0.46495 0 0.84084-0.37635 0.84084-0.84084 0-0.46404-0.37589-0.84039-0.84084-0.84039z"/><path id="path10-3" d="m26.08 15.867h-3.1848v-3.1848c0-0.4645-0.37635-0.84084-0.84084-0.84084-0.4645 0-0.84084 0.37635-0.84084 0.84084v3.1848h-3.1848c-0.46404 0-0.84084 0.37635-0.84084 0.84039 0 0.4645 0.3768 0.84084 0.84084 0.84084h3.1848v3.1843c0 0.46404 0.37635 0.84084 0.84084 0.84084 0.4645 0 0.84084-0.3768 0.84084-0.84084v-3.1843h3.1848c0.46495 0 0.84084-0.37635 0.84084-0.84084 0-0.46404-0.37589-0.84039-0.84084-0.84039z" filter="url(#filter4372)"/></g></svg>
