<?xml version="1.0" encoding="UTF-8"?>
<svg version="1.1" viewBox="0 0 32 32" xml:space="preserve" xmlns="http://www.w3.org/2000/svg"><defs><filter id="a" x="-.18999" y="-.11594" width="1.38" height="1.2319" color-interpolation-filters="sRGB"><feGaussianBlur stdDeviation="1.239375"/></filter></defs><g transform="translate(1.0614 1.7267)" fill="none" stroke="#f7941e"><path d="m6.6772 1.4184 1.6297 1.6297"/><path d="m5.4495 4.4755h2.3047"/><path d="m6.7995 7.6095 1.6297-1.6297"/><path d="m9.8567 8.8372v-2.3047"/><path d="m12.991 7.4872-1.63-1.6297"/><path d="m14.218 4.43h-2.3047"/><path d="m12.868 1.2961-1.629 1.6296"/><path d="m9.8112 0.068334v2.3047"/></g><path transform="matrix(.83268 0 0 .83268 4.847 1.5811)" d="m6.9515 5.8837v21.469l4.6875-4.6875c1.2861 2.9607 2.596 5.9112 3.875 8.875 1.6799-0.58623 3.0577-1.1237 4.5625-1.6875-1.3552-2.9246-2.7857-5.8158-4.1875-8.7188h6.7188c-5.37-5.312-11.061-10.668-15.655-15.251z" color="#000000" filter="url(#a)" style="block-progression:tb;text-indent:0;text-transform:none"/><path d="m11.349 7.2144v15.891l3.6382-3.6382 3.3172 7.5975 2.9962-1.1236-3.5847-7.437h5.2433z" stroke="#FFF" stroke-width=".83268"/></svg>
