<?xml version="1.0" encoding="UTF-8" standalone="no"?>
<!-- Created with Inkscape (http://www.inkscape.org/) -->

<svg
   xmlns:dc="http://purl.org/dc/elements/1.1/"
   xmlns:cc="http://creativecommons.org/ns#"
   xmlns:rdf="http://www.w3.org/1999/02/22-rdf-syntax-ns#"
   xmlns:svg="http://www.w3.org/2000/svg"
   xmlns="http://www.w3.org/2000/svg"
   xmlns:xlink="http://www.w3.org/1999/xlink"
   xmlns:sodipodi="http://sodipodi.sourceforge.net/DTD/sodipodi-0.dtd"
   xmlns:inkscape="http://www.inkscape.org/namespaces/inkscape"
   version="1.1"
   width="32"
   height="32"
   id="svg2"
   inkscape:version="0.48.5 r10040"
   sodipodi:docname="pixel-intensities.svg">
  <sodipodi:namedview
     pagecolor="#ffffff"
     bordercolor="#666666"
     borderopacity="1"
     objecttolerance="10"
     gridtolerance="10"
     guidetolerance="10"
     inkscape:pageopacity="0"
     inkscape:pageshadow="2"
     inkscape:window-width="1920"
     inkscape:window-height="1098"
     id="namedview22"
     showgrid="false"
     inkscape:zoom="7.375"
     inkscape:cx="-6.3728814"
     inkscape:cy="16"
     inkscape:window-x="0"
     inkscape:window-y="31"
     inkscape:window-maximized="1"
     inkscape:current-layer="svg2" />
  <defs
     id="defs4">
    <linearGradient
       id="linearGradient5736">
      <stop
         id="stop5738"
         style="stop-color:#b32222;stop-opacity:1"
         offset="0" />
      <stop
         offset="0.5"
         style="stop-color:#2e7231;stop-opacity:0.86274511;"
         id="stop3787" />
      <stop
         id="stop5740"
         style="stop-color:#323aac;stop-opacity:0.72549021"
         offset="1" />
    </linearGradient>
    <linearGradient
       id="linearGradient5718">
      <stop
         id="stop5720"
         style="stop-color:#c73232;stop-opacity:1"
         offset="0" />
      <stop
         offset="0.5"
         style="stop-color:#c73232;stop-opacity:1;"
         id="stop3785" />
      <stop
         offset="1"
         style="stop-color:#c73232;stop-opacity:1"
         id="stop3783" />
    </linearGradient>
    <linearGradient
       x1="197.14285"
       y1="384.50504"
       x2="260"
       y2="384.50504"
       id="linearGradient3799-4"
       xlink:href="#linearGradient3793-4"
       gradientUnits="userSpaceOnUse"
       gradientTransform="translate(47.285714,-97.857143)" />
    <linearGradient
       id="linearGradient3793-4">
      <stop
         id="stop3795-7"
         style="stop-color:#ffffff;stop-opacity:1"
         offset="0" />
      <stop
         id="stop3797-5"
         style="stop-color:#ffffff;stop-opacity:0"
         offset="1" />
    </linearGradient>
    <linearGradient
       x1="73.424927"
       y1="868.26868"
       x2="507.42496"
       y2="868.26868"
       id="linearGradient5726"
       xlink:href="#linearGradient5718"
       gradientUnits="userSpaceOnUse"
       gradientTransform="translate(-8,0)" />
    <linearGradient
       inkscape:collect="always"
       xlink:href="#linearGradient5736"
       id="linearGradient3005"
       gradientUnits="userSpaceOnUse"
       gradientTransform="matrix(0.06658909,0,0,0.06595197,-2.0502243,-37.162677)"
       x1="73.424927"
       y1="868.26868"
       x2="507.42496"
       y2="868.26868" />
  </defs>
  <metadata
     id="metadata7">
    <rdf:RDF>
      <cc:Work
         rdf:about="">
        <dc:format>image/svg+xml</dc:format>
        <dc:type
           rdf:resource="http://purl.org/dc/dcmitype/StillImage" />
        <dc:title></dc:title>
      </cc:Work>
    </rdf:RDF>
  </metadata>
  <path
     inkscape:connector-curvature="0"
     style="fill:none;stroke:url(#linearGradient3005);stroke-width:1.679;stroke-linecap:butt;stroke-linejoin:miter;stroke-miterlimit:4;stroke-opacity:1;stroke-dasharray:none"
     id="path3947"
     d="M 3.1802812,33.222479 C 3.6474543,15.273598 8.2638923,27.800124 13.220103,22.500904 c 0,0 2.750566,-2.965397 3.778346,-4.830217 1.02778,-1.86482 2.159152,-12.5758936 8.138967,-10.4002727 5.933069,2.1586146 6.26012,25.8743667 6.26012,25.8743667 z" />
  <g
     style="font-size:399.3052063px;font-style:normal;font-weight:normal;line-height:125%;letter-spacing:0px;word-spacing:0px;fill:#000000;fill-opacity:1;stroke:none;font-family:Sans"
     id="text3968"
     transform="matrix(0.08476172,0,0,0.05181209,-1.5175116,-37.162677)">
    <path
       inkscape:connector-curvature="0"
       style="font-size:200.3052063px;font-variant:normal;font-stretch:normal;font-family:Amiri;-inkscape-font-specification:Amiri"
       id="path2998"
       d="m 83.122694,927.18836 c 5.737847,9e-5 10.954124,1.30416 15.648845,3.91221 4.694571,2.54302 8.411171,5.8684 11.149801,9.97614 2.80366,4.10789 4.92278,8.44392 6.35734,13.0081 1.49959,4.5643 2.24943,9.03074 2.24952,13.39933 -9e-5,6.12917 -1.36936,12.12788 -4.10782,17.99617 -2.67343,5.80313 -6.16181,10.8238 -10.46516,15.06199 -4.303507,4.1731 -9.226368,7.531 -14.768599,10.074 -5.477152,2.5429 -10.954242,3.8144 -16.431286,3.8144 -4.564288,0 -9.12853,-0.7173 -13.692739,-2.1517 -0.52166,0.652 -0.782474,1.4996 -0.782442,2.5429 l 0,18.9742 c -3.2e-5,7.5636 0.325985,12.3886 0.978053,14.4752 0.260781,0.9128 1.890867,1.6626 4.890264,2.2495 3.064524,0.5868 5.542255,0.8802 7.433201,0.8803 0.391175,0.5216 0.586785,1.467 0.586831,2.8363 0.06516,1.3692 -0.130452,2.3147 -0.586831,2.8364 -13.366753,-0.6521 -20.343523,-0.9781 -20.930329,-0.9781 -2.282146,0 -4.499063,0.033 -6.650759,0.098 -2.086528,0.1304 -4.499056,0.2934 -7.237591,0.489 -2.738555,0.1956 -5.020676,0.326 -6.846369,0.3913 -0.456428,-0.5217 -0.68464,-1.4672 -0.684637,-2.8364 0.0652,-1.3693 0.293413,-2.3147 0.684637,-2.8363 1.890896,-10e-5 4.336026,-0.2935 7.335396,-0.8803 3.064551,-0.5869 4.727239,-1.3367 4.988069,-2.2495 0.521611,-1.6301 0.847629,-6.4552 0.978053,-14.4752 l 0,-80.0047 c -1.7e-5,-5.21622 -0.326035,-8.6068 -0.978053,-10.17175 -0.391237,-0.97798 -1.630103,-1.76043 -3.716601,-2.34733 -2.086522,-0.58676 -3.847016,-0.91278 -5.281485,-0.97805 -1.369279,-0.13034 -2.608145,-0.19554 -3.7166,-0.19561 -0.260817,-0.26074 -0.423826,-1.04318 -0.489027,-2.34733 -2e-6,-1.30399 0.163006,-2.21684 0.489027,-2.73855 11.149787,-1.4996 20.473881,-4.23814 27.972309,-8.21564 0.456393,9e-5 0.912817,0.39131 1.369274,1.17366 0.521595,0.78253 0.782409,1.43456 0.782442,1.95611 -3.3e-5,0.0653 -0.228245,1.27155 -0.684637,3.61879 -0.456457,2.2822 -0.684669,3.74928 -0.684637,4.40124 -3.2e-5,0.5217 0.130375,0.78252 0.391221,0.78244 0.130375,8e-5 0.325985,-0.13033 0.586832,-0.39122 3.064529,-2.60806 6.911533,-5.11839 11.541022,-7.531 4.694605,-2.41245 8.802422,-3.61871 12.323465,-3.6188 m -8.411253,11.54102 c -3.781849,8e-5 -7.465844,0.91293 -11.051997,2.73855 -3.586227,1.76057 -5.379322,3.39065 -5.37929,4.89027 l 0,46.94653 c -3.2e-5,4.56426 1.956072,8.08527 5.868317,10.56297 3.977372,2.4777 8.08519,3.7166 12.323465,3.7166 5.151022,0 9.715264,-1.6627 13.692738,-4.9881 4.04255,-3.32534 7.041909,-7.43315 8.998086,-12.32344 1.95603,-4.95543 2.93408,-10.13911 2.93416,-15.55103 -8e-5,-11.21496 -2.640818,-20.01743 -7.922229,-26.40743 -5.216345,-6.38987 -11.704088,-9.58484 -19.46325,-9.58492" />
    <path
       inkscape:connector-curvature="0"
       style="font-size:200.3052063px;font-variant:normal;font-stretch:normal;font-family:Amiri;-inkscape-font-specification:Amiri"
       id="path3000"
       d="m 145.62027,903.8129 c -1.89092,-1.89079 -2.83637,-4.20551 -2.83636,-6.94417 -1e-5,-2.73843 0.94544,-5.05316 2.83636,-6.94418 1.89088,-1.89078 4.2056,-2.83623 6.94417,-2.83635 2.73852,1.2e-4 5.05324,0.94557 6.94418,2.83635 1.89086,1.89102 2.83631,4.20575 2.83635,6.94418 -4e-5,2.73866 -0.94549,5.05338 -2.83635,6.94417 -1.89094,1.89101 -4.20566,2.83646 -6.94418,2.83635 -2.73857,1.1e-4 -5.05329,-0.94534 -6.94417,-2.83635 m 15.94226,45.47945 0,40.88261 c -4e-5,7.56362 0.32598,12.38864 0.97805,14.47514 0.26078,0.9129 1.89086,1.6627 4.89026,2.2496 3.06452,0.5868 5.54226,0.8802 7.4332,0.8802 0.39118,0.5216 0.58679,1.4671 0.58684,2.8364 0.0651,1.3692 -0.13046,2.3147 -0.58684,2.8363 -13.36675,-0.652 -20.34352,-0.978 -20.93032,-0.978 -2.28215,0 -4.49907,0.065 -6.65076,0.1956 -2.08653,0.065 -4.49906,0.1956 -7.23759,0.3912 -2.73856,0.1956 -5.02068,0.326 -6.84637,0.3912 -0.45643,-0.5216 -0.68465,-1.4671 -0.68464,-2.8363 0.0652,-1.3693 0.29341,-2.3148 0.68464,-2.8364 1.89089,0 4.33602,-0.2934 7.33539,-0.8802 3.06455,-0.5869 4.72724,-1.3367 4.98807,-2.2496 0.52161,-1.63 0.84763,-6.45509 0.97805,-14.47514 l 0,-36.38356 c -2e-5,-5.21622 -0.32603,-8.6068 -0.97805,-10.17175 -0.39124,-0.97798 -1.6301,-1.76043 -3.7166,-2.34733 -2.08652,-0.58676 -3.84702,-0.91278 -5.28148,-0.97805 -1.36929,-0.13034 -2.60815,-0.19554 -3.7166,-0.19561 -0.26082,-0.26074 -0.42383,-1.04318 -0.48903,-2.34733 -1e-5,-1.30399 0.163,-2.21684 0.48903,-2.73855 11.14978,-1.4996 20.47387,-4.23814 27.9723,-8.21564 0.45639,9e-5 0.91282,0.39131 1.36928,1.17366 0.52159,0.78253 0.7824,1.43456 0.78244,1.95611 -0.91288,6.39002 -1.36931,10.69345 -1.36927,12.9103 l 0,6.45514" />
    <path
       inkscape:connector-curvature="0"
       style="font-size:200.3052063px;font-variant:normal;font-stretch:normal;font-family:Amiri;-inkscape-font-specification:Amiri"
       id="path3002"
       d="m 202.93416,929.7313 c 5.99869,8e-5 12.58424,-0.32594 19.75667,-0.97805 0.13036,0.65211 0.19556,1.63017 0.19561,2.93415 -5e-5,1.30415 -0.19566,2.217 -0.58684,2.73855 -5.21632,8e-5 -7.82445,1.10854 -7.82442,3.32538 -3e-5,0.4565 0.32598,1.23894 0.97806,2.34733 l 12.91029,20.53911 c 1.04321,-1.69524 2.90151,-4.40118 5.5749,-8.11784 2.73849,-3.71654 4.7924,-6.7485 6.16173,-9.09589 1.43442,-2.34726 2.15166,-4.10775 2.15172,-5.28149 -6e-5,-0.91277 -0.55429,-1.63001 -1.66269,-2.15171 -1.04332,-0.58676 -2.15177,-0.94538 -3.32538,-1.07586 -1.17372,-0.19553 -2.44519,-0.32594 -3.8144,-0.39122 -1.36933,-0.0651 -2.08657,-0.0977 -2.15172,-0.0978 -0.19566,-0.13033 -0.32607,-1.01057 -0.39122,-2.64074 -5e-5,-1.63001 0.13035,-2.64066 0.39122,-3.03196 1.89085,0.0653 4.07516,0.19569 6.55295,0.39122 2.47768,0.19569 4.69459,0.3587 6.65076,0.48902 2.02124,0.0653 4.20556,0.0979 6.55296,0.0978 5.86823,8e-5 11.08451,-0.32594 15.64884,-0.97805 0.13032,0.52171 0.16292,1.59756 0.0978,3.22757 -9e-5,1.63017 -0.0979,2.44521 -0.29342,2.44513 -8.15052,0.4565 -13.17119,1.89098 -15.06201,4.30343 -1.63016,2.2822 -4.10789,5.77058 -7.4332,10.46517 -3.32545,4.62951 -6.06399,8.41131 -8.21565,11.34541 -2.08656,2.93421 -3.39063,4.7273 -3.91221,5.37929 l 23.47327,34.81865 c 3.26009,4.6947 8.28076,7.042 15.06201,7.042 0.13032,0 0.19552,0.4238 0.19561,1.2715 0.0651,0.8476 0.0651,1.7279 0,2.6407 -0.0653,0.9129 -0.1957,1.4997 -0.39122,1.7605 -1.69538,-0.065 -3.71669,-0.1956 -6.06393,-0.3912 -2.34741,-0.1956 -4.46652,-0.326 -6.35734,-0.3912 -1.82578,-0.1304 -3.81448,-0.1956 -5.96612,-0.1956 -2.47781,0 -4.82513,0.065 -7.04198,0.1956 -2.21699,0.065 -4.75992,0.1956 -7.62881,0.3912 -2.80381,0.1956 -5.15113,0.326 -7.04198,0.3912 -0.26087,-0.652 -0.39128,-1.7605 -0.39122,-3.3254 0.0651,-1.5648 0.26076,-2.3473 0.58683,-2.3473 1.89085,-0.1304 3.71654,-0.489 5.47709,-1.0758 1.82564,-0.5869 2.73849,-1.4019 2.73855,-2.4452 -6e-5,-0.2608 -0.13047,-0.652 -0.39122,-1.1736 -6.78122,-11.08462 -11.93229,-19.23505 -15.45323,-24.45136 -0.71729,1.04329 -2.73859,4.01004 -6.06393,8.90028 -3.26021,4.82508 -5.93355,8.90029 -8.02003,12.22566 -0.78248,1.23892 -1.1737,2.47772 -1.17367,3.71662 -3e-5,0.7824 0.26079,1.4671 0.78244,2.0539 0.5216,0.5216 1.36925,0.9454 2.54294,1.2715 1.23884,0.2608 2.18429,0.4564 2.83635,0.5868 0.71721,0.065 1.89087,0.163 3.52099,0.2934 0.45639,0.065 0.81501,0.098 1.07586,0.098 0.13037,0 0.22818,0.4238 0.29342,1.2715 0.0652,0.7824 0.0652,1.6301 0,2.5429 -0.0652,0.9129 -0.22825,1.5323 -0.48903,1.8583 -1.82573,-0.065 -3.87964,-0.1956 -6.16173,-0.3912 -2.28215,-0.1956 -4.36866,-0.326 -6.25954,-0.3912 -1.82572,-0.1304 -3.87963,-0.1956 -6.16173,-0.1956 -2.21694,0 -4.27085,0.065 -6.16173,0.1956 -1.82571,0.065 -3.87962,0.1956 -6.16174,0.3912 -2.28212,0.1956 -4.30343,0.326 -6.06392,0.3912 -0.19561,-0.7824 -0.26082,-1.7931 -0.19561,-3.0319 0.1304,-1.3041 0.32601,-2.1844 0.58683,-2.6408 0.26081,-0.065 1.04325,-0.1956 2.34733,-0.3912 1.30406,-0.1956 2.1517,-0.326 2.54293,-0.3912 0.45642,-0.065 1.27146,-0.1956 2.44513,-0.3913 1.23886,-0.2608 2.11911,-0.489 2.64075,-0.6846 0.58682,-0.2608 1.36926,-0.5868 2.34732,-0.978 0.97804,-0.3913 1.76048,-0.7825 2.34733,-1.1737 0.65202,-0.4564 1.33665,-0.978 2.05391,-1.5649 0.71722,-0.652 1.33665,-1.3367 1.8583,-2.0539 12.12782,-17.47451 18.51776,-26.6682 19.16984,-27.58109 L 196.479,938.72958 c -0.97807,-1.4996 -2.80376,-2.57546 -5.47709,-3.22757 -2.60815,-0.71716 -5.15109,-1.07578 -7.62882,-1.07586 -0.13041,8e-5 -0.22821,-0.39114 -0.29341,-1.17366 -1e-5,-0.78236 0.0326,-1.63001 0.0978,-2.54294 0.0652,-0.91276 0.19561,-1.5648 0.39122,-1.9561 7.17238,0.65211 13.62752,0.97813 19.36545,0.97805" />
    <path
       inkscape:connector-curvature="0"
       style="font-size:300px"
       id="path3004"
       d="m 319.88508,820.38531 c 2.83198,2e-4 14.25775,-0.48808 34.27734,-1.46484 0.68351,0.78144 0.97648,2.19746 0.87891,4.24805 -8e-5,2.05097 -0.29305,3.46698 -0.87891,4.24804 -2.92976,1.9e-4 -6.93367,0.43964 -12.01172,1.31836 -5.07819,0.87909 -7.81256,2.00214 -8.20312,3.36914 -0.97663,3.12518 -1.46491,10.35174 -1.46485,21.67969 l 0,125.09766 c -6e-5,11.32815 0.48822,18.5547 1.46485,21.67969 0.39056,1.3672 3.12493,2.4902 8.20312,3.3691 5.07805,0.879 9.08196,1.3184 12.01172,1.3184 0.58586,0.7813 0.87883,2.1973 0.87891,4.248 0.0976,2.0508 -0.1954,3.4668 -0.87891,4.2481 -20.01959,-0.9766 -31.44536,-1.4649 -34.27734,-1.4649 -3.02739,0 -14.55082,0.4883 -34.57031,1.4649 -0.68361,-0.7813 -1.02541,-2.1973 -1.02539,-4.2481 0.0976,-2.0507 0.43944,-3.4667 1.02539,-4.248 2.92967,0 6.93357,-0.4394 12.01171,-1.3184 5.0781,-0.8789 7.81247,-2.0019 8.20313,-3.3691 0.97653,-3.12499 1.46481,-10.35154 1.46484,-21.67969 l 0,-125.09766 c -3e-5,-11.32795 -0.48831,-18.55451 -1.46484,-21.67969 -0.39066,-1.367 -3.12503,-2.49005 -8.20313,-3.36914 -5.07814,-0.87872 -9.08204,-1.31817 -12.01171,-1.31836 -0.58595,-0.78106 -0.92775,-2.19707 -1.02539,-4.24804 -2e-5,-2.05059 0.34178,-3.46661 1.02539,-4.24805 20.01949,0.97676 31.54292,1.46504 34.57031,1.46484" />
  </g>
</svg>
