<?xml version="1.0" encoding="UTF-8"?>
<svg version="1.1" viewBox="0 0 32 32" xmlns="http://www.w3.org/2000/svg">
<defs>
<linearGradient id="a" x1="73.425" x2="507.42" y1="868.27" y2="868.27" gradientTransform="matrix(.066589 0 0 .065952 -2.0502 -37.163)" gradientUnits="userSpaceOnUse">
<stop stop-color="#b32222" offset="0"/>
<stop stop-color="#2e7231" stop-opacity=".86275" offset=".5"/>
<stop stop-color="#323aac" stop-opacity=".72549" offset="1"/>
</linearGradient>
</defs>
<path d="m3.1803 33.222c0.4672-17.948 5.0836-5.422 10.04-10.721 0 0 2.7506-2.9654 3.7783-4.8302 1.0278-1.8648 2.1592-12.576 8.139-10.4 5.9331 2.1586 6.2601 25.874 6.2601 25.874z" fill="none" stroke="url(#a)" stroke-width="1.679"/>
<g transform="matrix(.084762 0 0 .051812 -1.5175 -37.163)" font-family="Sans" font-size="399.31px" line-height="125%">
<path d="m83.123 927.19c5.7378 9e-5 10.954 1.3042 15.649 3.9122 4.6946 2.543 8.4112 5.8684 11.15 9.9761 2.8037 4.1079 4.9228 8.4439 6.3573 13.008 1.4996 4.5643 2.2494 9.0307 2.2495 13.399-9e-5 6.1292-1.3694 12.128-4.1078 17.996-2.6734 5.8031-6.1618 10.824-10.465 15.062-4.3035 4.1731-9.2264 7.531-14.769 10.074-5.4772 2.5429-10.954 3.8144-16.431 3.8144-4.5643 0-9.1285-0.7173-13.693-2.1517-0.52166 0.652-0.78247 1.4996-0.78244 2.5429v18.974c-3.2e-5 7.5636 0.32598 12.389 0.97805 14.475 0.26078 0.9128 1.8909 1.6626 4.8903 2.2495 3.0645 0.5868 5.5423 0.8802 7.4332 0.8803 0.39118 0.5216 0.58678 1.467 0.58683 2.8363 0.06516 1.3692-0.13045 2.3147-0.58683 2.8364-13.367-0.6521-20.344-0.9781-20.93-0.9781-2.2821 0-4.4991 0.033-6.6508 0.098-2.0865 0.1304-4.4991 0.2934-7.2376 0.489-2.7386 0.1956-5.0207 0.326-6.8464 0.3913-0.45643-0.5217-0.68464-1.4672-0.68464-2.8364 0.0652-1.3693 0.29341-2.3147 0.68464-2.8363 1.8909-1e-4 4.336-0.2935 7.3354-0.8803 3.0646-0.5869 4.7272-1.3367 4.9881-2.2495 0.52161-1.6301 0.84763-6.4552 0.97805-14.475v-80.005c-1.7e-5 -5.2162-0.32604-8.6068-0.97805-10.172-0.39124-0.97798-1.6301-1.7604-3.7166-2.3473-2.0865-0.58676-3.847-0.91278-5.2815-0.97805-1.3693-0.13034-2.6081-0.19554-3.7166-0.19561-0.26082-0.26074-0.42383-1.0432-0.48903-2.3473-2e-6 -1.304 0.16301-2.2168 0.48903-2.7386 11.15-1.4996 20.474-4.2381 27.972-8.2156 0.45639 9e-5 0.91282 0.39131 1.3693 1.1737 0.5216 0.78253 0.78241 1.4346 0.78244 1.9561-3.3e-5 0.0653-0.22824 1.2716-0.68464 3.6188-0.45646 2.2822-0.68467 3.7493-0.68464 4.4012-3.2e-5 0.5217 0.13038 0.78252 0.39122 0.78244 0.13038 8e-5 0.32598-0.13033 0.58683-0.39122 3.0645-2.6081 6.9115-5.1184 11.541-7.531 4.6946-2.4124 8.8024-3.6187 12.323-3.6188m-8.4113 11.541c-3.7818 8e-5 -7.4658 0.91293-11.052 2.7386-3.5862 1.7606-5.3793 3.3906-5.3793 4.8903v46.947c-3.2e-5 4.5643 1.9561 8.0853 5.8683 10.563 3.9774 2.4777 8.0852 3.7166 12.323 3.7166 5.151 0 9.7153-1.6627 13.693-4.9881 4.0426-3.3253 7.0419-7.4332 8.9981-12.323 1.956-4.9554 2.9341-10.139 2.9342-15.551-8e-5 -11.215-2.6408-20.017-7.9222-26.407-5.2163-6.3899-11.704-9.5848-19.463-9.5849"/>
<path d="m145.62 903.81c-1.8909-1.8908-2.8364-4.2055-2.8364-6.9442-1e-5 -2.7384 0.94544-5.0532 2.8364-6.9442 1.8909-1.8908 4.2056-2.8362 6.9442-2.8364 2.7385 1.2e-4 5.0532 0.94557 6.9442 2.8364 1.8909 1.891 2.8363 4.2058 2.8364 6.9442-4e-5 2.7387-0.94549 5.0534-2.8364 6.9442-1.8909 1.891-4.2057 2.8365-6.9442 2.8364-2.7386 1.1e-4 -5.0533-0.94534-6.9442-2.8364m15.942 45.479v40.883c-4e-5 7.5636 0.32598 12.389 0.97805 14.475 0.26078 0.9129 1.8909 1.6627 4.8903 2.2496 3.0645 0.5868 5.5423 0.8802 7.4332 0.8802 0.39118 0.5216 0.58679 1.4671 0.58684 2.8364 0.0651 1.3692-0.13046 2.3147-0.58684 2.8363-13.367-0.652-20.344-0.978-20.93-0.978-2.2822 0-4.4991 0.065-6.6508 0.1956-2.0865 0.065-4.4991 0.1956-7.2376 0.3912-2.7386 0.1956-5.0207 0.326-6.8464 0.3912-0.45643-0.5216-0.68465-1.4671-0.68464-2.8363 0.0652-1.3693 0.29341-2.3148 0.68464-2.8364 1.8909 0 4.336-0.2934 7.3354-0.8802 3.0646-0.5869 4.7272-1.3367 4.9881-2.2496 0.52161-1.63 0.84763-6.4551 0.97805-14.475v-36.384c-2e-5 -5.2162-0.32603-8.6068-0.97805-10.172-0.39124-0.97798-1.6301-1.7604-3.7166-2.3473-2.0865-0.58676-3.847-0.91278-5.2815-0.97805-1.3693-0.13034-2.6082-0.19554-3.7166-0.19561-0.26082-0.26074-0.42383-1.0432-0.48903-2.3473-1e-5 -1.304 0.163-2.2168 0.48903-2.7386 11.15-1.4996 20.474-4.2381 27.972-8.2156 0.45639 9e-5 0.91282 0.39131 1.3693 1.1737 0.52159 0.78253 0.7824 1.4346 0.78244 1.9561-0.91288 6.39-1.3693 10.693-1.3693 12.91v6.4551"/>
<path d="m202.93 929.73c5.9987 8e-5 12.584-0.32594 19.757-0.97805 0.13036 0.65211 0.19556 1.6302 0.19561 2.9342-5e-5 1.3042-0.19566 2.217-0.58684 2.7386-5.2163 8e-5 -7.8244 1.1085-7.8244 3.3254-3e-5 0.4565 0.32598 1.2389 0.97806 2.3473l12.91 20.539c1.0432-1.6952 2.9015-4.4012 5.5749-8.1178 2.7385-3.7165 4.7924-6.7485 6.1617-9.0959 1.4344-2.3473 2.1517-4.1078 2.1517-5.2815-6e-5 -0.91277-0.55429-1.63-1.6627-2.1517-1.0433-0.58676-2.1518-0.94538-3.3254-1.0759-1.1737-0.19553-2.4452-0.32594-3.8144-0.39122-1.3693-0.0651-2.0866-0.0977-2.1517-0.0978-0.19566-0.13033-0.32607-1.0106-0.39122-2.6407-5e-5 -1.63 0.13035-2.6407 0.39122-3.032 1.8908 0.0653 4.0752 0.19569 6.553 0.39122 2.4777 0.19569 4.6946 0.3587 6.6508 0.48902 2.0212 0.0653 4.2056 0.0979 6.553 0.0978 5.8682 8e-5 11.085-0.32594 15.649-0.97805 0.13032 0.52171 0.16292 1.5976 0.0978 3.2276-9e-5 1.6302-0.0979 2.4452-0.29342 2.4451-8.1505 0.4565-13.171 1.891-15.062 4.3034-1.6302 2.2822-4.1079 5.7706-7.4332 10.465-3.3254 4.6295-6.064 8.4113-8.2156 11.345-2.0866 2.9342-3.3906 4.7273-3.9122 5.3793l23.473 34.819c3.2601 4.6947 8.2808 7.042 15.062 7.042 0.13032 0 0.19552 0.4238 0.19561 1.2715 0.0651 0.8476 0.0651 1.7279 0 2.6407-0.0653 0.9129-0.1957 1.4997-0.39122 1.7605-1.6954-0.065-3.7167-0.1956-6.0639-0.3912-2.3474-0.1956-4.4665-0.326-6.3573-0.3912-1.8258-0.1304-3.8145-0.1956-5.9661-0.1956-2.4778 0-4.8251 0.065-7.042 0.1956-2.217 0.065-4.7599 0.1956-7.6288 0.3912-2.8038 0.1956-5.1511 0.326-7.042 0.3912-0.26087-0.652-0.39128-1.7605-0.39122-3.3254 0.0651-1.5648 0.26076-2.3473 0.58683-2.3473 1.8908-0.1304 3.7165-0.489 5.4771-1.0758 1.8256-0.5869 2.7385-1.4019 2.7386-2.4452-6e-5 -0.2608-0.13047-0.652-0.39122-1.1736-6.7812-11.085-11.932-19.235-15.453-24.451-0.71729 1.0433-2.7386 4.01-6.0639 8.9003-3.2602 4.8251-5.9336 8.9003-8.02 12.226-0.78248 1.2389-1.1737 2.4777-1.1737 3.7166-3e-5 0.7824 0.26079 1.4671 0.78244 2.0539 0.5216 0.5216 1.3692 0.9454 2.5429 1.2715 1.2388 0.2608 2.1843 0.4564 2.8364 0.5868 0.71721 0.065 1.8909 0.163 3.521 0.2934 0.45639 0.065 0.81501 0.098 1.0759 0.098 0.13037 0 0.22818 0.4238 0.29342 1.2715 0.0652 0.7824 0.0652 1.6301 0 2.5429-0.0652 0.9129-0.22825 1.5323-0.48903 1.8583-1.8257-0.065-3.8796-0.1956-6.1617-0.3912-2.2822-0.1956-4.3687-0.326-6.2595-0.3912-1.8257-0.1304-3.8796-0.1956-6.1617-0.1956-2.2169 0-4.2708 0.065-6.1617 0.1956-1.8257 0.065-3.8796 0.1956-6.1617 0.3912s-4.3034 0.326-6.0639 0.3912c-0.19561-0.7824-0.26082-1.7931-0.19561-3.0319 0.1304-1.3041 0.32601-2.1844 0.58683-2.6408 0.26081-0.065 1.0432-0.1956 2.3473-0.3912s2.1517-0.326 2.5429-0.3912c0.45642-0.065 1.2715-0.1956 2.4451-0.3913 1.2389-0.2608 2.1191-0.489 2.6408-0.6846 0.58682-0.2608 1.3693-0.5868 2.3473-0.978 0.97804-0.3913 1.7605-0.7825 2.3473-1.1737 0.65202-0.4564 1.3366-0.978 2.0539-1.5649 0.71722-0.652 1.3366-1.3367 1.8583-2.0539 12.128-17.475 18.518-26.668 19.17-27.581l-22.73-33.89c-0.97807-1.4996-2.8038-2.5755-5.4771-3.2276-2.6082-0.71716-5.1511-1.0758-7.6288-1.0759-0.13041 8e-5 -0.22821-0.39114-0.29341-1.1737-1e-5 -0.78236 0.0326-1.63 0.0978-2.5429 0.0652-0.91276 0.19561-1.5648 0.39122-1.9561 7.1724 0.65211 13.628 0.97813 19.365 0.97805"/>
<path d="m319.89 820.39c2.832 2e-4 14.258-0.48808 34.277-1.4648 0.68351 0.78144 0.97648 2.1975 0.87891 4.248-8e-5 2.051-0.29305 3.467-0.87891 4.248-2.9298 1.9e-4 -6.9337 0.43964-12.012 1.3184-5.0782 0.87909-7.8126 2.0021-8.2031 3.3691-0.97663 3.1252-1.4649 10.352-1.4648 21.68v125.1c-6e-5 11.328 0.48822 18.555 1.4648 21.68 0.39056 1.3672 3.1249 2.4902 8.2031 3.3691 5.078 0.879 9.082 1.3184 12.012 1.3184 0.58586 0.7813 0.87883 2.1973 0.87891 4.248 0.0976 2.0508-0.1954 3.4668-0.87891 4.2481-20.02-0.9766-31.445-1.4649-34.277-1.4649-3.0274 0-14.551 0.4883-34.57 1.4649-0.68361-0.7813-1.0254-2.1973-1.0254-4.2481 0.0976-2.0507 0.43944-3.4667 1.0254-4.248 2.9297 0 6.9336-0.4394 12.012-1.3184 5.0781-0.8789 7.8125-2.0019 8.2031-3.3691 0.97653-3.125 1.4648-10.352 1.4648-21.68v-125.1c-3e-5 -11.328-0.48831-18.555-1.4648-21.68-0.39066-1.367-3.125-2.49-8.2031-3.3691-5.0781-0.87872-9.082-1.3182-12.012-1.3184-0.58595-0.78106-0.92775-2.1971-1.0254-4.248-2e-5 -2.0506 0.34178-3.4666 1.0254-4.248 20.019 0.97676 31.543 1.465 34.57 1.4648"/>
</g>
</svg>
