<?xml version="1.0" encoding="utf-8"?>
<!-- Generator: Adobe Illustrator 16.0.0, SVG Export Plug-In . SVG Version: 6.00 Build 0)  -->
<!DOCTYPE svg PUBLIC "-//W3C//DTD SVG 1.1//EN" "http://www.w3.org/Graphics/SVG/1.1/DTD/svg11.dtd" [
	<!ENTITY ns_flows "http://ns.adobe.com/Flows/1.0/">
	<!ENTITY ns_extend "http://ns.adobe.com/Extensibility/1.0/">
	<!ENTITY ns_ai "http://ns.adobe.com/AdobeIllustrator/10.0/">
	<!ENTITY ns_graphs "http://ns.adobe.com/Graphs/1.0/">
]>
<svg version="1.1" id="Layer_1" xmlns:x="&ns_extend;" xmlns:i="&ns_ai;" xmlns:graph="&ns_graphs;"
	 xmlns="http://www.w3.org/2000/svg" xmlns:xlink="http://www.w3.org/1999/xlink" xmlns:a="http://ns.adobe.com/AdobeSVGViewerExtensions/3.0/"
	 x="0px" y="0px" width="32px" height="32px" viewBox="0 0 32 32" enable-background="new 0 0 32 32" xml:space="preserve">
<line fill="none" stroke="#00A14B" stroke-width="1.5" stroke-miterlimit="10" x1="25.942" y1="22.685" x2="7" y2="22.685"/>
<polygon fill="none" stroke="#00A14B" stroke-width="1.5" stroke-miterlimit="10" points="28.467,22.68 25.47,24.417 25.463,20.953 
	"/>
<polygon fill="none" stroke="#00A14B" stroke-width="1.5" stroke-miterlimit="10" points="7,20.953 6.988,24.417 3.993,22.676 "/>
<g>
	<path d="M18.474,19.135l-1.3-1.83c-0.532-0.705-0.873-1.23-1.277-1.815h-0.043c-0.298,0.585-0.66,1.11-1.107,1.815l-1.193,1.83
		H9.847L14,14.02L9.996,9.025h3.728l1.257,1.845c0.426,0.615,0.745,1.11,1.086,1.68h0.043c0.341-0.645,0.618-1.095,0.979-1.68
		l1.215-1.845h3.706l-4.047,4.935l4.26,5.175H18.474z"/>
</g>
</svg>
