<?xml version="1.0" encoding="UTF-8"?>
<svg version="1.1" viewBox="0 0 32 32" xml:space="preserve" xmlns="http://www.w3.org/2000/svg"><path d="m9.872 22.665v-13.441m1.732 13.939-3.464 7e-3 1.737 2.997 1.727-3.004z" fill="none" stroke="#00a14b" stroke-miterlimit="10" stroke-width="2"/><path d="m20.232 22.168v-5.339l-5.746-7.466h3.777l2.186 3.287c0.62 0.95 1.078 1.672 1.564 2.545h0.054c0.458-0.817 0.972-1.615 1.591-2.545l2.186-3.287h3.75l-6.043 7.409v5.396h-3.319z"/><path d="m7.638 12.205c0 1.882-0.738 3.061-2.134 3.061-1.351 0-2.071-1.224-2.08-3.006 0-1.819 0.774-3.043 2.143-3.043 1.414-1e-3 2.071 1.26 2.071 2.988zm-3.097 0.054c-9e-3 1.422 0.387 2.161 1 2.161 0.648 0 0.99-0.792 0.99-2.197 0-1.359-0.324-2.161-0.99-2.161-0.595 1e-3 -1.009 0.73-1 2.197z"/></svg>
