<?xml version="1.0" encoding="UTF-8" standalone="no"?>
<!-- Created with Inkscape (http://www.inkscape.org/) -->

<svg
   xmlns:dc="http://purl.org/dc/elements/1.1/"
   xmlns:cc="http://creativecommons.org/ns#"
   xmlns:rdf="http://www.w3.org/1999/02/22-rdf-syntax-ns#"
   xmlns:svg="http://www.w3.org/2000/svg"
   xmlns="http://www.w3.org/2000/svg"
   xmlns:inkscape="http://www.inkscape.org/namespaces/inkscape"
   version="1.1"
   width="100%"
   height="100%"
   viewBox="0 0 32 32"
   id="svg2"
   xml:space="preserve"><metadata
     id="metadata18"><rdf:RDF><cc:Work
         rdf:about=""><dc:format>image/svg+xml</dc:format><dc:type
           rdf:resource="http://purl.org/dc/dcmitype/StillImage" /></cc:Work></rdf:RDF></metadata><defs
     id="defs16" /><path
     d="M 21.778,18.118 C 20.991,18.343 20.326,17.736 20.101,17.006 19.538,15.43 19.144,13.799 18.751,12.168 18.3,10.537 17.794,8.793 17.175,7.218 16.95,6.768 16.612,5.587 16.274,5.249 15.6,4.686 15.206,5.812 14.924,6.486 c -0.619,1.575 -0.844,3.881 -1.912,5.231 -0.957,1.237 -2.588,0.225 -2.7,1.969 -0.056,1.237 -0.273,2.386 -0.555,3.565 v 8.355 h 12.02 v -7.488 z"
     inkscape:connector-curvature="0"
     id="path4"
     style="fill:#a7a9ac" /><path
     d="m 5.27,24.857 c 1.462,-0.169 1.631,-3.713 2.25,-4.838 0.45,-0.787 0.787,-0.619 1.519,-0.844 0.732,-0.225 0.9,-0.506 1.125,-1.294 0.281,-1.181 0.169,-2.362 0.225,-3.6 0.112,-1.744 1.744,-0.731 2.7,-1.969 1.069,-1.35 1.294,-3.656 1.913,-5.231 0.281,-0.675 0.675,-1.8 1.35,-1.237 0.337,0.337 0.675,1.519 0.899,1.969 0.619,1.575 1.125,3.318 1.576,4.95 0.393,1.631 0.787,3.263 1.35,4.837 0.225,0.731 0.338,1.406 1.125,1.182 0.675,-0.169 0.899,-4.063 1.574,-4.063 0.899,0 1.406,5.582 1.688,6.257 0.563,1.182 1.078,4.186 1.353,2.9 0.882,-4.121 2.028,1.4 2.647,1.345"
     inkscape:connector-curvature="0"
     id="path6"
     style="fill:none;stroke:#000000;stroke-width:1.20000005;stroke-miterlimit:10" /><line
     x1="9.1499996"
     x2="9.1499996"
     y1="7.2129998"
     y2="25.607"
     fill="none"
     stroke="#00A14B"
     stroke-miterlimit="10"
     stroke-width="1.5"
     id="line8"
     style="fill:none;stroke:#00a14b;stroke-width:1.5;stroke-miterlimit:10" /><line
     x1="22.482"
     x2="22.482"
     y1="7.2129998"
     y2="25.607"
     fill="none"
     stroke="#00A651"
     stroke-miterlimit="10"
     stroke-width="1.5"
     id="line10"
     style="fill:none;stroke:#00a651;stroke-width:1.5;stroke-miterlimit:10" /><path
     d="M 9.758,25.607"
     inkscape:connector-curvature="0"
     id="path12"
     style="fill:none;stroke:#000000;stroke-width:1.20000005;stroke-miterlimit:10" /></svg>