<?xml version="1.0" encoding="utf-8"?>
<!-- Generator: Adobe Illustrator 16.0.0, SVG Export Plug-In . SVG Version: 6.00 Build 0)  -->
<!DOCTYPE svg PUBLIC "-//W3C//DTD SVG 1.1//EN" "http://www.w3.org/Graphics/SVG/1.1/DTD/svg11.dtd" [
	<!ENTITY ns_flows "http://ns.adobe.com/Flows/1.0/">
	<!ENTITY ns_extend "http://ns.adobe.com/Extensibility/1.0/">
	<!ENTITY ns_ai "http://ns.adobe.com/AdobeIllustrator/10.0/">
	<!ENTITY ns_graphs "http://ns.adobe.com/Graphs/1.0/">
]>
<svg version="1.1" id="Layer_1" xmlns:x="&ns_extend;" xmlns:i="&ns_ai;" xmlns:graph="&ns_graphs;"
	 xmlns="http://www.w3.org/2000/svg" xmlns:xlink="http://www.w3.org/1999/xlink" xmlns:a="http://ns.adobe.com/AdobeSVGViewerExtensions/3.0/"
	 x="0px" y="0px" width="32px" height="32px" viewBox="0 0 32 32" enable-background="new 0 0 32 32" xml:space="preserve">
<line fill="none" stroke="#00A14B" stroke-width="1.5" stroke-miterlimit="10" x1="25.942" y1="22.685" x2="7" y2="22.685"/>
<polygon fill="none" stroke="#00A14B" stroke-width="1.5" stroke-miterlimit="10" points="28.467,22.68 25.47,24.417 25.463,20.953 
	"/>
<polygon fill="none" stroke="#00A14B" stroke-width="1.5" stroke-miterlimit="10" points="7,20.953 6.988,24.417 3.993,22.676 "/>
<g>
	<path d="M7.395,7.535H9.36v8.444h2.595v1.666h-4.56V7.535z"/>
	<path d="M18.195,13.954c0,3.06-1.696,3.81-2.805,3.81c-1.755,0-2.805-1.379-2.805-3.765c0-2.64,1.38-3.81,2.834-3.81
		C17.145,10.189,18.195,11.644,18.195,13.954z M14.535,13.954c0,1.26,0.195,2.31,0.9,2.31c0.63,0,0.795-1.23,0.795-2.31
		c0-1.005-0.165-2.28-0.825-2.28C14.685,11.674,14.535,12.949,14.535,13.954z"/>
	<path d="M24.719,10.31c-0.029,0.66-0.074,1.44-0.074,2.325v4.185c0,1.576-0.285,2.445-0.885,3.015
		c-0.541,0.51-1.305,0.811-2.385,0.811c-0.676,0-1.305-0.121-1.83-0.346l0.359-1.515c0.375,0.165,0.84,0.315,1.41,0.315
		c0.99,0,1.381-0.66,1.381-1.785v-0.45h-0.031C22.41,17.329,21.9,17.6,21.344,17.6c-1.648,0-2.295-1.8-2.295-3.555
		c0-2.445,1.111-3.855,2.477-3.855c0.584,0,1.064,0.3,1.35,0.855h0.029l0.105-0.735H24.719z M22.695,12.979
		c0-0.195-0.031-0.39-0.076-0.54c-0.09-0.315-0.299-0.6-0.629-0.6c-0.705,0-0.99,0.96-0.99,2.16c0,1.365,0.389,2.055,0.945,2.055
		c0.254,0,0.51-0.135,0.66-0.525c0.059-0.165,0.09-0.39,0.09-0.585V12.979z"/>
</g>
</svg>
