<?xml version="1.0" encoding="UTF-8" standalone="no"?>
<!-- Created with Inkscape (http://www.inkscape.org/) -->

<svg
   xmlns:dc="http://purl.org/dc/elements/1.1/"
   xmlns:cc="http://creativecommons.org/ns#"
   xmlns:rdf="http://www.w3.org/1999/02/22-rdf-syntax-ns#"
   xmlns:svg="http://www.w3.org/2000/svg"
   xmlns="http://www.w3.org/2000/svg"
   xmlns:inkscape="http://www.inkscape.org/namespaces/inkscape"
   version="1.1"
   width="100%"
   height="100%"
   viewBox="0 0 32 32"
   id="svg2"
   xml:space="preserve"><metadata
     id="metadata14"><rdf:RDF><cc:Work
         rdf:about=""><dc:format>image/svg+xml</dc:format><dc:type
           rdf:resource="http://purl.org/dc/dcmitype/StillImage" /></cc:Work></rdf:RDF></metadata><defs
     id="defs12" /><path
     d="M 9.872,22.665 V 9.224 m 1.732,13.939 -3.464,0.007 1.737,2.997 1.727,-3.004 z"
     inkscape:connector-curvature="0"
     id="path4"
     style="fill:none;stroke:#00a14b;stroke-width:2;stroke-miterlimit:10" /><path
     d="M 20.232,22.168 V 16.829 L 14.486,9.363 h 3.777 l 2.186,3.287 c 0.62,0.95 1.078,1.672 1.564,2.545 h 0.054 c 0.458,-0.817 0.972,-1.615 1.591,-2.545 l 2.186,-3.287 h 3.75 l -6.043,7.409 v 5.396 h -3.319 z"
     inkscape:connector-curvature="0"
     id="path6" /><path
     d="m 7.638,12.205 c 0,1.882 -0.738,3.061 -2.134,3.061 -1.351,0 -2.071,-1.224 -2.08,-3.006 0,-1.819 0.774,-3.043 2.143,-3.043 1.414,-0.001 2.071,1.26 2.071,2.988 z m -3.097,0.054 c -0.009,1.422 0.387,2.161 1,2.161 0.648,0 0.99,-0.792 0.99,-2.197 0,-1.359 -0.324,-2.161 -0.99,-2.161 -0.595,0.001 -1.009,0.73 -1,2.197 z"
     inkscape:connector-curvature="0"
     id="path8" /></svg>