<?xml version="1.0" encoding="UTF-8" standalone="no"?>
<!-- Created with Inkscape (http://www.inkscape.org/) -->

<svg
   xmlns:dc="http://purl.org/dc/elements/1.1/"
   xmlns:cc="http://creativecommons.org/ns#"
   xmlns:rdf="http://www.w3.org/1999/02/22-rdf-syntax-ns#"
   xmlns:svg="http://www.w3.org/2000/svg"
   xmlns="http://www.w3.org/2000/svg"
   xmlns:inkscape="http://www.inkscape.org/namespaces/inkscape"
   version="1.1"
   width="100%"
   height="100%"
   viewBox="0 0 32 32"
   id="svg2"
   xml:space="preserve"><metadata
     id="metadata16"><rdf:RDF><cc:Work
         rdf:about=""><dc:format>image/svg+xml</dc:format><dc:type
           rdf:resource="http://purl.org/dc/dcmitype/StillImage" /></cc:Work></rdf:RDF></metadata><defs
     id="defs14" /><line
     x1="25.941999"
     x2="7"
     y1="22.684999"
     y2="22.684999"
     fill="none"
     stroke="#00A14B"
     stroke-miterlimit="10"
     stroke-width="1.5"
     id="line4"
     style="fill:none;stroke:#00a14b;stroke-width:1.5;stroke-miterlimit:10" /><polygon
     points="25.47,24.417 25.463,20.953 28.467,22.68 "
     id="polygon6"
     style="fill:none;stroke:#00a14b;stroke-width:1.5;stroke-miterlimit:10" /><polygon
     points="6.988,24.417 3.993,22.676 7,20.953 "
     id="polygon8"
     style="fill:none;stroke:#00a14b;stroke-width:1.5;stroke-miterlimit:10" /><path
     d="m 18.474,19.135 -1.3,-1.83 C 16.642,16.6 16.301,16.075 15.897,15.49 h -0.043 c -0.298,0.585 -0.66,1.11 -1.107,1.815 l -1.193,1.83 H 9.847 L 14,14.02 9.996,9.025 h 3.728 l 1.257,1.845 c 0.426,0.615 0.745,1.11 1.086,1.68 h 0.043 c 0.341,-0.645 0.618,-1.095 0.979,-1.68 l 1.215,-1.845 h 3.706 l -4.047,4.935 4.26,5.175 h -3.749 z"
     inkscape:connector-curvature="0"
     id="path10" /></svg>