<?xml version="1.0" encoding="UTF-8"?>
<svg enable-background="new 0 0 32 32" version="1.1" viewBox="0 0 32 32" xml:space="preserve" xmlns="http://www.w3.org/2000/svg">
<path d="m5.27 24.857c1.462-0.169 1.631-3.713 2.25-4.838 0.45-0.787 0.787-0.619 1.519-0.844s0.9-0.506 1.125-1.294c0.281-1.181 0.169-2.362 0.225-3.6 0.112-1.744 1.744-0.731 2.7-1.969 1.069-1.35 1.294-3.656 1.913-5.231 0.281-0.675 0.675-1.8 1.35-1.237 0.337 0.337 0.675 1.519 0.899 1.969 0.619 1.575 1.125 3.318 1.576 4.95 0.393 1.631 0.787 3.263 1.35 4.837 0.225 0.731 0.338 1.406 1.125 1.182 0.675-0.169 0.899-4.063 1.574-4.063 0.899 0 1.406 5.582 1.688 6.257 0.563 1.182 1.078 4.186 1.353 2.9 0.882-4.121 2.028 1.4 2.647 1.345" fill="#a7a9ac" stroke="#000" stroke-miterlimit="10" stroke-width="1.2"/>
<path d="m30.971 25.321h-21.412v-20.954h-8.5303" fill-opacity="0" stroke="#f7941e" stroke-width="1px"/><rect transform="scale(-1,1)" x="-9.6281" y="4.4097" width="8.5303" height="21.412" fill="#f7931e" fill-opacity=".4"/></svg>
