<?xml version="1.0" encoding="UTF-8"?>
<svg version="1.1" viewBox="0 0 32 32" xml:space="preserve" xmlns="http://www.w3.org/2000/svg"><g fill="none" stroke="#00a14b" stroke-miterlimit="10" stroke-width="1.5"><line x1="7.354" x2="7.311" y1="26.356" y2="7.414"/><polygon points="5.621 25.888 9.085 25.873 7.365 28.881"/><polygon points="5.579 7.406 7.313 4.407 9.042 7.41"/></g><path d="m10.882 11.535h1.965v8.444h2.595v1.665h-4.56v-10.109z"/><path d="m21.682 17.955c0 3.06-1.695 3.81-2.805 3.81-1.756 0-2.805-1.38-2.805-3.765 0-2.64 1.379-3.81 2.834-3.81 1.726 0 2.776 1.455 2.776 3.765zm-3.661 0c0 1.26 0.195 2.31 0.9 2.31 0.63 0 0.795-1.229 0.795-2.31 0-1.005-0.165-2.28-0.825-2.28-0.719 0-0.87 1.275-0.87 2.28z"/><path d="m28.206 14.31c-0.029 0.66-0.075 1.44-0.075 2.325v4.185c0 1.575-0.284 2.445-0.885 3.015-0.54 0.51-1.305 0.811-2.385 0.811-0.675 0-1.305-0.12-1.83-0.346l0.36-1.514c0.375 0.164 0.84 0.314 1.41 0.314 0.989 0 1.38-0.66 1.38-1.785v-0.449h-0.03c-0.255 0.465-0.765 0.734-1.32 0.734-1.649 0-2.295-1.8-2.295-3.555 0-2.445 1.11-3.855 2.476-3.855 0.585 0 1.064 0.3 1.35 0.855h0.03l0.104-0.735h1.71zm-2.024 2.669c0-0.195-0.03-0.39-0.075-0.54-0.09-0.315-0.3-0.6-0.63-0.6-0.705 0-0.99 0.96-0.99 2.16 0 1.365 0.39 2.055 0.945 2.055 0.255 0 0.51-0.135 0.66-0.525 0.06-0.164 0.09-0.39 0.09-0.584v-1.966z"/></svg>
