<?xml version="1.0" encoding="utf-8"?>
<!-- Generator: Adobe Illustrator 16.0.0, SVG Export Plug-In . SVG Version: 6.00 Build 0)  -->
<!DOCTYPE svg PUBLIC "-//W3C//DTD SVG 1.1//EN" "http://www.w3.org/Graphics/SVG/1.1/DTD/svg11.dtd" [
	<!ENTITY ns_flows "http://ns.adobe.com/Flows/1.0/">
	<!ENTITY ns_extend "http://ns.adobe.com/Extensibility/1.0/">
	<!ENTITY ns_ai "http://ns.adobe.com/AdobeIllustrator/10.0/">
	<!ENTITY ns_graphs "http://ns.adobe.com/Graphs/1.0/">
]>
<svg version="1.1" id="Layer_1" xmlns:x="&ns_extend;" xmlns:i="&ns_ai;" xmlns:graph="&ns_graphs;"
	 xmlns="http://www.w3.org/2000/svg" xmlns:xlink="http://www.w3.org/1999/xlink" xmlns:a="http://ns.adobe.com/AdobeSVGViewerExtensions/3.0/"
	 x="0px" y="0px" width="32px" height="32px" viewBox="0 0 32 32" enable-background="new 0 0 32 32" xml:space="preserve">
<g>
	<line fill="none" stroke="#00A14B" stroke-width="1.5" stroke-miterlimit="10" x1="7.354" y1="26.356" x2="7.311" y2="7.414"/>
	<polygon fill="none" stroke="#00A14B" stroke-width="1.5" stroke-miterlimit="10" points="7.365,28.881 5.621,25.888 9.085,25.873 
			"/>
	<polygon fill="none" stroke="#00A14B" stroke-width="1.5" stroke-miterlimit="10" points="9.042,7.41 5.579,7.406 7.313,4.407 	"/>
</g>
<g>
	<path d="M10.882,11.535h1.965v8.444h2.595v1.665h-4.56V11.535z"/>
	<path d="M21.682,17.955c0,3.06-1.695,3.81-2.805,3.81c-1.756,0-2.805-1.38-2.805-3.765c0-2.64,1.379-3.81,2.834-3.81
		C20.632,14.19,21.682,15.645,21.682,17.955z M18.021,17.955c0,1.26,0.195,2.31,0.9,2.31c0.63,0,0.795-1.229,0.795-2.31
		c0-1.005-0.165-2.28-0.825-2.28C18.172,15.675,18.021,16.95,18.021,17.955z"/>
	<path d="M28.206,14.31c-0.029,0.66-0.075,1.44-0.075,2.325v4.185c0,1.575-0.284,2.445-0.885,3.015
		c-0.54,0.51-1.305,0.811-2.385,0.811c-0.675,0-1.305-0.12-1.83-0.346l0.36-1.514c0.375,0.164,0.84,0.314,1.41,0.314
		c0.989,0,1.38-0.66,1.38-1.785v-0.449h-0.03c-0.255,0.465-0.765,0.734-1.32,0.734c-1.649,0-2.295-1.8-2.295-3.555
		c0-2.445,1.11-3.855,2.476-3.855c0.585,0,1.064,0.3,1.35,0.855h0.03l0.104-0.735H28.206z M26.182,16.979
		c0-0.195-0.03-0.39-0.075-0.54c-0.09-0.315-0.3-0.6-0.63-0.6c-0.705,0-0.99,0.96-0.99,2.16c0,1.365,0.39,2.055,0.945,2.055
		c0.255,0,0.51-0.135,0.66-0.525c0.06-0.164,0.09-0.39,0.09-0.584V16.979z"/>
</g>
</svg>
