<?xml version="1.0" encoding="UTF-8" standalone="no"?>
<!-- Created with Inkscape (http://www.inkscape.org/) -->

<svg
   xmlns:dc="http://purl.org/dc/elements/1.1/"
   xmlns:cc="http://creativecommons.org/ns#"
   xmlns:rdf="http://www.w3.org/1999/02/22-rdf-syntax-ns#"
   xmlns:svg="http://www.w3.org/2000/svg"
   xmlns="http://www.w3.org/2000/svg"
   xmlns:inkscape="http://www.inkscape.org/namespaces/inkscape"
   version="1.1"
   width="100%"
   height="100%"
   viewBox="0 0 32 32"
   id="svg2"
   xml:space="preserve"><metadata
     id="metadata22"><rdf:RDF><cc:Work
         rdf:about=""><dc:format>image/svg+xml</dc:format><dc:type
           rdf:resource="http://purl.org/dc/dcmitype/StillImage" /></cc:Work></rdf:RDF></metadata><defs
     id="defs20" /><g
     id="g4"
     style="fill:none;stroke:#00a14b;stroke-width:1.5;stroke-miterlimit:10"><line
       x1="7.3540001"
       x2="7.3109999"
       y1="26.356001"
       y2="7.414"
       id="line6" /><polygon
       points="5.621,25.888 9.085,25.873 7.365,28.881 "
       id="polygon8" /><polygon
       points="5.579,7.406 7.313,4.407 9.042,7.41 "
       id="polygon10" /></g><path
     d="m 10.882,11.535 h 1.965 v 8.444 h 2.595 v 1.665 h -4.56 V 11.535 z"
     inkscape:connector-curvature="0"
     id="path12" /><path
     d="m 21.682,17.955 c 0,3.06 -1.695,3.81 -2.805,3.81 -1.756,0 -2.805,-1.38 -2.805,-3.765 0,-2.64 1.379,-3.81 2.834,-3.81 1.726,0 2.776,1.455 2.776,3.765 z m -3.661,0 c 0,1.26 0.195,2.31 0.9,2.31 0.63,0 0.795,-1.229 0.795,-2.31 0,-1.005 -0.165,-2.28 -0.825,-2.28 -0.719,0 -0.87,1.275 -0.87,2.28 z"
     inkscape:connector-curvature="0"
     id="path14" /><path
     d="m 28.206,14.31 c -0.029,0.66 -0.075,1.44 -0.075,2.325 v 4.185 c 0,1.575 -0.284,2.445 -0.885,3.015 -0.54,0.51 -1.305,0.811 -2.385,0.811 -0.675,0 -1.305,-0.12 -1.83,-0.346 l 0.36,-1.514 c 0.375,0.164 0.84,0.314 1.41,0.314 0.989,0 1.38,-0.66 1.38,-1.785 v -0.449 h -0.03 c -0.255,0.465 -0.765,0.734 -1.32,0.734 -1.649,0 -2.295,-1.8 -2.295,-3.555 0,-2.445 1.11,-3.855 2.476,-3.855 0.585,0 1.064,0.3 1.35,0.855 h 0.03 l 0.104,-0.735 h 1.71 z m -2.024,2.669 c 0,-0.195 -0.03,-0.39 -0.075,-0.54 -0.09,-0.315 -0.3,-0.6 -0.63,-0.6 -0.705,0 -0.99,0.96 -0.99,2.16 0,1.365 0.39,2.055 0.945,2.055 0.255,0 0.51,-0.135 0.66,-0.525 0.06,-0.164 0.09,-0.39 0.09,-0.584 v -1.966 z"
     inkscape:connector-curvature="0"
     id="path16" /></svg>