<?xml version="1.0" encoding="UTF-8"?>
<svg version="1.1" viewBox="0 0 32 32" xml:space="preserve" xmlns="http://www.w3.org/2000/svg"><line x1="25.942" x2="7" y1="22.685" y2="22.685" fill="none" stroke="#00a14b" stroke-miterlimit="10" stroke-width="1.5"/><polygon points="25.47 24.417 25.463 20.953 28.467 22.68" fill="none" stroke="#00a14b" stroke-miterlimit="10" stroke-width="1.5"/><polygon points="6.988 24.417 3.993 22.676 7 20.953" fill="none" stroke="#00a14b" stroke-miterlimit="10" stroke-width="1.5"/><path d="m7.395 7.535h1.965v8.444h2.595v1.666h-4.56v-10.11z"/><path d="m18.195 13.954c0 3.06-1.696 3.81-2.805 3.81-1.755 0-2.805-1.379-2.805-3.765 0-2.64 1.38-3.81 2.834-3.81 1.726 0 2.776 1.455 2.776 3.765zm-3.66 0c0 1.26 0.195 2.31 0.9 2.31 0.63 0 0.795-1.23 0.795-2.31 0-1.005-0.165-2.28-0.825-2.28-0.72 0-0.87 1.275-0.87 2.28z"/><path d="m24.719 10.31c-0.029 0.66-0.074 1.44-0.074 2.325v4.185c0 1.576-0.285 2.445-0.885 3.015-0.541 0.51-1.305 0.811-2.385 0.811-0.676 0-1.305-0.121-1.83-0.346l0.359-1.515c0.375 0.165 0.84 0.315 1.41 0.315 0.99 0 1.381-0.66 1.381-1.785v-0.45h-0.031c-0.254 0.464-0.764 0.735-1.32 0.735-1.648 0-2.295-1.8-2.295-3.555 0-2.445 1.111-3.855 2.477-3.855 0.584 0 1.064 0.3 1.35 0.855h0.029l0.105-0.735h1.709zm-2.024 2.669c0-0.195-0.031-0.39-0.076-0.54-0.09-0.315-0.299-0.6-0.629-0.6-0.705 0-0.99 0.96-0.99 2.16 0 1.365 0.389 2.055 0.945 2.055 0.254 0 0.51-0.135 0.66-0.525 0.059-0.165 0.09-0.39 0.09-0.585v-1.965z"/></svg>
