<?xml version="1.0" encoding="UTF-8"?>
<svg version="1.1" viewBox="0 0 32 32" xml:space="preserve" xmlns="http://www.w3.org/2000/svg"><line x1="25.942" x2="7" y1="22.685" y2="22.685" fill="none" stroke="#00a14b" stroke-miterlimit="10" stroke-width="1.5"/><polygon points="25.47 24.417 25.463 20.953 28.467 22.68" fill="none" stroke="#00a14b" stroke-miterlimit="10" stroke-width="1.5"/><polygon points="6.988 24.417 3.993 22.676 7 20.953" fill="none" stroke="#00a14b" stroke-miterlimit="10" stroke-width="1.5"/><path d="m18.474 19.135-1.3-1.83c-0.532-0.705-0.873-1.23-1.277-1.815h-0.043c-0.298 0.585-0.66 1.11-1.107 1.815l-1.193 1.83h-3.707l4.153-5.115-4.004-4.995h3.728l1.257 1.845c0.426 0.615 0.745 1.11 1.086 1.68h0.043c0.341-0.645 0.618-1.095 0.979-1.68l1.215-1.845h3.706l-4.047 4.935 4.26 5.175h-3.749z"/></svg>
