<?xml version="1.0" encoding="UTF-8" standalone="no"?>
<!-- Created with Inkscape (http://www.inkscape.org/) -->

<svg
   xmlns:dc="http://purl.org/dc/elements/1.1/"
   xmlns:cc="http://creativecommons.org/ns#"
   xmlns:rdf="http://www.w3.org/1999/02/22-rdf-syntax-ns#"
   xmlns:svg="http://www.w3.org/2000/svg"
   xmlns="http://www.w3.org/2000/svg"
   xmlns:inkscape="http://www.inkscape.org/namespaces/inkscape"
   version="1.1"
   width="100%"
   height="100%"
   viewBox="0 0 32 32"
   id="svg2"
   xml:space="preserve"><metadata
     id="metadata20"><rdf:RDF><cc:Work
         rdf:about=""><dc:format>image/svg+xml</dc:format><dc:type
           rdf:resource="http://purl.org/dc/dcmitype/StillImage" /></cc:Work></rdf:RDF></metadata><defs
     id="defs18" /><line
     x1="25.941999"
     x2="7"
     y1="22.684999"
     y2="22.684999"
     fill="none"
     stroke="#00A14B"
     stroke-miterlimit="10"
     stroke-width="1.5"
     id="line4"
     style="fill:none;stroke:#00a14b;stroke-width:1.5;stroke-miterlimit:10" /><polygon
     points="25.47,24.417 25.463,20.953 28.467,22.68 "
     id="polygon6"
     style="fill:none;stroke:#00a14b;stroke-width:1.5;stroke-miterlimit:10" /><polygon
     points="6.988,24.417 3.993,22.676 7,20.953 "
     id="polygon8"
     style="fill:none;stroke:#00a14b;stroke-width:1.5;stroke-miterlimit:10" /><path
     d="M 7.395,7.535 H 9.36 v 8.444 h 2.595 v 1.666 H 7.395 V 7.535 z"
     inkscape:connector-curvature="0"
     id="path10" /><path
     d="m 18.195,13.954 c 0,3.06 -1.696,3.81 -2.805,3.81 -1.755,0 -2.805,-1.379 -2.805,-3.765 0,-2.64 1.38,-3.81 2.834,-3.81 1.726,0 2.776,1.455 2.776,3.765 z m -3.66,0 c 0,1.26 0.195,2.31 0.9,2.31 0.63,0 0.795,-1.23 0.795,-2.31 0,-1.005 -0.165,-2.28 -0.825,-2.28 -0.72,0 -0.87,1.275 -0.87,2.28 z"
     inkscape:connector-curvature="0"
     id="path12" /><path
     d="m 24.719,10.31 c -0.029,0.66 -0.074,1.44 -0.074,2.325 v 4.185 c 0,1.576 -0.285,2.445 -0.885,3.015 -0.541,0.51 -1.305,0.811 -2.385,0.811 -0.676,0 -1.305,-0.121 -1.83,-0.346 l 0.359,-1.515 c 0.375,0.165 0.84,0.315 1.41,0.315 0.99,0 1.381,-0.66 1.381,-1.785 v -0.45 H 22.664 C 22.41,17.329 21.9,17.6 21.344,17.6 c -1.648,0 -2.295,-1.8 -2.295,-3.555 0,-2.445 1.111,-3.855 2.477,-3.855 0.584,0 1.064,0.3 1.35,0.855 h 0.029 L 23.01,10.31 h 1.709 z m -2.024,2.669 c 0,-0.195 -0.031,-0.39 -0.076,-0.54 -0.09,-0.315 -0.299,-0.6 -0.629,-0.6 -0.705,0 -0.99,0.96 -0.99,2.16 0,1.365 0.389,2.055 0.945,2.055 0.254,0 0.51,-0.135 0.66,-0.525 0.059,-0.165 0.09,-0.39 0.09,-0.585 v -1.965 z"
     inkscape:connector-curvature="0"
     id="path14" /></svg>