<?xml version="1.0" encoding="UTF-8" standalone="no"?>
<!-- Created with Inkscape (http://www.inkscape.org/) -->

<svg
   xmlns:dc="http://purl.org/dc/elements/1.1/"
   xmlns:cc="http://creativecommons.org/ns#"
   xmlns:rdf="http://www.w3.org/1999/02/22-rdf-syntax-ns#"
   xmlns:svg="http://www.w3.org/2000/svg"
   xmlns="http://www.w3.org/2000/svg"
   xmlns:inkscape="http://www.inkscape.org/namespaces/inkscape"
   version="1.1"
   width="100%"
   height="100%"
   viewBox="0 0 32 32"
   id="svg2"
   xml:space="preserve"><metadata
     id="metadata16"><rdf:RDF><cc:Work
         rdf:about=""><dc:format>image/svg+xml</dc:format><dc:type
           rdf:resource="http://purl.org/dc/dcmitype/StillImage" /></cc:Work></rdf:RDF></metadata><defs
     id="defs14" /><line
     x1="10.669"
     x2="10.669"
     y1="9.7259998"
     y2="23.167"
     fill="none"
     stroke="#00A14B"
     stroke-miterlimit="10"
     stroke-width="2"
     id="line4"
     style="fill:none;stroke:#00a14b;stroke-width:2;stroke-miterlimit:10" /><polygon
     points="12.401,9.221 8.938,9.228 10.664,6.224 "
     id="polygon6"
     style="fill:none;stroke:#00a14b;stroke-width:2;stroke-miterlimit:10" /><path
     d="m 21.029,23.168 v -5.339 l -5.746,-7.466 h 3.777 l 2.186,3.287 c 0.62,0.95 1.078,1.672 1.564,2.545 h 0.054 c 0.458,-0.817 0.972,-1.615 1.591,-2.545 l 2.186,-3.287 h 3.75 l -6.043,7.409 v 5.396 h -3.319 z"
     inkscape:connector-curvature="0"
     id="path8" /><path
     d="m 8.435,20.205 c 0,1.883 -0.738,3.061 -2.134,3.061 -1.351,0 -2.071,-1.223 -2.08,-3.006 0,-1.818 0.774,-3.043 2.143,-3.043 1.414,0 2.071,1.26 2.071,2.988 z M 5.338,20.26 c -0.009,1.422 0.387,2.16 1,2.16 0.648,0 0.99,-0.791 0.99,-2.196 0,-1.359 -0.324,-2.161 -0.99,-2.161 -0.595,0 -1.009,0.729 -1,2.197 z"
     inkscape:connector-curvature="0"
     id="path10" /></svg>