<?xml version="1.0" encoding="UTF-8" standalone="no"?>
<!-- Created with Inkscape (http://www.inkscape.org/) -->

<svg
   xmlns:dc="http://purl.org/dc/elements/1.1/"
   xmlns:cc="http://creativecommons.org/ns#"
   xmlns:rdf="http://www.w3.org/1999/02/22-rdf-syntax-ns#"
   xmlns:svg="http://www.w3.org/2000/svg"
   xmlns="http://www.w3.org/2000/svg"
   xmlns:inkscape="http://www.inkscape.org/namespaces/inkscape"
   version="1.1"
   width="100%"
   height="100%"
   viewBox="0 0 32 32"
   id="svg2"
   xml:space="preserve"><metadata
     id="metadata28"><rdf:RDF><cc:Work
         rdf:about=""><dc:format>image/svg+xml</dc:format><dc:type
           rdf:resource="http://purl.org/dc/dcmitype/StillImage" /></cc:Work></rdf:RDF></metadata><defs
     id="defs26" /><radialGradient
     cx="22.443001"
     cy="21.502001"
     r="0"
     id="b"
     gradientUnits="userSpaceOnUse"><stop
       id="stop5"
       style="stop-color:#00aeef;stop-opacity:0.60000002"
       offset="0" /><stop
       id="stop7"
       style="stop-color:#517180;stop-opacity:0.53170002"
       offset="0.6832" /><stop
       id="stop9"
       style="stop-color:#414042;stop-opacity:0.5"
       offset="1" /></radialGradient><path
     d="M 22.443,21.502"
     inkscape:connector-curvature="0"
     id="path11"
     style="fill:url(#b)" /><linearGradient
     x1="22.414"
     y1="21.502001"
     x2="22.473"
     y2="21.502001"
     id="a"
     gradientUnits="userSpaceOnUse"><stop
       id="stop14"
       style="stop-color:#ffffff;stop-opacity:1"
       offset="0" /><stop
       id="stop16"
       style="stop-color:#000000;stop-opacity:1"
       offset="1" /></linearGradient><path
     d="m 22.443,24.002 c 0.038,0 0.038,-5 0,-5 -0.038,0 -0.038,5 0,5 z"
     inkscape:connector-curvature="0"
     id="path18"
     style="fill:url(#a)" /><path
     d="m 8.293,10.899 c 5.462,5.68 10.925,11.36 16.387,17.04 -0.814,-0.847 0.851,-4.115 0,-5 -5.462,-5.68 -10.924,-11.36 -16.387,-17.04 0.814,0.847 -0.851,4.116 0,5 z"
     inkscape:connector-curvature="0"
     id="path20"
     style="fill:#ed1c24" /><path
     d="M 24.452,5.675 C 19.018,11.333 13.583,16.992 8.148,22.65 c -0.851,0.886 0.814,4.152 0,5 5.435,-5.658 10.869,-11.317 16.304,-16.976 0.851,-0.884 -0.814,-4.152 0,-4.999 z"
     inkscape:connector-curvature="0"
     id="path22"
     style="fill:#ed1c24" /></svg>