<?xml version="1.0" encoding="utf-8"?>
<!-- Generator: Adobe Illustrator 16.0.0, SVG Export Plug-In . SVG Version: 6.00 Build 0)  -->
<!DOCTYPE svg PUBLIC "-//W3C//DTD SVG 1.1//EN" "http://www.w3.org/Graphics/SVG/1.1/DTD/svg11.dtd" [
	<!ENTITY ns_flows "http://ns.adobe.com/Flows/1.0/">
	<!ENTITY ns_extend "http://ns.adobe.com/Extensibility/1.0/">
	<!ENTITY ns_ai "http://ns.adobe.com/AdobeIllustrator/10.0/">
	<!ENTITY ns_graphs "http://ns.adobe.com/Graphs/1.0/">
]>
<svg version="1.1" id="Layer_1" xmlns:x="&ns_extend;" xmlns:i="&ns_ai;" xmlns:graph="&ns_graphs;"
	 xmlns="http://www.w3.org/2000/svg" xmlns:xlink="http://www.w3.org/1999/xlink" xmlns:a="http://ns.adobe.com/AdobeSVGViewerExtensions/3.0/"
	 x="0px" y="0px" width="32px" height="32px" viewBox="0 0 32 32" enable-background="new 0 0 32 32" xml:space="preserve">
<g>
	<radialGradient id="SVGID_1_" cx="22.4434" cy="21.502" r="0" gradientUnits="userSpaceOnUse">
		<stop  offset="0" style="stop-color:#00AEEF;stop-opacity:0.6"/>
		<stop  offset="0.6832" style="stop-color:#517180;stop-opacity:0.5317"/>
		<stop  offset="1" style="stop-color:#414042;stop-opacity:0.5"/>
		<a:midPointStop  offset="0" style="stop-color:#00AEEF;stop-opacity:0.6"/>
		<a:midPointStop  offset="0.5054" style="stop-color:#00AEEF;stop-opacity:0.6"/>
		<a:midPointStop  offset="1" style="stop-color:#414042;stop-opacity:0.5"/>
	</radialGradient>
	<path fill="url(#SVGID_1_)" d="M22.443,21.502"/>
	<g>
		<linearGradient id="SVGID_2_" gradientUnits="userSpaceOnUse" x1="22.4141" y1="21.502" x2="22.4727" y2="21.502">
			<stop  offset="0" style="stop-color:#FFFFFF"/>
			<stop  offset="1" style="stop-color:#000000"/>
			<a:midPointStop  offset="0" style="stop-color:#FFFFFF"/>
			<a:midPointStop  offset="0.5" style="stop-color:#FFFFFF"/>
			<a:midPointStop  offset="1" style="stop-color:#000000"/>
		</linearGradient>
		<path fill="url(#SVGID_2_)" d="M22.443,24.002c0.038,0,0.038-5,0-5S22.405,24.002,22.443,24.002L22.443,24.002z"/>
	</g>
</g>
<g>
	<g>
		<path fill="#ED1C24" d="M8.293,10.899c5.462,5.68,10.925,11.36,16.387,17.04c-0.814-0.847,0.851-4.115,0-5
			c-5.462-5.68-10.924-11.36-16.387-17.04C9.107,6.746,7.442,10.015,8.293,10.899L8.293,10.899z"/>
	</g>
</g>
<g>
	<g>
		<path fill="#ED1C24" d="M24.452,5.675C19.018,11.333,13.583,16.992,8.148,22.65c-0.851,0.886,0.814,4.152,0,5
			c5.435-5.658,10.869-11.317,16.304-16.976C25.303,9.79,23.638,6.522,24.452,5.675L24.452,5.675z"/>
	</g>
</g>
</svg>
