<?xml version="1.0" encoding="UTF-8"?>
<svg version="1.1" viewBox="0 0 32 32" xmlns="http://www.w3.org/2000/svg">
 <path d="m18.125 24.869c-0.30058 1.1349-0.6585 2.0533-1.0559 2.6879-0.39744 0.63468-0.83441 0.98564-1.2931 0.98564-1.8347 0-3.322-5.6154-3.322-12.542s1.4873-12.542 3.322-12.542c0.45868 0 0.89564 0.35096 1.2931 0.98564 0.39744 0.63468 0.75536 1.5531 1.0559 2.6879" fill="none" stroke="#000" stroke-linecap="round" stroke-width="2"/>
 <path d="m20.337 11.025c2.0047-0.09094 3.8084-0.12892 5.6292-0.1714l-2.4557 4.9793z"/>
 <path d="m24.361 13.367c1.1349 0.30058 2.0533 0.6585 2.6879 1.0559 0.63468 0.39744 0.98564 0.83441 0.98564 1.2931 0 1.8347-5.6154 3.322-12.542 3.322-6.927 0-12.542-1.4873-12.542-3.322 0-0.45868 0.35096-0.89564 0.98564-1.2931 0.63468-0.39744 1.5531-0.75536 2.6879-1.0559" fill="none" stroke="#000" stroke-linecap="round" stroke-width="2"/>
 <path d="m19.008 11.678c-1.3149-1.516-2.4635-2.9072-3.6262-4.309l5.4288-1.1625z"/>
</svg>
