<?xml version="1.0" encoding="UTF-8"?>
<svg version="1.1" viewBox="0 0 32 32" xml:space="preserve" xmlns="http://www.w3.org/2000/svg"><defs><filter id="a" x="-.15683" y="-.13311" width="1.3137" height="1.2662" color-interpolation-filters="sRGB"><feGaussianBlur stdDeviation="1.292605"/></filter></defs><rect x="6.6" y="6.502" width="19.802" height="19.8" fill="none" stroke="#000" stroke-miterlimit="10"/><path d="m8.124 17.763c4.137 0.876 6.704 5.926 8.52 9.279-0.6-1.106 0.144-3.692 0-5-0.036-0.327-0.072-0.654-0.108-0.982v5c0.322-4.015 2.883-7.747 5.092-10.997 1.146-1.688 3.936-5.991 6.068-6.326 0.292-0.046-0.219-4.966 0-5-1.679 0.264-3.304 2.904-4.336 4.114-2.09 2.449-3.723 5.216-5.227 8.053-1.823 3.438-1.907 7.337-1.49 11.139v-5c-1.815-3.353-4.382-8.403-8.52-9.279 0.303 0.063-0.373 4.919 1e-3 4.999z" filter="url(#a)"/><path d="m7.489 16.747c4.137 0.876 6.704 5.926 8.52 9.279-0.6-1.106 0.144-3.692 0-5-0.036-0.327-0.072-0.654-0.108-0.982v5c0.322-4.015 2.883-7.747 5.092-10.997 1.146-1.688 3.936-5.991 6.068-6.326 0.292-0.046-0.219-4.966 0-5-1.679 0.264-3.304 2.904-4.336 4.114-2.09 2.449-3.723 5.216-5.227 8.053-1.823 3.438-1.907 7.337-1.49 11.139v-5c-1.815-3.353-4.382-8.403-8.52-9.279 0.303 0.063-0.373 4.919 1e-3 4.999z" fill="#00a651"/></svg>
