<?xml version="1.0" encoding="UTF-8" standalone="no"?>
<!-- Created with Inkscape (http://www.inkscape.org/) -->

<svg
   xmlns:dc="http://purl.org/dc/elements/1.1/"
   xmlns:cc="http://creativecommons.org/ns#"
   xmlns:rdf="http://www.w3.org/1999/02/22-rdf-syntax-ns#"
   xmlns:svg="http://www.w3.org/2000/svg"
   xmlns="http://www.w3.org/2000/svg"
   version="1.1"
   width="100%"
   height="100%"
   viewBox="0 0 32 32"
   id="svg3255"
   xml:space="preserve"><metadata
     id="metadata3267"><rdf:RDF><cc:Work
         rdf:about=""><dc:format>image/svg+xml</dc:format><dc:type
           rdf:resource="http://purl.org/dc/dcmitype/StillImage" /><dc:title></dc:title></cc:Work></rdf:RDF></metadata><defs
     id="defs3265"><filter
       x="-0.1568312"
       y="-0.13310958"
       width="1.3136624"
       height="1.2662193"
       color-interpolation-filters="sRGB"
       id="filter4492"><feGaussianBlur
         id="feGaussianBlur4494"
         stdDeviation="1.292605" /></filter></defs><rect
     width="19.802"
     height="19.799999"
     x="6.5999999"
     y="6.5019999"
     id="rect3257"
     style="fill:none;stroke:#000000;stroke-miterlimit:10" /><path
     d="m 8.1240038,17.76283 c 4.1369992,0.876 6.7039992,5.926 8.5199992,9.279 -0.6,-1.106 0.144,-3.692 0,-5 -0.036,-0.327 -0.072,-0.654 -0.108,-0.982 v 5 c 0.322,-4.015 2.883,-7.747 5.092,-10.997 1.146,-1.687999 3.936,-5.9909991 6.068,-6.3259991 0.292,-0.046 -0.219,-4.966 0,-5.0000004 -1.679,0.2640004 -3.304,2.9040004 -4.336,4.1140004 -2.09,2.4490001 -3.723,5.2160001 -5.227,8.0529991 -1.823,3.438 -1.907,7.337 -1.49,11.139 v -5 c -1.815,-3.353 -4.382,-8.402999 -8.5199992,-9.278999 0.303,0.063 -0.373,4.918999 0.001,4.998999 z"
     id="path3261-9"
     style="fill:#000000;filter:url(#filter4492)" /><path
     d="m 7.489,16.747 c 4.137,0.876 6.704,5.926 8.52,9.279 -0.6,-1.106 0.144,-3.692 0,-5 -0.036,-0.327 -0.072,-0.654 -0.108,-0.982 v 5 c 0.322,-4.015 2.883,-7.747 5.092,-10.997 1.146,-1.688 3.936,-5.991 6.068,-6.326 0.292,-0.046 -0.219,-4.966 0,-5 -1.679,0.264 -3.304,2.904 -4.336,4.114 -2.09,2.449 -3.723,5.216 -5.227,8.053 -1.823,3.438 -1.907,7.337 -1.49,11.139 v -5 c -1.815,-3.353 -4.382,-8.403 -8.52,-9.279 0.303,0.063 -0.373,4.919 10e-4,4.999 z"
     id="path3261"
     style="fill:#00a651" /></svg>