<?xml version="1.0" encoding="utf-8"?>
<!-- Generator: Adobe Illustrator 16.0.0, SVG Export Plug-In . SVG Version: 6.00 Build 0)  -->
<!DOCTYPE svg PUBLIC "-//W3C//DTD SVG 1.1//EN" "http://www.w3.org/Graphics/SVG/1.1/DTD/svg11.dtd">
<svg version="1.1" id="Layer_1" xmlns="http://www.w3.org/2000/svg" xmlns:xlink="http://www.w3.org/1999/xlink" x="0px" y="0px"
	 width="46.401px" height="46.401px" viewBox="0 0 46.401 46.401" enable-background="new 0 0 46.401 46.401" xml:space="preserve">
<g>
	<polygon fill="#5A5B5D" points="29.495,28.237 38.689,29.693 39.026,32.153 33.188,36.185 32.301,35.732 31.56,35.929 	"/>
	<path fill="#808285" d="M29.222,26.766c0.057-0.121-2.232-0.209-2.232-0.209L22.8,29.605l4.559,7.404l4.322-1.051L29.222,26.766z"
		/>
	<path fill="#DCDDDE" d="M24.472,1.89c0,0-4.283,2.305-4.828,2.497c-0.546,0.189-4.033,3.568-3.404,3.791
		c0.628,0.223,3.772,1.429,3.772,1.429l6.402-3.714l-0.684-2.37L24.472,1.89"/>
	<path fill="#F8F8F9" d="M16.067,8.177l-1.303,1.925c0,0-0.701,2.221-1.167,3.446c-0.452,1.187-1.11,2.632-1.11,2.632l3.899,3.088
		c0,0,6.086-2.344,5.914-2.23c-0.171,0.114-2.287-7.432-2.287-7.432L16.067,8.177z"/>
	<path fill="#939598" d="M13.61,15.472"/>
	<polygon fill="#DCDDDE" points="9.931,19.558 8.219,24.074 7.666,28 12.923,33.159 15.439,27.157 11.453,23.67 	"/>
	<path fill="#D1D3D4" d="M7.666,28c0,0-0.799,1.539-0.794,2.701c0,1.164,0.396,3.087,0.396,3.087l0.917,2.641l7.346-1.992
		l-2.376-1.278L7.666,28z"/>
	<path fill="#58595B" d="M18.127,39.503l2.523,0.67l5.38,4.701c0,0-8.99,0.824-9.364,0.41c-0.371-0.41,0.659-2.008,0.088-2.408
		C16.183,42.474,18.127,39.503,18.127,39.503z"/>
	<path fill="#D1D3D4" d="M15.439,27.157c0,0-2.625,5.788-2.516,6.001c0.218,0.431,2.607,1.278,2.607,1.278l8.371-5.678
		l-2.844-11.251l-3.067,1.22c0,0-3.294,5.58-3.122,5.347C15.039,23.84,15.439,27.157,15.439,27.157z"/>
	<path fill="#808285" d="M21.058,17.507l0.35-0.081l1.83-0.731c0,0,1.176,1.715,1.119,1.887c-0.059,0.171,2.766,1.713,2.766,1.713
		s-0.021,6.005-0.251,6.261c-0.228,0.258-2.969,2.203-2.969,2.203L21.058,17.507z"/>
	<path fill="#333334" d="M20.299,40.275c0,0,6.674-1.889,6.847-2.002c0.171-0.119,8.016,2.002,8.016,2.002l-1.33,0.883h-1.07
		l-2.747,2.402l-3.984,1.314L20.299,40.275z"/>
	<polygon fill="#515254" points="27.239,37.009 32.301,35.732 38.019,37.826 35.162,40.275 27.35,38.281 	"/>
	<path fill="#464547" d="M32.647,35.91l6.379-3.757c0,0,0.555,2.034,0.566,2.376c0.007,0.348-1.573,3.297-1.573,3.297L32.647,35.91z
		"/>
	<polygon fill="#9FA1A4" points="26.871,21.247 30.071,21.783 32.189,28.826 29.575,28.531 29.104,26.766 26.871,26.556 	"/>
	<path fill="#464547" d="M30.071,21.783l0.207-0.131l5.299-3.419l2.685,5.348c0,0-0.294,4.035-0.01,3.918
		c0.282-0.112,0.437,2.194,0.437,2.194l-6.5-0.867L30.071,21.783z"/>
	<path fill="#939598" d="M26.031,5.748"/>
	<polygon fill="#6D6E71" points="26.241,5.893 27.498,6.494 29.285,8.156 30.071,8.177 30.887,8.967 31.56,10.979 32.49,12.237 
		32.989,14.524 26.241,12.581 	"/>
	<polygon fill="#5A5B5D" points="29.575,15.381 24.156,18.583 26.708,21.247 26.974,21.783 30.071,21.783 35.578,18.233 
		32.989,14.524 	"/>
	<path fill="#939598" d="M26.241,5.893c0,0-6.516,4-6.229,3.714c0.025-0.022,1.757,7.32,2.287,7.432
		c0.458,0.096,0.458,0.096,0.458,0.096l1.599,1.448l0,0l1.436-4.059l0.449-1.943V5.893z"/>
	<path fill="#808285" d="M8.185,36.429l7.579-2.156l2.364,5.23l-1.465,2.957l0.264,0.75l-0.259,2.074l-2.654-1.322l-1.545-1.313
		l-1.486-1.943c0,0-1.011-0.891-1.028-1.203C9.933,39.193,8.185,36.429,8.185,36.429z"/>
	<polygon fill="#EDEDEE" points="12.487,16.18 10.696,17.753 9.931,19.558 11.453,23.67 15.439,27.157 14.869,24.074 17.991,18.727 
		16.386,19.268 	"/>
	<polygon fill="#464547" points="26.241,12.581 25.792,14.524 24.356,18.583 29.575,15.381 32.989,14.524 	"/>
	<path fill="#A7A9AC" d="M22.303,28.826"/>
	<polygon points="31.022,42.675 32.148,39.503 39.094,35.732 38.019,37.826 33.832,41.158 	"/>
	<polygon fill="#515254" points="15.763,34.273 22.682,29.605 27.757,37.009 27.35,38.281 27.35,38.281 20.649,40.173 
		18.127,39.503 	"/>
	<path fill="#939598" d="M11.114,33.878"/>
</g>
<g>
	<g>
		<path fill="#F7941E" stroke="#FFFFFF" stroke-width="0.3" stroke-miterlimit="10" d="M18.264,25.999
			c0,0.965-0.465,1.451-1.394,1.457l-4.407-0.009c-0.978,0.012-1.469,0.259-1.475,0.742c0.012,0.458,0.507,0.685,1.484,0.678h1.421
			c2.914,0.013,4.377,1.237,4.389,3.674c0,2.371-1.46,3.563-4.38,3.574H9.549C8.59,36.11,8.11,35.637,8.11,34.696
			c0.006-0.959,0.482-1.434,1.43-1.42l4.362-0.027c0.977-0.006,1.466-0.254,1.466-0.742c0-0.496-0.495-0.74-1.484-0.734h-1.42
			c-2.902-0.006-4.353-1.2-4.353-3.583v-0.045c0-2.389,1.451-3.587,4.353-3.593h4.353C17.775,24.557,18.258,25.04,18.264,25.999z"/>
	</g>
	<g>
		<path fill="#F7941E" stroke="#FFFFFF" stroke-width="0.3" stroke-miterlimit="10" d="M20.37,24.288
			c0.923,0.006,1.394,0.497,1.411,1.471v8.955c-0.011,0.986-0.476,1.488-1.394,1.508c-0.923-0.025-1.385-0.527-1.385-1.508v-8.946
			C18.996,24.781,19.452,24.288,20.37,24.288z"/>
	</g>
	<circle fill="#F7941E" stroke="#FFFFFF" stroke-width="0.3" stroke-miterlimit="10" cx="20.29" cy="20.567" r="1.689"/>
	<g>
		<path fill="#F7941E" stroke="#FFFFFF" stroke-width="0.3" stroke-miterlimit="10" d="M27.838,24.594
			c0.559-0.001,0.979,0.115,1.263,0.351c0.283,0.236,1.279,1.245,2.986,3.026c1.727-1.82,2.731-2.847,3.014-3.081
			c0.282-0.233,0.702-0.352,1.261-0.353c0.545-0.001,0.964,0.119,1.257,0.36c0.28,0.229,0.421,0.574,0.422,1.035v0.063
			c0.001,0.515-0.295,0.997-0.887,1.445l-2.841,2.923l2.865,2.88c0.587,0.477,0.882,0.938,0.883,1.379
			c0,0.031-0.004,0.064-0.011,0.1v0.119c0.001,0.43-0.134,0.756-0.405,0.98c-0.307,0.25-0.732,0.369-1.277,0.357
			c-0.572,0.008-1.003-0.117-1.293-0.373c-0.291-0.258-1.269-1.258-2.935-3.004c-1.692,1.783-2.681,2.801-2.966,3.053
			s-0.715,0.379-1.287,0.381h-0.042c-0.523,0.002-0.932-0.117-1.226-0.352c-0.28-0.223-0.42-0.551-0.421-0.98l0-0.117
			c-0.007-0.037-0.01-0.07-0.01-0.1c-0.001-0.443,0.291-0.9,0.876-1.375l2.978-2.903l-2.98-2.908
			c-0.595-0.447-0.892-0.928-0.894-1.442v-0.063c-0.001-0.46,0.138-0.806,0.417-1.036C26.875,24.717,27.294,24.595,27.838,24.594z"
			/>
	</g>
	<g>
		<path fill="#F7941E" d="M25.549,35.16c0,0.551-0.45,1-1,1h-0.845c-0.55,0-1-0.449-1-1V15.277c0-0.55,0.45-1,1-1h0.845
			c0.55,0,1,0.45,1,1V35.16z"/>
		<path fill="none" stroke="#FFFFFF" stroke-width="0.3" stroke-miterlimit="10" d="M25.549,35.16c0,0.551-0.45,1-1,1h-0.845
			c-0.55,0-1-0.449-1-1V15.277c0-0.55,0.45-1,1-1h0.845c0.55,0,1,0.45,1,1V35.16z"/>
	</g>
</g>
<g>
</g>
<g>
</g>
<g>
</g>
<g>
</g>
<g>
</g>
<g>
</g>
</svg>
