<?xml version="1.0" encoding="UTF-8"?>
<svg enable-background="new 0 0 46.401 46.401" version="1.1" viewBox="0 0 32 32" xml:space="preserve" xmlns="http://www.w3.org/2000/svg">
<g transform="matrix(.6896 0 0 .6896 -.020788 -.30571)">
	<polygon points="29.495 28.237 38.689 29.693 39.026 32.153 33.188 36.185 32.301 35.732 31.56 35.929" fill="#5a5b5d"/>
	<path d="m29.222 26.766c0.057-0.121-2.232-0.209-2.232-0.209l-4.19 3.048 4.559 7.404 4.322-1.051-2.459-9.192z" fill="#808285"/>
	<path d="m24.472 1.89s-4.283 2.305-4.828 2.497c-0.546 0.189-4.033 3.568-3.404 3.791 0.628 0.223 3.772 1.429 3.772 1.429l6.402-3.714-0.684-2.37-1.258-1.633" fill="#dcddde"/>
	<path d="m16.067 8.177-1.303 1.925s-0.701 2.221-1.167 3.446c-0.452 1.187-1.11 2.632-1.11 2.632l3.899 3.088s6.086-2.344 5.914-2.23c-0.171 0.114-2.287-7.432-2.287-7.432l-3.946-1.429z" fill="#f8f8f9"/>
	<path d="m13.61 15.472" fill="#939598"/>
	<polygon points="9.931 19.558 8.219 24.074 7.666 28 12.923 33.159 15.439 27.157 11.453 23.67" fill="#dcddde"/>
	<path d="m7.666 28s-0.799 1.539-0.794 2.701c0 1.164 0.396 3.087 0.396 3.087l0.917 2.641 7.346-1.992-2.376-1.278-5.489-5.159z" fill="#d1d3d4"/>
	<path d="m18.127 39.503 2.523 0.67 5.38 4.701s-8.99 0.824-9.364 0.41c-0.371-0.41 0.659-2.008 0.088-2.408-0.571-0.402 1.373-3.373 1.373-3.373z" fill="#58595b"/>
	<path d="m15.439 27.157s-2.625 5.788-2.516 6.001c0.218 0.431 2.607 1.278 2.607 1.278l8.371-5.678-2.844-11.251-3.067 1.22s-3.294 5.58-3.122 5.347c0.171-0.234 0.571 3.083 0.571 3.083z" fill="#d1d3d4"/>
	<path d="m21.058 17.507 0.35-0.081 1.83-0.731s1.176 1.715 1.119 1.887c-0.059 0.171 2.766 1.713 2.766 1.713s-0.021 6.005-0.251 6.261c-0.228 0.258-2.969 2.203-2.969 2.203l-2.845-11.252z" fill="#808285"/>
	<path d="m20.299 40.275s6.674-1.889 6.847-2.002c0.171-0.119 8.016 2.002 8.016 2.002l-1.33 0.883h-1.07l-2.747 2.402-3.984 1.314-5.732-4.599z" fill="#333334"/>
	<polygon points="27.35 38.281 27.239 37.009 32.301 35.732 38.019 37.826 35.162 40.275" fill="#515254"/>
	<path d="m32.647 35.91 6.379-3.757s0.555 2.034 0.566 2.376c7e-3 0.348-1.573 3.297-1.573 3.297l-5.372-1.916z" fill="#464547"/>
	<polygon points="26.871 21.247 30.071 21.783 32.189 28.826 29.575 28.531 29.104 26.766 26.871 26.556" fill="#9fa1a4"/>
	<path d="m30.071 21.783 0.207-0.131 5.299-3.419 2.685 5.348s-0.294 4.035-0.01 3.918c0.282-0.112 0.437 2.194 0.437 2.194l-6.5-0.867-2.118-7.043z" fill="#464547"/>
	<path d="m26.031 5.748" fill="#939598"/>
	<polygon points="32.49 12.237 32.989 14.524 26.241 12.581 26.241 5.893 27.498 6.494 29.285 8.156 30.071 8.177 30.887 8.967 31.56 10.979" fill="#6d6e71"/>
	<polygon points="26.974 21.783 30.071 21.783 35.578 18.233 32.989 14.524 29.575 15.381 24.156 18.583 26.708 21.247" fill="#5a5b5d"/>
	<path d="m26.241 5.893s-6.516 4-6.229 3.714c0.025-0.022 1.757 7.32 2.287 7.432 0.458 0.096 0.458 0.096 0.458 0.096l1.599 1.448 1.436-4.059 0.449-1.943v-6.688z" fill="#939598"/>
	<path d="m8.185 36.429 7.579-2.156 2.364 5.23-1.465 2.957 0.264 0.75-0.259 2.074-2.654-1.322-1.545-1.313-1.486-1.943s-1.011-0.891-1.028-1.203c-0.022-0.31-1.77-3.074-1.77-3.074z" fill="#808285"/>
	<polygon points="12.487 16.18 10.696 17.753 9.931 19.558 11.453 23.67 15.439 27.157 14.869 24.074 17.991 18.727 16.386 19.268" fill="#ededee"/>
	<polygon points="32.989 14.524 26.241 12.581 25.792 14.524 24.356 18.583 29.575 15.381" fill="#464547"/>
	<path d="m22.303 28.826" fill="#a7a9ac"/>
	<polygon points="33.832 41.158 31.022 42.675 32.148 39.503 39.094 35.732 38.019 37.826"/>
	<polygon points="27.35 38.281 27.35 38.281 20.649 40.173 18.127 39.503 15.763 34.273 22.682 29.605 27.757 37.009" fill="#515254"/>
	<path d="m11.114 33.878" fill="#939598"/>
		<path d="m18.264 25.999c0 0.965-0.465 1.451-1.394 1.457l-4.407-9e-3c-0.978 0.012-1.469 0.259-1.475 0.742 0.012 0.458 0.507 0.685 1.484 0.678h1.421c2.914 0.013 4.377 1.237 4.389 3.674 0 2.371-1.46 3.563-4.38 3.574h-4.353c-0.959-5e-3 -1.439-0.478-1.439-1.419 6e-3 -0.959 0.482-1.434 1.43-1.42l4.362-0.027c0.977-6e-3 1.466-0.254 1.466-0.742 0-0.496-0.495-0.74-1.484-0.734h-1.42c-2.902-6e-3 -4.353-1.2-4.353-3.583v-0.045c0-2.389 1.451-3.587 4.353-3.593h4.353c0.958 5e-3 1.441 0.488 1.447 1.447z" fill="#f7941e" stroke="#FFF" stroke-miterlimit="10" stroke-width=".3"/>
		<path d="m20.37 24.288c0.923 6e-3 1.394 0.497 1.411 1.471v8.955c-0.011 0.986-0.476 1.488-1.394 1.508-0.923-0.025-1.385-0.527-1.385-1.508v-8.946c-6e-3 -0.987 0.45-1.48 1.368-1.48z" fill="#f7941e" stroke="#FFF" stroke-miterlimit="10" stroke-width=".3"/>
	<circle cx="20.29" cy="20.567" r="1.689" d="m 21.979001,20.566999 c 0,0.932809 -0.756191,1.689 -1.689,1.689 -0.932809,0 -1.689,-0.756191 -1.689,-1.689 0,-0.932809 0.756191,-1.689 1.689,-1.689 0.932809,0 1.689,0.756191 1.689,1.689 z" fill="#f7941e" stroke="#FFF" stroke-miterlimit="10" stroke-width=".3"/>
		<path d="m27.838 24.594c0.559-1e-3 0.979 0.115 1.263 0.351 0.283 0.236 1.279 1.245 2.986 3.026 1.727-1.82 2.731-2.847 3.014-3.081 0.282-0.233 0.702-0.352 1.261-0.353 0.545-1e-3 0.964 0.119 1.257 0.36 0.28 0.229 0.421 0.574 0.422 1.035v0.063c1e-3 0.515-0.295 0.997-0.887 1.445l-2.841 2.923 2.865 2.88c0.587 0.477 0.882 0.938 0.883 1.379 0 0.031-4e-3 0.064-0.011 0.1v0.119c1e-3 0.43-0.134 0.756-0.405 0.98-0.307 0.25-0.732 0.369-1.277 0.357-0.572 8e-3 -1.003-0.117-1.293-0.373-0.291-0.258-1.269-1.258-2.935-3.004-1.692 1.783-2.681 2.801-2.966 3.053s-0.715 0.379-1.287 0.381h-0.042c-0.523 2e-3 -0.932-0.117-1.226-0.352-0.28-0.223-0.42-0.551-0.421-0.98v-0.117c-7e-3 -0.037-0.01-0.07-0.01-0.1-1e-3 -0.443 0.291-0.9 0.876-1.375l2.978-2.903-2.98-2.908c-0.595-0.447-0.892-0.928-0.894-1.442v-0.063c-1e-3 -0.46 0.138-0.806 0.417-1.036 0.29-0.242 0.709-0.364 1.253-0.365z" fill="#f7941e" stroke="#FFF" stroke-miterlimit="10" stroke-width=".3"/>
		<path d="m25.549 35.16c0 0.551-0.45 1-1 1h-0.845c-0.55 0-1-0.449-1-1v-19.883c0-0.55 0.45-1 1-1h0.845c0.55 0 1 0.45 1 1v19.883z" fill="#f7941e"/>
		<path d="m25.549 35.16c0 0.551-0.45 1-1 1h-0.845c-0.55 0-1-0.449-1-1v-19.883c0-0.55 0.45-1 1-1h0.845c0.55 0 1 0.45 1 1v19.883z" fill="none" stroke="#FFF" stroke-miterlimit="10" stroke-width=".3"/>
</g>
</svg>
