<?xml version="1.0" encoding="UTF-8"?>
<svg version="1.1" viewBox="0 0 32 32" xml:space="preserve" xmlns="http://www.w3.org/2000/svg"><g fill="none" stroke="#00a14b" stroke-miterlimit="10" stroke-width="1.5"><line x1="5.098" x2="9.512" y1="9.035" y2="9.035"/><line x1="13.449" x2="19.752" y1="9.035" y2="9.035"/><rect x="9.518" y="7.658" width="3.564" height="2.755"/><rect x="20.006" y="7.658" width="3.563" height="2.755"/><line x1="23.246" x2="27.66" y1="9.035" y2="9.035"/><line x1="5.098" x2="7.656" y1="15.613" y2="15.644"/><rect x="7.088" y="14.236" width="3.564" height="2.754"/><rect x="21.625" y="14.236" width="3.564" height="2.754"/><line x1="11.092" x2="21.625" y1="15.612" y2="15.639"/><path d="m24.611 15.639"/><line x1="5.098" x2="8.449" y1="22.191" y2="22.191"/><line x1="11.829" x2="18.131" y1="22.191" y2="22.191"/><rect x="7.898" y="20.813" width="3.564" height="2.755"/><rect x="18.385" y="20.813" width="3.564" height="2.755"/><line x1="22.437" x2="27.66" y1="22.191" y2="22.191"/><path d="m25.416 15.639"/><path d="m23.208 15.639"/><line x1="24.611" x2="27.543" y1="15.639" y2="15.649"/></g><g fill="none" stroke="#ed1c24" stroke-miterlimit="10" stroke-width="1.8"><line x1="8.126" x2="24.592" y1="7.261" y2="24.037"/><line x1="24.746" x2="7.972" y1="7.416" y2="23.883"/></g></svg>
