<?xml version="1.0" encoding="utf-8"?>
<!-- Generator: Adobe Illustrator 16.0.0, SVG Export Plug-In . SVG Version: 6.00 Build 0)  -->
<!DOCTYPE svg PUBLIC "-//W3C//DTD SVG 1.1//EN" "http://www.w3.org/Graphics/SVG/1.1/DTD/svg11.dtd" [
	<!ENTITY ns_flows "http://ns.adobe.com/Flows/1.0/">
	<!ENTITY ns_extend "http://ns.adobe.com/Extensibility/1.0/">
	<!ENTITY ns_ai "http://ns.adobe.com/AdobeIllustrator/10.0/">
	<!ENTITY ns_graphs "http://ns.adobe.com/Graphs/1.0/">
]>
<svg version="1.1" id="Layer_1" xmlns:x="&ns_extend;" xmlns:i="&ns_ai;" xmlns:graph="&ns_graphs;"
	 xmlns="http://www.w3.org/2000/svg" xmlns:xlink="http://www.w3.org/1999/xlink" xmlns:a="http://ns.adobe.com/AdobeSVGViewerExtensions/3.0/"
	 x="0px" y="0px" width="32px" height="32px" viewBox="0 0 32 32" enable-background="new 0 0 32 32" xml:space="preserve">
<path stroke="#FFFFFF" stroke-width="0.51" stroke-miterlimit="10" d="M18.462,31.115"/>
<g>
	
		<rect x="2.396" y="4.57" fill="none" stroke="#000000" stroke-width="0.21" stroke-miterlimit="10" width="28.273" height="21.512"/>
	<rect x="2.396" y="4.57" fill="#E6E7E8" width="28.273" height="21.512"/>
</g>
<g>
	<path fill="#800000018000000180000001" stroke="#000000" stroke-width="0.2" stroke-miterlimit="10" d="M3.264,19.466
		c0.511,0.324,1.277,0.606,2.082,0.606c1.009,0,1.571-0.521,1.571-1.296c0-0.719-0.434-1.141-1.532-1.577
		c-1.418-0.564-2.325-1.395-2.325-2.761c0-1.549,1.175-2.732,3.04-2.732c0.933,0,1.622,0.226,2.069,0.479l-0.383,1.394
		c-0.307-0.183-0.907-0.451-1.711-0.451c-0.996,0-1.43,0.592-1.43,1.141c0,0.732,0.498,1.07,1.647,1.563
		c1.494,0.62,2.222,1.451,2.222,2.817c0,1.521-1.047,2.845-3.27,2.845c-0.907,0-1.852-0.281-2.325-0.592L3.264,19.466z"/>
	<path fill="#800000018000000180000001" stroke="#000000" stroke-width="0.2" stroke-miterlimit="10" d="M9.929,11.988
		c0.562-0.113,1.341-0.197,2.401-0.197c1.15,0,1.993,0.268,2.542,0.775c0.511,0.464,0.843,1.211,0.843,2.098
		c0,0.901-0.255,1.648-0.741,2.155c-0.626,0.69-1.609,1.015-2.72,1.015c-0.294,0-0.562-0.015-0.767-0.057v3.577H9.929V11.988z
		 M11.487,16.41c0.191,0.056,0.447,0.07,0.767,0.07c1.175,0,1.89-0.634,1.89-1.747c0-1.056-0.664-1.62-1.75-1.62
		c-0.434,0-0.741,0.042-0.907,0.084V16.41z"/>
	<path fill="#800000018000000180000001" stroke="#000000" stroke-width="0.2" stroke-miterlimit="10" d="M21.881,17.143h-3.243
		v2.788h3.627v1.423h-5.198v-9.493h5.007v1.423h-3.436v2.45h3.243V17.143z"/>
	<path fill="#800000018000000180000001" stroke="#000000" stroke-width="0.2" stroke-miterlimit="10" d="M29.811,21.072
		c-0.37,0.211-1.188,0.422-2.222,0.422c-2.733,0-4.394-1.887-4.394-4.774c0-3.126,1.967-5.014,4.598-5.014
		c1.034,0,1.775,0.239,2.095,0.422l-0.345,1.38c-0.409-0.197-0.971-0.366-1.687-0.366c-1.749,0-3.014,1.211-3.014,3.493
		c0,2.084,1.111,3.422,3.001,3.422c0.639,0,1.303-0.141,1.712-0.352L29.811,21.072z"/>
</g>
<rect x="2.396" y="4.678" fill="#FFFFFF" stroke="#000000" stroke-width="0.2" stroke-miterlimit="10" width="28.273" height="2.881"/>
</svg>
