<?xml version="1.0" encoding="UTF-8" standalone="no"?>
<!-- Created with Inkscape (http://www.inkscape.org/) -->

<svg
   xmlns:dc="http://purl.org/dc/elements/1.1/"
   xmlns:cc="http://creativecommons.org/ns#"
   xmlns:rdf="http://www.w3.org/1999/02/22-rdf-syntax-ns#"
   xmlns:svg="http://www.w3.org/2000/svg"
   xmlns="http://www.w3.org/2000/svg"
   xmlns:inkscape="http://www.inkscape.org/namespaces/inkscape"
   version="1.1"
   width="100%"
   height="100%"
   viewBox="0 0 32 32"
   id="svg2"
   xml:space="preserve"><metadata
     id="metadata26"><rdf:RDF><cc:Work
         rdf:about=""><dc:format>image/svg+xml</dc:format><dc:type
           rdf:resource="http://purl.org/dc/dcmitype/StillImage" /></cc:Work></rdf:RDF></metadata><defs
     id="defs24" /><path
     d="M 18.462,31.115"
     inkscape:connector-curvature="0"
     id="path4"
     style="stroke:#ffffff;stroke-width:0.50999999;stroke-miterlimit:10" /><rect
     width="28.273001"
     height="21.511999"
     x="2.3959999"
     y="4.5700002"
     id="rect6"
     style="fill:none;stroke:#000000;stroke-width:0.20999999;stroke-miterlimit:10" /><rect
     width="28.273001"
     height="21.511999"
     x="2.3959999"
     y="4.5700002"
     id="rect8"
     style="fill:#e6e7e8" /><g
     id="g10"
     style="stroke:#000000;stroke-width:0.2;stroke-miterlimit:10"><path
       d="m 3.264,19.466 c 0.511,0.324 1.277,0.606 2.082,0.606 1.009,0 1.571,-0.521 1.571,-1.296 0,-0.719 -0.434,-1.141 -1.532,-1.577 C 3.967,16.635 3.06,15.804 3.06,14.438 c 0,-1.549 1.175,-2.732 3.04,-2.732 0.933,0 1.622,0.226 2.069,0.479 L 7.786,13.579 C 7.479,13.396 6.879,13.128 6.075,13.128 c -0.996,0 -1.43,0.592 -1.43,1.141 0,0.732 0.498,1.07 1.647,1.563 1.494,0.62 2.222,1.451 2.222,2.817 0,1.521 -1.047,2.845 -3.27,2.845 -0.907,0 -1.852,-0.281 -2.325,-0.592 l 0.345,-1.436 z"
       inkscape:connector-curvature="0"
       id="path12" /><path
       d="m 9.929,11.988 c 0.562,-0.113 1.341,-0.197 2.401,-0.197 1.15,0 1.993,0.268 2.542,0.775 0.511,0.464 0.843,1.211 0.843,2.098 0,0.901 -0.255,1.648 -0.741,2.155 -0.626,0.69 -1.609,1.015 -2.72,1.015 -0.294,0 -0.562,-0.015 -0.767,-0.057 v 3.577 H 9.929 v -9.366 z m 1.558,4.422 c 0.191,0.056 0.447,0.07 0.767,0.07 1.175,0 1.89,-0.634 1.89,-1.747 0,-1.056 -0.664,-1.62 -1.75,-1.62 -0.434,0 -0.741,0.042 -0.907,0.084 v 3.213 z"
       inkscape:connector-curvature="0"
       id="path14" /><path
       d="m 21.881,17.143 h -3.243 v 2.788 h 3.627 v 1.423 h -5.198 v -9.493 h 5.007 v 1.423 h -3.436 v 2.45 h 3.243 v 1.409 z"
       inkscape:connector-curvature="0"
       id="path16" /><path
       d="m 29.811,21.072 c -0.37,0.211 -1.188,0.422 -2.222,0.422 -2.733,0 -4.394,-1.887 -4.394,-4.774 0,-3.126 1.967,-5.014 4.598,-5.014 1.034,0 1.775,0.239 2.095,0.422 l -0.345,1.38 c -0.409,-0.197 -0.971,-0.366 -1.687,-0.366 -1.749,0 -3.014,1.211 -3.014,3.493 0,2.084 1.111,3.422 3.001,3.422 0.639,0 1.303,-0.141 1.712,-0.352 l 0.256,1.367 z"
       inkscape:connector-curvature="0"
       id="path18" /></g><rect
     width="28.273001"
     height="2.881"
     x="2.3959999"
     y="4.678"
     id="rect20"
     style="fill:#ffffff;stroke:#000000;stroke-width:0.2;stroke-miterlimit:10" /></svg>