<?xml version="1.0" encoding="UTF-8"?>
<svg version="1.1" viewBox="0 0 32 32" xml:space="preserve" xmlns="http://www.w3.org/2000/svg"><path d="m18.462 31.115" stroke="#fff" stroke-miterlimit="10" stroke-width=".51"/><rect x="2.396" y="4.57" width="28.273" height="21.512" fill="none" stroke="#000" stroke-miterlimit="10" stroke-width=".21"/><rect x="2.396" y="4.57" width="28.273" height="21.512" fill="#e6e7e8"/><g stroke="#000" stroke-miterlimit="10" stroke-width=".2"><path d="m3.264 19.466c0.511 0.324 1.277 0.606 2.082 0.606 1.009 0 1.571-0.521 1.571-1.296 0-0.719-0.434-1.141-1.532-1.577-1.418-0.564-2.325-1.395-2.325-2.761 0-1.549 1.175-2.732 3.04-2.732 0.933 0 1.622 0.226 2.069 0.479l-0.383 1.394c-0.307-0.183-0.907-0.451-1.711-0.451-0.996 0-1.43 0.592-1.43 1.141 0 0.732 0.498 1.07 1.647 1.563 1.494 0.62 2.222 1.451 2.222 2.817 0 1.521-1.047 2.845-3.27 2.845-0.907 0-1.852-0.281-2.325-0.592l0.345-1.436z"/><path d="m9.929 11.988c0.562-0.113 1.341-0.197 2.401-0.197 1.15 0 1.993 0.268 2.542 0.775 0.511 0.464 0.843 1.211 0.843 2.098 0 0.901-0.255 1.648-0.741 2.155-0.626 0.69-1.609 1.015-2.72 1.015-0.294 0-0.562-0.015-0.767-0.057v3.577h-1.558v-9.366zm1.558 4.422c0.191 0.056 0.447 0.07 0.767 0.07 1.175 0 1.89-0.634 1.89-1.747 0-1.056-0.664-1.62-1.75-1.62-0.434 0-0.741 0.042-0.907 0.084v3.213z"/><path d="m21.881 17.143h-3.243v2.788h3.627v1.423h-5.198v-9.493h5.007v1.423h-3.436v2.45h3.243v1.409z"/><path d="m29.811 21.072c-0.37 0.211-1.188 0.422-2.222 0.422-2.733 0-4.394-1.887-4.394-4.774 0-3.126 1.967-5.014 4.598-5.014 1.034 0 1.775 0.239 2.095 0.422l-0.345 1.38c-0.409-0.197-0.971-0.366-1.687-0.366-1.749 0-3.014 1.211-3.014 3.493 0 2.084 1.111 3.422 3.001 3.422 0.639 0 1.303-0.141 1.712-0.352l0.256 1.367z"/></g><rect x="2.396" y="4.678" width="28.273" height="2.881" fill="#fff" stroke="#000" stroke-miterlimit="10" stroke-width=".2"/></svg>
