<?xml version="1.0" encoding="UTF-8"?>
<svg id="svg2987" enable-background="new 0 0 32 32" version="1.1" viewBox="0 0 32 32" xml:space="preserve" xmlns="http://www.w3.org/2000/svg" xmlns:cc="http://creativecommons.org/ns#" xmlns:dc="http://purl.org/dc/elements/1.1/" xmlns:rdf="http://www.w3.org/1999/02/22-rdf-syntax-ns#"><metadata id="metadata2995"><rdf:RDF><cc:Work rdf:about=""><dc:format>image/svg+xml</dc:format><dc:type rdf:resource="http://purl.org/dc/dcmitype/StillImage"/></cc:Work></rdf:RDF></metadata><path id="path5125" d="m24.034 16.263 5.7455-6.4415a1.7413 1.7413 0 0 0-1.2812-2.9375 1.7413 1.7413 0 0 0-1.3125 0.625l-3.1526 3.5345" color="#000000" enable-background="accumulate" fill="#8a8a8a" fill-opacity=".37647" style="block-progression:tb;text-indent:0;text-transform:none"/><path id="path5121" d="m7.9617 14.57a1.7413 1.7413 0 0 0-0.025932 0.03312l-5.8125 7.6875a1.7413 1.7413 0 1 0 2.7813 2.0938l3.0598-4.0333" color="#000000" enable-background="accumulate" fill="#8a8a8a" fill-opacity=".37647" style="block-progression:tb;text-indent:0;text-transform:none"/><path id="path3017-6" d="m24.033 11.044-6.9099 7.7468-6.8125-4.5625c-0.80859-0.51948-1.7051-0.48094-2.3491 0.34188l0.00258 5.781 1.7527-2.3104 6.6875 4.5c0.69149 0.47122 1.7249 0.34381 2.2812-0.28125l5.3482-5.996" color="#000000" enable-background="accumulate" fill="#f7941e" style="block-progression:tb;text-indent:0;text-transform:none"/><rect id="rect3926" x="7.9679" y="6.6663" width="16.064" height="18.667" color="#000000" enable-background="accumulate" fill="none" stroke="#000" stroke-miterlimit="10" stroke-width="1.1607"/></svg>
