<?xml version="1.0" encoding="UTF-8"?>
<svg id="svg36" enable-background="new 0 0 32 32" version="1.1" viewBox="0 0 32 32" xml:space="preserve" xmlns="http://www.w3.org/2000/svg" xmlns:cc="http://creativecommons.org/ns#" xmlns:dc="http://purl.org/dc/elements/1.1/" xmlns:rdf="http://www.w3.org/1999/02/22-rdf-syntax-ns#"><metadata id="metadata42"><rdf:RDF><cc:Work rdf:about=""><dc:format>image/svg+xml</dc:format><dc:type rdf:resource="http://purl.org/dc/dcmitype/StillImage"/></cc:Work></rdf:RDF></metadata>
<g id="g16" transform="rotate(-90 14.865 24.209)"><g id="g14" transform="matrix(1.2615 0 0 1.1339 -31.185 -5.3706)"><path id="path12" d="m37.374 15.523-5.0575 5.0575 5.0575 5.0575v-3.9367h16.103l0.098202-1.1207-0.098202-1.1207h-16.103z" stroke-width="1.5712"/></g><g id="text867-3" transform="matrix(0 1.0925 -.91533 0 0 0)" aria-label="a"><path id="path821" d="m29.574-30.472v-2.989q0-0.30586-0.19464-0.30586-0.097317 0-0.83415 0.36146-2.3634 1.1817-2.3634 3.0864 0 0.68122 0.43098 1.1122 0.44488 0.41707 1.2234 0.41707 0.5561 0 1.14-0.5839 0.59781-0.59781 0.59781-1.0983zm4.1568 1.0566q0.30586 0.041707 0.40317 0.41707 0 0.041708-0.013903 0.069513-0.57 0.95927-1.0566 1.2512t-1.279 0.29195q-1.4598 0-1.9742-1.8907-1.0566 1.0566-1.6822 1.4737-0.62561 0.41707-1.8351 0.41707-0.77854 0-1.2929-0.43098-0.51439-0.43098-0.73683-0.98708-0.20854-0.57-0.20854-1.1539t0.27805-1.14q0.27805-0.57 0.80634-1.0149 0.5422-0.45878 0.93147-0.66732l3.2254-1.7934q0.27805-0.15293 0.27805-0.44488v-2.5164q0-1.2234-1.849-1.2234-1.3485 0-1.8768 0.69512-0.069513 0.097317-0.20854 1.2929-0.16683 1.3763-0.95927 1.3763-0.76464 0-0.76464-0.77854t0.5561-1.5571q0.57-0.79244 0.97317-1.0288 1.7795-1.0427 3.42-1.0427 0.98708 0 1.9046 0.5561 0.93147 0.5561 0.93147 1.3763v7.3961q0 1.5988 0.93147 1.5988 0.26415 0 1.001-0.51439 0.041707-0.027805 0.097317-0.027805z" stroke-width=".71181"/></g>
<g id="text867-3-8" transform="matrix(0 1.0925 -.91533 0 0 0)" aria-label="z"><path id="path818" d="m33.625-16.008q-0.43098 3.1837-0.43098 3.6981 0 0.51439-0.37537 0.51439-0.13902 0-0.95927-0.19464-0.80634-0.18073-1.3068-0.18073h-5.839q-0.23634 0-0.23634-0.19464 0-0.083414 0.027805-0.12512l5.5332-10.135q0.11122-0.20854 0.11122-0.31976 0-0.25024-0.40317-0.25024h-2.1966q-0.76464 0-1.2929 0.66732-0.51439 0.65342-1.3763 2.5303-0.041707 0.05561-0.097317 0.05561-0.041708 0-0.13902-0.041708-0.083415-0.041707-0.083415-0.097317l0.51439-3.712q0.041707-0.31976 0.12512-0.38927 0.083415-0.083415 0.19464-0.083415l1.432 0.22244q0.36146 0.05561 1.0705 0.05561h4.8103q0.20854 0 0.20854 0.097317 0 0.097318-0.069513 0.22244l-5.5193 10.051q-0.083415 0.15293-0.083415 0.25024 0 0.25024 0.37537 0.30585t1.6822 0.05561q1.3207 0 2.0854-0.50049 0.77854-0.50049 1.6683-2.6276 0.05561-0.083415 0.13902-0.083415 0.097318 0 0.26415 0.05561 0.16683 0.041707 0.16683 0.15293z" stroke-width=".71181"/></g>
</g></svg>
