<?xml version="1.0" encoding="UTF-8"?>
<svg version="1.1" viewBox="0 0 32 32" xmlns="http://www.w3.org/2000/svg">
 <rect x="3.4068" y="7.339" width="25.219" height="16.007" ry="0" fill="#f7941e" fill-opacity=".81569" stroke="#000" stroke-miterlimit="2" stroke-width="1.4"/>
 <g transform="matrix(.89445 0 0 .89445 1.3024 .77355)">
  <path d="m8.9353 15.017v-3.1925h0.96935v8.1973h-0.96935v-0.88506c-0.20371 0.35121-0.46185 0.61287-0.77443 0.78496-0.30907 0.16858-0.68136 0.25287-1.1169 0.25287-0.71297 0-1.2942-0.28448-1.7438-0.85345-0.44604-0.56896-0.66906-1.317-0.66906-2.2443-6e-7 -0.9272 0.22302-1.6753 0.66906-2.2443 0.44955-0.56896 1.0308-0.85344 1.7438-0.85345 0.4355 7e-6 0.80779 0.08605 1.1169 0.25814 0.31258 0.16859 0.57072 0.42849 0.77443 0.77969m-3.3032 2.0599c-1.6e-6 0.71297 0.14575 1.2732 0.43726 1.6806 0.29502 0.4039 0.69891 0.60584 1.2117 0.60584 0.51277 1e-6 0.91666-0.20195 1.2117-0.60584 0.29501-0.40741 0.44252-0.96759 0.44253-1.6806-4.9e-6 -0.71296-0.14751-1.2714-0.44253-1.6753-0.29502-0.4074-0.69892-0.61111-1.2117-0.61111-0.51277 6e-6 -0.91667 0.20371-1.2117 0.61111-0.29151 0.4039-0.43726 0.96233-0.43726 1.6753"/>
  <path d="m14.583 17.056c-0.78321 3e-6 -1.3258 0.08956-1.6279 0.26868-0.30204 0.17912-0.45307 0.48468-0.45306 0.91667-1e-6 0.34419 0.11239 0.61814 0.33716 0.82184 0.22829 0.20019 0.53735 0.30029 0.9272 0.30029 0.53735 1e-6 0.96759-0.18965 1.2907-0.56896 0.32662-0.38282 0.48994-0.89032 0.48994-1.5225v-0.216h-0.96408m1.9334-0.40038v3.3664h-0.96935v-0.89559c-0.22127 0.35824-0.49697 0.6234-0.82711 0.7955-0.33014 0.16858-0.73404 0.25287-1.2117 0.25287-0.60409 0-1.0853-0.16858-1.4435-0.50575-0.35473-0.34068-0.53209-0.7955-0.53209-1.3645 0-0.66379 0.22126-1.1643 0.66379-1.5014 0.44604-0.33716 1.1098-0.50574 1.9914-0.50575h1.3592v-0.09483c-5e-6 -0.44604-0.14751-0.79022-0.44253-1.0326-0.29151-0.24584-0.70243-0.36877-1.2328-0.36877-0.33717 5e-6 -0.66555 0.04039-0.98515 0.12117-0.31961 0.08078-0.62692 0.20195-0.92194 0.36351v-0.89559c0.35472-0.13697 0.69891-0.23882 1.0326-0.30556 0.33365-0.07024 0.65852-0.10536 0.97462-0.10536 0.85344 7e-6 1.4909 0.22127 1.9124 0.66379 0.42145 0.44253 0.63218 1.1134 0.63218 2.0125"/>
  <path d="m19.477 12.447v1.6753h1.9966v0.75335h-1.9966v3.2031c-2e-6 0.48116 0.06497 0.79023 0.19492 0.9272 0.13346 0.13697 0.40214 0.20546 0.80603 0.20546h0.99569v0.8113h-0.99569c-0.74809 0-1.2644-0.13873-1.5489-0.41619-0.28448-0.28097-0.42672-0.79023-0.42672-1.5278v-3.2031h-0.71121v-0.75335h0.71121v-1.6753h0.97462"/>
  <path d="m25.435 17.056c-0.78321 3e-6 -1.3258 0.08956-1.6279 0.26868-0.30204 0.17912-0.45307 0.48468-0.45306 0.91667-2e-6 0.34419 0.11239 0.61814 0.33716 0.82184 0.22829 0.20019 0.53735 0.30029 0.9272 0.30029 0.53735 1e-6 0.96759-0.18965 1.2907-0.56896 0.32662-0.38282 0.48994-0.89032 0.48994-1.5225v-0.216h-0.96408m1.9334-0.40038v3.3664h-0.96935v-0.89559c-0.22127 0.35824-0.49697 0.6234-0.82711 0.7955-0.33014 0.16858-0.73404 0.25287-1.2117 0.25287-0.60409 0-1.0853-0.16858-1.4435-0.50575-0.35473-0.34068-0.53209-0.7955-0.53209-1.3645-1e-6 -0.66379 0.22126-1.1643 0.66379-1.5014 0.44604-0.33716 1.1098-0.50574 1.9914-0.50575h1.3592v-0.09483c-4e-6 -0.44604-0.14751-0.79022-0.44253-1.0326-0.29151-0.24584-0.70243-0.36877-1.2328-0.36877-0.33717 5e-6 -0.66555 0.04039-0.98515 0.12117-0.31961 0.08078-0.62692 0.20195-0.92194 0.36351v-0.89559c0.35472-0.13697 0.69891-0.23882 1.0326-0.30556 0.33365-0.07024 0.65852-0.10536 0.97462-0.10536 0.85344 7e-6 1.4909 0.22127 1.9124 0.66379 0.42145 0.44253 0.63218 1.1134 0.63218 2.0125"/>
 </g>
</svg>
