<?xml version="1.0" encoding="UTF-8" standalone="no"?>
<!-- Created with Inkscape (http://www.inkscape.org/) -->

<svg
   xmlns:dc="http://purl.org/dc/elements/1.1/"
   xmlns:cc="http://creativecommons.org/ns#"
   xmlns:rdf="http://www.w3.org/1999/02/22-rdf-syntax-ns#"
   xmlns:svg="http://www.w3.org/2000/svg"
   xmlns="http://www.w3.org/2000/svg"
   version="1.1"
   width="100%"
   height="100%"
   viewBox="0 0 32 32"
   id="svg4275"
   xml:space="preserve"><metadata
     id="metadata4303"><rdf:RDF><cc:Work
         rdf:about=""><dc:format>image/svg+xml</dc:format><dc:type
           rdf:resource="http://purl.org/dc/dcmitype/StillImage" /><dc:title></dc:title></cc:Work></rdf:RDF></metadata><defs
     id="defs4301"><filter
       x="-0.33807367"
       y="-0.42624661"
       width="1.6761473"
       height="1.8524932"
       color-interpolation-filters="sRGB"
       id="filter3943"><feGaussianBlur
         id="feGaussianBlur3945"
         stdDeviation="1.16241" /></filter><filter
       x="-0.3533161"
       y="-0.42546651"
       width="1.7066323"
       height="1.850933"
       color-interpolation-filters="sRGB"
       id="filter3947"><feGaussianBlur
         id="feGaussianBlur3949"
         stdDeviation="1.16241" /></filter><filter
       x="-0.34981617"
       y="-0.42520714"
       width="1.6996324"
       height="1.8504143"
       color-interpolation-filters="sRGB"
       id="filter3951"><feGaussianBlur
         id="feGaussianBlur3953"
         stdDeviation="1.16241" /></filter><filter
       x="-0.34548408"
       y="-0.41976887"
       width="1.6909682"
       height="1.8395379"
       color-interpolation-filters="sRGB"
       id="filter3955"><feGaussianBlur
         id="feGaussianBlur3957"
         stdDeviation="1.16241" /></filter></defs><g
     id="g3959"><polygon
       points="28.095,10.325 26.996,8.802 22.393,12.264 21.201,10.608 20.02,15.224 24.684,15.448 23.488,13.785 "
       transform="translate(0.11748671,0.92428829)"
       id="polygon4281-7"
       style="fill:#000000;filter:url(#filter3955)" /><polygon
       points="26.968,24.394 28.044,22.933 23.491,19.431 24.671,17.833 20.069,17.94 21.237,22.488 22.416,20.892 "
       transform="translate(0.11748671,0.92428829)"
       id="polygon4287-5"
       style="fill:#000000;filter:url(#filter3951)" /><polygon
       points="5.118,22.968 6.202,24.392 10.702,20.813 11.887,22.369 13.014,17.835 8.434,17.838 9.618,19.391 "
       transform="translate(0.11748671,0.92428829)"
       id="polygon4291-3"
       style="fill:#000000;filter:url(#filter3947)" /><polygon
       points="5.971,8.852 4.94,10.418 9.675,13.685 8.543,15.397 13.192,14.976 11.837,10.404 10.709,12.119 "
       transform="translate(0.11748671,0.92428829)"
       id="polygon4295-5"
       style="fill:#000000;filter:url(#filter3943)" /></g><path
     d="M 18.462,31.115"
     id="path4277"
     style="stroke:#ffffff;stroke-width:0.50999999;stroke-miterlimit:10" /><polygon
     points="24.684,15.448 23.488,13.785 28.095,10.325 26.996,8.802 22.393,12.264 21.201,10.608 20.02,15.224 "
     id="polygon4281"
     style="fill:#ed1c24" /><rect
     width="26.216"
     height="2.7049999"
     x="3.4130001"
     y="5.1230001"
     id="rect4283"
     style="fill:#ffffff;stroke:#000000;stroke-width:0.2;stroke-miterlimit:10" /><polygon
     points="21.237,22.488 22.416,20.892 26.968,24.394 28.044,22.933 23.491,19.431 24.671,17.833 20.069,17.94 "
     id="polygon4287"
     style="fill:#ed1c24" /><polygon
     points="8.434,17.838 9.618,19.391 5.118,22.968 6.202,24.392 10.702,20.813 11.887,22.369 13.014,17.835 "
     id="polygon4291"
     style="fill:#ed1c24" /><polygon
     points="11.837,10.404 10.709,12.119 5.971,8.852 4.94,10.418 9.675,13.685 8.543,15.397 13.192,14.976 "
     id="polygon4295"
     style="fill:#ed1c24" /><rect
     width="26.580999"
     height="19.924999"
     x="3.0480001"
     y="5.1230001"
     id="rect4297"
     style="fill:none;stroke:#000000;stroke-width:0.89999998;stroke-miterlimit:10" /></svg>