<?xml version="1.0" encoding="UTF-8"?>
<svg version="1.1" viewBox="0 0 32 32" xml:space="preserve" xmlns="http://www.w3.org/2000/svg"><defs><filter id="d" x="-.33807" y="-.42625" width="1.6761" height="1.8525" color-interpolation-filters="sRGB"><feGaussianBlur stdDeviation="1.16241"/></filter><filter id="c" x="-.35332" y="-.42547" width="1.7066" height="1.8509" color-interpolation-filters="sRGB"><feGaussianBlur stdDeviation="1.16241"/></filter><filter id="b" x="-.34982" y="-.42521" width="1.6996" height="1.8504" color-interpolation-filters="sRGB"><feGaussianBlur stdDeviation="1.16241"/></filter><filter id="a" x="-.34548" y="-.41977" width="1.691" height="1.8395" color-interpolation-filters="sRGB"><feGaussianBlur stdDeviation="1.16241"/></filter></defs><polygon transform="translate(.11749 .92429)" points="28.095 10.325 26.996 8.802 22.393 12.264 21.201 10.608 20.02 15.224 24.684 15.448 23.488 13.785" filter="url(#a)"/><polygon transform="translate(.11749 .92429)" points="26.968 24.394 28.044 22.933 23.491 19.431 24.671 17.833 20.069 17.94 21.237 22.488 22.416 20.892" filter="url(#b)"/><polygon transform="translate(.11749 .92429)" points="5.118 22.968 6.202 24.392 10.702 20.813 11.887 22.369 13.014 17.835 8.434 17.838 9.618 19.391" filter="url(#c)"/><polygon transform="translate(.11749 .92429)" points="5.971 8.852 4.94 10.418 9.675 13.685 8.543 15.397 13.192 14.976 11.837 10.404 10.709 12.119" filter="url(#d)"/><path d="m18.462 31.115" stroke="#fff" stroke-miterlimit="10" stroke-width=".51"/><polygon points="24.684 15.448 23.488 13.785 28.095 10.325 26.996 8.802 22.393 12.264 21.201 10.608 20.02 15.224" fill="#ed1c24"/><rect x="3.413" y="5.123" width="26.216" height="2.705" fill="#fff" stroke="#000" stroke-miterlimit="10" stroke-width=".2"/><polygon points="21.237 22.488 22.416 20.892 26.968 24.394 28.044 22.933 23.491 19.431 24.671 17.833 20.069 17.94" fill="#ed1c24"/><polygon points="8.434 17.838 9.618 19.391 5.118 22.968 6.202 24.392 10.702 20.813 11.887 22.369 13.014 17.835" fill="#ed1c24"/><polygon points="11.837 10.404 10.709 12.119 5.971 8.852 4.94 10.418 9.675 13.685 8.543 15.397 13.192 14.976" fill="#ed1c24"/><rect x="3.048" y="5.123" width="26.581" height="19.925" fill="none" stroke="#000" stroke-miterlimit="10" stroke-width=".9"/></svg>
