<?xml version="1.0" encoding="UTF-8" standalone="no"?>
<!-- Created with Inkscape (http://www.inkscape.org/) -->

<svg
   xmlns:dc="http://purl.org/dc/elements/1.1/"
   xmlns:cc="http://creativecommons.org/ns#"
   xmlns:rdf="http://www.w3.org/1999/02/22-rdf-syntax-ns#"
   xmlns:svg="http://www.w3.org/2000/svg"
   xmlns="http://www.w3.org/2000/svg"
   version="1.1"
   width="32"
   height="32"
   id="svg2">
  <defs
     id="defs20" />
  <metadata
     id="metadata4">
    <rdf:RDF>
      <cc:Work
         rdf:about="">
        <dc:format>image/svg+xml</dc:format>
        <dc:type
           rdf:resource="http://purl.org/dc/dcmitype/StillImage" />
        <dc:title></dc:title>
      </cc:Work>
    </rdf:RDF>
  </metadata>
  <rect
     width="25.218964"
     height="16.0072"
     ry="0"
     x="3.4067793"
     y="7.3389831"
     id="rect14"
     style="fill:#f7941e;fill-opacity:0.81568998;stroke:#000000;stroke-width:1.39999998;stroke-miterlimit:2;stroke-dasharray:none;stroke-dashoffset:0" />
  <g
     transform="matrix(0.89444962,0,0,0.89444962,1.3023868,0.77355183)"
     id="text3002"
     style="font-size:10.78927422px;font-style:normal;font-weight:normal;line-height:125%;letter-spacing:0px;word-spacing:0px;fill:#000000;fill-opacity:1;stroke:none;font-family:Sans">
    <path
       d="m 8.9353436,15.01748 0,-3.192529 0.9693488,0 0,8.197319 -0.9693488,0 0,-0.885057 c -0.2037085,0.351213 -0.46185,0.612867 -0.7744255,0.784961 -0.3090715,0.168583 -0.6813573,0.252874 -1.1168584,0.252874 -0.7129654,0 -1.294223,-0.284483 -1.7437743,-0.853448 -0.4460418,-0.568965 -0.6690621,-1.317048 -0.6690615,-2.244254 -6e-7,-0.927199 0.2230197,-1.675283 0.6690615,-2.244253 0.4495513,-0.56896 1.0308089,-0.853442 1.7437743,-0.853449 0.4355011,7e-6 0.8077869,0.08605 1.1168584,0.258142 0.3125755,0.168588 0.570717,0.428486 0.7744255,0.779694 M 5.632182,17.077346 c -1.6e-6,0.712966 0.1457518,1.27315 0.4372606,1.680556 0.2950169,0.403896 0.6989118,0.605844 1.2116861,0.605843 0.5127677,10e-7 0.9166627,-0.201947 1.211686,-0.605843 0.2950145,-0.407406 0.442524,-0.96759 0.4425289,-1.680556 -4.9e-6,-0.712959 -0.1475144,-1.271388 -0.4425289,-1.675287 -0.2950233,-0.407403 -0.6989183,-0.611106 -1.211686,-0.611112 -0.5127743,6e-6 -0.9166692,0.203709 -1.2116861,0.611112 -0.2915088,0.403899 -0.4372622,0.962328 -0.4372606,1.675287"
       id="path3007" />
    <path
       d="m 14.582854,17.056273 c -0.783208,3e-6 -1.325832,0.08956 -1.627874,0.268679 -0.302045,0.179121 -0.453066,0.484676 -0.453065,0.916667 -1e-6,0.34419 0.112387,0.618136 0.337165,0.821839 0.228287,0.200192 0.537354,0.300288 0.927203,0.300287 0.537353,10e-7 0.967589,-0.189654 1.290709,-0.568965 0.326624,-0.382821 0.489938,-0.890324 0.489943,-1.52251 l 0,-0.215997 -0.964081,0 m 1.93343,-0.400383 0,3.36638 -0.969349,0 0,-0.895594 c -0.221269,0.358238 -0.496971,0.623404 -0.827107,0.795498 -0.330144,0.168583 -0.734039,0.252874 -1.211686,0.252874 -0.604089,0 -1.085251,-0.168582 -1.443487,-0.505747 -0.354727,-0.340676 -0.532089,-0.795497 -0.532089,-1.364464 0,-0.663791 0.221264,-1.164269 0.663794,-1.501437 0.446039,-0.337161 1.109831,-0.505744 1.991379,-0.505747 l 1.359196,0 0,-0.09483 c -5e-6,-0.446037 -0.147514,-0.790225 -0.442529,-1.032567 -0.291511,-0.245845 -0.70243,-0.368769 -1.232759,-0.368774 -0.337167,5e-6 -0.665551,0.04039 -0.985153,0.121168 -0.319606,0.08078 -0.626917,0.201953 -0.921935,0.363506 l 0,-0.895594 c 0.354724,-0.136967 0.698913,-0.238819 1.032567,-0.305556 0.33365,-0.07024 0.658522,-0.105357 0.974617,-0.105364 0.853445,7e-6 1.490896,0.221271 1.912357,0.663794 0.42145,0.442533 0.632178,1.11335 0.632184,2.012452"
       id="path3009" />
    <path
       d="m 19.477012,12.446598 0,1.675288 1.996648,0 0,0.753353 -1.996648,0 0,3.203065 c -2e-6,0.481164 0.06497,0.790231 0.194924,0.927204 0.133458,0.136974 0.402136,0.20546 0.806034,0.205459 l 0.99569,0 0,0.811303 -0.99569,0 c -0.748086,0 -1.264369,-0.138729 -1.548851,-0.416188 -0.284483,-0.28097 -0.426725,-0.790228 -0.426724,-1.527778 l 0,-3.203065 -0.711207,0 0,-0.753353 0.711207,0 0,-1.675288 0.974617,0"
       id="path3011" />
    <path
       d="m 25.435347,17.056273 c -0.783209,3e-6 -1.325833,0.08956 -1.627874,0.268679 -0.302045,0.179121 -0.453067,0.484676 -0.453065,0.916667 -2e-6,0.34419 0.112386,0.618136 0.337164,0.821839 0.228287,0.200192 0.537354,0.300288 0.927204,0.300287 0.537353,10e-7 0.967589,-0.189654 1.290709,-0.568965 0.326624,-0.382821 0.489938,-0.890324 0.489942,-1.52251 l 0,-0.215997 -0.96408,0 m 1.933429,-0.400383 0,3.36638 -0.969349,0 0,-0.895594 c -0.221269,0.358238 -0.496971,0.623404 -0.827107,0.795498 -0.330144,0.168583 -0.734039,0.252874 -1.211686,0.252874 -0.604089,0 -1.085251,-0.168582 -1.443487,-0.505747 -0.354726,-0.340676 -0.532089,-0.795497 -0.532088,-1.364464 -10e-7,-0.663791 0.221263,-1.164269 0.663793,-1.501437 0.446039,-0.337161 1.109832,-0.505744 1.99138,-0.505747 l 1.359195,0 0,-0.09483 c -4e-6,-0.446037 -0.147514,-0.790225 -0.442528,-1.032567 -0.291511,-0.245845 -0.702431,-0.368769 -1.232759,-0.368774 -0.337168,5e-6 -0.665552,0.04039 -0.985154,0.121168 -0.319606,0.08078 -0.626917,0.201953 -0.921935,0.363506 l 0,-0.895594 c 0.354724,-0.136967 0.698913,-0.238819 1.032567,-0.305556 0.333651,-0.07024 0.658523,-0.105357 0.974617,-0.105364 0.853445,7e-6 1.490897,0.221271 1.912357,0.663794 0.421451,0.442533 0.632179,1.11335 0.632184,2.012452"
       id="path3013" />
  </g>
</svg>
