<?xml version="1.0" encoding="UTF-8" standalone="no"?>
<!-- Created with Inkscape (http://www.inkscape.org/) -->

<svg
   xmlns:dc="http://purl.org/dc/elements/1.1/"
   xmlns:cc="http://creativecommons.org/ns#"
   xmlns:rdf="http://www.w3.org/1999/02/22-rdf-syntax-ns#"
   xmlns:svg="http://www.w3.org/2000/svg"
   xmlns="http://www.w3.org/2000/svg"
   version="1.1"
   width="100%"
   height="100%"
   viewBox="0 0 32 32"
   id="svg3005"
   xml:space="preserve"><metadata
     id="metadata3035"><rdf:RDF><cc:Work
         rdf:about=""><dc:format>image/svg+xml</dc:format><dc:type
           rdf:resource="http://purl.org/dc/dcmitype/StillImage" /><dc:title></dc:title></cc:Work></rdf:RDF></metadata><defs
     id="defs3033"><filter
       x="-0.11942703"
       y="-0.18130475"
       width="1.2388541"
       height="1.3626095"
       color-interpolation-filters="sRGB"
       id="filter3804"><feGaussianBlur
         id="feGaussianBlur3806"
         stdDeviation="1.05051" /></filter></defs><rect
     width="27.627001"
     height="20.344"
     x="2.688"
     y="5.8280001"
     id="rect3011"
     style="fill:#ffffff;stroke:#000000;stroke-width:0.69999999;stroke-miterlimit:10" /><rect
     width="26.986"
     height="2.681"
     x="3.0090001"
     y="5.8280001"
     id="rect3013"
     style="fill:#ffffff;stroke:#000000;stroke-width:0.2;stroke-miterlimit:10" /><g
     transform="translate(0.04793944,-3.4995793)"
     id="g6066"
     style="fill:#000000;filter:url(#filter3804)"><polygon
       points="10.365,24.588 9.183,23.109 13.122,19.823 12.04,18.469 8.102,21.758 6.92,20.279 6.145,24.518 "
       transform="translate(-0.06551334,4.603172)"
       id="polygon3017-1"
       style="fill:#000000" /><polygon
       points="22.924,10.866 24.206,12.38 20.324,15.808 21.498,17.193 25.38,13.763 26.657,15.271 27.256,10.894 "
       transform="translate(-0.06551334,4.603172)"
       id="polygon3021-2"
       style="fill:#000000" /><polygon
       points="6.718,15.227 8.002,13.709 11.862,17.123 13.036,15.735 9.178,12.323 10.463,10.808 6.145,10.85 "
       transform="translate(-0.06551334,4.603172)"
       id="polygon3025-7"
       style="fill:#000000" /><polygon
       points="26.391,20.21 25.248,21.758 21.257,18.677 20.215,20.09 24.206,23.168 23.063,24.714 27.256,24.415 "
       transform="translate(-0.06551334,4.603172)"
       id="polygon3029-0"
       style="fill:#000000" /></g><polygon
     points="9.183,23.109 13.122,19.823 12.04,18.469 8.102,21.758 6.92,20.279 6.145,24.518 10.365,24.588 "
     id="polygon3017"
     style="fill:#ed1c24" /><polygon
     points="24.206,12.38 20.324,15.808 21.498,17.193 25.38,13.763 26.657,15.271 27.256,10.894 22.924,10.866 "
     id="polygon3021"
     style="fill:#ed1c24" /><polygon
     points="8.002,13.709 11.862,17.123 13.036,15.735 9.178,12.323 10.463,10.808 6.145,10.85 6.718,15.227 "
     id="polygon3025"
     style="fill:#ed1c24" /><polygon
     points="25.248,21.758 21.257,18.677 20.215,20.09 24.206,23.168 23.063,24.714 27.256,24.415 26.391,20.21 "
     id="polygon3029"
     style="fill:#ed1c24" /></svg>