<?xml version="1.0" encoding="UTF-8" standalone="no"?>
<!-- Created with Inkscape (http://www.inkscape.org/) -->

<svg
   xmlns:dc="http://purl.org/dc/elements/1.1/"
   xmlns:cc="http://creativecommons.org/ns#"
   xmlns:rdf="http://www.w3.org/1999/02/22-rdf-syntax-ns#"
   xmlns:svg="http://www.w3.org/2000/svg"
   xmlns="http://www.w3.org/2000/svg"
   xmlns:inkscape="http://www.inkscape.org/namespaces/inkscape"
   version="1.1"
   width="100%"
   height="100%"
   viewBox="0 0 32 32"
   id="svg2"
   xml:space="preserve"><metadata
     id="metadata16"><rdf:RDF><cc:Work
         rdf:about=""><dc:format>image/svg+xml</dc:format><dc:type
           rdf:resource="http://purl.org/dc/dcmitype/StillImage" /></cc:Work></rdf:RDF></metadata><defs
     id="defs14" /><path
     d="M 27.433,12.199 C 22.826,3.239 11.787,3.033 8.074,12.794 5.616,12.082 4.388,11.727 1.93,11.014 c 5.262,-12.507 22.627,-12.86 26.917,0.597 -0.567,0.234 -0.85,0.353 -1.414,0.588 z"
     inkscape:connector-curvature="0"
     id="path4"
     style="fill:#00a651;stroke:#00a651;stroke-miterlimit:10" /><path
     d="m 5.083,19.917 c 4.676,8.426 15.219,8.544 18.909,-0.728 2.47,0.721 3.708,1.075 6.2,1.762 C 25.04,33.107 8.285,33.617 3.602,20.786 4.196,20.425 4.493,20.25 5.083,19.917 z"
     inkscape:connector-curvature="0"
     id="path6"
     style="fill:#f7941e;stroke:#f7941e;stroke-miterlimit:10" /><polygon
     points="5.909,21.146 1.634,23.639 2.355,13.137 5.812,16.029 9.457,19.078 "
     id="polygon8"
     style="fill:#f7941e;stroke:#f7941e;stroke-miterlimit:10" /><polygon
     points="26.533,9.5 30.686,6.475 29.58,18.389 25.758,14.432 21.852,10.77 "
     id="polygon10"
     style="fill:#00a651;stroke:#00a651;stroke-miterlimit:10" /></svg>