<?xml version="1.0" encoding="utf-8"?>
<!-- Generator: Adobe Illustrator 16.0.0, SVG Export Plug-In . SVG Version: 6.00 Build 0)  -->
<!DOCTYPE svg PUBLIC "-//W3C//DTD SVG 1.1//EN" "http://www.w3.org/Graphics/SVG/1.1/DTD/svg11.dtd" [
	<!ENTITY ns_flows "http://ns.adobe.com/Flows/1.0/">
	<!ENTITY ns_extend "http://ns.adobe.com/Extensibility/1.0/">
	<!ENTITY ns_ai "http://ns.adobe.com/AdobeIllustrator/10.0/">
	<!ENTITY ns_graphs "http://ns.adobe.com/Graphs/1.0/">
]>
<svg version="1.1" id="Layer_1" xmlns:x="&ns_extend;" xmlns:i="&ns_ai;" xmlns:graph="&ns_graphs;"
	 xmlns="http://www.w3.org/2000/svg" xmlns:xlink="http://www.w3.org/1999/xlink" xmlns:a="http://ns.adobe.com/AdobeSVGViewerExtensions/3.0/"
	 x="0px" y="0px" width="32px" height="32px" viewBox="0 0 32 32" enable-background="new 0 0 32 32" xml:space="preserve">
<g>
	<path fill="#00A651" stroke="#00A651" stroke-miterlimit="10" d="M27.433,12.199c-4.607-8.96-15.646-9.166-19.359,0.595
		c-2.458-0.712-3.686-1.067-6.144-1.78c5.262-12.507,22.627-12.86,26.917,0.597C28.28,11.845,27.997,11.964,27.433,12.199z"/>
</g>
<g>
	<path fill="#F7941E" stroke="#F7941E" stroke-miterlimit="10" d="M5.083,19.917c4.676,8.426,15.219,8.544,18.909-0.728
		c2.47,0.721,3.708,1.075,6.2,1.762C25.04,33.107,8.285,33.617,3.602,20.786C4.196,20.425,4.493,20.25,5.083,19.917z"/>
</g>
<polygon fill="#F7941E" stroke="#F7941E" stroke-miterlimit="10" points="1.634,23.639 2.355,13.137 5.812,16.029 9.457,19.078 
	5.909,21.146 "/>
<polygon fill="#00A651" stroke="#00A651" stroke-miterlimit="10" points="30.686,6.475 29.58,18.389 25.758,14.432 21.852,10.77 
	26.533,9.5 "/>
</svg>
