<?xml version="1.0" encoding="UTF-8"?>
<svg version="1.1" viewBox="0 0 32 32" xml:space="preserve" xmlns="http://www.w3.org/2000/svg"><path d="m27.433 12.199c-4.607-8.96-15.646-9.166-19.359 0.595-2.458-0.712-3.686-1.067-6.144-1.78 5.262-12.507 22.627-12.86 26.917 0.597-0.567 0.234-0.85 0.353-1.414 0.588z" fill="#00a651" stroke="#00a651" stroke-miterlimit="10"/><path d="m5.083 19.917c4.676 8.426 15.219 8.544 18.909-0.728 2.47 0.721 3.708 1.075 6.2 1.762-5.152 12.156-21.907 12.666-26.59-0.165 0.594-0.361 0.891-0.536 1.481-0.869z" fill="#f7941e" stroke="#f7941e" stroke-miterlimit="10"/><polygon points="5.909 21.146 1.634 23.639 2.355 13.137 5.812 16.029 9.457 19.078" fill="#f7941e" stroke="#f7941e" stroke-miterlimit="10"/><polygon points="26.533 9.5 30.686 6.475 29.58 18.389 25.758 14.432 21.852 10.77" fill="#00a651" stroke="#00a651" stroke-miterlimit="10"/></svg>
