<?xml version="1.0" encoding="utf-8"?>
<!-- Generator: Adobe Illustrator 16.0.0, SVG Export Plug-In . SVG Version: 6.00 Build 0)  -->
<!DOCTYPE svg PUBLIC "-//W3C//DTD SVG 1.1//EN" "http://www.w3.org/Graphics/SVG/1.1/DTD/svg11.dtd" [
	<!ENTITY ns_flows "http://ns.adobe.com/Flows/1.0/">
	<!ENTITY ns_extend "http://ns.adobe.com/Extensibility/1.0/">
	<!ENTITY ns_ai "http://ns.adobe.com/AdobeIllustrator/10.0/">
	<!ENTITY ns_graphs "http://ns.adobe.com/Graphs/1.0/">
]>
<svg version="1.1" id="Layer_1" xmlns:x="&ns_extend;" xmlns:i="&ns_ai;" xmlns:graph="&ns_graphs;"
	 xmlns="http://www.w3.org/2000/svg" xmlns:xlink="http://www.w3.org/1999/xlink" xmlns:a="http://ns.adobe.com/AdobeSVGViewerExtensions/3.0/"
	 x="0px" y="0px" width="32px" height="32px" viewBox="0 0 32 32" enable-background="new 0 0 32 32" xml:space="preserve">
<path stroke="#FFFFFF" stroke-width="0.51" stroke-miterlimit="10" d="M18.462,31.115"/>
<g>
	<g>
		<path fill="#F7941E" stroke="#F7941E" stroke-width="0.1" stroke-miterlimit="10" d="M24.653,7.496
			C13.689,7.389,14.58,18.149,14.387,18.47c0,0,0.193-7.139,10.267-6.713V7.496z"/>
		<g>
			<path fill="#F7941E" d="M24.653,5.819c0-0.17,0.122-0.243,0.271-0.16l6.169,3.403c0.149,0.083,0.157,0.23,0.018,0.328
				l-6.204,4.348c-0.14,0.098-0.254,0.038-0.254-0.132V5.819z"/>
			<path fill="none" stroke="#F7941E" stroke-miterlimit="10" d="M24.653,5.819c0-0.17,0.122-0.243,0.271-0.16l6.169,3.403
				c0.149,0.083,0.157,0.23,0.018,0.328l-6.204,4.348c-0.14,0.098-0.254,0.038-0.254-0.132V5.819z"/>
		</g>
	</g>
	<g>
		<defs>
			<polygon id="SVGID_1_" points="23.478,18.148 29.488,13.594 29.488,28.585 2.505,29.804 0.69,7.484 16.967,6.267 12.083,13.194 
							"/>
		</defs>
		<clipPath id="SVGID_2_">
			<use xlink:href="#SVGID_1_"  overflow="visible"/>
		</clipPath>
		<g clip-path="url(#SVGID_2_)">
			<path fill="none" stroke="#F7941E" stroke-width="2.5" stroke-miterlimit="10" d="M26.296,24.612c0,0.28-0.229,0.51-0.51,0.51
				H6.208c-0.28,0-0.51-0.229-0.51-0.51V10.496c0-0.28,0.229-0.51,0.51-0.51h19.579c0.28,0,0.51,0.229,0.51,0.51V24.612z"/>
		</g>
	</g>
</g>
</svg>
