<?xml version="1.0" encoding="UTF-8" standalone="no"?>
<!-- Created with Inkscape (http://www.inkscape.org/) -->

<svg
   xmlns:dc="http://purl.org/dc/elements/1.1/"
   xmlns:cc="http://creativecommons.org/ns#"
   xmlns:rdf="http://www.w3.org/1999/02/22-rdf-syntax-ns#"
   xmlns:svg="http://www.w3.org/2000/svg"
   xmlns="http://www.w3.org/2000/svg"
   xmlns:xlink="http://www.w3.org/1999/xlink"
   version="1.1"
   width="100%"
   height="100%"
   viewBox="0 0 32 32"
   id="svg2"
   xml:space="preserve"><metadata
     id="metadata24"><rdf:RDF><cc:Work
         rdf:about=""><dc:format>image/svg+xml</dc:format><dc:type
           rdf:resource="http://purl.org/dc/dcmitype/StillImage" /><dc:title></dc:title></cc:Work></rdf:RDF></metadata><path
     d="M 24.653,7.496 C 13.689,7.389 14.58,18.149 14.387,18.47 c 0,0 0.193,-7.139 10.267,-6.713 V 7.496 z"
     id="path6"
     style="fill:#f7941e;stroke:#f7941e;stroke-width:0.1;stroke-miterlimit:10" /><path
     d="m 24.653,5.819 c 0,-0.17 0.122,-0.243 0.271,-0.16 l 6.169,3.403 c 0.149,0.083 0.157,0.23 0.018,0.328 l -6.204,4.348 c -0.14,0.098 -0.254,0.038 -0.254,-0.132 V 5.819 z"
     id="path10"
     style="fill:#f7941e;fill-opacity:1;stroke:#f7941e;stroke-miterlimit:10" /><defs
     id="defs12"><polygon
       points="2.505,29.804 0.69,7.484 16.967,6.267 12.083,13.194 23.478,18.148 29.488,13.594 29.488,28.585 "
       id="b" /><clipPath
       id="a-3"><use
         id="use16-6"
         style="overflow:visible"
         x="0"
         y="0"
         width="32"
         height="32"
         xlink:href="#b" /></clipPath></defs><path
     d="M 6.21875,8.75 C 5.2556622,8.75 4.4375,9.5384524 4.4375,10.5 l 0,14.125 c 0,0.963088 0.8197024,1.75 1.78125,1.75 l 19.5625,0 c 0.456817,0 0.872767,-0.208524 1.1875,-0.5 0.394494,-0.391361 0.545811,-0.733107 0.59375,-1.25 l 0,-9.625 -2.5,2.03125 c -0.0096,2.28115 0.03017,4.564259 -0.03125,6.84375 l -18.09375,0 0,-12.625 6.5625,0 1.6875,-2.5 z"
     id="path20-5"
     style="font-size:medium;font-style:normal;font-variant:normal;font-weight:normal;font-stretch:normal;text-indent:0;text-align:start;text-decoration:none;line-height:normal;letter-spacing:normal;word-spacing:normal;text-transform:none;direction:ltr;block-progression:tb;writing-mode:lr-tb;text-anchor:start;baseline-shift:baseline;color:#000000;fill:#f7941e;fill-opacity:1;stroke:none;stroke-width:2.5;marker:none;visibility:visible;display:inline;overflow:visible;enable-background:accumulate;font-family:Sans;-inkscape-font-specification:Sans" /></svg>