<?xml version="1.0" encoding="UTF-8" standalone="no"?>
<!-- Created with Inkscape (http://www.inkscape.org/) -->

<svg
   xmlns:dc="http://purl.org/dc/elements/1.1/"
   xmlns:cc="http://creativecommons.org/ns#"
   xmlns:rdf="http://www.w3.org/1999/02/22-rdf-syntax-ns#"
   xmlns:svg="http://www.w3.org/2000/svg"
   xmlns="http://www.w3.org/2000/svg"
   version="1.1"
   width="200"
   height="265.95523"
   viewBox="0 0 199.99999 265.95523"
   id="svg2"
   xml:space="preserve"><defs
     id="defs74" /><metadata
     id="metadata4"><rdf:RDF><cc:Work
         rdf:about=""><dc:format>image/svg+xml</dc:format><dc:type
           rdf:resource="http://purl.org/dc/dcmitype/StillImage" /><dc:title></dc:title></cc:Work></rdf:RDF></metadata><g
     transform="matrix(6.1124607,0,0,6.1124607,-42.004688,-11.552551)"
     id="g6"><polygon
       points="38.689,29.693 39.026,32.153 33.188,36.185 32.301,35.732 31.56,35.929 29.495,28.237 "
       id="polygon8"
       style="fill:#5a5b5d" /><path
       d="M 29.222,26.766 C 29.279,26.645 26.99,26.557 26.99,26.557 l -4.19,3.048 4.559,7.404 4.322,-1.051 -2.459,-9.192 z"
       id="path10"
       style="fill:#808285" /><path
       d="m 24.472,1.89 c 0,0 -4.283,2.305 -4.828,2.497 -0.546,0.189 -4.033,3.568 -3.404,3.791 0.628,0.223 3.772,1.429 3.772,1.429 L 26.414,5.893 25.73,3.523 24.472,1.89"
       id="path12"
       style="fill:#dcddde" /><path
       d="m 16.067,8.177 -1.303,1.925 c 0,0 -0.701,2.221 -1.167,3.446 -0.452,1.187 -1.11,2.632 -1.11,2.632 l 3.899,3.088 c 0,0 6.086,-2.344 5.914,-2.23 -0.171,0.114 -2.287,-7.432 -2.287,-7.432 L 16.067,8.177 z"
       id="path14"
       style="fill:#f8f8f9" /><path
       d="M 13.61,15.472"
       id="path16"
       style="fill:#939598" /><polygon
       points="8.219,24.074 7.666,28 12.923,33.159 15.439,27.157 11.453,23.67 9.931,19.558 "
       id="polygon18"
       style="fill:#dcddde" /><path
       d="m 7.666,28 c 0,0 -0.799,1.539 -0.794,2.701 0,1.164 0.396,3.087 0.396,3.087 L 8.185,36.429 15.531,34.437 13.155,33.159 7.666,28 z"
       id="path20"
       style="fill:#d1d3d4" /><path
       d="m 18.127,39.503 2.523,0.67 5.38,4.701 c 0,0 -8.99,0.824 -9.364,0.41 -0.371,-0.41 0.659,-2.008 0.088,-2.408 -0.571,-0.402 1.373,-3.373 1.373,-3.373 z"
       id="path22"
       style="fill:#58595b" /><path
       d="m 15.439,27.157 c 0,0 -2.625,5.788 -2.516,6.001 0.218,0.431 2.607,1.278 2.607,1.278 l 8.371,-5.678 -2.844,-11.251 -3.067,1.22 c 0,0 -3.294,5.58 -3.122,5.347 0.171,-0.234 0.571,3.083 0.571,3.083 z"
       id="path24"
       style="fill:#d1d3d4" /><path
       d="m 21.058,17.507 0.35,-0.081 1.83,-0.731 c 0,0 1.176,1.715 1.119,1.887 -0.059,0.171 2.766,1.713 2.766,1.713 0,0 -0.021,6.005 -0.251,6.261 -0.228,0.258 -2.969,2.203 -2.969,2.203 L 21.058,17.507 z"
       id="path26"
       style="fill:#808285" /><path
       d="m 20.299,40.275 c 0,0 6.674,-1.889 6.847,-2.002 0.171,-0.119 8.016,2.002 8.016,2.002 l -1.33,0.883 h -1.07 l -2.747,2.402 -3.984,1.314 -5.732,-4.599 z"
       id="path28"
       style="fill:#333334" /><polygon
       points="32.301,35.732 38.019,37.826 35.162,40.275 27.35,38.281 27.239,37.009 "
       id="polygon30"
       style="fill:#515254" /><path
       d="m 32.647,35.91 6.379,-3.757 c 0,0 0.555,2.034 0.566,2.376 0.007,0.348 -1.573,3.297 -1.573,3.297 L 32.647,35.91 z"
       id="path32"
       style="fill:#464547" /><polygon
       points="30.071,21.783 32.189,28.826 29.575,28.531 29.104,26.766 26.871,26.556 26.871,21.247 "
       id="polygon34"
       style="fill:#9fa1a4" /><path
       d="m 30.071,21.783 0.207,-0.131 5.299,-3.419 2.685,5.348 c 0,0 -0.294,4.035 -0.01,3.918 0.282,-0.112 0.437,2.194 0.437,2.194 l -6.5,-0.867 -2.118,-7.043 z"
       id="path36"
       style="fill:#464547" /><path
       d="M 26.031,5.748"
       id="path38"
       style="fill:#939598" /><polygon
       points="30.887,8.967 31.56,10.979 32.49,12.237 32.989,14.524 26.241,12.581 26.241,5.893 27.498,6.494 29.285,8.156 30.071,8.177 "
       id="polygon40"
       style="fill:#6d6e71" /><polygon
       points="26.974,21.783 30.071,21.783 35.578,18.233 32.989,14.524 29.575,15.381 24.156,18.583 26.708,21.247 "
       id="polygon42"
       style="fill:#5a5b5d" /><path
       d="m 26.241,5.893 c 0,0 -6.516,4 -6.229,3.714 0.025,-0.022 1.757,7.32 2.287,7.432 0.458,0.096 0.458,0.096 0.458,0.096 l 1.599,1.448 1.436,-4.059 0.449,-1.943 V 5.893 z"
       id="path44"
       style="fill:#939598" /><path
       d="m 8.185,36.429 7.579,-2.156 2.364,5.23 -1.465,2.957 0.264,0.75 -0.259,2.074 -2.654,-1.322 -1.545,-1.313 -1.486,-1.943 c 0,0 -1.011,-0.891 -1.028,-1.203 -0.022,-0.31 -1.77,-3.074 -1.77,-3.074 z"
       id="path46"
       style="fill:#808285" /><polygon
       points="16.386,19.268 12.487,16.18 10.696,17.753 9.931,19.558 11.453,23.67 15.439,27.157 14.869,24.074 17.991,18.727 "
       id="polygon48"
       style="fill:#ededee" /><polygon
       points="25.792,14.524 24.356,18.583 29.575,15.381 32.989,14.524 26.241,12.581 "
       id="polygon50"
       style="fill:#464547" /><path
       d="M 22.303,28.826"
       id="path52"
       style="fill:#a7a9ac" /><polygon
       points="32.148,39.503 39.094,35.732 38.019,37.826 33.832,41.158 31.022,42.675 "
       id="polygon54" /><polygon
       points="27.35,38.281 27.35,38.281 20.649,40.173 18.127,39.503 15.763,34.273 22.682,29.605 27.757,37.009 "
       id="polygon56"
       style="fill:#515254" /><path
       d="M 11.114,33.878"
       id="path58"
       style="fill:#939598" /><path
       d="m 18.264,25.999 c 0,0.965 -0.465,1.451 -1.394,1.457 l -4.407,-0.009 c -0.978,0.012 -1.469,0.259 -1.475,0.742 0.012,0.458 0.507,0.685 1.484,0.678 h 1.421 c 2.914,0.013 4.377,1.237 4.389,3.674 0,2.371 -1.46,3.563 -4.38,3.574 H 9.549 C 8.59,36.11 8.11,35.637 8.11,34.696 8.116,33.737 8.592,33.262 9.54,33.276 l 4.362,-0.027 c 0.977,-0.006 1.466,-0.254 1.466,-0.742 0,-0.496 -0.495,-0.74 -1.484,-0.734 h -1.42 C 9.562,31.767 8.111,30.573 8.111,28.19 v -0.045 c 0,-2.389 1.451,-3.587 4.353,-3.593 h 4.353 c 0.958,0.005 1.441,0.488 1.447,1.447 z"
       id="path60"
       style="fill:#f7941e;stroke:#ffffff;stroke-width:0.30000001;stroke-miterlimit:10" /><path
       d="m 20.37,24.288 c 0.923,0.006 1.394,0.497 1.411,1.471 v 8.955 c -0.011,0.986 -0.476,1.488 -1.394,1.508 -0.923,-0.025 -1.385,-0.527 -1.385,-1.508 v -8.946 c -0.006,-0.987 0.45,-1.48 1.368,-1.48 z"
       id="path62"
       style="fill:#f7941e;stroke:#ffffff;stroke-width:0.30000001;stroke-miterlimit:10" /><circle
       cx="20.290001"
       cy="20.566999"
       r="1.689"
       id="circle64"
       style="fill:#f7941e;stroke:#ffffff;stroke-width:0.30000001;stroke-miterlimit:10" /><path
       d="m 27.838,24.594 c 0.559,-0.001 0.979,0.115 1.263,0.351 0.283,0.236 1.279,1.245 2.986,3.026 1.727,-1.82 2.731,-2.847 3.014,-3.081 0.282,-0.233 0.702,-0.352 1.261,-0.353 0.545,-10e-4 0.964,0.119 1.257,0.36 0.28,0.229 0.421,0.574 0.422,1.035 v 0.063 c 0.001,0.515 -0.295,0.997 -0.887,1.445 l -2.841,2.923 2.865,2.88 c 0.587,0.477 0.882,0.938 0.883,1.379 0,0.031 -0.004,0.064 -0.011,0.1 v 0.119 c 0.001,0.43 -0.134,0.756 -0.405,0.98 -0.307,0.25 -0.732,0.369 -1.277,0.357 -0.572,0.008 -1.003,-0.117 -1.293,-0.373 -0.291,-0.258 -1.269,-1.258 -2.935,-3.004 -1.692,1.783 -2.681,2.801 -2.966,3.053 -0.285,0.252 -0.715,0.379 -1.287,0.381 h -0.042 c -0.523,0.002 -0.932,-0.117 -1.226,-0.352 -0.28,-0.223 -0.42,-0.551 -0.421,-0.98 v -0.117 c -0.007,-0.037 -0.01,-0.07 -0.01,-0.1 -10e-4,-0.443 0.291,-0.9 0.876,-1.375 L 30.042,30.408 27.062,27.5 C 26.467,27.053 26.17,26.572 26.168,26.058 v -0.063 c -10e-4,-0.46 0.138,-0.806 0.417,-1.036 0.29,-0.242 0.709,-0.364 1.253,-0.365 z"
       id="path66"
       style="fill:#f7941e;stroke:#ffffff;stroke-width:0.30000001;stroke-miterlimit:10" /><path
       d="m 25.549,35.16 c 0,0.551 -0.45,1 -1,1 h -0.845 c -0.55,0 -1,-0.449 -1,-1 V 15.277 c 0,-0.55 0.45,-1 1,-1 h 0.845 c 0.55,0 1,0.45 1,1 V 35.16 z"
       id="path68"
       style="fill:#f7941e" /><path
       d="m 25.549,35.16 c 0,0.551 -0.45,1 -1,1 h -0.845 c -0.55,0 -1,-0.449 -1,-1 V 15.277 c 0,-0.55 0.45,-1 1,-1 h 0.845 c 0.55,0 1,0.45 1,1 V 35.16 z"
       id="path70"
       style="fill:none;stroke:#ffffff;stroke-width:0.30000001;stroke-miterlimit:10" /></g></svg>